<svg xmlns="http://www.w3.org/2000/svg" xmlns:xlink="http://www.w3.org/1999/xlink" version="1.1" id="Layer_1" x="0" y="0" viewBox="0 0 630 26" enable-background="new 0 0 630 26" xml:space="preserve">
  <polygon fill="#231F20" points="170.2 11.5 154.8 11.5 154.8 0.8 153.3 0.8 153.3 25.2 154.8 25.2 154.8 12.8 170.2 12.8 170.2 25.2 171.6 25.2 171.6 0.8 170.2 0.8 "/>
  <path fill="#231F20" d="M196.9 0.4c-6.8 0-12.4 5.1-12.4 12.7 0 7.5 5.6 12.7 12.4 12.7 6.8 0 12.4-5.1 12.4-12.7C209.3 5.5 203.8 0.4 196.9 0.4zM196.9 24.4c-6.3 0-11-4.9-11-11.4 0-6.5 4.7-11.4 11-11.4 6.3 0 10.9 4.9 10.9 11.4C207.9 19.5 203.2 24.4 196.9 24.4z"/>
  <path fill="#231F20" d="M237.8 16.8c0 4.6-2.6 7.3-7.2 7.3 -4.7 0-7.2-2.7-7.2-7.3V1H222v15.9c0 5.4 3.4 8.5 8.6 8.5 5.2 0 8.7-3.1 8.7-8.5V1h-1.5V16.8z"/>
  <path fill="#231F20" d="M262.1 12.1l-2.3-1c-2.8-1.3-4.3-2.3-4.3-4.8 0-2.8 1.9-4.4 4.8-4.4 2.7 0 4.3 1.6 5.3 3.2l1.2-0.7c-1.2-1.8-3-3.7-6.5-3.7 -3.4 0-6.3 2-6.3 5.7 0 3.1 1.9 4.6 5.1 6l2.3 1c3.5 1.6 4.9 2.7 4.9 5.5 0 3-2.3 5.1-5.8 5.1 -4 0-5.6-2.1-6.8-4.3l-1.3 0.6c1.2 2.4 3.3 5 8.1 5 4.3 0 7.3-2.7 7.3-6.4C267.8 15.6 266.1 13.9 262.1 12.1z"/>
  <polygon fill="#231F20" points="284.2 13.2 295.7 13.2 295.7 12 284.2 12 284.2 2.2 295.9 2.2 295.9 1 282.8 1 282.8 25.1 296.4 25.1 296.4 23.8 284.2 23.8 "/>
  <path fill="#231F20" d="M512.7 0.3l-10.2 24.9h1.5l3.1-7.8h11.2l3.2 7.8h1.6L513 0.3H512.7zM517.9 16.1l-10.2 0 4.4-10.8c0.3-0.9 0.7-1.7 0.7-1.7s0.3 0.9 0.7 1.7L517.9 16.1z"/>
  <polygon fill="#231F20" points="612.2 0.8 612.2 2.1 620.4 2.1 620.4 25.2 621.9 25.2 621.9 2.1 630 2.1 630 0.8 "/>
  <path fill="#231F20" d="M548.2 7.3c0-4.9-3.9-6.5-8.5-6.5H535v24.4h1.5V13.8h3.3c0.1 0 0.1 0 0.2 0l8.4 11.4h1.7l-8.5-11.5C545.4 13.2 548.2 11.4 548.2 7.3zM539.8 12.5h-3.4V2.1h3.4c3.9 0 6.9 1.2 6.9 5.2C546.7 11.2 543.7 12.5 539.8 12.5z"/>
  <polygon fill="#231F20" points="477.9 22.5 468.8 0.1 463.3 25.2 464.8 25.2 469.2 4.8 469.3 4.8 477.9 26 486.6 4.8 486.7 4.8 491.1 25.2 492.6 25.2 487.1 0.1 "/>
  <polygon fill="#231F20" points="591.1 13.2 602.6 13.2 602.6 12 591.1 12 591.1 2.1 602.8 2.1 602.8 0.8 589.7 0.8 589.7 25.2 603.3 25.2 603.3 23.9 591.1 23.9 "/>
  <polygon fill="#231F20" points="58.2 9.7 47.9 9.7 47.9 0.8 42.9 0.8 42.9 25.2 47.9 25.2 47.9 14.1 58.2 14.1 58.2 25.2 63.2 25.2 63.2 0.8 58.2 0.8 "/>
  <rect x="78" y="0.8" fill="#231F20" width="5" height="24.4"/>
  <polygon fill="#231F20" points="128.3 14.6 137.4 14.6 137.4 10.3 128.3 10.3 128.3 5.2 137.6 5.2 137.6 0.8 123.3 0.8 123.3 25.2 138.1 25.2 138.1 20.8 128.3 20.8 "/>
  <polygon fill="#231F20" points="348.2 0.8 343.1 0.8 343.1 25.2 358.3 25.2 358.3 20.8 348.2 20.8 "/>
  <path fill="#231F20" d="M324.7 12c0.1 0 0.5 0.1 0.5 0.1 1.8-0.8 3.4-2.5 3.4-5 0-3.6-2.4-6.2-7.2-6.2h-8.7v24.4h9.4c5 0 7.9-3.1 7.9-7.1C329.9 14.6 327.8 12.6 324.7 12zM317.7 5.1h2.9c2 0 2.8 1 2.8 2.5 0 1.6-1 2.8-3.2 2.8h-2.6V5.1zM321.4 21h-3.7v-6.5h3.4c2.2 0 3.6 1.3 3.6 3.2C324.7 19.7 323.4 21 321.4 21z"/>
  <path fill="#231F20" d="M412.3 4.6c2.4 0 4.5 0.9 6.1 2.7l3.4-3.2c-2.5-2.7-5.5-4-9.5-4 -7.2 0-12.5 5.3-12.5 12.8 0 7.7 5.2 12.9 12.5 12.9 4 0 7.1-1.3 9.5-4l-3.3-3.1c-1.6 1.7-3.8 2.6-6.2 2.6 -4.6 0-7.6-3.4-7.6-8.4C404.7 8 407.8 4.6 412.3 4.6z"/>
  <polygon fill="#231F20" points="577.6 0.8 575.5 0.8 564 12.2 564 0.8 562.5 0.8 562.5 25.2 564 25.2 564 12.5 576.5 25.2 578.6 25.2 565.8 12.3 "/>
  <path fill="#231F20" d="M378.6 0L367 25.2h5l2.3-5.1h9.4l2.3 5.1h5.4L379.2 0H378.6zM381.8 16.2H376l0.8-1.8c0.8-1.8 2-5.1 2-5.1h0.2c0 0 1.3 3.3 2.1 5.1L381.8 16.2z"/>
  <polygon fill="#231F20" points="452.5 0.8 446.4 0.8 437.6 10.5 437.6 0.8 432.7 0.8 432.7 25.2 437.6 25.2 437.6 14.1 446.9 25.2 453.3 25.2 441.9 12.2 "/>
  <path fill="#231F20" d="M24.4 10.8c-0.6 1.7-1.4 4.4-1.4 4.4s-0.8-3-1.6-4.6l-4.7-10h-0.5l-4.7 10c-0.8 1.7-1.6 4.6-1.6 4.6s-0.8-2.7-1.4-4.4l-3.5-10H0l8.9 24.6h0.5l5.7-11.7c0.6-1.4 1.4-3.6 1.4-3.6s0.7 2.3 1.4 3.6l5.4 11.7h0.5l8.8-24.6h-4.7L24.4 10.8z"/>
  <polygon fill="#231F20" points="94.4 5.2 100.9 5.2 100.9 25.2 105.8 25.2 105.8 5.2 112.4 5.2 112.4 0.8 94.4 0.8 "/>
</svg>
