<svg xmlns="http://www.w3.org/2000/svg" xmlns:xlink="http://www.w3.org/1999/xlink" version="1.1" id="Layer_2" x="0" y="0" viewBox="62.9 124 491.3 544" enable-background="new 62.9 124 491.3 544" xml:space="preserve">
  <path fill="#231F20" d="M499.8 668c-129.2 0-258.4 0-389.3 0 -3.4-3.4-6.8-6.8-8.5-11.9 -13.6-23.8-17-49.3-20.4-76.5 -1.7-17-3.4-34-5.1-52.7 -1.7-22.1-3.4-44.2-5.1-66.3 -1.7-18.7-3.4-39.1-3.4-57.8 -1.7-23.8-3.4-45.9-5.1-69.7 0-8.5 0-8.5 8.5-8.5 45.9 0 90.1 0 136 0 1.7 0 3.4 0 6.8 0 -3.4 8.5-1.7 18.7-8.5 25.5 -5.1 8.5-8.5 17-8.5 27.2 1.7 11.9 6.8 22.1 15.3 32.3 3.4 5.1 8.5 5.1 13.6 1.7 3.4-1.7 5.1-3.4 8.5-6.8 18.7-15.3 25.5-34 15.3-56.1 -1.7-1.7-1.7-5.1 0-6.8 1.7-5.1 3.4-11.9 3.4-17 37.4 0 73.1 0 110.5 0 1.7 5.1 3.4 10.2 3.4 15.3 0 3.4 0 6.8 0 8.5 -10.2 23.8-3.4 42.5 15.3 57.8 13.6 11.9 17 10.2 27.2-5.1 10.2-17 13.6-34 1.7-51 -5.1-8.5-5.1-17-8.5-25.5 3.4 0 5.1 0 6.8 0 40.8 0 81.6 0 122.4 0 5.1 0 10.2 0 15.3 0 5.1 0 6.8 1.7 6.8 6.8 0 3.4 0 8.5 0 11.9 -1.7 27.2-3.4 52.7-5.1 79.9 -1.7 23.8-3.4 47.6-5.1 71.4 -1.7 23.8-3.4 49.3-6.8 73.1 -3.4 20.4-6.8 40.8-10.2 61.2C516.8 642.5 511.7 657.8 499.8 668z"/>
  <path fill="#231F20" d="M307.7 124c-18.7 0-27.2 10.2-32.3 23.8C265.2 175 236.3 273.6 222.7 328c-1.7 10.2-3.4 22.1-11.9 30.6 -5.1 6.8-6.8 15.3-3.4 22.1 3.4 8.5 6.8 15.3 10.2 23.8 20.4-11.9 32.3-30.6 18.7-54.4 -1.7-1.7-1.7-5.1 0-6.8 3.4-15.3 6.8-32.3 11.9-47.6 10.2-40.8 17-76.5 34-120.7 10.2-30.6 18.7-34 23.8-34 8.5 0 13.6 1.7 28.9 44.2 17 51 28.9 103.7 40.8 156.4 0 3.4 0 6.8-1.7 10.2 -1.7 5.1-5.1 10.2-5.1 17 0 17 10.2 27.2 23.8 35.7 1.7-1.7 1.7-3.4 3.4-3.4 11.9-15.3 15.3-34 0-49.3 -1.7-1.7-1.7-5.1-1.7-6.8 -28.9-120.7-34-142.8-52.7-193.8C333.2 130.8 323 124 307.7 124L307.7 124z"/>
</svg>
