<svg xmlns="http://www.w3.org/2000/svg" xmlns:xlink="http://www.w3.org/1999/xlink" version="1.1" id="Layer_1" x="0px" y="0px" viewBox="0 0 32 32" enable-background="new 0 0 32 32" xml:space="preserve">
  <g>
    <path d="M8.7 12.9c1.6 1.2 5.7 4.5 7.3 5.8 1.6-1.2 5.7-4.5 7.3-5.8C24 12.2 25 11 25 10c0-0.2 0-0.8-0.1-0.7H7c0 0 0 0.2 0 0.3C7 10.9 7.7 12.1 8.7 12.9z"/>
    <path d="M16 20.6c-1.7-1.4-6.4-5.3-8.2-6.6 -0.3-0.2-0.6-0.4-0.8-0.7v9.1 0.3h17.6c0.2 0 0.3 0 0.3 0v-9.5c-0.3 0.3-0.6 0.6-0.8 0.8C22.4 15.4 17.7 19.2 16 20.6z"/>
  </g>
</svg>
