<svg xmlns="http://www.w3.org/2000/svg" xmlns:xlink="http://www.w3.org/1999/xlink" version="1.1" id="Layer_1" x="0px" y="0px" viewBox="0 0 24 24" enable-background="new 0 0 24 24" xml:space="preserve">
  <path d="M24 21.5c0 0-1 0-2.1 0H2.1c-1.2 0-2.1 0-2.1 0v-19c0 0 1 0 2.1 0h19.7c1.2 0 2.1 0 2.1 0V21.5zM14.9 12.8c1.8-1.4 3.6-2.9 5.4-4.3 0.9-0.7 2-2.2 2-3.3 0-0.3 0-0.9 0-0.9H1.7c0 0 0 0.2 0 0.4 0 1.5 0.8 2.9 2 3.8 1.8 1.4 6.5 5.2 8.3 6.6M12 17.4c-1.9-1.6-7.4-6.1-9.4-7.6C2.3 9.6 2 9.3 1.7 9v10.4l0 0.4 20.1 0c0.2 0 0.4 0 0.4 0l0-10.8c-0.3 0.3-0.6 0.6-0.9 0.9 -1.9 1.5-3.8 3-5.7 4.6"/>
</svg>
