<?xml version="1.0" encoding="utf-8"?>
<!-- Generator: Adobe Illustrator 18.1.1, SVG Export Plug-In . SVG Version: 6.00 Build 0)  -->
<svg version="1.1" id="Layer_1" xmlns="http://www.w3.org/2000/svg" xmlns:xlink="http://www.w3.org/1999/xlink" x="0px" y="0px"
	 viewBox="0 0 32 32" enable-background="new 0 0 32 32" xml:space="preserve">
<path fill="#231F20" d="M32,1.8v28.5c0,1-0.8,1.8-1.8,1.8h-8.1V19.6h4.1l0.6-4.8h-4.8v-3.1c0-1.4,0.4-2.3,2.4-2.3l2.5,0V5
	c-0.4-0.1-2-0.2-3.7-0.2c-3.7,0-6.2,2.2-6.2,6.4v3.6h-4.2v4.8h4.2V32H1.8c-1,0-1.8-0.8-1.8-1.8V1.8C0,0.8,0.8,0,1.8,0h28.5
	C31.2,0,32,0.8,32,1.8z"/>
</svg>
