<svg xmlns="http://www.w3.org/2000/svg" xmlns:xlink="http://www.w3.org/1999/xlink" version="1.1" id="Layer_1" x="0" y="0" viewBox="0 0 16 16" enable-background="new 0 0 16 16" xml:space="preserve">
  <path d="M8 0C3.58 0 0 3.58 0 8s3.58 8 8 8 8-3.58 8-8S12.42 0 8 0zM12.25 4.08l-0.01-0.02c-0.18 0.19-0.41 0.29-0.69 0.29 -0.4 0-0.73-0.26-1-0.77 -0.18-0.36-0.3-0.36-0.3-0.36s-0.12 0.06-0.23 0.6l-0.34 1.71h2.27l-0.34 1.1H9.46l-0.55 2.46c-0.35 1.54-0.82 2.72-1.4 3.49 -0.61 0.81-1.44 1.21-2.48 1.21 -0.52 0-0.9-0.1-1.16-0.32 -0.27-0.22-0.4-0.49-0.4-0.81 0-0.29 0.11-0.54 0.32-0.74 0.21-0.19 0.45-0.29 0.73-0.29 0.56 0 0.92 0.33 1.01 0.92 0.03 0.18 0.08 0.18 0.1 0.18 0.06 0 0.18-0.1 0.3-0.36 0.14-0.31 0.33-0.97 0.54-1.95l0.82-3.79H5.16l0.33-1.09h2.05c0.38-1.3 0.81-2.16 1.31-2.61 0.53-0.47 1.18-0.71 1.91-0.71 0.49 0 0.91 0.1 1.23 0.3 0.35 0.22 0.54 0.52 0.54 0.9C12.52 3.67 12.43 3.89 12.25 4.08z"/>
</svg>
