<svg xmlns="http://www.w3.org/2000/svg" xmlns:xlink="http://www.w3.org/1999/xlink" version="1.1" id="Layer_1" x="0" y="0" viewBox="0 0 32 32" enable-background="new 0 0 32 32" xml:space="preserve">
  <path fill="#231F20" d="M32 10.7h-2.7V16H18.7V8h-5.3v8H2.7v-5.3H0V8h3c0 0 0-0.1 0-0.2 0-0.1 0-0.2 0-0.4C3 7.3 3 7.1 3.1 7L4 2.2C4.2 1.6 4.5 1 5.1 0.6 5.6 0.2 6.2 0 6.9 0 7.4 0 8 0.2 8.6 0.5l6.3 3.8c0.4 0.2 0.7 0.5 1.1 1 0.3-0.4 0.7-0.7 1.1-0.9l6.4-3.8c0.5-0.3 1.1-0.5 1.6-0.5 0.7 0 1.3 0.2 1.9 0.6 0.5 0.4 0.9 1 1.1 1.7L28.9 7C29 7.1 29 7.3 29 7.4c0 0.2 0 0.3 0 0.4C29 7.9 29 8 29 8h3V10.7zM2.7 21.3h10.7V32H2.7V21.3zM7.1 2.9L6.6 4.2C6.3 5 6 5.9 5.7 6.7 5.4 7.6 5.3 8 5.3 8h7.5L7.1 2.9zM18.7 32h10.7V21.3H18.7V32zM26.7 8c0 0 0-0.3-0.2-0.8s-0.4-1.1-0.7-1.9c-0.3-0.8-0.5-1.3-0.6-1.7C25.1 3.2 25 3 24.9 2.7L19.5 8H26.7z"/>
</svg>
