<svg xmlns="http://www.w3.org/2000/svg" xmlns:xlink="http://www.w3.org/1999/xlink" version="1.1" id="Layer_1" x="0px" y="0px" viewBox="0 0 32 32" enable-background="new 0 0 32 32" xml:space="preserve">
  <path d="M26.1 15.1H24v-2.2h-1.7v2.2h-2.1v1.8h2.1v2.2H24v-2.2h2.1M12.6 14.7v2.8h3.7c-0.3 1.6-1.6 2.9-3.7 2.9 -2.2 0-4.1-2-4.1-4.4s1.8-4.3 4.1-4.3c1 0 1.9 0.4 2.6 1.1l0 0 1.9-2c-1.1-1.1-2.7-1.8-4.5-1.8 -3.7 0-6.8 3.2-6.8 7.1s3 7.1 6.8 7.1c3.9 0 6.5-2.9 6.5-7 0-0.5-0.1-1-0.1-1.5C19 14.7 12.6 14.7 12.6 14.7z"/>
</svg>