<svg xmlns="http://www.w3.org/2000/svg" xmlns:xlink="http://www.w3.org/1999/xlink" version="1.1" id="Layer_1" x="0" y="0" viewBox="0 0 32 32" enable-background="new 0 0 32 32" xml:space="preserve">
  <path d="M32 14.6h-3.3v-3.5H26v3.5h-3.3v2.8H26v3.5h2.7v-3.5H32M10.7 13.9v4.4h5.8c-0.4 2.6-2.6 4.6-5.8 4.6 -3.5 0-6.4-3.1-6.4-6.9s2.9-6.8 6.4-6.8c1.6 0 3 0.6 4.1 1.7v0l3-3.2c-1.8-1.8-4.3-2.9-7.1-2.9C4.8 4.8 0 9.8 0 16s4.8 11.2 10.7 11.2c6.2 0 10.2-4.6 10.2-11 0-0.8-0.1-1.6-0.2-2.4C20.7 13.9 10.7 13.9 10.7 13.9z"/>
</svg>
