<svg xmlns="http://www.w3.org/2000/svg" xmlns:xlink="http://www.w3.org/1999/xlink" version="1.1" id="Layer_1" x="0" y="0" viewBox="0 0 32 32" enable-background="new 0 0 32 32" xml:space="preserve">
  <path d="M27.5 0H4.5C2 0 0 2 0 4.5v22.9C0 30 2 32 4.5 32h22.9c2.5 0 4.5-2 4.5-4.5V4.5C32 2 30 0 27.5 0zM10.3 24.4H5.9c1-0.5 1.2-1.5 1.2-3V10.6c0-1.5-0.2-2.5-1.2-3h4.4c-1 0.5-1.2 1.5-1.2 3v10.8C9.1 22.9 9.3 23.9 10.3 24.4zM25.3 12.4c-0.8-3-2.4-4.5-4.8-4.5 -4 0-7.2 4.2-7.2 9.7 0 3.6 2 5.9 5 5.9 2.6 0 4.5-1.1 6.1-3.6 -1.4 2.8-3.8 4.5-6.8 4.5 -3.9 0-6.5-2.7-6.5-6.6 0-5.7 4.2-10.3 9.3-10.3 1.4 0 2.3 0.4 3.1 0.7 0.5 0.2 0.8 0.3 1.2 0.3 0.5 0 0.9-0.3 1.2-0.6L25.3 12.4z"/>
</svg>
