<svg xmlns="http://www.w3.org/2000/svg" xmlns:xlink="http://www.w3.org/1999/xlink" version="1.1" id="Layer_1" x="0px" y="0px" viewBox="0 0 32 32" enable-background="new 0 0 32 32" xml:space="preserve">
  <path d="M16 6.5c-5.2 0-9.5 4.3-9.5 9.5 0 3.9 2.3 7.2 5.7 8.7 0-0.7 0-1.5 0.2-2.2 0.2-0.8 1.2-5.2 1.2-5.2s-0.3-0.6-0.3-1.5c0-1.4 0.8-2.5 1.8-2.5 0.9 0 1.3 0.6 1.3 1.4 0 0.9-0.6 2.2-0.8 3.4 -0.2 1 0.5 1.8 1.5 1.8 1.8 0 3-2.3 3-5.1 0-2.1-1.4-3.6-4-3.6 -2.9 0-4.7 2.1-4.7 4.5 0 0.8 0.2 1.4 0.6 1.9 0.2 0.2 0.2 0.3 0.1 0.5 0 0.2-0.2 0.6-0.2 0.8 -0.1 0.2-0.3 0.3-0.5 0.2 -1.3-0.5-1.9-2-1.9-3.6 0-2.7 2.3-5.9 6.8-5.9 3.6 0 6 2.6 6 5.4 0 3.7-2.1 6.5-5.1 6.5 -1 0-2-0.6-2.3-1.2 0 0-0.6 2.2-0.7 2.6 -0.2 0.7-0.6 1.5-1 2 0.9 0.3 1.8 0.4 2.7 0.4 5.2 0 9.5-4.3 9.5-9.5C25.5 10.8 21.2 6.5 16 6.5"/>
</svg>
