<?xml version="1.0" encoding="utf-8"?>
<!-- Generator: Adobe Illustrator 18.1.1, SVG Export Plug-In . SVG Version: 6.00 Build 0)  -->
<svg version="1.1" id="Layer_1" xmlns="http://www.w3.org/2000/svg" xmlns:xlink="http://www.w3.org/1999/xlink" x="0px" y="0px"
	 viewBox="0 0 32 32" enable-background="new 0 0 32 32" xml:space="preserve">
<g>
	<g display="none">
		<path display="inline" d="M23,32H9c-4.9,0-9-4-9-9V9c0-4.9,4.1-9,9-9h14c5,0,9,4.1,9,9v14C32,28,28,32,23,32z"/>
		<g display="inline">
			<path fill="#FFFFFF" d="M10.3,7.6H5.9c1,0.5,1.2,1.5,1.2,3v10.8c0,1.5-0.2,2.5-1.2,3h4.4c-1-0.5-1.2-1.5-1.2-3V10.6
				C9.1,9.1,9.3,8.1,10.3,7.6"/>
			<path fill="#FFFFFF" d="M18.3,23.5c-3,0-5-2.4-5-5.9c0-5.4,3.2-9.7,7.2-9.7c2.4,0,3.9,1.5,4.8,4.5L26.1,8
				c-0.3,0.3-0.8,0.6-1.2,0.6c-0.4,0-0.8-0.1-1.2-0.3c-0.7-0.3-1.6-0.7-3.1-0.7c-5.1,0-9.3,4.6-9.3,10.3c0,4,2.6,6.6,6.5,6.6
				c3,0,5.4-1.6,6.8-4.5C22.8,22.5,20.9,23.5,18.3,23.5"/>
		</g>
	</g>
	<path display="none" d="M28.7,9.5c0,0.3,0,0.6,0,0.9C28.7,19,22.1,29,10.1,29C6.4,29,2.9,27.9,0,26.1c0.5,0.1,1,0.1,1.6,0.1
		c3.1,0,5.9-1,8.1-2.8c-2.9-0.1-5.3-1.9-6.1-4.5c0.4,0.1,0.8,0.1,1.2,0.1c0.6,0,1.2-0.1,1.7-0.2c-3-0.6-5.3-3.2-5.3-6.4
		c0,0,0-0.1,0-0.1c0.9,0.5,1.9,0.8,3,0.8c-1.8-1.2-2.9-3.2-2.9-5.5c0-1.2,0.3-2.3,0.9-3.3c3.2,4,8.1,6.6,13.5,6.9
		c-0.1-0.5-0.2-1-0.2-1.5c0-3.6,2.9-6.6,6.6-6.6c1.9,0,3.6,0.8,4.8,2.1c1.5-0.3,2.9-0.8,4.2-1.6c-0.5,1.5-1.5,2.8-2.9,3.6
		c1.3-0.1,2.6-0.5,3.8-1C31.1,7.4,30,8.5,28.7,9.5z"/>
	<path display="none" d="M28.8,29c-0.3,1.4-1.5,2.4-2.9,2.6C22.6,32,19.3,32,16,32s-6.6,0-9.9-0.4c-1.4-0.1-2.5-1.2-2.9-2.6
		c-0.5-2-0.5-4.2-0.5-6.3c0-2.1,0-4.2,0.5-6.2c0.3-1.4,1.5-2.4,2.9-2.6c3.3-0.4,6.6-0.4,9.9-0.4s6.6,0,9.9,0.4
		c1.4,0.2,2.5,1.2,2.9,2.6c0.5,2,0.5,4.2,0.5,6.2C29.2,24.8,29.2,27,28.8,29z M10.3,18.3v-1.7H4.8v1.7h1.9v10.2h1.8V18.3H10.3z
		 M13.2,0l-2.2,7.1V12H9.3V7.1C9.1,6.3,8.8,5,8.2,3.3C7.8,2.2,7.4,1.1,7,0h1.9l1.3,4.7L11.4,0H13.2z M15.1,28.5v-8.8h-1.6v6.8
		c-0.4,0.5-0.7,0.7-1,0.7c-0.2,0-0.3-0.1-0.4-0.4c0-0.1,0-0.2,0-0.6v-6.5h-1.6v7c0,0.6,0.1,1,0.1,1.3c0.1,0.4,0.5,0.7,1,0.7
		c0.6,0,1.2-0.4,1.8-1.1v1H15.1z M18,9.1c0,0.9-0.2,1.7-0.5,2.1c-0.4,0.6-1.1,0.9-1.9,0.9c-0.8,0-1.4-0.3-1.9-0.9
		c-0.3-0.5-0.5-1.2-0.5-2.1V5.9c0-0.9,0.2-1.6,0.5-2.1c0.4-0.6,1.1-0.9,1.9-0.9c0.8,0,1.4,0.3,1.9,0.9C17.9,4.3,18,5,18,5.9V9.1z
		 M16.4,5.6c0-0.8-0.2-1.2-0.8-1.2c-0.5,0-0.8,0.4-0.8,1.2v3.8c0,0.8,0.2,1.3,0.8,1.3c0.5,0,0.8-0.4,0.8-1.3V5.6z M21.2,22.3
		c0-0.8,0-1.4-0.2-1.8c-0.2-0.7-0.6-1-1.3-1c-0.6,0-1.1,0.3-1.7,1v-3.9h-1.6v11.8h1.6v-0.9c0.5,0.7,1.1,1,1.7,1c0.6,0,1.1-0.3,1.3-1
		c0.1-0.4,0.2-1,0.2-1.8V22.3z M19.6,26c0,0.8-0.2,1.2-0.7,1.2c-0.3,0-0.5-0.1-0.8-0.4v-5.4c0.3-0.3,0.5-0.4,0.8-0.4
		c0.5,0,0.7,0.4,0.7,1.2V26z M24,12h-1.6v-1c-0.6,0.7-1.2,1.1-1.8,1.1c-0.5,0-0.9-0.2-1.1-0.7c-0.1-0.3-0.1-0.7-0.1-1.3v-7H21v6.6
		c0,0.4,0,0.6,0,0.6c0,0.2,0.2,0.4,0.4,0.4c0.3,0,0.7-0.2,1-0.8V3.1H24V12z M27.2,25.4h-1.6c0,0.6,0,1,0,1.1
		c-0.1,0.4-0.3,0.6-0.7,0.6c-0.6,0-0.8-0.4-0.8-1.2v-1.6h3.2v-1.8c0-0.9-0.2-1.6-0.5-2.1c-0.5-0.6-1.1-0.9-1.9-0.9
		c-0.8,0-1.4,0.3-1.9,0.9c-0.3,0.4-0.5,1.1-0.5,2.1v3.1c0,0.9,0.2,1.6,0.5,2.1c0.5,0.6,1.1,0.9,1.9,0.9c0.8,0,1.5-0.3,1.9-0.9
		c0.2-0.3,0.3-0.6,0.4-1c0-0.2,0-0.5,0-1V25.4z M25.7,23.1h-1.6v-0.8c0-0.8,0.3-1.2,0.8-1.2c0.5,0,0.8,0.4,0.8,1.2V23.1z"/>
	<path display="none" d="M20.2,24.1c0,1.2-0.3,2.3-0.9,3.3c-2,3.4-6.1,4.6-9.8,4.6c-2.9,0-6.4-0.7-8-3.4C1,27.8,0.8,26.9,0.8,26
		c0-2.2,1.3-4,3.1-5.1c2.2-1.4,5.2-1.8,7.8-1.9c-0.7-0.9-1.2-1.7-1.2-2.8c0-0.6,0.2-1.1,0.4-1.6c-0.4,0-0.9,0.1-1.3,0.1
		c-3.7,0-6.7-2.7-6.7-6.6c0-2.1,1-4.2,2.6-5.6c2.1-1.8,5-2.5,7.7-2.5h8l-2.7,1.7H16c1.8,1.5,2.9,3.2,2.9,5.6c0,5-4.6,5.5-4.6,8
		C14.3,17.8,20.2,18.7,20.2,24.1z M17.5,25.7c0-2.6-2.6-4.2-4.4-5.5c-0.3,0-0.6,0-0.9,0c-3.1,0-7.8,1-7.8,5c0,3.7,4.1,5.1,7.2,5.1
		C14.4,30.3,17.5,29.1,17.5,25.7z M14.3,12.3c0.8-0.8,1-1.9,1-3.1c0-2.8-1.7-7.7-5.1-7.7C9.1,1.6,8,2.1,7.3,3C6.6,3.8,6.4,5,6.4,6
		c0,2.9,1.6,7.4,5.1,7.4C12.5,13.5,13.6,13,14.3,12.3z M31.2,13.4v2.1h-4.1v4.2h-2v-4.2H21v-2.1h4.1V9.2h2v4.2H31.2z"/>
	<path d="M16,32c-1.6,0-3.1-0.2-4.5-0.7c0.6-1,1.3-2.2,1.6-3.4c0,0,0.2-0.7,1.1-4.4c0.5,1.1,2.2,2,3.9,2c5.1,0,8.6-4.7,8.6-11
		c0-4.7-4-9.2-10.1-9.2c-7.6,0-11.4,5.5-11.4,10c0,2.8,1,5.2,3.3,6.1c0.4,0.1,0.7,0,0.8-0.4c0.1-0.3,0.2-1,0.3-1.3
		c0.1-0.4,0.1-0.5-0.2-0.9c-0.6-0.8-1.1-1.8-1.1-3.1c0-4,3-7.7,7.9-7.7c4.3,0,6.7,2.6,6.7,6.1c0,4.6-2,8.5-5.1,8.5
		c-1.7,0-2.9-1.4-2.5-3.1c0.5-2,1.4-4.2,1.4-5.7c0-1.3-0.7-2.4-2.2-2.4c-1.7,0-3.1,1.8-3.1,4.1c0,0,0,1.5,0.5,2.5
		C10.2,25.7,9.9,27,9.9,27c-0.3,1.2-0.3,2.6-0.3,3.7C3.9,28.2,0,22.6,0,16C0,7.2,7.2,0,16,0s16,7.2,16,16S24.8,32,16,32z"/>
	<path display="none" d="M32,27.9c0,2.3-1.9,4.1-4.1,4.1H4.1C1.9,32,0,30.1,0,27.9V4.1C0,1.9,1.9,0,4.1,0h23.8C30.1,0,32,1.9,32,4.1
		V27.9z M28.4,13.5h-2.8c0.3,0.9,0.4,1.8,0.4,2.7c0,5.3-4.5,9.6-10,9.6c-5.5,0-9.9-4.3-9.9-9.6c0-0.9,0.1-1.9,0.4-2.7H3.6V27
		c0,0.7,0.6,1.3,1.3,1.3h22.3c0.7,0,1.3-0.6,1.3-1.3V13.5z M16,9.7c-3.5,0-6.4,2.8-6.4,6.2c0,3.4,2.9,6.2,6.4,6.2
		c3.6,0,6.4-2.8,6.4-6.2C22.5,12.5,19.6,9.7,16,9.7z M28.4,5c0-0.8-0.6-1.4-1.4-1.4h-3.6c-0.8,0-1.4,0.6-1.4,1.4v3.4
		c0,0.8,0.6,1.4,1.4,1.4h3.6c0.8,0,1.4-0.6,1.4-1.4V5z"/>
	<path display="none" d="M32,1.8v28.5c0,1-0.8,1.8-1.8,1.8h-8.1V19.6h4.1l0.6-4.8h-4.8v-3.1c0-1.4,0.4-2.3,2.4-2.3l2.5,0V5
		c-0.4-0.1-2-0.2-3.7-0.2c-3.7,0-6.2,2.2-6.2,6.4v3.6h-4.2v4.8h4.2V32H1.8c-1,0-1.8-0.8-1.8-1.8V1.8C0,0.8,0.8,0,1.8,0h28.5
		C31.2,0,32,0.8,32,1.8z"/>
</g>
</svg>
