<svg xmlns="http://www.w3.org/2000/svg" xmlns:xlink="http://www.w3.org/1999/xlink" version="1.1" id="Layer_1" x="0px" y="0px" viewBox="0 0 32 32" enable-background="new 0 0 32 32" xml:space="preserve">
  <g>
    <path d="M16 4.2c3.2 0 6.1 1.2 8.4 3.5s3.5 5.2 3.5 8.4 -1.2 6.1-3.5 8.4c-2.2 2.2-5.2 3.5-8.4 3.5s-6.1-1.2-8.4-3.5c-2.2-2.2-3.5-5.2-3.5-8.4s1.2-6.1 3.5-8.4S12.8 4.2 16 4.2M16 0C7.2 0 0 7.2 0 16s7.2 16 16 16 16-7.2 16-16S24.8 0 16 0L16 0z"/>
    <polygon points="10.7 24.8 10.7 7.7 25.6 16.2 "/>
  </g>
</svg>
