<svg xmlns="http://www.w3.org/2000/svg" xmlns:xlink="http://www.w3.org/1999/xlink" version="1.1" id="Layer_1" x="0px" y="0px" viewBox="0 0 32 32" xml:space="preserve" enable-background="new 0 0 32 32">
  <g>
    <path d="M16 0C7.2 0 0 7.2 0 16c0 8.8 7.2 16 16 16s16-7.2 16-16C32 7.2 24.8 0 16 0zM17.8 24.7c-0.1 0.2-0.2 0.5-0.4 0.6 -0.2 0.2-0.4 0.3-0.7 0.4 -0.3 0.1-0.6 0.2-0.9 0.2s-0.6-0.1-0.9-0.2c-0.3-0.1-0.5-0.2-0.7-0.4 -0.2-0.2-0.3-0.4-0.4-0.6s-0.2-0.5-0.2-0.8c0-0.3 0.1-0.6 0.2-0.8s0.2-0.5 0.4-0.6c0.2-0.2 0.4-0.3 0.7-0.4 0.3-0.1 0.6-0.2 0.9-0.2s0.6 0.1 0.9 0.2c0.3 0.1 0.5 0.3 0.7 0.4 0.2 0.2 0.3 0.4 0.4 0.6 0.1 0.2 0.2 0.5 0.2 0.8C18 24.2 17.9 24.5 17.8 24.7zM21.8 12.9c-0.2 0.5-0.4 0.9-0.7 1.3 -0.3 0.4-0.7 0.8-1 1.2 -0.4 0.4-0.8 0.8-1.2 1.2 -0.2 0.2-0.5 0.5-0.6 0.7 -0.2 0.2-0.3 0.5-0.4 0.7 -0.1 0.3-0.2 0.5-0.2 0.8s-0.1 0.6-0.1 1H14c0-0.6 0-1.1 0.1-1.6 0.1-0.5 0.2-0.9 0.3-1.3 0.2-0.4 0.4-0.8 0.6-1.1 0.3-0.3 0.6-0.7 1-1 0.3-0.3 0.6-0.5 0.8-0.8s0.5-0.5 0.7-0.8 0.3-0.5 0.4-0.8c0.1-0.3 0.2-0.6 0.2-0.9 0-0.8-0.2-1.3-0.5-1.7 -0.4-0.4-0.9-0.6-1.6-0.6 -0.3 0-0.5 0-0.8 0.1s-0.5 0.2-0.7 0.4 -0.4 0.4-0.5 0.7 -0.2 0.6-0.2 1H10c0-0.9 0.2-1.7 0.5-2.4 0.3-0.7 0.8-1.2 1.3-1.7 0.5-0.4 1.2-0.8 1.9-1C14.4 6.1 15.2 6 16.1 6c0.9 0 1.8 0.1 2.5 0.3 0.7 0.2 1.4 0.6 1.9 1 0.5 0.4 0.9 1 1.2 1.6s0.4 1.4 0.4 2.2C22 11.9 21.9 12.4 21.8 12.9z"/>
  </g>
</svg>