<svg xmlns="http://www.w3.org/2000/svg" xmlns:xlink="http://www.w3.org/1999/xlink" version="1.1" id="Layer_1" x="0px" y="0px" viewBox="0 0 32 32" xml:space="preserve" enable-background="new 0 0 32 32">
  <g>
    <path fill="#f90" d="M16.3 1L16.3 1 16.3 1 16.3 1c-0.1 0-0.6 0-0.6 0 -1.3 0-5.8 0.4-7.9 5.1 -0.7 1.6-0.5 4.3-0.4 6.5 0 0.3 0 0.5 0 0.8 -0.1 0.1-0.3 0.1-0.6 0.1 -0.4 0-0.9-0.1-1.5-0.4C5.2 13 5 13 4.8 13c-0.7 0-1.4 0.4-1.6 1.1 -0.1 0.5 0.1 1.1 1.6 1.7 0.1 0.1 0.3 0.1 0.5 0.2 0.6 0.2 1.5 0.5 1.8 1.1 0.1 0.3 0.1 0.7-0.2 1.2l0 0c-0.1 0.2-2 4.7-6.4 5.4C0.2 23.6 0 23.9 0 24.2c0 0.1 0 0.2 0.1 0.3 0.3 0.8 1.7 1.3 4.2 1.7 0.1 0.1 0.2 0.5 0.2 0.8 0.1 0.2 0.1 0.5 0.2 0.8C4.8 28 5 28.3 5.5 28.3c0.2 0 0.4 0 0.7-0.1 0.4-0.1 1-0.2 1.7-0.2 0.4 0 0.8 0 1.2 0.1 0.8 0.1 1.5 0.6 2.3 1.2 1.1 0.8 2.4 1.7 4.4 1.7 0.1 0 0.1 0 0.2 0s0.1 0 0.2 0c2 0 3.3-0.9 4.4-1.7 0.8-0.6 1.5-1 2.3-1.2 0.4-0.1 0.8-0.1 1.2-0.1 0.7 0 1.2 0.1 1.7 0.2 0.3 0.1 0.5 0.1 0.7 0.1l0 0 0 0c0.4 0 0.6-0.2 0.7-0.6 0.1-0.3 0.1-0.5 0.2-0.7s0.1-0.6 0.2-0.8c2.5-0.4 3.9-0.9 4.2-1.7 0-0.1 0.1-0.2 0.1-0.3 0-0.3-0.2-0.6-0.6-0.7 -4.4-0.7-6.3-5.2-6.4-5.4l0 0c-0.2-0.5-0.3-0.9-0.2-1.2 0.3-0.6 1.2-0.9 1.8-1.1 0.2-0.1 0.3-0.1 0.5-0.2 1.1-0.4 1.6-1 1.6-1.6 0-0.5-0.4-0.9-1-1.1l0 0c-0.2-0.1-0.4-0.1-0.7-0.1 -0.2 0-0.4 0-0.6 0.1 -0.5 0.2-1 0.4-1.4 0.4 -0.3 0-0.4-0.1-0.5-0.1 0-0.2 0-0.4 0-0.7v-0.1c0.1-2.2 0.3-4.9-0.4-6.5C22.1 1.3 17.6 1 16.3 1L16.3 1z"/>
    <path fill="currentColor" d="M16.3 2c1.5 0 5.2 0.4 6.8 4.3 0.5 1.3 0.4 3.6 0.3 5.5l0 0.6v0.1 0.7c0 0.5 0.3 0.9 0.8 1 0.1 0 0.4 0.1 0.7 0.1 0.6 0 1.2-0.2 1.8-0.5 0 0 0 0 0 0 0 0 0.1 0 0.2 0 0.1 0 0.2 0 0.3 0 0 0 0.1 0 0.1 0.1 0.2 0.1 0.3 0.2 0.3 0.2 0 0 0 0 0 0 0 0.1-0.2 0.4-0.9 0.7 0 0-0.1 0-0.1 0 0 0-0.1 0-0.1 0 -0.1 0-0.2 0.1-0.3 0.1 -0.8 0.3-1.8 0.6-2.3 1.6 0 0 0 0.1-0.1 0.1 -0.2 0.6 0 1.3 0.2 1.9 0 0 0 0.1 0 0.1 0.5 1.2 2.5 4.9 6.6 5.8 -0.4 0.2-1.2 0.5-3.1 0.8 -0.3 0.1-0.6 0.3-0.7 0.5 -0.1 0.2-0.2 0.5-0.2 0.7 0 0.1 0 0.1 0 0.2 -0.1 0.2-0.1 0.4-0.2 0.5 0 0 0 0.1 0 0.2 0 0-0.1 0-0.2 0 0 0-0.1 0-0.1 0 -0.5-0.1-1.1-0.2-1.9-0.2 -0.4 0-0.9 0-1.4 0.1 -0.9 0.2-1.7 0.6-2.6 1.4 -1.2 0.9-2.2 1.5-3.8 1.5H16h-0.2c-1.6 0-2.6-0.7-3.8-1.5 -0.8-0.6-1.6-1.2-2.7-1.4C8.8 27 8.3 27 7.9 27 7 27 6.3 27.1 6 27.2c0 0 0 0-0.1 0 -0.1 0-0.2 0-0.3 0 0 0 0-0.1 0-0.1 0-0.1-0.1-0.3-0.1-0.4 0-0.3-0.1-0.9-0.5-1.3 -0.1-0.1-0.3-0.2-0.5-0.3C2.9 25 2 24.7 1.6 24.5c3.8-1 5.7-4.6 6.2-5.7 0.5-0.8 0.4-1.5 0.3-2 0 0 0-0.1-0.1-0.1 -0.5-0.9-1.6-1.3-2.3-1.6C5.5 15 5.4 15 5.3 14.9c0 0-0.1-0.1-0.2-0.1 -0.7-0.3-0.9-0.5-1-0.6C4.3 14.1 4.6 14 4.8 14c0 0 0 0 0.1 0 0.7 0.3 1.3 0.5 1.9 0.5 0.4 0 0.9 0 1.3-0.4 0.2-0.2 0.3-0.4 0.3-0.7l0-0.8 0-0.6c-0.1-1.9-0.2-4.2 0.3-5.5 1.9-4.2 5.8-4.5 7-4.5H16.3M16.3 1c-0.1 0-0.6 0-0.6 0 -1.3 0-5.8 0.4-7.9 5.1 -0.7 1.6-0.5 4.3-0.4 6.5 0 0.3 0 0.5 0 0.8 -0.1 0.1-0.3 0.1-0.6 0.1 -0.4 0-0.9-0.1-1.5-0.4C5.2 13 5 13 4.8 13c-0.7 0-1.4 0.4-1.6 1.1 -0.1 0.5 0.1 1.1 1.6 1.7 0.1 0.1 0.3 0.1 0.5 0.2 0.6 0.2 1.5 0.5 1.8 1.1 0.1 0.3 0.1 0.7-0.2 1.2 -0.1 0.2-2 4.7-6.4 5.4 0 0-0.1 0-0.1 0 -0.2 0-0.4 0.3-0.4 0.5 0 0.1 0 0.2 0.1 0.3 0.3 0.8 1.7 1.3 4.2 1.7 0.1 0.1 0.2 0.5 0.2 0.8 0.1 0.2 0.1 0.5 0.2 0.8C4.8 28 5 28.3 5.5 28.3c0.2 0 0.4 0 0.7-0.1 0.4-0.1 1-0.2 1.7-0.2 0.4 0 0.8 0 1.2 0.1 0.8 0.1 1.5 0.6 2.3 1.2 1.1 0.8 2.4 1.7 4.4 1.7 0.1 0 0.1 0 0.2 0s0.1 0 0.2 0c2 0 3.3-0.9 4.4-1.7 0.8-0.6 1.5-1 2.3-1.2 0.4-0.1 0.8-0.1 1.2-0.1 0.7 0 1.2 0.1 1.7 0.2 0.3 0.1 0.5 0.1 0.7 0.1 0.4 0 0.6-0.2 0.7-0.6 0.1-0.3 0.1-0.5 0.2-0.7s0.1-0.6 0.2-0.8c2.5-0.4 3.9-0.9 4.2-1.7 0-0.1 0.1-0.2 0.1-0.3 0-0.3-0.2-0.6-0.6-0.7 -4.4-0.7-6.3-5.2-6.4-5.4 -0.2-0.5-0.3-0.9-0.2-1.2 0.3-0.6 1.2-0.9 1.8-1.1 0.2-0.1 0.3-0.1 0.5-0.2 1.1-0.4 1.6-1 1.6-1.6 0-0.5-0.4-0.9-1-1.1 -0.2-0.1-0.4-0.1-0.7-0.1 -0.2 0-0.4 0-0.6 0.1 -0.5 0.2-1 0.4-1.4 0.4 -0.3 0-0.4-0.1-0.5-0.1 0-0.2 0-0.4 0-0.7v-0.1c0.1-2.2 0.3-4.9-0.4-6.5C22.1 1.3 17.6 1 16.3 1L16.3 1z"/>
  </g>
</svg>