<svg>
  <defs>
    <symbol id="icon-fit">
      <svg xmlns="http://www.w3.org/2000/svg" xmlns:xlink="http://www.w3.org/1999/xlink" version="1.1" id="Layer_1" x="0" y="0" viewBox="0 0 15.96 15.96" enable-background="new 0 0 15.96 15.958" xml:space="preserve">
        <g transform="translate(35)">
          <path fill="#010101" d="M-27.02 0C-31.43 0-35 3.57-35 7.98c0 4.41 3.57 7.98 7.98 7.98s7.98-3.57 7.98-7.98C-19.04 3.57-22.61 0-27.02 0zM-22.76 4.05c-0.18 0.19-0.41 0.29-0.69 0.29 -0.4 0-0.73-0.26-1-0.77 -0.18-0.36-0.3-0.36-0.3-0.36 0 0-0.12 0.06-0.23 0.6l-0.34 1.71h2.27l-0.34 1.1h-2.15l-0.55 2.46c-0.35 1.54-0.82 2.72-1.4 3.49 -0.61 0.81-1.44 1.21-2.48 1.21 -0.52 0-0.9-0.1-1.16-0.32 -0.27-0.22-0.4-0.49-0.4-0.81 0-0.29 0.11-0.54 0.32-0.74 0.21-0.19 0.45-0.29 0.73-0.29 0.56 0 0.92 0.33 1.01 0.92 0.03 0.18 0.08 0.18 0.1 0.18 0.06 0 0.18-0.1 0.3-0.36 0.14-0.31 0.33-0.97 0.54-1.95l0.82-3.79h-2.14l0.33-1.09h2.05c0.38-1.3 0.81-2.16 1.31-2.61 0.53-0.47 1.18-0.71 1.91-0.71 0.49 0 0.91 0.1 1.23 0.3 0.35 0.22 0.54 0.52 0.54 0.9 0 0.25-0.09 0.47-0.27 0.66L-22.76 4.05z"/>
        </g>
      </svg>
    </symbol>
    <symbol id="shape-icon-2">
      <!-- all the paths and shapes and whatnot for this icon -->
    </symbol>
  </defs>
</svg>