<svg xmlns="http://www.w3.org/2000/svg" xmlns:xlink="http://www.w3.org/1999/xlink" version="1.1" id="Layer_1" x="0px" y="0px" viewBox="0 0 32 32" xml:space="preserve" enable-background="new 0 0 32 32">
  <g>
    <path d="M26.2 15.3H5.8c-3.2 0-5.8 2.6-5.8 5.8v4.7c0 3.2 2.6 5.8 5.8 5.8h20.3c3.2 0 5.8-2.6 5.8-5.8v-4.7C32 17.9 29.4 15.3 26.2 15.3zM10.1 18.9H8.2v9.4H6.4v-9.4H4.5v-1.6h5.6V18.9zM15.4 28.3h-1.6v-0.9c-0.3 0.3-0.6 0.6-0.9 0.7 -0.3 0.2-0.6 0.3-0.9 0.3 -0.4 0-0.7-0.1-0.8-0.4 -0.2-0.2-0.3-0.6-0.3-1.1v-6.8h1.6v6.2c0 0.2 0 0.3 0.1 0.4 0.1 0.1 0.2 0.1 0.3 0.1 0.1 0 0.3-0.1 0.5-0.2 0.2-0.1 0.3-0.3 0.5-0.4v-6.2h1.6V28.3zM21.3 26.6c0 0.6-0.1 1-0.4 1.3 -0.3 0.3-0.6 0.5-1.1 0.5 -0.3 0-0.6-0.1-0.8-0.2 -0.2-0.1-0.5-0.3-0.7-0.5v0.6h-1.6v-11h1.6v3.5c0.2-0.2 0.5-0.4 0.7-0.6 0.2-0.1 0.5-0.2 0.7-0.2 0.5 0 0.9 0.2 1.2 0.5 0.3 0.3 0.4 0.9 0.4 1.5V26.6zM26.9 24.4h-3.1V26c0 0.4 0.1 0.7 0.2 0.9 0.1 0.2 0.3 0.2 0.5 0.2 0.3 0 0.5-0.1 0.6-0.2 0.1-0.1 0.2-0.4 0.2-0.9v-0.4h1.7V26c0 0.8-0.2 1.5-0.6 1.9 -0.4 0.4-1 0.6-1.8 0.6 -0.7 0-1.3-0.2-1.7-0.7 -0.4-0.4-0.6-1.1-0.6-1.8v-3.6c0-0.7 0.2-1.3 0.7-1.7 0.5-0.4 1-0.7 1.8-0.7 0.7 0 1.3 0.2 1.7 0.6 0.4 0.4 0.6 1 0.6 1.8V24.4z"/>
    <path d="M24.6 21.4c-0.3 0-0.4 0.1-0.6 0.2 -0.1 0.1-0.2 0.4-0.2 0.7v0.8h1.4v-0.8c0-0.3-0.1-0.6-0.2-0.7C25 21.5 24.8 21.4 24.6 21.4z"/>
    <path d="M19 21.4c-0.1 0-0.2 0-0.3 0.1 -0.1 0.1-0.2 0.1-0.3 0.2v5c0.1 0.1 0.3 0.2 0.4 0.3 0.1 0.1 0.3 0.1 0.4 0.1 0.2 0 0.3-0.1 0.4-0.2 0.1-0.1 0.1-0.3 0.1-0.6v-4.2c0-0.3-0.1-0.5-0.2-0.6C19.4 21.5 19.2 21.4 19 21.4z"/>
    <polygon points="8.5 12.4 10.6 12.4 10.6 7.4 12.9 0.4 10.9 0.4 9.6 5.2 9.5 5.2 8.1 0.4 6.1 0.4 8.5 7.7 "/>
    <path d="M15.7 12.7c0.8 0 1.5-0.2 2-0.7 0.5-0.4 0.7-1 0.7-1.8V5.6c0-0.7-0.2-1.2-0.7-1.7 -0.5-0.4-1.1-0.6-1.9-0.6 -0.8 0-1.5 0.2-2 0.6 -0.5 0.4-0.7 1-0.7 1.7v4.6c0 0.8 0.2 1.4 0.7 1.8C14.3 12.4 14.9 12.7 15.7 12.7zM15 5.5C15 5.3 15 5.1 15.2 5c0.1-0.1 0.3-0.2 0.5-0.2 0.2 0 0.4 0.1 0.6 0.2 0.1 0.1 0.2 0.3 0.2 0.5v4.9c0 0.2-0.1 0.4-0.2 0.6 -0.1 0.1-0.3 0.2-0.6 0.2 -0.2 0-0.4-0.1-0.6-0.2C15 10.8 15 10.6 15 10.4V5.5z"/>
    <path d="M21.1 12.6c0.3 0 0.7-0.1 1.1-0.3 0.4-0.2 0.7-0.5 1-0.8v1h1.8V3.5h-1.8v6.8c-0.2 0.2-0.4 0.4-0.6 0.5 -0.2 0.1-0.4 0.2-0.5 0.2 -0.2 0-0.3 0-0.4-0.1 -0.1-0.1-0.1-0.2-0.1-0.5V3.5h-1.8V11c0 0.5 0.1 0.9 0.3 1.2C20.4 12.4 20.7 12.6 21.1 12.6z"/>
  </g>
</svg>