<svg xmlns="http://www.w3.org/2000/svg" xmlns:xlink="http://www.w3.org/1999/xlink" version="1.1" id="Layer_1" x="0" y="0" viewBox="0 0 32 32" enable-background="new 0 0 32 32" xml:space="preserve">
  <path d="M31.4 23.8c-0.4 1.7-1.8 3-3.4 3.2 -4 0.4-8 0.4-12 0.4s-8 0-12-0.4c-1.7-0.2-3.1-1.5-3.5-3.2C0 21.3 0 18.6 0 16s0-5.3 0.6-7.8C1 6.5 2.3 5.2 4 5c4-0.4 8-0.4 12-0.4s8 0 12 0.4c1.7 0.2 3.1 1.5 3.5 3.2C32 10.7 32 13.4 32 16S32 21.3 31.4 23.8zM22.3 15l-9.1-5.7c-0.4-0.2-0.8-0.2-1.2 0 -0.4 0.2-0.6 0.6-0.6 1v11.4c0 0.4 0.2 0.8 0.6 1 0.2 0.1 0.4 0.1 0.6 0.1 0.2 0 0.4-0.1 0.6-0.2l9.1-5.7c0.3-0.2 0.5-0.6 0.5-1S22.7 15.2 22.3 15z"/>
</svg>
