<?xml version="1.0" encoding="utf-8"?>
<!-- Generator: Adobe Illustrator 18.1.1, SVG Export Plug-In . SVG Version: 6.00 Build 0)  -->
<svg version="1.1" id="Layer_1" xmlns="http://www.w3.org/2000/svg" xmlns:xlink="http://www.w3.org/1999/xlink" x="0px" y="0px"
	 viewBox="0 0 799.5 257.1" style="enable-background:new 0 0 799.5 257.1;" xml:space="preserve">
<style type="text/css">
	.st0{fill:#FFFFFF;}
	.st1{fill:#B3B3B3;}
</style>
<path class="st0" d="M101.4,161.9c0.9,0,1.8,0.2,2.5,0.5s1.4,0.9,2,1.4c0.5,0.5,0.9,1.3,1.3,2.2c0.4,0.9,0.4,1.6,0.4,2.5
	s-0.2,1.8-0.4,2.7c-0.4,0.9-0.7,1.6-1.3,2.2c-0.5,0.5-1.3,1.1-2,1.4c-0.7,0.4-1.6,0.5-2.5,0.5c-0.9,0-1.8-0.2-2.5-0.5
	s-1.4-0.9-2-1.4c-0.5-0.5-0.9-1.3-1.3-2.2c-0.4-0.9-0.4-1.6-0.4-2.7c0-0.9,0.2-1.8,0.4-2.5c0.4-0.9,0.7-1.6,1.3-2.2
	c0.5-0.5,1.3-1.1,2-1.4C99.6,162.1,100.3,161.9,101.4,161.9z M101.4,163.7c-0.7,0-1.3,0.2-1.8,0.4c-0.5,0.4-0.9,0.7-1.3,1.1
	c-0.4,0.5-0.5,0.9-0.7,1.6c-0.2,0.5-0.2,1.3-0.2,1.8s0,1.3,0.2,1.8c0.2,0.5,0.4,1.1,0.7,1.6c0.4,0.5,0.7,0.9,1.3,1.1
	c0.5,0.4,1.1,0.4,1.8,0.4c0.7,0,1.3-0.2,1.8-0.4c0.5-0.4,0.9-0.7,1.3-1.1c0.4-0.5,0.5-0.9,0.7-1.6c0.2-0.5,0.2-1.3,0.2-1.8
	s0-1.3-0.2-1.8c-0.2-0.5-0.4-1.1-0.7-1.6c-0.4-0.5-0.7-0.9-1.3-1.1C102.6,163.9,102.1,163.7,101.4,163.7z M109.9,162.3h2.3l6,9.6
	l0,0v-9.6h2.2v13H118l-6-9.6l0,0v9.6h-2.2V162.3z M132.1,170l-4.9-7.8h2.7l3.4,5.8l3.4-5.8h2.3l-4.9,7.8v5.1h-2.3V170H132.1z
	 M146.4,161.9c0.9,0,1.8,0.2,2.5,0.5s1.4,0.9,2,1.4c0.5,0.5,0.9,1.3,1.3,2.2c0.4,0.9,0.4,1.6,0.4,2.5s-0.2,1.8-0.4,2.7
	c-0.4,0.9-0.7,1.6-1.3,2.2s-1.3,1.1-2,1.4c-0.7,0.4-1.6,0.5-2.5,0.5s-1.8-0.2-2.5-0.5s-1.4-0.9-2-1.4s-0.9-1.3-1.3-2.2
	c-0.4-0.9-0.4-1.6-0.4-2.7c0-0.9,0.2-1.8,0.4-2.5c0.4-0.9,0.7-1.6,1.3-2.2c0.5-0.5,1.3-1.1,2-1.4
	C144.6,162.1,145.3,161.9,146.4,161.9z M146.4,163.7c-0.7,0-1.3,0.2-1.8,0.4c-0.5,0.4-0.9,0.7-1.3,1.1c-0.4,0.5-0.5,0.9-0.7,1.6
	c-0.2,0.5-0.2,1.3-0.2,1.8s0,1.3,0.2,1.8s0.4,1.1,0.7,1.6c0.4,0.5,0.7,0.9,1.3,1.1c0.5,0.4,1.1,0.4,1.8,0.4s1.3-0.2,1.8-0.4
	c0.5-0.4,0.9-0.7,1.3-1.1c0.4-0.5,0.5-0.9,0.7-1.6c0.2-0.5,0.2-1.3,0.2-1.8s0-1.3-0.2-1.8c-0.2-0.5-0.4-1.1-0.7-1.6
	c-0.4-0.5-0.7-0.9-1.3-1.1C147.6,163.9,147.1,163.7,146.4,163.7z M154.9,162.3h2.3v7.6c0,0.4,0,0.9,0,1.3c0,0.4,0.2,0.9,0.4,1.3
	c0.2,0.4,0.5,0.7,0.9,0.9c0.4,0.2,0.9,0.4,1.6,0.4s1.3-0.2,1.6-0.4s0.7-0.5,0.9-0.9c0.2-0.4,0.4-0.7,0.4-1.3c0-0.4,0-0.9,0-1.3v-7.6
	h2.3v8.3c0,0.9-0.2,1.6-0.4,2.2s-0.5,1.1-1.1,1.6c-0.5,0.4-1.1,0.7-1.6,0.9c-0.7,0.2-1.4,0.4-2.2,0.4c-0.7,0-1.4-0.2-2.2-0.4
	c-0.7-0.2-1.3-0.5-1.6-0.9c-0.5-0.4-0.9-0.9-1.1-1.6c-0.2-0.5-0.4-1.3-0.4-2.2L154.9,162.3L154.9,162.3z M168.4,162.3h6.1
	c1.4,0,2.5,0.4,3.3,0.9s1.1,1.4,1.1,2.5c0,0.5-0.2,1.1-0.4,1.4c-0.2,0.4-0.4,0.7-0.7,0.9c-0.2,0.2-0.5,0.4-0.7,0.5
	c-0.2,0.2-0.4,0.2-0.5,0.2l0,0c0.2,0,0.4,0,0.5,0.2c0.2,0.2,0.4,0.2,0.5,0.5c0.2,0.2,0.4,0.5,0.5,0.9c0.2,0.4,0.2,0.7,0.2,1.3
	c0,0.7,0,1.4,0.2,2c0.2,0.5,0.4,1.1,0.5,1.3h-2.3c-0.2-0.4-0.2-0.5-0.4-0.9c0-0.4,0-0.7,0-0.9c0-0.5,0-1.1-0.2-1.4
	c0-0.4-0.2-0.7-0.4-1.1c-0.2-0.4-0.5-0.5-0.7-0.5c-0.2-0.2-0.5-0.2-1.1-0.2h-3.3v5.2h-2.3V162.3z M170.6,168.1h3.8
	c0.7,0,1.3-0.2,1.6-0.5s0.5-0.9,0.5-1.6c0-0.4,0-0.7-0.2-1.1c-0.2-0.2-0.4-0.5-0.5-0.5c-0.2-0.2-0.5-0.2-0.7-0.4c-0.4,0-0.5,0-0.9,0
	h-3.6V168.1z M186.9,162.3h2.3l6,9.6l0,0v-9.6h2.2v13H195l-6-9.6l0,0v9.6h-2.2V162.3z M200.2,162.3h9.2v2h-7v3.4h6.5v1.8h-6.5v3.8
	h7.2v2h-9.4V162.3z M210.9,162.3h2.7l2.9,4.5l3.1-4.5h2.5l-4.3,6.1l4.5,6.7h-2.7l-3.3-4.9l-3.3,4.9h-2.5l4.5-6.7L210.9,162.3z
	 M223,162.3h10.5v2h-4.2v11H227v-11h-4.2v-2H223z M246.1,161.9c0.9,0,1.8,0.2,2.5,0.5c0.7,0.4,1.4,0.9,2,1.4
	c0.5,0.5,0.9,1.3,1.3,2.2c0.4,0.9,0.4,1.6,0.4,2.5s-0.2,1.8-0.4,2.7c-0.4,0.9-0.7,1.6-1.3,2.2c-0.5,0.5-1.3,1.1-2,1.4
	c-0.7,0.4-1.6,0.5-2.5,0.5c-0.9,0-1.8-0.2-2.5-0.5s-1.4-0.9-2-1.4c-0.5-0.5-0.9-1.3-1.3-2.2c-0.4-0.9-0.4-1.6-0.4-2.7
	c0-0.9,0.2-1.8,0.4-2.5c0.4-0.9,0.7-1.6,1.3-2.2c0.5-0.5,1.3-1.1,2-1.4C244.3,162.1,245.2,161.9,246.1,161.9z M246.1,163.7
	c-0.7,0-1.3,0.2-1.8,0.4c-0.5,0.4-0.9,0.7-1.3,1.1c-0.4,0.5-0.5,0.9-0.7,1.6c-0.2,0.5-0.2,1.3-0.2,1.8s0,1.3,0.2,1.8
	c0.2,0.5,0.4,1.1,0.7,1.6c0.4,0.5,0.7,0.9,1.3,1.1c0.5,0.4,1.1,0.4,1.8,0.4c0.7,0,1.3-0.2,1.8-0.4c0.5-0.4,0.9-0.7,1.3-1.1
	c0.4-0.5,0.5-0.9,0.7-1.6c0.2-0.5,0.2-1.3,0.2-1.8s0-1.3-0.2-1.8c-0.2-0.5-0.4-1.1-0.7-1.6c-0.4-0.5-0.7-0.9-1.3-1.1
	C247.4,163.9,246.8,163.7,246.1,163.7z M254.6,162.3h2.3l6,9.6l0,0v-9.6h2.2v13h-2.3l-6-9.6l0,0v9.6h-2.2V162.3z M268.2,162.3h2.3
	v11h6.5v2h-8.9L268.2,162.3L268.2,162.3z M278.8,162.3h2.3v13h-2.3V162.3z M284.3,162.3h2.3l6,9.6l0,0v-9.6h2.2v13h-2.3l-6-9.6l0,0
	v9.6h-2.2V162.3z M297.6,162.3h9.2v2H300v3.4h6.5v1.8H300v3.8h7.2v2h-9.4v-13H297.6z M314.8,162.3h5.8c0.9,0,1.6,0.2,2.2,0.4
	c0.5,0.2,1.1,0.5,1.3,1.1c0.4,0.4,0.5,0.9,0.7,1.3c0.2,0.5,0.2,0.9,0.2,1.3c0,0.4,0,0.9-0.2,1.3c-0.2,0.5-0.4,0.9-0.7,1.3
	c-0.4,0.4-0.7,0.7-1.3,0.9c-0.5,0.2-1.3,0.4-2.2,0.4h-3.4v4.9h-2.3V162.3z M317.1,168.2h3.3c0.2,0,0.5,0,0.7-0.2
	c0.2,0,0.5-0.2,0.7-0.4c0.2-0.2,0.4-0.4,0.5-0.7c0.2-0.4,0.2-0.5,0.2-1.1c0-0.4,0-0.7-0.2-1.1s-0.4-0.5-0.5-0.7s-0.4-0.4-0.7-0.4
	c-0.2,0-0.5-0.2-0.9-0.2h-3.4v4.7H317.1z M327.1,162.3h2.3v7.6c0,0.4,0,0.9,0,1.3c0,0.4,0.2,0.9,0.4,1.3c0.2,0.4,0.5,0.7,0.9,0.9
	c0.4,0.2,0.9,0.4,1.6,0.4c0.7,0,1.3-0.2,1.6-0.4c0.4-0.2,0.7-0.5,0.9-0.9c0.2-0.4,0.4-0.7,0.4-1.3c0-0.4,0-0.9,0-1.3v-7.6h2.3v8.3
	c0,0.9-0.2,1.6-0.4,2.2c-0.2,0.5-0.5,1.1-1.1,1.6c-0.5,0.4-1.1,0.7-1.6,0.9c-0.7,0.2-1.4,0.4-2.2,0.4c-0.7,0-1.4-0.2-2.2-0.4
	c-0.7-0.2-1.3-0.5-1.6-0.9c-0.5-0.4-0.9-0.9-1.1-1.6c-0.2-0.5-0.4-1.3-0.4-2.2V162.3z M340.6,162.3h6.1c1.4,0,2.5,0.4,3.3,0.9
	c0.7,0.5,1.1,1.4,1.1,2.5c0,0.5-0.2,1.1-0.4,1.4c-0.2,0.4-0.4,0.7-0.7,0.9c-0.2,0.2-0.5,0.4-0.7,0.5c-0.2,0.2-0.4,0.2-0.5,0.2l0,0
	c0.2,0,0.4,0,0.5,0.2c0.2,0.2,0.4,0.2,0.5,0.5c0.2,0.2,0.4,0.5,0.5,0.9c0.2,0.4,0.2,0.7,0.2,1.3c0,0.7,0,1.4,0.2,2
	c0.2,0.5,0.4,1.1,0.5,1.3h-2.3c-0.2-0.4-0.2-0.5-0.4-0.9c0-0.4,0-0.7,0-0.9c0-0.5,0-1.1-0.2-1.4c0-0.4-0.2-0.7-0.4-1.1
	c-0.2-0.4-0.5-0.5-0.7-0.5c-0.4-0.2-0.7-0.2-1.3-0.2h-3.3v5.2h-2.3v-12.8H340.6z M343,168.1h3.8c0.7,0,1.3-0.2,1.6-0.5
	s0.5-0.9,0.5-1.6c0-0.4,0-0.7-0.2-1.1c-0.2-0.2-0.4-0.5-0.5-0.5c-0.2-0.2-0.5-0.2-0.7-0.4c-0.4,0-0.5,0-0.9,0H343V168.1z
	 M362.5,166.3c-0.2-0.4-0.2-0.7-0.4-1.1c-0.2-0.4-0.4-0.5-0.7-0.9c-0.2-0.2-0.5-0.4-0.9-0.5s-0.7-0.2-1.3-0.2
	c-0.7,0-1.3,0.2-1.8,0.4c-0.5,0.4-0.9,0.7-1.3,1.1c-0.4,0.5-0.5,0.9-0.7,1.6c-0.2,0.5-0.2,1.3-0.2,1.8c0,0.5,0,1.3,0.2,1.8
	s0.4,1.1,0.7,1.6c0.4,0.5,0.7,0.9,1.3,1.1c0.5,0.4,1.1,0.4,1.8,0.4c0.5,0,0.9,0,1.3-0.2s0.7-0.4,1.1-0.7c0.4-0.4,0.5-0.7,0.7-1.1
	c0.2-0.4,0.2-0.9,0.4-1.3h2.2c0,0.7-0.2,1.4-0.5,2.2c-0.4,0.7-0.7,1.3-1.1,1.6c-0.5,0.5-1.1,0.9-1.6,1.1c-0.7,0.2-1.4,0.4-2.2,0.4
	c-0.9,0-1.8-0.2-2.5-0.5c-0.7-0.4-1.4-0.9-2-1.4c-0.5-0.5-0.9-1.3-1.3-2.2c-0.4-0.9-0.4-1.6-0.4-2.7c0-0.9,0.2-1.8,0.4-2.5
	c0.4-0.9,0.7-1.6,1.3-2.2c0.5-0.5,1.3-1.1,2-1.4s1.6-0.5,2.5-0.5c0.7,0,1.4,0.2,2,0.4c0.7,0.2,1.3,0.5,1.6,0.9
	c0.4,0.4,0.9,0.9,1.3,1.4c0.4,0.5,0.5,1.1,0.5,1.8L362.5,166.3L362.5,166.3z M367.2,162.3h2.3v5.1h6v-5.1h2.3v13h-2.3v-5.8h-6v5.8
	h-2.3V162.3z M384,162.3h2.3l5.1,13h-2.3l-1.3-3.4h-5.2l-1.3,3.4h-2.3L384,162.3z M383.3,170h4l-2-5.6l0,0L383.3,170z M394.5,170.8
	c0,0.5,0,0.9,0.2,1.3c0.2,0.4,0.4,0.7,0.7,0.9c0.4,0.2,0.7,0.4,1.1,0.5c0.4,0.2,0.9,0.2,1.3,0.2c0.5,0,0.9,0,1.3-0.2
	c0.4-0.2,0.7-0.2,0.9-0.4s0.4-0.4,0.5-0.5c0.2-0.2,0.2-0.5,0.2-0.7c0-0.5-0.2-0.9-0.4-1.1c-0.2-0.2-0.5-0.4-0.7-0.5
	c-0.5-0.2-0.9-0.4-1.6-0.5c-0.5-0.2-1.4-0.4-2.2-0.5c-0.5-0.2-1.1-0.4-1.4-0.5c-0.4-0.2-0.7-0.5-0.9-0.7c-0.2-0.4-0.4-0.5-0.5-0.9
	c-0.2-0.4-0.2-0.7-0.2-1.1c0-0.7,0.2-1.3,0.4-1.6c0.4-0.5,0.5-0.9,1.1-1.3c0.4-0.4,0.9-0.5,1.4-0.7c0.5-0.2,1.1-0.2,1.8-0.2
	c0.7,0,1.3,0,2,0.2c0.5,0.2,1.1,0.4,1.6,0.7c0.5,0.4,0.7,0.7,1.1,1.3c0.2,0.5,0.4,1.1,0.4,1.8h-2.3c0-0.9-0.4-1.4-0.9-1.8
	c-0.5-0.4-1.1-0.5-2-0.5c-0.2,0-0.5,0-0.9,0c-0.4,0-0.5,0.2-0.7,0.4c-0.2,0.2-0.4,0.4-0.5,0.5c-0.2,0.2-0.2,0.5-0.2,0.9
	c0,0.5,0.2,0.9,0.4,1.1c0.4,0.2,0.7,0.5,1.1,0.5c0,0,0.2,0,0.5,0.2s0.7,0.2,1.1,0.4c0.4,0.2,0.7,0.2,1.3,0.4
	c0.4,0.2,0.7,0.2,0.9,0.2c0.4,0.2,0.7,0.4,1.1,0.5c0.4,0.2,0.5,0.5,0.7,0.7c0.2,0.4,0.4,0.5,0.5,0.9s0.2,0.7,0.2,1.1
	c0,0.7-0.2,1.3-0.4,1.8c-0.4,0.5-0.7,0.9-1.1,1.3c-0.5,0.4-1.1,0.5-1.6,0.7c-0.5,0.2-1.3,0.2-1.8,0.2c-0.7,0-1.4-0.2-2.2-0.4
	c-0.7-0.2-1.3-0.5-1.6-0.9c-0.5-0.4-0.9-0.9-1.1-1.4c-0.4-0.5-0.4-1.3-0.5-2L394.5,170.8L394.5,170.8z M405.2,162.3h9.2v2h-7v3.4
	h6.5v1.8h-6.5v3.8h7.2v2h-9.4L405.2,162.3L405.2,162.3z M422.1,162.3h2.3l6,9.6l0,0v-9.6h2.2v13h-2.3l-6-9.6l0,0v9.6h-2.2V162.3z
	 M441.1,161.9c0.9,0,1.8,0.2,2.5,0.5c0.7,0.4,1.4,0.9,2,1.4s0.9,1.3,1.3,2.2c0.4,0.9,0.4,1.6,0.4,2.5s-0.2,1.8-0.4,2.7
	c-0.4,0.9-0.7,1.6-1.3,2.2s-1.3,1.1-2,1.4c-0.7,0.4-1.6,0.5-2.5,0.5s-1.8-0.2-2.5-0.5c-0.7-0.4-1.4-0.9-2-1.4
	c-0.5-0.5-0.9-1.3-1.3-2.2c-0.4-0.9-0.4-1.6-0.4-2.7c0-0.9,0.2-1.8,0.4-2.5c0.4-0.9,0.7-1.6,1.3-2.2s1.3-1.1,2-1.4
	C439.3,162.1,440.2,161.9,441.1,161.9z M441.1,163.7c-0.7,0-1.3,0.2-1.8,0.4c-0.5,0.4-0.9,0.7-1.3,1.1c-0.4,0.5-0.5,0.9-0.7,1.6
	c-0.2,0.5-0.2,1.3-0.2,1.8s0,1.3,0.2,1.8c0.2,0.5,0.4,1.1,0.7,1.6c0.4,0.5,0.7,0.9,1.3,1.1c0.5,0.4,1.1,0.4,1.8,0.4s1.3-0.2,1.8-0.4
	c0.5-0.4,0.9-0.7,1.3-1.1c0.4-0.5,0.5-0.9,0.7-1.6c0.2-0.5,0.2-1.3,0.2-1.8s0-1.3-0.2-1.8c-0.2-0.5-0.4-1.1-0.7-1.6
	c-0.4-0.5-0.7-0.9-1.3-1.1C442.6,163.9,441.8,163.7,441.1,163.7z M448.5,162.3h2.3l2.3,9.9l0,0l2.5-9.9h2.3l2.5,9.9l0,0l2.3-9.9h2.3
	l-3.6,13h-2.3l-2.5-9.9l0,0l-2.7,9.9h-2.3L448.5,162.3z M471.5,162.3H482v2h-4.2v11h-2.3v-11h-4.2v-2H471.5z M483.8,162.3h2.3v5.1h6
	v-5.1h2.3v13h-2.3v-5.8h-6v5.8h-2.3V162.3z M497.1,162.3h6.1c1.4,0,2.5,0.4,3.3,0.9c0.7,0.5,1.1,1.4,1.1,2.5c0,0.5-0.2,1.1-0.4,1.4
	c-0.2,0.4-0.4,0.7-0.7,0.9c-0.2,0.2-0.5,0.4-0.7,0.5c-0.2,0.2-0.4,0.2-0.5,0.2l0,0c0.2,0,0.4,0,0.5,0.2c0.2,0.2,0.4,0.2,0.5,0.5
	c0.2,0.2,0.4,0.5,0.5,0.9c0.2,0.4,0.2,0.7,0.2,1.3c0,0.7,0,1.4,0.2,2c0.2,0.5,0.4,1.1,0.5,1.3h-2.3c-0.2-0.4-0.2-0.5-0.4-0.9
	c0-0.4,0-0.7,0-0.9c0-0.5,0-1.1-0.2-1.4c0-0.4-0.2-0.7-0.4-1.1c-0.2-0.4-0.5-0.5-0.7-0.5c-0.4-0.2-0.7-0.2-1.3-0.2h-3.3v5.2H497
	v-12.8H497.1z M499.5,168.1h3.8c0.7,0,1.3-0.2,1.6-0.5c0.4-0.4,0.5-0.9,0.5-1.6c0-0.4,0-0.7-0.2-1.1c-0.2-0.2-0.4-0.5-0.5-0.5
	c-0.2-0.2-0.5-0.2-0.7-0.4c-0.4,0-0.5,0-0.9,0h-3.6V168.1z M515.7,161.9c0.9,0,1.8,0.2,2.5,0.5c0.7,0.4,1.4,0.9,2,1.4
	c0.5,0.5,0.9,1.3,1.3,2.2c0.4,0.9,0.4,1.6,0.4,2.5s-0.2,1.8-0.4,2.7c-0.4,0.9-0.7,1.6-1.3,2.2s-1.3,1.1-2,1.4
	c-0.7,0.4-1.6,0.5-2.5,0.5s-1.8-0.2-2.5-0.5s-1.4-0.9-2-1.4c-0.5-0.5-0.9-1.3-1.3-2.2c-0.4-0.9-0.4-1.6-0.4-2.7
	c0-0.9,0.2-1.8,0.4-2.5c0.4-0.9,0.7-1.6,1.3-2.2c0.5-0.5,1.3-1.1,2-1.4C513.9,162.1,514.8,161.9,515.7,161.9z M515.7,163.7
	c-0.7,0-1.3,0.2-1.8,0.4c-0.5,0.4-0.9,0.7-1.3,1.1c-0.4,0.5-0.5,0.9-0.7,1.6c-0.2,0.5-0.2,1.3-0.2,1.8s0,1.3,0.2,1.8
	c0.2,0.5,0.4,1.1,0.7,1.6c0.4,0.5,0.7,0.9,1.3,1.1c0.5,0.4,1.1,0.4,1.8,0.4s1.3-0.2,1.8-0.4c0.5-0.4,0.9-0.7,1.3-1.1
	c0.4-0.5,0.5-0.9,0.7-1.6c0.2-0.5,0.2-1.3,0.2-1.8s0-1.3-0.2-1.8c-0.2-0.5-0.4-1.1-0.7-1.6c-0.4-0.5-0.7-0.9-1.3-1.1
	S516.5,163.7,515.7,163.7z M524.2,162.3h2.3v7.6c0,0.4,0,0.9,0,1.3c0,0.4,0.2,0.9,0.4,1.3c0.2,0.4,0.5,0.7,0.9,0.9s0.9,0.4,1.6,0.4
	c0.7,0,1.3-0.2,1.6-0.4c0.4-0.2,0.7-0.5,0.9-0.9c0.2-0.4,0.4-0.7,0.4-1.3c0-0.4,0-0.9,0-1.3v-7.6h2.3v8.3c0,0.9-0.2,1.6-0.4,2.2
	s-0.5,1.1-1.1,1.6c-0.5,0.4-1.1,0.7-1.6,0.9c-0.7,0.2-1.4,0.4-2.2,0.4s-1.4-0.2-2.2-0.4c-0.7-0.2-1.3-0.5-1.6-0.9
	c-0.5-0.4-0.9-0.9-1.1-1.6c-0.2-0.5-0.4-1.3-0.4-2.2L524.2,162.3L524.2,162.3z M549,175.1h-1.4l-0.4-1.4c-0.5,0.7-1.3,1.1-1.8,1.4
	c-0.5,0.2-1.3,0.4-2.2,0.4s-1.8-0.2-2.5-0.5s-1.4-0.9-2-1.4s-0.9-1.3-1.3-2.2c-0.4-0.9-0.4-1.6-0.4-2.7c0-0.9,0.2-1.8,0.4-2.5
	c0.4-0.9,0.7-1.6,1.3-2.2c0.5-0.5,1.3-1.1,2-1.4c0.7-0.4,1.6-0.5,2.5-0.5c0.7,0,1.4,0.2,2,0.4c0.7,0.2,1.3,0.5,1.6,0.9
	c0.5,0.4,0.9,0.9,1.3,1.4c0.4,0.5,0.5,1.3,0.5,2h-2.2c0-0.4-0.2-0.7-0.4-1.1c-0.2-0.4-0.4-0.5-0.7-0.7c-0.4-0.2-0.7-0.4-1.1-0.5
	c-0.4-0.2-0.7-0.2-1.3-0.2c-0.7,0-1.3,0.2-1.8,0.4c-0.5,0.4-0.9,0.7-1.3,1.1c-0.4,0.5-0.5,0.9-0.7,1.6c-0.2,0.5-0.2,1.3-0.2,1.8
	s0,1.3,0.2,1.8c0.2,0.5,0.4,1.1,0.7,1.6c0.4,0.5,0.7,0.9,1.3,1.1c0.5,0.4,1.1,0.4,1.8,0.4c0.5,0,1.1,0,1.6-0.2
	c0.4-0.2,0.9-0.4,1.1-0.7c0.4-0.4,0.5-0.7,0.7-1.1c0.2-0.4,0.2-0.9,0.2-1.4h-3.4v-1.8h5.4v6.5H549z M551.9,162.3h2.3v5.1h6v-5.1h2.3
	v13h-2.3v-5.8h-6v5.8h-2.3V162.3z M578.1,171.1v-8.9h-2.9v8.7c0,0.2,0,0.5,0,0.7s0,0.5-0.2,0.7s-0.2,0.4-0.4,0.5s-0.5,0.2-0.9,0.2
	s-0.5,0-0.9-0.2c-0.4-0.2-0.4-0.2-0.5-0.4c-0.2-0.2-0.2-0.4-0.2-0.7c0-0.2,0-0.5,0-0.9v-0.5h-2.5v1.1c0,0.7,0.2,1.3,0.4,1.8
	s0.5,0.9,0.9,1.3c0.4,0.4,0.9,0.5,1.4,0.7c0.5,0.2,1.1,0.2,1.6,0.2c0.9,0,1.8-0.2,2.3-0.4c0.5-0.4,1.1-0.7,1.3-1.1
	c0.4-0.4,0.5-0.9,0.5-1.4C578.1,172,578.1,171.5,578.1,171.1z M592,170.2v-8h-2.9v8c0,0.9-0.2,1.6-0.5,2.2c-0.4,0.5-1.1,0.7-2.2,0.7
	c-0.5,0-1.1,0-1.4-0.2c-0.4-0.2-0.5-0.4-0.7-0.7c-0.2-0.2-0.4-0.5-0.4-0.9c0-0.4-0.2-0.7-0.2-1.1v-8h-2.9v8c0,1.8,0.5,3.1,1.4,4
	c0.9,0.9,2.3,1.3,4,1.3c1.8,0,3.1-0.4,4-1.3C591.5,173.3,592,172,592,170.2z M594.7,162.3v13h2.7v-8.7l0,0l5.4,8.7h2.9v-13H603v8.7
	l0,0l-5.4-8.7H594.7z M608.4,162.3v13h9.8v-2.3h-7v-3.3h6.3v-2.2h-6.3v-2.7h6.9v-2.3h-9.6V162.3z M631.8,175.1v-12.6h-2
	c0,0.5-0.2,0.9-0.5,1.3c-0.4,0.4-0.5,0.5-0.9,0.7c-0.4,0.2-0.7,0.4-1.1,0.4c-0.4,0-0.9,0.2-1.3,0.2v2h3.3v8.1L631.8,175.1
	L631.8,175.1z M642.2,175.1v-12.6h-2c0,0.5-0.2,0.9-0.5,1.3c-0.4,0.4-0.5,0.5-0.9,0.7c-0.4,0.2-0.7,0.4-1.1,0.4s-0.9,0.2-1.3,0.2v2
	h3.3v8.1L642.2,175.1L642.2,175.1z M646.6,172.4v2.7h1.3c0,0.2,0,0.4,0,0.5c0,0.2-0.2,0.4-0.4,0.5c-0.2,0.2-0.2,0.4-0.4,0.4
	c-0.2,0.2-0.4,0.2-0.5,0.2v1.3c0.4,0,0.7-0.2,1.1-0.4s0.7-0.4,0.9-0.5c0.2-0.2,0.5-0.5,0.5-0.9c0.2-0.4,0.2-0.7,0.2-1.1v-2.7H646.6z
	 M657.1,167.3h2.5c0-0.4,0-0.7,0.2-1.1c0-0.4,0.2-0.7,0.4-0.9c0.2-0.4,0.4-0.5,0.5-0.7c0.2-0.2,0.5-0.2,0.9-0.2
	c0.5,0,1.1,0.2,1.4,0.5c0.4,0.4,0.5,0.9,0.5,1.4c0,0.4,0,0.7-0.2,1.1c-0.2,0.4-0.4,0.5-0.7,0.9c-0.2,0.2-0.5,0.5-0.9,0.7
	c-0.4,0.2-0.5,0.4-0.9,0.5c-0.5,0.4-1.1,0.7-1.6,1.1c-0.5,0.4-0.9,0.7-1.3,1.3c-0.4,0.4-0.7,0.9-0.9,1.4c-0.2,0.5-0.4,1.3-0.4,2h9.2
	v-2.2h-6c0.4-0.4,0.7-0.9,1.1-1.1c0.4-0.2,0.9-0.5,1.3-0.9c0.4-0.4,0.9-0.5,1.3-0.9c0.4-0.4,0.7-0.5,1.1-0.9
	c0.4-0.4,0.5-0.7,0.9-1.3c0.2-0.5,0.4-1.1,0.4-1.6c0-0.5-0.2-1.1-0.4-1.6c-0.2-0.5-0.5-0.9-0.9-1.3c-0.4-0.4-0.9-0.5-1.4-0.7
	c-0.5-0.2-1.1-0.4-1.6-0.4c-0.7,0-1.4,0.2-2,0.4c-0.5,0.2-1.1,0.5-1.4,1.1c-0.4,0.5-0.7,1.1-0.9,1.6
	C657.1,165.9,657.1,166.6,657.1,167.3z M667.2,168.8c0,1.3,0.2,2.3,0.4,3.3c0.2,0.9,0.5,1.4,1.1,2c0.4,0.5,0.9,0.9,1.4,1.1
	c0.5,0.2,1.1,0.4,1.8,0.4s1.3-0.2,1.8-0.4c0.5-0.2,1.1-0.5,1.4-1.1c0.4-0.5,0.7-1.3,1.1-2c0.2-0.9,0.4-2,0.4-3.3
	c0-1.3-0.2-2.3-0.4-3.1c-0.2-0.9-0.5-1.4-1.1-2c-0.4-0.5-0.9-0.9-1.4-1.1s-1.1-0.4-1.8-0.4c-0.5,0-1.3,0.2-1.8,0.4
	c-0.5,0.2-1.1,0.5-1.4,1.1c-0.4,0.5-0.7,1.3-1.1,2C667.4,166.4,667.2,167.5,667.2,168.8z M669.7,168.8c0-0.2,0-0.5,0-0.7
	c0-0.4,0-0.5,0-0.9s0.2-0.7,0.2-0.9c0-0.4,0.2-0.5,0.4-0.9c0.2-0.2,0.4-0.5,0.5-0.5c0.2-0.2,0.5-0.2,0.9-0.2s0.7,0,0.9,0.2
	s0.4,0.4,0.5,0.5s0.4,0.5,0.4,0.9c0,0.4,0.2,0.7,0.2,0.9s0,0.7,0,0.9c0,0.4,0,0.5,0,0.7c0,0.4,0,0.7,0,1.3c0,0.5-0.2,1.1-0.2,1.4
	c-0.2,0.5-0.4,0.9-0.5,1.3c-0.4,0.4-0.7,0.5-1.3,0.5c-0.5,0-0.9-0.2-1.3-0.5c-0.4-0.4-0.5-0.7-0.5-1.3c-0.2-0.5-0.2-0.9-0.2-1.4
	C669.7,169.5,669.7,169.1,669.7,168.8z M684.3,175.1v-12.6h-2c0,0.5-0.2,0.9-0.5,1.3c-0.4,0.4-0.5,0.5-0.9,0.7
	c-0.4,0.2-0.7,0.4-1.1,0.4s-0.9,0.2-1.3,0.2v2h3.3v8.1L684.3,175.1L684.3,175.1z M696.6,164.6v-2.2h-7l-1.3,7h2.3
	c0.2-0.4,0.5-0.5,0.9-0.7c0.4-0.2,0.7-0.2,1.1-0.2s0.7,0,0.9,0.2s0.5,0.4,0.7,0.5c0.2,0.2,0.4,0.5,0.4,0.7c0.2,0.4,0.2,0.5,0.2,0.9
	s0,0.5-0.2,0.9c-0.2,0.4-0.2,0.5-0.4,0.7s-0.4,0.4-0.7,0.5c-0.4,0.2-0.5,0.2-0.9,0.2c-0.5,0-1.1-0.2-1.4-0.5
	c-0.4-0.4-0.5-0.7-0.7-1.4H688c0,0.7,0.2,1.3,0.4,1.8c0.2,0.5,0.5,0.9,1.1,1.3c0.4,0.4,0.9,0.5,1.4,0.7c0.5,0.2,1.1,0.2,1.8,0.2
	s1.3-0.2,1.8-0.4c0.5-0.2,1.1-0.5,1.4-0.9c0.4-0.4,0.7-0.9,1.1-1.4c0.2-0.5,0.4-1.1,0.4-1.8c0-0.5,0-1.1-0.2-1.6
	c-0.2-0.5-0.4-0.9-0.7-1.4c-0.4-0.4-0.7-0.7-1.3-0.9c-0.5-0.2-1.1-0.4-1.6-0.4s-0.9,0-1.4,0.2c-0.4,0.2-0.7,0.4-1.1,0.7l0,0l0.5-2.9
	h5.1V164.6z M698.4,164.8l0.4-1.3l2,0.7v-2.2h1.3v2.3l2-0.7l0.4,1.3l-2,0.7l1.3,1.6l-0.9,0.7l-1.3-1.8l-1.3,1.8l-1.1-0.7l1.3-1.6
	L698.4,164.8z"/>
<path class="st0" d="M0,66.9v-1.4h57.6V82h-1.3c-0.9-2.3-2-4.5-2.9-6.3c-1.1-1.8-2.3-3.4-3.8-4.9c-1.4-1.3-3.1-2.3-5.1-3.1
	c-1.8-0.5-4.2-0.9-6.7-0.9H23.1v31.4h5.4c2.3,0,4.5-0.4,6.1-1.1c1.6-0.7,3.1-1.6,4.2-2.9c1.1-1.3,2-2.7,2.7-4.5
	c0.7-1.8,1.3-3.8,1.8-6h1.3v30.4h-1.3c-0.5-1.8-0.9-3.8-1.6-5.4c-0.5-1.8-1.4-3.3-2.5-4.7c-1.1-1.3-2.3-2.3-3.8-3.3
	c-1.4-0.7-3.4-1.1-5.8-1.1h-6.5v34h9v1.4H0v-1.4h9V66.9H0z M66.7,66.9v-1.4h14.8c2.7,0,5.4,0,8.1-0.2s5.4-0.2,8.1-0.2
	c2.5,0,5.2,0.2,8.1,0.7c2.9,0.5,5.4,1.4,7.8,2.7c2.3,1.3,4.3,2.9,5.8,5.1c1.4,2.2,2.3,4.9,2.3,8.1c0,2.5-0.5,4.9-1.8,6.7
	c-1.1,1.8-2.7,3.4-4.5,4.5c-1.8,1.1-4,2-6.1,2.7c-2.3,0.5-4.5,1.1-6.7,1.3v0.7c3.3,0.5,6,1.1,8.5,1.8c2.5,0.5,4.7,1.4,6.5,2.7
	c1.8,1.1,3.3,2.9,4.3,4.9c1.1,2.2,1.8,4.9,2,8.5c0.4,4.2,0.5,7.4,0.7,9.9c0.2,2.5,0.5,4.3,0.9,5.8c0.4,1.4,0.9,2.3,1.4,2.7
	c0.5,0.5,1.4,0.7,2.7,0.7s2.3-0.4,3.3-1.1s1.6-1.4,2.2-2.2l0.9,0.9c-0.7,0.7-1.3,1.3-2,1.8c-0.5,0.5-1.3,1.1-2.2,1.4
	s-1.8,0.7-2.9,0.9c-1.1,0.2-2.7,0.4-4.3,0.4c-3.6,0-6.3-0.5-8.3-1.6c-2-1.1-3.4-2.5-4.5-4.3c-0.9-1.6-1.6-3.6-1.8-5.6
	c-0.2-2-0.4-3.8-0.4-5.6c-0.2-2.7-0.4-5.2-0.5-7.8c-0.2-2.5-0.7-4.7-1.6-6.7c-0.9-2-2.2-3.4-3.8-4.7c-1.6-1.1-4.2-1.8-7-1.8h-6.5
	v35.1h9v1.4H66.7v-1.4h9V66.9H66.7z M94,97c2.9,0,5.2-0.4,6.9-1.1c1.6-0.7,2.9-1.8,3.8-3.3c0.9-1.3,1.4-2.9,1.6-4.5
	c0.2-1.6,0.4-3.4,0.4-5.2c0-2.9-0.2-5.2-0.5-7.4c-0.4-2-1.1-3.8-2-5.1c-0.9-1.3-2.2-2.3-3.8-2.9c-1.6-0.7-3.6-0.9-6.1-0.9
	c-0.7,0-1.4,0-2.2,0.2c-0.7,0-1.4,0.2-2.2,0.2v30.2H94V97z M195.9,65.6v16.6h-1.3c-0.4-1.1-0.9-2.5-1.6-4.3s-1.8-3.4-3.3-5.1
	c-1.4-1.6-3.3-3.1-5.4-4.3c-2.2-1.3-4.9-1.8-8.1-1.8h-15.5v30.2h5.4c2.3,0,4.5-0.4,6.1-1.1c1.6-0.7,3.1-1.6,4.2-2.9
	c1.1-1.3,2-2.7,2.7-4.5c0.7-1.8,1.3-3.8,1.8-6h1.3v30.4h-1.3c-0.5-1.8-0.9-3.8-1.6-5.4c-0.5-1.8-1.4-3.3-2.5-4.7
	c-1.1-1.3-2.3-2.3-3.8-3.3c-1.4-0.7-3.4-1.1-5.8-1.1h-6.5v35.4h16.1c3.1,0,5.8-0.5,8.1-1.4c2.3-1.1,4.5-2.3,6.3-4.3
	c1.8-1.8,3.4-4,4.7-6.3c1.3-2.5,2.2-5.1,2.9-8h1.3V135h-62.5v-1.3h9V66.9h-9v-1.4h58.4V65.6z M266.4,65.6v16.6h-1.3
	c-0.4-1.1-0.9-2.5-1.6-4.3c-0.7-1.8-1.8-3.4-3.3-5.1s-3.3-3.1-5.4-4.3c-2.2-1.3-4.9-1.8-8.1-1.8h-15.5v30.2h5.4
	c2.3,0,4.5-0.4,6.1-1.1c1.6-0.7,3.1-1.6,4.2-2.9c1.1-1.3,2-2.7,2.7-4.5c0.7-1.8,1.3-3.8,1.8-6h1.3v30.4h-1.3
	c-0.5-1.8-0.9-3.8-1.6-5.4c-0.5-1.8-1.4-3.3-2.5-4.7c-1.1-1.3-2.3-2.3-3.8-3.3c-1.4-0.7-3.4-1.1-5.8-1.1h-6.5v35.4h16.1
	c3.1,0,5.8-0.5,8.1-1.4c2.3-1.1,4.5-2.3,6.3-4.3c1.8-1.8,3.4-4,4.7-6.3c1.3-2.5,2.2-5.1,2.9-8h1.3V135h-62.3v-1.3h9V66.9h-9v-1.4
	h58.2V65.6z M309.7,113.5c0.2,0.7,0.4,1.8,0.7,3.1c0.4,1.3,0.7,2.7,1.4,4.2c0.5,1.4,1.4,2.9,2.3,4.5c0.9,1.4,2.2,2.9,3.4,4.3
	c1.4,1.4,2.9,2.7,4.3,3.4c1.4,0.7,2.7,1.3,4,1.6c1.3,0.4,2.5,0.5,3.6,0.5s2.2,0,3.3,0c3.4,0,6.3-0.5,8.5-1.6c2.2-1.1,4-2.3,5.2-4
	c1.3-1.6,2.2-3.3,2.7-4.9c0.5-1.8,0.7-3.3,0.7-4.5c0-2.3-0.5-4.3-1.6-6c-1.1-1.6-2.7-2.9-4.5-4c-1.8-1.1-4-2-6.5-2.7
	c-2.3-0.7-4.9-1.4-7.4-2.2c-2.5-0.7-5.1-1.6-7.4-2.7s-4.5-2.3-6.5-4c-1.8-1.6-3.4-3.6-4.5-6c-1.1-2.3-1.6-5.2-1.6-8.9
	c0-2.5,0.5-5.1,1.8-7.6c1.1-2.3,2.7-4.5,4.9-6.3c2.2-1.8,4.5-3.4,7.4-4.5c2.9-1.1,6-1.6,9.4-1.6c2.2,0,4,0.2,5.6,0.5
	c1.6,0.4,3.1,0.7,4.3,1.3c1.3,0.4,2.3,0.9,3.3,1.3c0.9,0.4,1.8,0.5,2.5,0.5c0.9,0,1.4-0.2,1.8-0.4c0.4-0.4,0.5-0.9,0.9-1.6h1.6V84
	h-1.3c-0.7-2.3-1.6-4.5-2.5-6.7c-0.9-2.2-2-4.2-3.4-6s-3.1-3.3-5.2-4.3c-2.2-1.1-4.7-1.6-8-1.6c-2.5,0-4.9,0.4-6.9,1.1
	c-2,0.7-3.6,1.6-5.1,2.9s-2.3,2.5-3.1,4c-0.7,1.4-1.1,2.9-1.1,4.3c0,2.3,0.5,4.2,1.8,5.6c1.3,1.4,2.7,2.7,4.7,3.8
	c2,1.1,4.2,2,6.7,2.7s5.1,1.6,7.8,2.5s5.2,1.8,7.8,2.7c2.5,1.1,4.7,2.3,6.7,3.8c2,1.6,3.6,3.4,4.7,5.6c1.3,2.2,1.8,4.9,1.8,8.1
	c0,3.3-0.7,6.1-2,9c-1.3,2.9-3.1,5.4-5.6,7.6c-2.3,2.2-5.2,3.8-8.5,5.1c-3.3,1.3-6.9,2-11,2c-2,0-4-0.2-6-0.5
	c-2-0.4-3.8-0.7-5.6-1.3c-1.8-0.4-3.3-0.9-4.5-1.3c-1.3-0.4-2.3-0.5-2.9-0.5c-0.9,0-1.6,0.2-2,0.4c-0.4,0.4-0.7,0.9-1.1,1.8h-1.6
	v-21.7h1.6V113.5z M400.8,65.6v1.3h-9v32H420v-32h-9v-1.4h32.2v1.4h-9v66.9h9v1.4h-32.2v-1.4h9v-33.4h-28.2v33.4h9v1.4h-32.2v-1.4h9
	V66.9h-9v-1.4h32.2V65.6z M482.7,65.6v1.3h-9v66.9h9v1.4h-32.2v-1.4h9V66.9h-9v-1.4h32.2V65.6z M521.9,133.7v1.4h-32.2v-1.4h9V66.9
	h-9v-1.4h9c3.3,0,6.7,0,9.9-0.2s6.7-0.2,9.9-0.2c2.9,0,6.1,0.2,9.4,0.7c3.4,0.5,6.5,1.4,9.4,2.7c2.9,1.3,5.2,3.3,7.2,5.6
	c2,2.3,2.9,5.4,2.9,9.2c0,2.5-0.5,4.9-1.8,7.2c-1.3,2.2-3.1,4.2-5.6,5.8c-2.5,1.6-5.8,2.9-9.6,4c-3.8,0.9-8.3,1.4-13.6,1.4h-4v32
	H521.9z M515.9,100.7c5.6,0,9.6-1.3,11.9-3.8c2.5-2.5,3.8-6.7,3.8-12.8c0-5.6-1.1-9.9-3.3-13c-2.2-3.1-6.1-4.5-11.7-4.5
	c-0.7,0-1.4,0-2,0.2c-0.7,0-1.3,0.2-1.8,0.2v33.8H515.9z M585.1,133.7v1.4H553v-1.4h9V66.9h-9v-1.4h9c3.3,0,6.7,0,9.9-0.2
	s6.7-0.2,9.9-0.2c2.9,0,6.1,0.2,9.4,0.7c3.4,0.5,6.5,1.4,9.4,2.7c2.9,1.3,5.2,3.3,7.2,5.6s2.9,5.4,2.9,9.2c0,2.5-0.5,4.9-1.8,7.2
	c-1.3,2.2-3.1,4.2-5.6,5.8c-2.5,1.6-5.8,2.9-9.6,4c-3.8,0.9-8.3,1.4-13.6,1.4h-4v32H585.1z M579.2,100.7c5.6,0,9.6-1.3,11.9-3.8
	c2.5-2.5,3.8-6.7,3.8-12.8c0-5.6-1.1-9.9-3.3-13s-6.1-4.5-11.7-4.5c-0.7,0-1.4,0-2,0.2c-0.7,0-1.3,0.2-1.8,0.2v33.8H579.2z
	 M648.9,65.6v1.3h-9v66.9h9v1.4h-32.2v-1.4h9V66.9h-9v-1.4h32.2V65.6z M679.1,65.6l32.5,46.4h0.2V66.9h-9v-1.4h19.5v1.4h-9v68.3
	h-2.7l-43.7-62.7h-0.2v61.3h9v1.4h-19.5v-1.4h9V66.9h-9v-1.4h23V65.6z M787.5,85.5c-1.6-6.3-4.2-11.4-7.6-14.8
	c-3.4-3.6-8-5.2-13.6-5.2c-4.5,0-8.1,0.9-10.8,2.5c-2.7,1.8-4.9,4-6.3,6.7c-1.4,2.7-2.3,6-2.9,9.4c-0.5,3.6-0.7,7.2-0.7,10.8v8.5
	c0,6,0.4,10.8,1.1,15c0.7,4,2,7.2,3.6,9.8c1.6,2.5,3.8,4.3,6.5,5.2c2.7,1.1,5.8,1.6,9.4,1.6c3.1,0,5.4-0.5,7-1.6
	c1.6-1.1,3.1-2.5,4-4.3c0.9-1.8,1.6-4,1.8-6.7c0.2-2.5,0.4-5.2,0.4-8.3v-3.8h-10.1v-1.4h30.2v1.4h-6.3v22.4h-1.8
	c-0.2-0.7-0.5-1.3-1.1-1.6c-0.5-0.4-1.3-0.5-2.2-0.5c-1.6,0-3.1,0.4-4.5,0.9c-1.4,0.5-2.9,1.3-4.5,2c-1.6,0.7-3.4,1.4-5.6,2
	c-2.2,0.5-4.7,0.9-7.6,0.9c-4.7,0-9.4-0.9-13.7-2.7c-4.5-1.8-8.3-4.3-11.7-7.6c-3.4-3.3-6-7-8.1-11.4c-2-4.3-3.1-9-3.1-14.1
	c0-5.6,1.1-10.5,3.4-15c2.2-4.5,5.1-8.3,8.7-11.6c3.4-3.3,7.4-5.6,11.7-7.4c4.3-1.8,8.5-2.5,12.8-2.5c2,0,3.8,0.2,5.6,0.5
	c1.8,0.4,3.4,0.7,5.1,1.3c1.6,0.4,2.9,0.9,4.2,1.3s2.3,0.5,3.1,0.5c0.9,0,1.6-0.2,2-0.4c0.4-0.4,0.7-0.9,1.1-1.6h1.6v19.9
	C788.4,85.5,787.5,85.5,787.5,85.5z"/>
<path class="st0" d="M366.5,1.8c-2.2,0-4,0.2-5.8,0.4c-0.7,1.6-1.4,4.3-2.3,8.3c-0.4,1.4-0.5,2.5-0.9,3.1h1.4c2.3,0,4-0.4,5.1-1.1
	c1.1-0.7,2-1.8,2.5-3.4c0.2-0.5,0.4-0.7,0.5-0.7c0.2,0,0.4,0.2,0.4,0.4s0,0.4-0.2,0.7c-0.2,0.5-0.5,1.8-1.1,3.8
	c-0.5,2.2-0.9,3.6-1.1,4.3c-0.4,2.2-0.5,3.3-0.7,3.3c0,0.2-0.2,0.2-0.4,0.2c-0.2,0-0.4-0.2-0.4-0.4v-1.4c0-0.5-0.2-1.3-0.5-2.2
	c-0.4-0.9-0.7-1.4-1.1-1.8c-0.4-0.4-1.1-0.5-2-0.5c-0.9,0-2,0-3.1-0.2c-0.4,1.4-0.7,3.1-1.3,4.7c-0.7,2.5-1.1,4.3-1.1,5.1
	c0,1.3,0.5,2.3,1.4,2.7c0.9,0.5,2.2,0.7,4,0.7c2.7,0,4.5-0.2,5.4-0.5c0.9-0.4,2.2-1.1,3.6-2.5c1.4-1.3,2.5-2.5,3.4-3.6
	c0.4-0.4,0.5-0.7,0.7-0.7c0.2,0,0.4,0.2,0.4,0.4c0,0.7-0.9,3.3-2.7,7.4h-0.9h-5.1l-12.3-0.2c-0.9,0-2,0-3.4,0.2
	c-1.4,0.2-2.3,0.2-3.1,0.2c-0.4,0-0.5-0.2-0.5-0.4c0-0.2,0.2-0.4,0.5-0.4c1.6-0.4,2.9-0.7,3.3-1.3c0.5-0.5,1.1-2,2-4.3
	c0.7-2.3,1.6-5.6,2.5-9.4c0.9-3.8,1.4-6.3,1.4-7.4c0-2.2-1.1-3.3-3.4-3.3c-0.5,0-0.7-0.2-0.7-0.4c0-0.4,0.2-0.5,0.7-0.5l21.9-0.5
	c0.2,0.9,0.4,2,0.4,3.1c0,1.6,0.2,2.5,0.2,2.9s0,0.5,0,0.9c0,0.4-0.2,0.4-0.4,0.4c-0.2,0-0.4-0.2-0.5-0.5C373,6,372.4,4.9,371.7,4
	c-0.7-0.9-1.4-1.6-2-2C368.8,2,367.9,1.8,366.5,1.8L366.5,1.8z M385.5,11.9c0,0.5-0.4,2.5-1.1,6c1.4-2.5,2.9-4.3,4.2-5.6
	c1.3-1.3,2.5-1.8,3.6-1.8c0.7,0,1.1,0.2,1.4,0.7c0.4,0.5,0.5,1.1,0.5,1.6c0,0.7-0.2,1.6-0.4,2.5c-0.2,0.9-0.9,2.5-1.8,5.2
	c-1.3,3.4-1.8,5.6-1.8,6.1s0.2,0.7,0.5,0.7s0.9-0.4,1.6-0.9c0.7-0.5,1.3-1.3,1.6-1.8c0.4-0.7,0.7-0.9,0.9-0.9c0.2,0,0.4,0.2,0.4,0.4
	c0,0.5-0.7,1.6-2.2,2.9c-1.4,1.4-2.9,2.2-4.2,2.2c-1.3,0-2-0.5-2-1.6s1.1-4.3,3.1-9.8c0.7-2.2,1.3-3.6,1.3-4.7c0-0.4,0-0.5-0.2-0.7
	s-0.4-0.2-0.5-0.2c-0.4,0-1.3,0.5-2.3,1.6s-2.5,3.1-4,5.8c-1.4,2.7-2.7,5.2-3.6,7.6c-0.5,1.4-0.9,2.2-1.1,2.2c-1.4,0-2-0.2-2-0.5
	v-0.2l3.6-10.3c0.9-2.5,1.4-4.3,1.4-5.2c0-0.4-0.2-0.7-0.5-0.7s-0.9,0.4-1.8,1.1c-0.7,0.7-1.4,1.4-1.8,2c-0.4,0.5-0.7,0.7-0.9,0.7
	s-0.4-0.2-0.4-0.4c0-0.5,0.7-1.4,2.3-2.9c1.4-1.4,3.1-2.2,4.3-2.2c0.5,0,0.7,0.2,1.1,0.5C385.5,11.2,385.5,11.6,385.5,11.9
	L385.5,11.9z M392,40.1c-0.9,0-1.8-0.4-2.5-0.9c-0.7-0.5-1.1-1.4-1.1-2.3c0-0.5,0.2-1.1,0.5-1.4c0.4-0.4,0.9-0.5,1.4-0.5
	c1.1,0,1.6,0.5,1.6,1.4c0,0.4-0.2,0.7-0.5,1.3c-0.4,0.5-0.5,0.9-0.5,1.1s0.2,0.4,0.4,0.5c0.2,0.2,0.5,0.2,1.1,0.2
	c1.8,0,3.3-1.1,4.3-3.1c1.1-2,2.9-7.6,5.4-16.4l1.6-5.6c0.2-0.7,0.4-1.4,0.4-2.2c0-0.2,0-0.4-0.2-0.5c-0.2-0.2-0.4-0.2-0.5-0.2
	c-0.7,0-1.8,0.7-3.1,2.3c-0.7,0.9-1.1,1.3-1.3,1.3c-0.2,0-0.4-0.2-0.4-0.4c0-0.2,0.7-1.1,2-2.5c1.3-1.4,2.7-2.2,4-2.2
	c0.5,0,1.1,0.2,1.4,0.5s0.5,0.9,0.5,1.3c0,1.1-0.9,4.7-2.7,10.7c-1.8,6-3.1,9.8-3.8,11.4c-0.7,1.6-1.8,3.3-3.3,4.3
	C395.2,39.6,393.6,40.1,392,40.1z M407.9,0c0.5,0,0.9,0.2,1.3,0.5s0.5,0.7,0.5,1.3s-0.2,0.9-0.5,1.3s-0.7,0.5-1.3,0.5
	s-0.9-0.2-1.3-0.5c-0.4-0.4-0.5-0.7-0.5-1.3s0.2-0.9,0.5-1.3C407,0.2,407.3,0,407.9,0z M418.3,10.5c1.8,0,3.4,0.7,4.5,2.2
	s1.6,3.1,1.6,5.1c0,2.7-0.9,5.2-2.9,7.8c-2,2.3-4.3,3.6-6.9,3.6c-2,0-3.4-0.7-4.3-2.2c-0.9-1.4-1.3-2.9-1.3-4.5
	c0-2.2,0.5-4.2,1.6-6.1c1.1-2,2.3-3.4,3.8-4.3C415.8,11,417.3,10.5,418.3,10.5z M418.7,11.4c-0.7,0-1.6,0.5-2.5,1.4
	c-0.9,0.9-1.8,2.5-2.9,4.9c-0.9,2.3-1.4,4.7-1.4,6.7c0,1.1,0.2,1.8,0.7,2.7c0.5,0.7,1.1,1.1,1.8,1.1c0.9,0,1.8-0.5,2.9-1.6
	c1.1-1.1,2-2.7,2.9-4.9c0.9-2.2,1.3-4.3,1.3-6.3c0-1.3-0.2-2.3-0.7-2.9C420.5,11.7,419.8,11.4,418.7,11.4z M435.3,20.2
	c0.4,3.1,0.7,4.9,0.9,5.8c1.1-1.6,2-3.4,2.9-5.8c0.9-2.2,1.4-3.8,1.4-5.1c0-0.7-0.2-1.4-0.4-2.3c-0.2-0.4-0.2-0.7-0.2-0.9
	c0-1.1,0.4-1.6,1.3-1.6c0.4,0,0.7,0.2,0.9,0.5c0.2,0.4,0.4,0.7,0.4,1.1c0,1.1-0.4,2.9-1.3,5.4c-0.9,2.3-2.2,5.2-4,8.7
	c-1.8,3.3-3.8,6.1-5.6,8.3c-2,2.2-3.4,3.8-4.5,4.5c-1.1,0.7-2.2,1.1-3.1,1.1c-0.7,0-1.4-0.2-2-0.7c-0.5-0.5-0.7-1.1-0.7-1.8
	c0-0.5,0.2-1.1,0.5-1.4c0.4-0.4,0.7-0.5,1.3-0.5c0.9,0,1.4,0.5,1.4,1.8c0,0.7,0.4,1.1,0.9,1.1c1.6,0,4.5-2.9,8.5-8.7
	c-0.4-3.8-0.9-7.2-1.3-10.7c-0.5-3.3-0.9-5.2-1.1-5.8c-0.2-0.5-0.5-0.7-0.9-0.7c-0.7,0-1.4,1.1-2.5,3.3c-0.4,0.9-0.7,1.4-1.1,1.4
	c-0.2,0-0.4-0.2-0.4-0.4c0-0.2,0-0.5,0.2-0.9l1.1-2.3c0.4-0.7,0.9-1.4,1.3-2s0.9-0.9,1.3-1.1s0.9-0.4,1.3-0.4c0.9,0,1.4,0.5,2,1.8
	C434.2,13.2,434.6,15.9,435.3,20.2L435.3,20.2z M447.6,25.5c0.5,0,0.9,0.2,1.3,0.5s0.5,0.7,0.5,1.3s-0.2,0.9-0.5,1.3
	s-0.7,0.5-1.3,0.5c-0.5,0-0.9-0.2-1.3-0.5c-0.4-0.4-0.5-0.7-0.5-1.3s0.2-0.9,0.5-1.3C446.7,25.7,447.3,25.5,447.6,25.5z M448.7,22.4
	c-0.2,0-0.4-0.2-0.4-0.4v-0.2c0.4-1.3,0.9-3.6,1.4-7.2c0.5-3.4,0.9-6.3,1.3-8.5c0.2-2.3,0.5-4,1.1-4.5c0.4-0.5,0.9-0.7,1.4-0.7
	c0.5,0,1.1,0.2,1.4,0.5c0.4,0.4,0.4,0.7,0.4,1.1c0,0.7-0.5,2.5-1.6,5.6l-3.3,9.2c-1.1,3.1-1.6,4.5-1.6,4.7
	C448.9,22.2,448.7,22.4,448.7,22.4z"/>
<rect x="131.6" y="212.9" class="st1" width="538.9" height="44.3"/>
<path class="st0" d="M177.6,225.9v1.8H169v4.9h8.1v1.8H169v5.4h8.7v1.8h-10.8v-15.7H177.6z M182.5,225.9l8.1,12.6l0,0v-12.6h2v15.5
	h-2.2l-8.1-12.5l0,0v12.5h-2v-15.5H182.5z M194.3,227.7v-1.8h12.5v1.8h-5.2v13.7h-2v-13.7H194.3z M219.2,225.9v1.8h-8.7v4.9h8.1v1.8
	h-8.1v5.4h8.7v1.8h-10.8v-15.7H219.2z M229,225.9c1.4,0,2.7,0.4,3.4,1.1c0.9,0.7,1.3,1.6,1.3,2.9c0,0.9-0.2,1.8-0.7,2.5
	c-0.4,0.7-1.1,1.3-2,1.4l0,0c0.4,0,0.9,0.2,1.1,0.4c0.4,0.2,0.5,0.4,0.7,0.7c0.2,0.4,0.4,0.5,0.4,0.9c0,0.4,0.2,0.7,0.2,1.1
	c0,0.4,0,0.7,0,1.1c0,0.4,0,0.7,0.2,1.1c0,0.4,0.2,0.7,0.2,1.1c0.2,0.4,0.4,0.7,0.5,0.9h-2.3c-0.2-0.2-0.2-0.4-0.4-0.7
	c0-0.4,0-0.5-0.2-0.9c0-0.4,0-0.7,0-1.1c0-0.4,0-0.7-0.2-1.1c0-0.4-0.2-0.7-0.2-1.1c0-0.4-0.2-0.7-0.4-0.9s-0.4-0.5-0.7-0.5
	c-0.4,0-0.7-0.2-1.3-0.2h-5.1v6.7h-2v-15.4H229z M229.5,232.9c0.4,0,0.9-0.2,1.1-0.4c0.4-0.2,0.5-0.5,0.7-0.9
	c0.2-0.4,0.4-0.9,0.4-1.4c0-0.7-0.2-1.4-0.7-2c-0.4-0.5-1.1-0.7-2.2-0.7h-5.1v5.4h4.3C228.6,233.1,229,233.1,229.5,232.9z
	 M249.4,225.9c1.6,0,2.7,0.4,3.6,1.3c0.7,0.7,1.3,2,1.3,3.4c0,1.4-0.4,2.5-1.3,3.4c-0.7,0.7-2,1.3-3.6,1.3h-4.7v6.3h-2v-15.7H249.4z
	 M248.7,233.3c1.1,0,2-0.2,2.5-0.7c0.5-0.5,0.9-1.3,0.9-2.2s-0.4-1.6-0.9-2.2c-0.5-0.5-1.4-0.7-2.5-0.7h-4v5.6h4V233.3z M264,225.9
	c1.4,0,2.7,0.4,3.4,1.1c0.9,0.7,1.3,1.6,1.3,2.9c0,0.9-0.2,1.8-0.7,2.5c-0.4,0.7-1.1,1.3-2,1.4l0,0c0.4,0,0.9,0.2,1.1,0.4
	c0.4,0.2,0.5,0.4,0.7,0.7c0.2,0.4,0.4,0.5,0.4,0.9c0,0.4,0.2,0.7,0.2,1.1c0,0.4,0,0.7,0,1.1c0,0.4,0,0.7,0.2,1.1
	c0,0.4,0.2,0.7,0.2,1.1c0.2,0.4,0.4,0.7,0.5,0.9h-2.3c-0.2-0.2-0.2-0.4-0.4-0.7c0-0.4,0-0.5-0.2-0.9c0-0.4,0-0.7,0-1.1
	c0-0.4,0-0.7-0.2-1.1c0-0.4-0.2-0.7-0.2-1.1c0-0.4-0.2-0.7-0.4-0.9c-0.2-0.2-0.4-0.5-0.7-0.5c-0.4,0-0.7-0.2-1.3-0.2h-5.1v6.7h-2
	v-15.4H264z M264.4,232.9c0.4,0,0.9-0.2,1.1-0.4c0.4-0.2,0.5-0.5,0.7-0.9c0.2-0.4,0.4-0.9,0.4-1.4c0-0.7-0.2-1.4-0.7-2
	c-0.4-0.5-1.1-0.7-2.2-0.7h-5.1v5.4h4.3C263.5,233.1,264,233.1,264.4,232.9z M271.2,230.6c0.4-0.9,0.7-1.8,1.4-2.5
	c0.5-0.7,1.4-1.3,2.3-1.8c0.9-0.4,2-0.7,3.3-0.7c1.3,0,2.3,0.2,3.3,0.7c0.9,0.4,1.6,1.1,2.3,1.8c0.5,0.7,1.1,1.6,1.4,2.5
	c0.4,0.9,0.5,2,0.5,3.1c0,1.1-0.2,2-0.5,3.1c-0.4,0.9-0.7,1.8-1.4,2.5c-0.5,0.7-1.4,1.3-2.3,1.8c-0.9,0.4-2,0.7-3.3,0.7
	c-1.3,0-2.3-0.2-3.3-0.7c-0.9-0.4-1.6-1.1-2.3-1.8c-0.5-0.7-1.1-1.6-1.4-2.5c-0.4-0.9-0.5-2-0.5-3.1
	C270.7,232.6,270.9,231.7,271.2,230.6z M273.1,236c0.2,0.7,0.5,1.4,0.9,2c0.4,0.5,0.9,1.1,1.6,1.4c0.7,0.4,1.4,0.5,2.3,0.5
	s1.8-0.2,2.3-0.5c0.7-0.4,1.3-0.9,1.6-1.4c0.4-0.5,0.7-1.3,0.9-2c0.2-0.7,0.4-1.4,0.4-2.3c0-0.7-0.2-1.6-0.4-2.3
	c-0.2-0.7-0.5-1.4-0.9-2c-0.4-0.5-0.9-1.1-1.6-1.4c-0.7-0.4-1.4-0.5-2.3-0.5s-1.8,0.2-2.3,0.5c-0.7,0.4-1.3,0.9-1.6,1.4
	c-0.4,0.5-0.7,1.3-0.9,2c-0.2,0.7-0.4,1.4-0.4,2.3C272.7,234.6,272.9,235.3,273.1,236z M290.9,225.9l4.9,13l4.9-13h2.9v15.5h-2
	v-12.8l0,0l-4.9,12.8h-1.8l-4.9-12.8l0,0v12.8h-2v-15.5H290.9z M306.7,230.6c0.4-0.9,0.7-1.8,1.4-2.5c0.5-0.7,1.4-1.3,2.3-1.8
	c0.9-0.4,2-0.7,3.3-0.7c1.3,0,2.3,0.2,3.3,0.7c0.9,0.4,1.6,1.1,2.3,1.8c0.5,0.7,1.1,1.6,1.4,2.5c0.4,0.9,0.5,2,0.5,3.1
	c0,1.1-0.2,2-0.5,3.1c-0.4,0.9-0.7,1.8-1.4,2.5c-0.5,0.7-1.4,1.3-2.3,1.8c-0.9,0.4-2,0.7-3.3,0.7c-1.3,0-2.3-0.2-3.3-0.7
	c-0.9-0.4-1.6-1.1-2.3-1.8c-0.5-0.7-1.1-1.6-1.4-2.5s-0.5-2-0.5-3.1C306.1,232.6,306.3,231.7,306.7,230.6z M308.5,236
	c0.2,0.7,0.5,1.4,0.9,2c0.4,0.5,0.9,1.1,1.6,1.4c0.7,0.4,1.4,0.5,2.3,0.5c0.9,0,1.8-0.2,2.3-0.5c0.7-0.4,1.3-0.9,1.6-1.4
	s0.7-1.3,0.9-2c0.2-0.7,0.4-1.4,0.4-2.3c0-0.7-0.2-1.6-0.4-2.3c-0.2-0.7-0.5-1.4-0.9-2c-0.4-0.5-0.9-1.1-1.6-1.4
	c-0.7-0.4-1.4-0.5-2.3-0.5c-0.9,0-1.8,0.2-2.3,0.5c-0.7,0.4-1.3,0.9-1.6,1.4c-0.4,0.5-0.7,1.3-0.9,2c-0.2,0.7-0.4,1.4-0.4,2.3
	S308.3,235.3,308.5,236z M338.8,228.1c-0.7-0.5-1.8-0.9-2.9-0.9c-0.9,0-1.8,0.2-2.3,0.5c-0.7,0.4-1.3,0.9-1.6,1.4
	c-0.4,0.5-0.7,1.3-0.9,2s-0.4,1.4-0.4,2.3s0.2,1.8,0.4,2.5c0.2,0.7,0.5,1.4,0.9,2c0.4,0.5,0.9,1.1,1.6,1.4c0.7,0.4,1.4,0.5,2.3,0.5
	c0.7,0,1.3-0.2,1.8-0.4c0.5-0.2,0.9-0.5,1.4-0.9c0.4-0.4,0.7-0.9,0.9-1.4s0.4-1.1,0.4-1.8h2c-0.2,2-0.9,3.4-2,4.5
	c-1.1,1.1-2.7,1.6-4.7,1.6c-1.3,0-2.2-0.2-3.1-0.5c-0.9-0.4-1.6-0.9-2.2-1.6c-0.5-0.7-1.1-1.6-1.3-2.5c-0.4-0.9-0.4-2-0.4-3.3
	s0.2-2.2,0.5-3.3c0.4-0.9,0.7-1.8,1.4-2.5c0.5-0.7,1.4-1.3,2.3-1.8c0.9-0.4,2-0.7,3.1-0.7c0.7,0,1.6,0.2,2.3,0.4
	c0.7,0.2,1.4,0.5,2,0.9c0.5,0.4,1.1,0.9,1.4,1.6c0.4,0.5,0.5,1.4,0.7,2.2h-2C340.3,229.5,339.7,228.6,338.8,228.1z M344.8,230.6
	c0.4-0.9,0.7-1.8,1.4-2.5c0.5-0.7,1.4-1.3,2.3-1.8c0.9-0.4,2-0.7,3.3-0.7c1.3,0,2.3,0.2,3.3,0.7c0.9,0.4,1.6,1.1,2.3,1.8
	c0.5,0.7,1.1,1.6,1.4,2.5c0.4,0.9,0.5,2,0.5,3.1c0,1.1-0.2,2-0.5,3.1c-0.4,0.9-0.7,1.8-1.4,2.5c-0.5,0.7-1.4,1.3-2.3,1.8
	c-0.9,0.4-2,0.7-3.3,0.7c-1.3,0-2.3-0.2-3.3-0.7c-0.9-0.4-1.6-1.1-2.3-1.8c-0.5-0.7-1.1-1.6-1.4-2.5s-0.5-2-0.5-3.1
	C344.3,232.6,344.4,231.7,344.8,230.6z M346.8,236c0.2,0.7,0.5,1.4,0.9,2c0.4,0.5,0.9,1.1,1.6,1.4c0.7,0.4,1.4,0.5,2.3,0.5
	c0.9,0,1.8-0.2,2.3-0.5c0.7-0.4,1.3-0.9,1.6-1.4s0.7-1.3,0.9-2c0.2-0.7,0.4-1.4,0.4-2.3c0-0.7-0.2-1.6-0.4-2.3
	c-0.2-0.7-0.5-1.4-0.9-2c-0.4-0.5-0.9-1.1-1.6-1.4c-0.7-0.4-1.4-0.5-2.3-0.5c-0.9,0-1.8,0.2-2.3,0.5c-0.7,0.4-1.3,0.9-1.6,1.4
	c-0.4,0.5-0.7,1.3-0.9,2c-0.2,0.7-0.4,1.4-0.4,2.3S346.4,235.3,346.8,236z M367,225.9c2.3,0,4.2,0.5,5.6,1.8c1.3,1.3,2,3.1,2,5.6
	c0,1.3-0.2,2.5-0.4,3.4c-0.4,1.1-0.7,1.8-1.3,2.5c-0.5,0.7-1.4,1.3-2.3,1.6c-0.9,0.4-2,0.5-3.4,0.5H362v-15.5H367z M367.2,239.6
	c0.2,0,0.5,0,0.9,0s0.7-0.2,1.1-0.2c0.4-0.2,0.7-0.4,1.1-0.5s0.7-0.5,1.1-1.1c0.4-0.4,0.5-1.1,0.7-1.6c0.2-0.7,0.4-1.4,0.4-2.5
	c0-0.9-0.2-1.8-0.4-2.5c-0.2-0.7-0.5-1.3-0.9-1.8c-0.4-0.5-0.9-0.9-1.6-1.1c-0.7-0.2-1.4-0.4-2.3-0.4h-3.4V240h3.4V239.6z
	 M387.8,225.9v1.8h-8.7v4.9h8.1v1.8h-8.1v5.4h8.7v1.8H377v-15.7H387.8z M390.3,232.6v-2.3h2.3v2.3H390.3z M392.9,239.1v2.3h-2.5
	v-2.3H392.9z M412,230c-0.2-0.4-0.5-0.5-0.7-0.9c-0.4-0.2-0.7-0.4-1.1-0.5c-0.4-0.2-0.7-0.2-1.3-0.2c-0.7,0-1.4,0.2-2,0.4
	c-0.5,0.4-0.9,0.7-1.3,1.3c-0.4,0.5-0.5,1.1-0.7,1.6c-0.2,0.7-0.2,1.3-0.2,2c0,0.7,0,1.3,0.2,2c0.2,0.5,0.4,1.1,0.7,1.6
	c0.4,0.5,0.7,0.9,1.3,1.3c0.5,0.4,1.3,0.4,2,0.4c1.1,0,1.8-0.4,2.5-0.9c0.5-0.7,0.9-1.4,1.1-2.5h3.3c0,0.9-0.4,1.8-0.7,2.7
	c-0.4,0.7-0.9,1.4-1.4,2c-0.5,0.5-1.3,0.9-2.2,1.3c-0.7,0.4-1.6,0.4-2.7,0.4c-1.3,0-2.2-0.2-3.3-0.5c-0.9-0.4-1.8-0.9-2.3-1.6
	c-0.7-0.7-1.1-1.6-1.4-2.5s-0.5-2-0.5-3.1c0-1.1,0.2-2.2,0.5-3.3c0.4-0.9,0.9-1.8,1.4-2.5c0.7-0.7,1.4-1.3,2.3-1.8
	c0.9-0.4,2-0.5,3.3-0.5c0.9,0,1.6,0.2,2.3,0.4c0.7,0.2,1.4,0.5,2,1.1c0.5,0.5,1.1,1.1,1.4,1.8c0.4,0.7,0.7,1.4,0.7,2.3H412
	C412.4,230.8,412.4,230.4,412,230z M421.6,225.9v6h6.3v-6h3.4v15.5h-3.4v-6.7h-6.3v6.7h-3.4v-15.5H421.6z M437.7,225.9v15.5h-3.4
	v-15.5H437.7z M441.8,238v-2.9l6.7-8.9h2.7v9.2h2v2.5h-2v3.4h-3.1V238L441.8,238L441.8,238z M448.2,230l-4,5.2h4V230L448.2,230z
	 M459,241.4v-9.9h-3.8v-2.3c0.5,0,1.1,0,1.6-0.2s0.9-0.2,1.3-0.5c0.4-0.2,0.7-0.5,1.1-0.9s0.5-0.9,0.5-1.4h2.5v15.2H459V241.4z
	 M471.1,241.4v-9.9h-3.8v-2.3c0.5,0,1.1,0,1.6-0.2s0.9-0.2,1.3-0.5c0.4-0.2,0.7-0.5,1.1-0.9c0.4-0.4,0.5-0.9,0.5-1.4h2.5v15.2h-3.3
	V241.4z M491.9,225.9l6.1,15.5h-2.3l-1.6-4.7h-6.5l-1.8,4.7h-2.2l6-15.5L491.9,225.9L491.9,225.9z M493.3,235.1l-2.5-7.2l0,0
	l-2.7,7.2H493.3z M495.9,227.7v-1.8h12.5v1.8h-5.2v13.7h-2v-13.7H495.9z M525.3,228.1c-0.7-0.5-1.8-0.9-2.9-0.9
	c-0.9,0-1.8,0.2-2.3,0.5c-0.7,0.4-1.3,0.9-1.6,1.4c-0.4,0.5-0.7,1.3-0.9,2c-0.2,0.7-0.4,1.4-0.4,2.3s0.2,1.8,0.4,2.5
	c0.2,0.7,0.5,1.4,0.9,2c0.4,0.5,0.9,1.1,1.6,1.4c0.7,0.4,1.4,0.5,2.3,0.5c0.7,0,1.3-0.2,1.8-0.4c0.5-0.2,0.9-0.5,1.4-0.9
	c0.4-0.4,0.7-0.9,0.9-1.4c0.2-0.5,0.4-1.1,0.4-1.8h2c-0.2,2-0.9,3.4-2,4.5c-1.1,1.1-2.7,1.6-4.7,1.6c-1.3,0-2.2-0.2-3.1-0.5
	c-0.9-0.4-1.6-0.9-2.2-1.6c-0.5-0.7-1.1-1.6-1.3-2.5c-0.4-0.9-0.4-2-0.4-3.3s0.2-2.2,0.5-3.3c0.4-0.9,0.7-1.8,1.4-2.5
	c0.5-0.7,1.4-1.3,2.3-1.8c0.9-0.4,2-0.7,3.1-0.7c0.7,0,1.6,0.2,2.3,0.4c0.7,0.2,1.4,0.5,2,0.9c0.5,0.4,1.1,0.9,1.4,1.6
	c0.4,0.5,0.5,1.4,0.7,2.2h-2C526.6,229.5,526.2,228.6,525.3,228.1z M533.8,225.9v6.7h8.1v-6.7h2v15.5h-2v-7h-8.1v7h-2v-15.5H533.8z
	 M558,225.9v1.8h-8.7v4.9h8.1v1.8h-8.1v5.4h8.7v1.8h-10.8v-15.7H558z M570,228.1c-0.7-0.5-1.8-0.9-2.9-0.9c-0.9,0-1.8,0.2-2.3,0.5
	c-0.7,0.4-1.3,0.9-1.6,1.4c-0.4,0.5-0.7,1.3-0.9,2s-0.4,1.4-0.4,2.3s0.2,1.8,0.4,2.5s0.5,1.4,0.9,2c0.4,0.5,0.9,1.1,1.6,1.4
	c0.7,0.4,1.4,0.5,2.3,0.5c0.7,0,1.3-0.2,1.8-0.4c0.5-0.2,0.9-0.5,1.4-0.9c0.4-0.4,0.7-0.9,0.9-1.4s0.4-1.1,0.4-1.8h2
	c-0.2,2-0.9,3.4-2,4.5c-1.1,1.1-2.7,1.6-4.7,1.6c-1.3,0-2.2-0.2-3.1-0.5c-0.9-0.4-1.6-0.9-2.2-1.6c-0.5-0.7-1.1-1.6-1.3-2.5
	c-0.4-0.9-0.4-2-0.4-3.3s0.2-2.2,0.5-3.3c0.4-0.9,0.7-1.8,1.4-2.5c0.5-0.7,1.4-1.3,2.3-1.8c0.9-0.4,2-0.7,3.1-0.7
	c0.7,0,1.6,0.2,2.3,0.4c0.7,0.2,1.4,0.5,2,0.9c0.5,0.4,1.1,0.9,1.4,1.6c0.4,0.5,0.5,1.4,0.7,2.2h-2
	C571.2,229.5,570.7,228.6,570,228.1z M578.3,225.9v7.8l8-7.8h2.7l-6.5,6.3l6.9,9.2h-2.5l-5.6-7.8l-2.5,2.3v5.4h-2v-15.5H578.3z
	 M590.4,230.6c0.4-0.9,0.7-1.8,1.4-2.5c0.5-0.7,1.4-1.3,2.3-1.8c0.9-0.4,2-0.7,3.3-0.7c1.3,0,2.3,0.2,3.3,0.7
	c0.9,0.4,1.6,1.1,2.3,1.8c0.5,0.7,1.1,1.6,1.4,2.5c0.4,0.9,0.5,2,0.5,3.1c0,1.1-0.2,2-0.5,3.1c-0.4,0.9-0.7,1.8-1.4,2.5
	c-0.5,0.7-1.4,1.3-2.3,1.8c-0.9,0.4-2,0.7-3.3,0.7s-2.3-0.2-3.3-0.7c-0.9-0.4-1.6-1.1-2.3-1.8c-0.5-0.7-1.1-1.6-1.4-2.5
	c-0.4-0.9-0.5-2-0.5-3.1C589.8,232.6,590,231.7,590.4,230.6z M592.4,236c0.2,0.7,0.5,1.4,0.9,2s0.9,1.1,1.6,1.4
	c0.7,0.4,1.4,0.5,2.3,0.5c0.9,0,1.8-0.2,2.3-0.5c0.7-0.4,1.3-0.9,1.6-1.4c0.4-0.5,0.7-1.3,0.9-2c0.2-0.7,0.4-1.4,0.4-2.3
	c0-0.7-0.2-1.6-0.4-2.3c-0.2-0.7-0.5-1.4-0.9-2c-0.4-0.5-0.9-1.1-1.6-1.4s-1.4-0.5-2.3-0.5c-0.9,0-1.8,0.2-2.3,0.5
	c-0.7,0.4-1.3,0.9-1.6,1.4c-0.4,0.5-0.7,1.3-0.9,2c-0.2,0.7-0.4,1.4-0.4,2.3C592,234.6,592,235.3,592.4,236z M618,240.3
	c-1.1,0.9-2.5,1.4-4.5,1.4s-3.6-0.5-4.7-1.4c-1.1-0.9-1.6-2.5-1.6-4.5v-9.9h2v9.9c0,1.4,0.4,2.5,1.1,3.1c0.7,0.7,1.8,1.1,3.3,1.1
	c1.3,0,2.3-0.4,3.1-1.1c0.7-0.7,1.1-1.8,1.1-3.1v-9.9h2v9.9C619.7,237.8,619.1,239.3,618,240.3z M621.3,227.7v-1.8h12.5v1.8h-5.2
	v13.7h-2v-13.7H621.3z"/>
</svg>
