<svg xmlns="http://www.w3.org/2000/svg" xmlns:xlink="http://www.w3.org/1999/xlink" version="1.1" id="Layer_1" x="0px" y="0px" viewBox="0 0 134.3 74.4" enable-background="new 0 0 134.3 74.4" xml:space="preserve">
  <g>
    <g>
      <g>
        <path fill="#ED1C24" d="M25.1 9.4c-1.4 0.8-2.5 2.8-1.9 4.8 1.9-2.7 7.5-0.3 9.4-6.6 -1.3 1-2.9 1.3-3.7 1.2 3.1-1.3 4.8-5.8 2.1-8.9 0.8 3.6-3.8 4-7.5 4.6 -6.8 1.3-8 7.6-4.9 10.9C18.2 11.7 21.3 9.4 25.1 9.4L25.1 9.4z"/>
        <path fill="#ED1C24" d="M23.4 31.3c0.2-3.2 0.3-6.1 1-8.2h-5.8c0.7 2.1 0.8 5 1 8.2 0.3 3.9 1 15.2 1 15.2h1.8C22.4 46.5 23.1 35.3 23.4 31.3L23.4 31.3 23.4 31.3zM13.1 18.9c0 0 0.5 1.3 0.5 2.5h15.8c0-1.3 0.5-2.5 0.5-2.5l-7.5 0c1-1.7 3.5-4.4 8.6-4.4C36.7 14.5 43 19 43 27.1c0 12.1-12.6 20.7-21.5 26.3C12.6 47.8 0 39.2 0 27.1 0 19 6.3 14.5 11.9 14.5c5.2 0 7.6 2.7 8.6 4.4L13.1 18.9 13.1 18.9 13.1 18.9z"/>
      </g>
      <path fill="#FFFFFF" d="M23.4 31.3c0.2-3.2 0.3-6.1 1-8.2h-5.8c0.7 2.1 0.8 5 1 8.2 0.3 3.9 1 15.3 1 15.3h1.8C22.4 46.6 23.1 35.3 23.4 31.3L23.4 31.3z"/>
      <path fill="#FFFFFF" d="M13.1 18.9c0 0 0.5 1.3 0.5 2.5h15.8c0-1.3 0.5-2.5 0.5-2.5H13.1L13.1 18.9z"/>
      <path d="M56.1 8.8l3.7 10h-2.3l-0.8-2.2h-3.7l-0.8 2.2h-2.2l3.8-10H56.1zM56.3 14.9L55 11.2h0l-1.3 3.7H56.3z"/>
      <path d="M62.5 11.5v1h0c0.3-0.4 0.6-0.7 0.9-0.9 0.4-0.2 0.8-0.3 1.3-0.3 0.5 0 0.9 0.1 1.3 0.3 0.4 0.2 0.7 0.5 0.9 0.9 0.2-0.3 0.5-0.6 0.9-0.8 0.4-0.2 0.8-0.4 1.3-0.4 0.4 0 0.7 0 1.1 0.1 0.3 0.1 0.6 0.2 0.8 0.4 0.2 0.2 0.4 0.5 0.5 0.8 0.1 0.3 0.2 0.7 0.2 1.2v4.8h-2v-4.1c0-0.2 0-0.5 0-0.7 0-0.2-0.1-0.4-0.2-0.6 -0.1-0.2-0.2-0.3-0.4-0.4 -0.2-0.1-0.4-0.1-0.7-0.1 -0.3 0-0.5 0.1-0.7 0.2 -0.2 0.1-0.3 0.2-0.4 0.4 -0.1 0.2-0.2 0.4-0.2 0.6 0 0.2 0 0.4 0 0.7v4h-2v-4.1c0-0.2 0-0.4 0-0.6 0-0.2 0-0.4-0.1-0.6 -0.1-0.2-0.2-0.3-0.3-0.4 -0.2-0.1-0.4-0.2-0.7-0.2 -0.1 0-0.2 0-0.4 0.1 -0.2 0-0.3 0.1-0.4 0.2 -0.1 0.1-0.3 0.3-0.4 0.5 -0.1 0.2-0.2 0.5-0.2 0.9v4.2h-2v-7.2H62.5z"/>
      <path d="M75.4 17c0.3 0.3 0.7 0.4 1.3 0.4 0.4 0 0.7-0.1 1-0.3 0.3-0.2 0.5-0.4 0.5-0.6H80c-0.3 0.9-0.7 1.5-1.3 1.9 -0.6 0.4-1.3 0.6-2.1 0.6 -0.6 0-1.1-0.1-1.5-0.3 -0.5-0.2-0.8-0.4-1.2-0.8 -0.3-0.3-0.6-0.7-0.7-1.2 -0.2-0.5-0.3-1-0.3-1.5 0-0.5 0.1-1 0.3-1.5 0.2-0.5 0.4-0.9 0.8-1.2 0.3-0.3 0.7-0.6 1.2-0.8 0.5-0.2 1-0.3 1.5-0.3 0.6 0 1.2 0.1 1.6 0.4 0.5 0.2 0.8 0.6 1.1 1 0.3 0.4 0.5 0.9 0.6 1.4 0.1 0.5 0.2 1.1 0.1 1.6h-5.2C74.9 16.3 75.1 16.8 75.4 17zM77.6 13.2c-0.2-0.3-0.6-0.4-1.1-0.4 -0.3 0-0.6 0.1-0.8 0.2 -0.2 0.1-0.4 0.2-0.5 0.4 -0.1 0.2-0.2 0.3-0.3 0.5 -0.1 0.2-0.1 0.3-0.1 0.5h3.2C78 13.9 77.8 13.5 77.6 13.2z"/>
      <path d="M83.2 11.5v1.3h0c0.1-0.2 0.2-0.4 0.4-0.6 0.2-0.2 0.3-0.4 0.5-0.5 0.2-0.1 0.4-0.2 0.7-0.3 0.2-0.1 0.5-0.1 0.7-0.1 0.1 0 0.3 0 0.4 0.1v1.8c-0.1 0-0.2 0-0.3 0 -0.1 0-0.3 0-0.4 0 -0.4 0-0.7 0.1-0.9 0.2 -0.3 0.1-0.5 0.3-0.6 0.5 -0.2 0.2-0.3 0.5-0.3 0.7 -0.1 0.3-0.1 0.6-0.1 0.9v3.3h-2v-7.2H83.2z"/>
      <path d="M86.8 10.4V8.8h2v1.6H86.8zM88.8 11.5v7.2h-2v-7.2H88.8z"/>
      <path d="M93.8 12.8c-0.3 0-0.6 0.1-0.8 0.2 -0.2 0.1-0.4 0.3-0.5 0.6 -0.1 0.2-0.2 0.5-0.3 0.8 -0.1 0.3-0.1 0.5-0.1 0.8 0 0.3 0 0.5 0.1 0.8 0.1 0.3 0.1 0.5 0.3 0.7 0.1 0.2 0.3 0.4 0.5 0.5 0.2 0.1 0.5 0.2 0.8 0.2 0.5 0 0.8-0.1 1.1-0.4 0.3-0.3 0.4-0.6 0.5-1.1h1.9c-0.1 1-0.5 1.7-1.1 2.2 -0.6 0.5-1.4 0.8-2.4 0.8 -0.5 0-1-0.1-1.5-0.3 -0.5-0.2-0.8-0.4-1.2-0.8 -0.3-0.3-0.6-0.7-0.7-1.2 -0.2-0.5-0.3-0.9-0.3-1.5 0-0.6 0.1-1.1 0.2-1.6 0.2-0.5 0.4-0.9 0.7-1.2 0.3-0.4 0.7-0.6 1.2-0.8 0.5-0.2 1-0.3 1.6-0.3 0.4 0 0.8 0.1 1.2 0.2 0.4 0.1 0.8 0.3 1.1 0.5 0.3 0.2 0.6 0.5 0.8 0.9 0.2 0.3 0.3 0.7 0.3 1.2h-1.9C95.1 13.3 94.6 12.8 93.8 12.8z"/>
      <path d="M98.6 12.6c0.2-0.3 0.5-0.6 0.8-0.7 0.3-0.2 0.7-0.3 1.1-0.4 0.4-0.1 0.8-0.1 1.2-0.1 0.4 0 0.7 0 1.1 0.1 0.4 0.1 0.7 0.2 1 0.3 0.3 0.2 0.6 0.4 0.8 0.6 0.2 0.3 0.3 0.6 0.3 1.1v3.8c0 0.3 0 0.6 0.1 0.9 0 0.3 0.1 0.5 0.2 0.7h-2c0-0.1-0.1-0.2-0.1-0.3 0-0.1 0-0.2-0.1-0.4 -0.3 0.3-0.7 0.6-1.1 0.7 -0.4 0.1-0.9 0.2-1.3 0.2 -0.3 0-0.7 0-1-0.1 -0.3-0.1-0.6-0.2-0.8-0.4 -0.2-0.2-0.4-0.4-0.5-0.7 -0.1-0.3-0.2-0.6-0.2-1 0-0.4 0.1-0.7 0.2-1 0.1-0.3 0.3-0.5 0.6-0.6 0.2-0.2 0.5-0.3 0.8-0.4 0.3-0.1 0.6-0.1 0.9-0.2 0.3 0 0.6-0.1 0.9-0.1 0.3 0 0.5-0.1 0.8-0.1 0.2-0.1 0.4-0.1 0.5-0.2 0.1-0.1 0.2-0.3 0.2-0.5 0-0.2 0-0.4-0.1-0.5 -0.1-0.1-0.2-0.2-0.3-0.3 -0.1-0.1-0.3-0.1-0.4-0.1 -0.2 0-0.3 0-0.5 0 -0.4 0-0.7 0.1-0.9 0.3s-0.4 0.4-0.4 0.8h-2C98.3 13.3 98.4 12.9 98.6 12.6zM102.6 15.4c-0.1 0-0.3 0.1-0.4 0.1 -0.1 0-0.3 0.1-0.5 0.1 -0.2 0-0.3 0-0.5 0.1 -0.2 0-0.3 0.1-0.4 0.1s-0.3 0.1-0.4 0.2c-0.1 0.1-0.2 0.2-0.3 0.3 -0.1 0.1-0.1 0.3-0.1 0.5 0 0.2 0 0.3 0.1 0.4 0.1 0.1 0.2 0.2 0.3 0.3 0.1 0.1 0.2 0.1 0.4 0.1 0.1 0 0.3 0 0.5 0 0.4 0 0.7-0.1 0.9-0.2 0.2-0.1 0.4-0.3 0.5-0.5 0.1-0.2 0.2-0.4 0.2-0.6 0-0.2 0-0.3 0-0.4v-0.7C102.8 15.3 102.7 15.4 102.6 15.4z"/>
      <path d="M108.3 11.5v1h0c0.3-0.4 0.6-0.7 1-0.9 0.4-0.2 0.8-0.3 1.2-0.3 0.5 0 1 0.1 1.3 0.2 0.3 0.1 0.6 0.3 0.8 0.6 0.2 0.3 0.3 0.6 0.4 0.9 0.1 0.4 0.1 0.8 0.1 1.2v4.5h-2v-4.1c0-0.6-0.1-1-0.3-1.3 -0.2-0.3-0.5-0.4-1-0.4 -0.5 0-0.9 0.2-1.2 0.5 -0.2 0.3-0.4 0.9-0.4 1.6v3.8h-2v-7.2H108.3z"/>
      <path d="M54.3 22.9v4.9h5.2v-4.9h2.8v12.9h-2.8v-5.5h-5.2v5.5h-2.8V22.9H54.3z"/>
      <path d="M67.2 33.5c0.4 0.4 0.9 0.6 1.7 0.6 0.5 0 1-0.1 1.3-0.4 0.4-0.3 0.6-0.5 0.7-0.8h2.2c-0.4 1.1-0.9 1.9-1.7 2.4 -0.7 0.5-1.6 0.7-2.7 0.7 -0.7 0-1.4-0.1-2-0.4 -0.6-0.2-1.1-0.6-1.5-1 -0.4-0.4-0.7-0.9-0.9-1.5 -0.2-0.6-0.3-1.3-0.3-2 0-0.7 0.1-1.3 0.3-1.9 0.2-0.6 0.6-1.1 1-1.6 0.4-0.4 0.9-0.8 1.5-1 0.6-0.3 1.2-0.4 1.9-0.4 0.8 0 1.5 0.2 2.1 0.5 0.6 0.3 1.1 0.7 1.4 1.2 0.4 0.5 0.7 1.1 0.8 1.8 0.2 0.7 0.2 1.3 0.2 2.1h-6.7C66.7 32.6 66.9 33.2 67.2 33.5zM70.1 28.7c-0.3-0.3-0.8-0.5-1.4-0.5 -0.4 0-0.7 0.1-1 0.2 -0.3 0.1-0.5 0.3-0.6 0.5 -0.2 0.2-0.3 0.4-0.3 0.6 -0.1 0.2-0.1 0.4-0.1 0.6h4.2C70.7 29.5 70.4 29 70.1 28.7z"/>
      <path d="M75.2 27.8c0.3-0.4 0.6-0.7 1-1 0.4-0.2 0.9-0.4 1.4-0.5 0.5-0.1 1-0.2 1.5-0.2 0.5 0 0.9 0 1.4 0.1 0.5 0.1 0.9 0.2 1.3 0.4 0.4 0.2 0.7 0.5 1 0.8 0.3 0.3 0.4 0.8 0.4 1.4v4.8c0 0.4 0 0.8 0.1 1.2 0 0.4 0.1 0.7 0.3 0.9h-2.6c0-0.1-0.1-0.3-0.1-0.4 0-0.1-0.1-0.3-0.1-0.5 -0.4 0.4-0.9 0.7-1.4 0.9 -0.6 0.2-1.1 0.3-1.7 0.3 -0.4 0-0.9-0.1-1.2-0.2 -0.4-0.1-0.7-0.3-1-0.5 -0.3-0.2-0.5-0.5-0.7-0.9 -0.2-0.3-0.2-0.8-0.2-1.2 0-0.5 0.1-1 0.3-1.3 0.2-0.3 0.4-0.6 0.7-0.8 0.3-0.2 0.6-0.4 1-0.5 0.4-0.1 0.8-0.2 1.1-0.2 0.4-0.1 0.8-0.1 1.1-0.1 0.4 0 0.7-0.1 1-0.2 0.3-0.1 0.5-0.2 0.7-0.3 0.2-0.1 0.2-0.3 0.2-0.6 0-0.3 0-0.5-0.1-0.7 -0.1-0.2-0.2-0.3-0.4-0.4C80 28.1 79.8 28 79.6 28c-0.2 0-0.4 0-0.6 0 -0.5 0-0.9 0.1-1.2 0.3 -0.3 0.2-0.5 0.6-0.5 1.1h-2.6C74.8 28.7 74.9 28.2 75.2 27.8zM80.2 31.5c-0.2 0.1-0.3 0.1-0.5 0.1 -0.2 0-0.4 0.1-0.6 0.1 -0.2 0-0.4 0.1-0.6 0.1 -0.2 0-0.4 0.1-0.6 0.1 -0.2 0.1-0.3 0.1-0.5 0.2 -0.1 0.1-0.2 0.2-0.3 0.4C77 32.7 77 32.9 77 33.1c0 0.2 0 0.4 0.1 0.6 0.1 0.2 0.2 0.3 0.3 0.4 0.1 0.1 0.3 0.2 0.5 0.2 0.2 0 0.4 0.1 0.6 0.1 0.5 0 0.9-0.1 1.2-0.3 0.3-0.2 0.5-0.4 0.6-0.6 0.1-0.2 0.2-0.5 0.2-0.7 0-0.2 0-0.4 0-0.6v-1C80.5 31.3 80.4 31.4 80.2 31.5z"/>
      <path d="M87.6 26.5v1.7h0c0.1-0.3 0.3-0.6 0.5-0.8 0.2-0.2 0.4-0.5 0.7-0.6 0.3-0.2 0.5-0.3 0.8-0.4 0.3-0.1 0.6-0.1 0.9-0.1 0.2 0 0.4 0 0.6 0.1v2.4c-0.1 0-0.3 0-0.4-0.1 -0.2 0-0.3 0-0.5 0 -0.5 0-0.9 0.1-1.2 0.2 -0.3 0.2-0.6 0.4-0.8 0.6 -0.2 0.3-0.3 0.6-0.4 0.9 -0.1 0.4-0.1 0.8-0.1 1.2v4.2h-2.6v-9.3H87.6z"/>
      <path d="M98.3 26.5v1.7h-1.9v4.6c0 0.4 0.1 0.7 0.2 0.9 0.1 0.1 0.4 0.2 0.9 0.2 0.1 0 0.3 0 0.4 0 0.1 0 0.3 0 0.4-0.1v2c-0.2 0-0.5 0.1-0.7 0.1 -0.3 0-0.5 0-0.8 0 -0.4 0-0.8 0-1.1-0.1 -0.4-0.1-0.7-0.2-0.9-0.3 -0.3-0.2-0.5-0.4-0.6-0.7 -0.2-0.3-0.2-0.7-0.2-1.1v-5.5h-1.5v-1.7h1.5v-2.8h2.6v2.8H98.3z"/>
      <path d="M56.1 39.8l3.7 10h-2.3l-0.8-2.2h-3.7l-0.8 2.2h-2.2l3.8-10H56.1zM56.3 45.9L55 42.2h0l-1.3 3.7H56.3z"/>
      <path d="M62.2 48c0.1 0.2 0.2 0.3 0.3 0.4 0.1 0.1 0.3 0.2 0.5 0.2 0.2 0 0.4 0.1 0.6 0.1 0.1 0 0.3 0 0.4 0 0.2 0 0.3-0.1 0.4-0.2 0.1-0.1 0.2-0.2 0.3-0.3 0.1-0.1 0.1-0.3 0.1-0.4 0-0.3-0.2-0.5-0.6-0.7 -0.4-0.1-1-0.3-1.7-0.4 -0.3-0.1-0.6-0.1-0.8-0.2 -0.3-0.1-0.5-0.2-0.7-0.3 -0.2-0.1-0.4-0.3-0.5-0.5 -0.1-0.2-0.2-0.5-0.2-0.8 0-0.5 0.1-0.8 0.3-1.1 0.2-0.3 0.4-0.5 0.7-0.7 0.3-0.2 0.6-0.3 1-0.4 0.4-0.1 0.8-0.1 1.1-0.1s0.8 0 1.1 0.1c0.4 0.1 0.7 0.2 1 0.4 0.3 0.2 0.5 0.4 0.7 0.7 0.2 0.3 0.3 0.7 0.3 1.1h-1.9c0-0.4-0.2-0.6-0.4-0.8 -0.3-0.1-0.6-0.2-0.9-0.2 -0.1 0-0.2 0-0.4 0 -0.1 0-0.2 0-0.4 0.1 -0.1 0-0.2 0.1-0.3 0.2 -0.1 0.1-0.1 0.2-0.1 0.4 0 0.2 0.1 0.3 0.2 0.4 0.1 0.1 0.3 0.2 0.5 0.3 0.2 0.1 0.5 0.1 0.7 0.2 0.3 0.1 0.5 0.1 0.8 0.2 0.3 0.1 0.6 0.1 0.8 0.2 0.3 0.1 0.5 0.2 0.7 0.4 0.2 0.2 0.4 0.3 0.5 0.6 0.1 0.2 0.2 0.5 0.2 0.8 0 0.5-0.1 0.9-0.3 1.2 -0.2 0.3-0.4 0.6-0.7 0.8 -0.3 0.2-0.7 0.3-1.1 0.4C64.4 49.9 64 50 63.6 50c-0.4 0-0.8 0-1.2-0.1 -0.4-0.1-0.8-0.2-1.1-0.4 -0.3-0.2-0.6-0.5-0.8-0.8 -0.2-0.3-0.3-0.7-0.3-1.2h1.9C62.1 47.6 62.1 47.8 62.2 48z"/>
      <path d="M69.7 48c0.1 0.2 0.2 0.3 0.3 0.4 0.1 0.1 0.3 0.2 0.5 0.2 0.2 0 0.4 0.1 0.6 0.1 0.1 0 0.3 0 0.4 0 0.2 0 0.3-0.1 0.4-0.2 0.1-0.1 0.2-0.2 0.3-0.3 0.1-0.1 0.1-0.3 0.1-0.4 0-0.3-0.2-0.5-0.6-0.7 -0.4-0.1-1-0.3-1.7-0.4 -0.3-0.1-0.6-0.1-0.8-0.2 -0.3-0.1-0.5-0.2-0.7-0.3 -0.2-0.1-0.4-0.3-0.5-0.5 -0.1-0.2-0.2-0.5-0.2-0.8 0-0.5 0.1-0.8 0.3-1.1 0.2-0.3 0.4-0.5 0.7-0.7 0.3-0.2 0.6-0.3 1-0.4 0.4-0.1 0.8-0.1 1.1-0.1 0.4 0 0.8 0 1.1 0.1 0.4 0.1 0.7 0.2 1 0.4 0.3 0.2 0.5 0.4 0.7 0.7 0.2 0.3 0.3 0.7 0.3 1.1h-1.9c0-0.4-0.2-0.6-0.4-0.8 -0.3-0.1-0.6-0.2-0.9-0.2 -0.1 0-0.2 0-0.4 0 -0.1 0-0.2 0-0.4 0.1 -0.1 0-0.2 0.1-0.3 0.2 -0.1 0.1-0.1 0.2-0.1 0.4 0 0.2 0.1 0.3 0.2 0.4 0.1 0.1 0.3 0.2 0.5 0.3 0.2 0.1 0.4 0.1 0.7 0.2 0.3 0.1 0.5 0.1 0.8 0.2 0.3 0.1 0.6 0.1 0.8 0.2 0.3 0.1 0.5 0.2 0.7 0.4 0.2 0.2 0.4 0.3 0.5 0.6 0.1 0.2 0.2 0.5 0.2 0.8 0 0.5-0.1 0.9-0.3 1.2 -0.2 0.3-0.4 0.6-0.7 0.8 -0.3 0.2-0.7 0.3-1.1 0.4 -0.4 0.1-0.8 0.1-1.2 0.1 -0.4 0-0.8 0-1.2-0.1 -0.4-0.1-0.8-0.2-1.1-0.4 -0.3-0.2-0.6-0.5-0.8-0.8 -0.2-0.3-0.3-0.7-0.3-1.2h1.9C69.6 47.6 69.6 47.8 69.7 48z"/>
      <path d="M75.6 44.6c0.2-0.5 0.4-0.9 0.8-1.2 0.3-0.3 0.7-0.6 1.2-0.8 0.5-0.2 1-0.3 1.5-0.3 0.6 0 1.1 0.1 1.5 0.3 0.5 0.2 0.9 0.4 1.2 0.8 0.3 0.3 0.6 0.7 0.8 1.2 0.2 0.5 0.3 1 0.3 1.6 0 0.6-0.1 1.1-0.3 1.6 -0.2 0.5-0.4 0.9-0.8 1.2 -0.3 0.3-0.7 0.6-1.2 0.8 -0.5 0.2-1 0.3-1.5 0.3 -0.6 0-1.1-0.1-1.5-0.3 -0.5-0.2-0.8-0.4-1.2-0.8 -0.3-0.3-0.6-0.7-0.8-1.2 -0.2-0.5-0.3-1-0.3-1.6C75.4 45.6 75.4 45.1 75.6 44.6zM77.4 47c0.1 0.3 0.2 0.5 0.3 0.7 0.1 0.2 0.3 0.4 0.5 0.5 0.2 0.1 0.5 0.2 0.8 0.2 0.3 0 0.6-0.1 0.8-0.2 0.2-0.1 0.4-0.3 0.5-0.5 0.1-0.2 0.2-0.5 0.3-0.7 0.1-0.3 0.1-0.6 0.1-0.8 0-0.3 0-0.6-0.1-0.9 -0.1-0.3-0.2-0.5-0.3-0.7 -0.1-0.2-0.3-0.4-0.5-0.5 -0.2-0.1-0.5-0.2-0.8-0.2 -0.3 0-0.6 0.1-0.8 0.2 -0.2 0.1-0.4 0.3-0.5 0.5 -0.1 0.2-0.2 0.5-0.3 0.7 -0.1 0.3-0.1 0.6-0.1 0.9C77.3 46.5 77.4 46.7 77.4 47z"/>
      <path d="M87.6 43.8c-0.3 0-0.6 0.1-0.8 0.2 -0.2 0.1-0.4 0.3-0.5 0.6 -0.1 0.2-0.2 0.5-0.3 0.8 -0.1 0.3-0.1 0.5-0.1 0.8 0 0.3 0 0.5 0.1 0.8 0.1 0.3 0.1 0.5 0.3 0.7 0.1 0.2 0.3 0.4 0.5 0.5 0.2 0.1 0.5 0.2 0.8 0.2 0.5 0 0.8-0.1 1.1-0.4 0.3-0.3 0.4-0.6 0.5-1.1h1.9c-0.1 1-0.5 1.7-1.1 2.2 -0.6 0.5-1.4 0.8-2.4 0.8 -0.5 0-1-0.1-1.5-0.3 -0.5-0.2-0.8-0.4-1.2-0.8 -0.3-0.3-0.6-0.7-0.7-1.2 -0.2-0.5-0.3-0.9-0.3-1.5 0-0.6 0.1-1.1 0.2-1.6 0.2-0.5 0.4-0.9 0.7-1.2 0.3-0.3 0.7-0.6 1.2-0.8 0.5-0.2 1-0.3 1.6-0.3 0.4 0 0.8 0.1 1.2 0.2 0.4 0.1 0.8 0.3 1.1 0.5 0.3 0.2 0.6 0.5 0.8 0.9 0.2 0.3 0.3 0.7 0.3 1.2h-1.9C88.9 44.3 88.4 43.8 87.6 43.8z"/>
      <path d="M92.2 41.4v-1.6h2v1.6H92.2zM94.2 42.5v7.2h-2v-7.2H94.2z"/>
      <path d="M96.1 43.6c0.2-0.3 0.5-0.6 0.8-0.7 0.3-0.2 0.7-0.3 1.1-0.4 0.4-0.1 0.8-0.1 1.2-0.1 0.4 0 0.7 0 1.1 0.1 0.4 0.1 0.7 0.2 1 0.3 0.3 0.1 0.6 0.4 0.8 0.6 0.2 0.3 0.3 0.6 0.3 1.1v3.8c0 0.3 0 0.6 0.1 0.9 0 0.3 0.1 0.5 0.2 0.7h-2c0-0.1-0.1-0.2-0.1-0.3 0-0.1 0-0.2-0.1-0.4 -0.3 0.3-0.7 0.6-1.1 0.7 -0.4 0.1-0.9 0.2-1.3 0.2 -0.3 0-0.7 0-1-0.1 -0.3-0.1-0.6-0.2-0.8-0.4 -0.2-0.2-0.4-0.4-0.5-0.7 -0.1-0.3-0.2-0.6-0.2-1 0-0.4 0.1-0.7 0.2-1 0.1-0.3 0.3-0.5 0.6-0.6 0.2-0.2 0.5-0.3 0.8-0.4 0.3-0.1 0.6-0.1 0.9-0.2 0.3 0 0.6-0.1 0.9-0.1 0.3 0 0.5-0.1 0.8-0.1 0.2-0.1 0.4-0.1 0.5-0.2 0.1-0.1 0.2-0.3 0.2-0.5 0-0.2 0-0.4-0.1-0.5 -0.1-0.1-0.2-0.2-0.3-0.3 -0.1-0.1-0.3-0.1-0.4-0.1 -0.2 0-0.3 0-0.5 0 -0.4 0-0.7 0.1-0.9 0.3 -0.2 0.2-0.4 0.4-0.4 0.8h-2C95.7 44.3 95.8 43.9 96.1 43.6zM100 46.4c-0.1 0-0.3 0.1-0.4 0.1 -0.1 0-0.3 0.1-0.5 0.1 -0.2 0-0.3 0-0.5 0.1 -0.2 0-0.3 0.1-0.4 0.1 -0.1 0-0.3 0.1-0.4 0.2 -0.1 0.1-0.2 0.2-0.3 0.3 -0.1 0.1-0.1 0.3-0.1 0.5 0 0.2 0 0.3 0.1 0.4 0.1 0.1 0.2 0.2 0.3 0.3 0.1 0.1 0.2 0.1 0.4 0.1 0.1 0 0.3 0 0.5 0 0.4 0 0.7-0.1 0.9-0.2 0.2-0.1 0.4-0.3 0.5-0.5 0.1-0.2 0.2-0.4 0.2-0.6 0-0.2 0-0.3 0-0.4v-0.7C100.2 46.3 100.1 46.4 100 46.4z"/>
      <path d="M107.8 42.5v1.3h-1.5v3.6c0 0.3 0.1 0.6 0.2 0.7 0.1 0.1 0.3 0.2 0.7 0.2 0.1 0 0.2 0 0.3 0 0.1 0 0.2 0 0.3 0v1.5c-0.2 0-0.4 0-0.6 0.1 -0.2 0-0.4 0-0.6 0 -0.3 0-0.6 0-0.9-0.1 -0.3 0-0.5-0.1-0.7-0.2 -0.2-0.1-0.4-0.3-0.5-0.5 -0.1-0.2-0.2-0.5-0.2-0.9v-4.3h-1.2v-1.3h1.2v-2.2h2v2.2H107.8z"/>
      <path d="M108.8 41.4v-1.6h2v1.6H108.8zM110.8 42.5v7.2h-2v-7.2H110.8z"/>
      <path d="M112.4 44.6c0.2-0.5 0.4-0.9 0.8-1.2 0.3-0.3 0.7-0.6 1.2-0.8 0.5-0.2 1-0.3 1.5-0.3 0.6 0 1.1 0.1 1.5 0.3 0.5 0.2 0.9 0.4 1.2 0.8 0.3 0.3 0.6 0.7 0.8 1.2 0.2 0.5 0.3 1 0.3 1.6 0 0.6-0.1 1.1-0.3 1.6 -0.2 0.5-0.4 0.9-0.8 1.2 -0.3 0.3-0.7 0.6-1.2 0.8 -0.5 0.2-1 0.3-1.5 0.3 -0.6 0-1.1-0.1-1.5-0.3 -0.5-0.2-0.8-0.4-1.2-0.8 -0.3-0.3-0.6-0.7-0.8-1.2 -0.2-0.5-0.3-1-0.3-1.6C112.1 45.6 112.2 45.1 112.4 44.6zM114.2 47c0.1 0.3 0.2 0.5 0.3 0.7 0.1 0.2 0.3 0.4 0.5 0.5 0.2 0.1 0.5 0.2 0.8 0.2 0.3 0 0.6-0.1 0.8-0.2 0.2-0.1 0.4-0.3 0.5-0.5 0.1-0.2 0.2-0.5 0.3-0.7 0.1-0.3 0.1-0.6 0.1-0.8 0-0.3 0-0.6-0.1-0.9 -0.1-0.3-0.2-0.5-0.3-0.7 -0.1-0.2-0.3-0.4-0.5-0.5 -0.2-0.1-0.5-0.2-0.8-0.2 -0.3 0-0.6 0.1-0.8 0.2 -0.2 0.1-0.4 0.3-0.5 0.5 -0.1 0.2-0.2 0.5-0.3 0.7 -0.1 0.3-0.1 0.6-0.1 0.9C114.1 46.5 114.2 46.7 114.2 47z"/>
      <path d="M122.8 42.5v1h0c0.3-0.4 0.6-0.7 1-0.9 0.4-0.2 0.8-0.3 1.2-0.3 0.5 0 1 0.1 1.3 0.2 0.3 0.1 0.6 0.3 0.8 0.6 0.2 0.3 0.3 0.6 0.4 0.9 0.1 0.4 0.1 0.8 0.1 1.2v4.5h-2v-4.1c0-0.6-0.1-1-0.3-1.3 -0.2-0.3-0.5-0.4-1-0.4 -0.5 0-0.9 0.2-1.2 0.5 -0.2 0.3-0.4 0.9-0.4 1.6v3.8h-2v-7.2H122.8z"/>
      <g>
        <path d="M132.1 49.9c-1.3 0-2.2-1-2.2-2.2 0-1.3 1-2.2 2.2-2.2 1.2 0 2.2 0.9 2.2 2.2C134.3 49 133.3 49.9 132.1 49.9zM132.1 45.8c-1 0-1.7 0.8-1.7 1.9 0 1 0.7 1.9 1.7 1.9 1 0 1.7-0.8 1.7-1.9C133.9 46.5 133.1 45.8 132.1 45.8zM131.7 48.9h-0.4v-2.5h0.9c0.6 0 0.9 0.2 0.9 0.7 0 0.5-0.3 0.6-0.6 0.7l0.7 1.1h-0.5l-0.6-1.1h-0.4V48.9zM132.2 47.5c0.3 0 0.6 0 0.6-0.4 0-0.3-0.3-0.3-0.5-0.3h-0.5v0.7H132.2z"/>
      </g>
    </g>
    <g>
      <path fill="#ED1C24" d="M52.3 61.7h1.6v10h-1.6V61.7z"/>
      <path fill="#ED1C24" d="M55.6 61.7h1.6v1.5h-1.6V61.7zM55.6 64.5h1.6v7.2h-1.6V64.5z"/>
      <path fill="#ED1C24" d="M58.3 64.5h1.2v-0.6c0-1.8 1-2.2 2-2.2 0.5 0 0.9 0 1.1 0.1v1.2C62.4 63 62.2 63 61.8 63c-0.4 0-0.8 0.2-0.8 0.8v0.7h1.4v1.2h-1.4v6.1h-1.6v-6.1h-1.2V64.5z"/>
      <path fill="#ED1C24" d="M64.6 68.5c0 1.1 0.6 2.1 1.9 2.1 0.9 0 1.5-0.4 1.8-1.2h1.5c-0.3 1.6-1.7 2.5-3.3 2.5 -2.3 0-3.5-1.6-3.5-3.8 0-2.1 1.3-3.8 3.5-3.8 2.3 0 3.7 2.1 3.4 4.2H64.6zM68.4 67.5c-0.1-1-0.7-1.9-1.8-1.9 -1.1 0-1.9 0.8-1.9 1.9H68.4z"/>
      <path d="M75.1 61.7H76v1.4h-0.9V61.7zM75.1 64.5H76v7.2h-0.9V64.5z"/>
      <path d="M82 66.6c0-1.1-0.9-1.6-1.9-1.6 -0.8 0-1.7 0.3-1.7 1.2 0 0.8 0.9 1.1 1.5 1.2l1.2 0.3c1 0.2 2.1 0.7 2.1 2 0 1.6-1.6 2.2-2.9 2.2 -1.7 0-2.8-0.8-3-2.5h0.9c0.1 1.2 1 1.8 2.1 1.8 0.8 0 2-0.4 2-1.4 0-0.8-0.8-1.1-1.6-1.3l-1.1-0.3c-1.1-0.3-2-0.7-2-1.9 0-1.5 1.4-2 2.7-2 1.4 0 2.6 0.8 2.6 2.3H82z"/>
      <path d="M87.6 64.5h0.9l1.8 6.2h0l1.8-6.2h1l1.8 6.2h0l1.8-6.2h0.9l-2.3 7.2h-1l-1.8-6.1h0l-1.8 6.1h-1L87.6 64.5z"/>
      <path d="M98.6 61.7h0.9v4h0c0.3-0.9 1.3-1.5 2.3-1.5 2 0 2.6 1.1 2.6 2.8v4.7h-0.9v-4.5c0-1.2-0.4-2.2-1.8-2.2 -1.4 0-2.2 1.1-2.3 2.5v4.2h-0.9V61.7z"/>
      <path d="M105.4 64.5h0.9l2.4 6.2 2.2-6.2h0.9l-3.1 8.3c-0.5 1.2-0.8 1.6-1.9 1.6 -0.4 0-0.5 0-0.7-0.1v-0.7c0.2 0 0.4 0.1 0.6 0.1 0.8 0 1-0.5 1.3-1.1l0.3-0.8L105.4 64.5z"/>
    </g>
    <g>
      <path d="M114.2 64.8h-0.7v1.8h-0.3v-1.8h-0.7v-0.3h1.6V64.8zM116.9 66.6h-0.3v-1.7h0l-0.7 1.7h-0.2l-0.7-1.7h0v1.7h-0.3v-2.1h0.5l0.6 1.6 0.6-1.6h0.5V66.6z"/>
    </g>
  </g>
</svg>
