<svg xmlns="http://www.w3.org/2000/svg" xmlns:xlink="http://www.w3.org/1999/xlink" version="1.1" id="Layer_1" x="0" y="0" viewBox="0 0 243 153" enable-background="new 0 0 243 153" xml:space="preserve">
  <path fill="#F37B21" stroke="#F17B22" d="M242.5 139.8c0 7-5.2 12.7-11.5 12.7H12c-6.4 0-11.5-5.7-11.5-12.7V13.2c0-7 5.2-12.7 11.5-12.7h219c6.4 0 11.5 5.7 11.5 12.7V139.8z"/>
  <path fill="#FFFFFF" d="M98.4 63.1h-7.7c-1.2 0-2.2 0.6-2.6 1.7v-6h-3.2v23h3.2V66.9c0-0.4 0.3-0.7 0.7-0.7h9.6c0.4 0 0.7 0.3 0.7 0.7v0.9 13.9h3.2V67.9 67C102.3 64.9 100.5 63.1 98.4 63.1M166.1 63.1c-2.1 0-3.9 1.7-3.9 3.9v3.1c0 2.1 1.7 3.9 3.9 3.9h9.6c0.4 0 0.7 0.3 0.7 0.7v3.3c0 0.4-0.3 0.7-0.7 0.7h-9.6c-0.4 0-0.7-0.3-0.7-0.7 0 0 0-0.9 0-1.3h-3.2c0 0.4 0 1.1 0 1.1 0 2.4 1.4 3.9 3.9 3.9h9.6c2.1 0 3.9-1.7 3.9-3.9v-3.1c0-2.1-1.7-3.9-3.9-3.9h-9.6c-0.4 0-0.7-0.3-0.7-0.7V67c0-0.4 0.3-0.7 0.7-0.7h9.6c0.4 0 0.7 0.3 0.7 0.7v0.8h3.2c0-0.5 0-0.8 0-0.8 0-2.5-1.4-3.9-3.9-3.9H166.1zM107.2 81.8h3.2V63.6h-3.2V81.8zM139.1 78.1V66.9c0-0.4 0.3-0.7 0.7-0.7h9.9c0.4 0 0.7 0.3 0.7 0.7v11.1c0 0.4-0.3 0.7-0.7 0.7h-9.9C139.4 78.8 139.1 78.5 139.1 78.1M139.8 63.1c-2.1 0-3.9 1.7-3.9 3.9v10.9c0 2.1 1.7 3.9 3.9 3.9h9.9c2.1 0 3.9-1.7 3.9-3.9V67c0-2.1-1.7-3.9-3.9-3.9H139.8zM118.6 63.1c-2.1 0-3.9 1.7-3.9 3.9v10.9c0 2.1 1.7 3.9 3.9 3.9h9.6c2.1 0 3.9-1.7 3.9-3.9V77h-3.2v0.9c0 0.4-0.3 0.7-0.7 0.7h-9.6c-0.4 0-0.7-0.3-0.7-0.7V66.9c0-0.4 0.3-0.7 0.7-0.7h9.6c0.4 0 0.7 0.3 0.7 0.7v0.9h3.2V67c0-2.1-1.7-3.9-3.9-3.9H118.6zM67.7 63.1c-2.1 0-3.9 1.7-3.9 3.9v10.9c0 2.1 1.7 3.9 3.9 3.9h9.6c2.1 0 3.9-1.7 3.9-3.9V77h-3.2v0.9c0 0.4-0.3 0.7-0.7 0.7h-9.6c-0.4 0-0.7-0.3-0.7-0.7V66.9c0-0.4 0.3-0.7 0.7-0.7h9.6c0.4 0 0.7 0.3 0.7 0.7v0.9h3.2V67c0-2.1-1.7-3.9-3.9-3.9H67.7zM158.6 66.5h-2v-6.4h3.7v0.8C160.3 64.7 158.6 66.5 158.6 66.5M173 92.3l1.5-0.9c0.4 0.7 0.9 1.1 1.8 1.1 0.8 0 1.3-0.4 1.3-0.9 0-0.6-0.5-0.9-1.4-1.2l-0.5-0.2c-1.3-0.6-2.2-1.3-2.2-2.8 0-1.4 1.1-2.5 2.7-2.5 1.2 0 2 0.4 2.7 1.5l-1.5 0.9c-0.3-0.6-0.7-0.8-1.2-0.8 -0.5 0-0.9 0.3-0.9 0.8 0 0.6 0.3 0.8 1.1 1.1l0.5 0.2c1.6 0.7 2.5 1.4 2.5 2.9 0 1.7-1.3 2.6-3.1 2.6C174.6 94.2 173.5 93.4 173 92.3M168.1 92.4c2 0 2.9-1.2 2.9-2.9 0-1.7-0.9-2.9-2.9-2.9h-0.8v5.8H168.1zM165.4 85h2.8c2.8 0 4.8 1.9 4.8 4.5 0 2.7-2 4.5-4.8 4.5h-2.8V85zM160.9 89.4c0.9 0 1.5-0.4 1.5-1.4 0-1-0.6-1.3-1.5-1.3h-1.4v2.7H160.9zM157.6 85h3.4c1.9 0 3.4 0.9 3.4 3 0 1.4-0.7 2.2-1.8 2.7l2.1 3.4h-2.1l-1.8-3.1h-1.2v3.1h-1.9V85zM153.9 91.3l-0.6-1.4c-0.3-0.6-0.5-1.5-0.5-1.6 0 0-0.3 1-0.5 1.6l-0.6 1.4H153.9zM152.8 84.9h0.2l4.2 9.2h-2l-0.5-1.2h-3.5l-0.5 1.2h-1.8L152.8 84.9zM138.1 85h2l1.3 3.6c0.2 0.6 0.5 1.5 0.5 1.6 0-0.1 0.3-1 0.6-1.6l1.7-3.7h0.2l1.8 3.7c0.3 0.6 0.5 1.5 0.6 1.6 0-0.1 0.3-1 0.5-1.6l1.3-3.6h1.8l-3.3 9.2h-0.2l-2-4.4c-0.2-0.5-0.5-1.3-0.5-1.3 0 0-0.3 0.8-0.5 1.3l-2.1 4.4h-0.2L138.1 85zM131.7 85h6v1.6h-4.1v2.1h3.6v1.6h-3.6v2.1h4.3v1.6h-6.2V85zM127.3 89.4c0.9 0 1.5-0.4 1.5-1.4 0-1-0.6-1.3-1.5-1.3h-1.4v2.7H127.3zM123.9 85h3.4c1.9 0 3.4 0.9 3.4 3 0 1.4-0.7 2.2-1.8 2.7l2.1 3.4h-2.1l-1.8-3.1h-1.2v3.1h-1.9V85zM117 85.9h-2.8V85h6.5v0.9h-2.8v8.2h-1V85.9zM110.5 89.7c1.5 0 2.3-0.6 2.3-1.9 0-1.3-0.8-1.9-2.3-1.9h-1.7v3.8H110.5zM107.8 85h2.7c1.9 0 3.2 0.9 3.2 2.8 0 1.3-0.7 2.2-1.9 2.6l2.2 3.7h-1.1l-2.1-3.6c-0.1 0-0.3 0-0.4 0h-1.7v3.6h-1V85zM105.5 89.5c0-2.2-1.5-3.8-3.7-3.8 -2.1 0-3.7 1.6-3.7 3.8 0 2.2 1.5 3.8 3.7 3.8C104 93.3 105.5 91.7 105.5 89.5M97.2 89.5c0-2.7 2.1-4.6 4.7-4.6 2.6 0 4.7 1.9 4.7 4.6 0 2.7-2.1 4.6-4.7 4.6C99.3 94.2 97.2 92.3 97.2 89.5M93.2 89.8c1.5 0 2.3-0.7 2.3-2 0-1.3-0.8-2-2.3-2h-1.6v3.9H93.2zM90.6 85h2.7c1.9 0 3.2 0.9 3.2 2.8 0 1.8-1.3 2.8-3.2 2.8h-1.7v3.4h-1V85zM83.4 92.3l0.8-0.4c0.4 0.8 1.1 1.4 2.3 1.4 1.1 0 1.9-0.6 1.9-1.5 0-0.9-0.6-1.4-1.7-1.9l-0.7-0.3c-1.3-0.6-2-1.2-2-2.5 0-1.3 1-2.2 2.4-2.2 1.2 0 2 0.6 2.5 1.4L88 86.7c-0.3-0.6-0.8-1-1.7-1 -0.9 0-1.4 0.5-1.4 1.3 0 0.8 0.4 1.2 1.4 1.6l0.7 0.3c1.5 0.7 2.3 1.4 2.3 2.8 0 1.5-1.2 2.4-2.8 2.4C84.8 94.2 83.8 93.3 83.4 92.3M76.9 92.3l0.8-0.4c0.4 0.8 1.1 1.4 2.3 1.4 1.1 0 1.9-0.6 1.9-1.5 0-0.9-0.6-1.4-1.7-1.9l-0.7-0.3c-1.3-0.6-2-1.2-2-2.5 0-1.3 1-2.2 2.4-2.2 1.2 0 2 0.6 2.5 1.4l-0.8 0.5c-0.3-0.6-0.8-1-1.7-1 -0.9 0-1.4 0.5-1.4 1.3 0 0.8 0.4 1.2 1.4 1.6l0.7 0.3c1.5 0.7 2.3 1.4 2.3 2.8 0 1.5-1.2 2.4-2.8 2.4C78.3 94.2 77.4 93.3 76.9 92.3M74.5 91.2l-1.4-3.5c-0.2-0.4-0.3-1.1-0.3-1.1 0 0-0.2 0.7-0.4 1.1L71 91.2H74.5zM72.7 84.9h0.2l3.8 9.2h-1l-0.8-2h-4.2l-0.8 2h-0.9L72.7 84.9zM66.1 89.8c1.5 0 2.3-0.7 2.3-2 0-1.3-0.8-2-2.3-2h-1.6v3.9H66.1zM63.5 85h2.7c1.9 0 3.2 0.9 3.2 2.8 0 1.8-1.3 2.8-3.2 2.8h-1.7v3.4h-1V85z"/>
  <path fill="#FFFFFF" d="M72.9 141.3l-0.3-0.1c-0.3 0.6-0.6 0.8-1 0.8 -0.3 0-0.4-0.2-0.4-0.5 0-0.8 1.2-2.3 1.2-3.6 0-0.5-0.3-0.9-0.9-0.9 -0.6 0-1.2 0.4-1.5 1.1l0.3 0.1c0.2-0.4 0.5-0.7 0.7-0.7 0.2 0 0.3 0.1 0.3 0.4 0 1-1.2 2.6-1.2 3.7 0 0.6 0.4 1 1 1C71.8 142.5 72.5 142.1 72.9 141.3zM73.2 134.5c0-0.4-0.3-0.7-0.7-0.7 -0.4 0-0.7 0.3-0.7 0.7 0 0.4 0.3 0.7 0.7 0.7C72.9 135.2 73.2 134.9 73.2 134.5z"/>
  <path fill="#FFFFFF" d="M79.5 141.3l-0.3-0.1c-0.3 0.6-0.6 0.8-1 0.8 -0.3 0-0.4-0.2-0.4-0.5 0-0.7 1.1-2.3 1.1-3.5 0-0.7-0.5-1-1-1 -0.7 0-1.7 0.5-2.5 1.9 0.5-1.3 0.1-1.9-0.7-1.9 -0.6 0-1.2 0.4-1.5 1.1l0.3 0.1c0.2-0.5 0.4-0.7 0.7-0.7 0.3 0 0.4 0.2 0.3 0.6l-1.4 4.3h1.2l0.8-2.5c0.8-1.5 1.5-2.2 2.1-2.2 0.3 0 0.5 0.2 0.5 0.5 0 1.1-1 2.3-1 3.4 0 0.5 0.4 0.9 1 0.9C78.3 142.5 79.1 142.1 79.5 141.3z"/>
  <path fill="#FFFFFF" d="M83.3 136.9h-0.9l0.6-1.8 -1.2 0.1 -0.5 1.8h-0.9c0 0-0.1 0.3-0.1 0.3h0.9l-1.2 3.7c-0.3 1 0 1.6 0.8 1.6 0.6 0 1.3-0.4 1.8-1.3l-0.3-0.1c-0.3 0.6-0.6 0.8-1 0.8 -0.2 0-0.3-0.2-0.3-0.4l1.4-4.3h0.9C83.3 137.2 83.3 136.9 83.3 136.9z"/>
  <path fill="#FFFFFF" d="M88 138c0-0.6-0.4-1-1-1 -0.6 0-1.2 0.5-1.7 1.7 0.3-1.1-0.1-1.7-0.8-1.7 -0.6 0-1.2 0.4-1.5 1.1l0.3 0.1c0.2-0.5 0.5-0.7 0.7-0.7s0.4 0.2 0.3 0.6l-1.4 4.3h1.2l0.7-2.3c0.8-1.8 1.3-2.5 1.7-2.5 0.2 0 0.3 0.1 0.3 0.3 0 0.1-0.1 0.2-0.1 0.5 0 0.3 0.2 0.5 0.6 0.5C87.7 138.9 88 138.4 88 138z"/>
  <path fill="#FFFFFF" d="M92 138.3c0 0.7-0.5 2.6-0.8 3.1 -0.3 0.5-0.7 0.8-1.3 0.8 -0.7 0-0.9-0.5-0.9-1.1 0-0.7 0.5-2.6 0.8-3.1 0.3-0.5 0.7-0.8 1.3-0.8C91.9 137.3 92 137.7 92 138.3zM93.1 139.1c0-1.2-0.8-2.1-2-2.1 -1.7 0-3.2 1.7-3.2 3.5 0 1.2 0.8 2.1 2 2.1C91.6 142.5 93.1 140.9 93.1 139.1z"/>
  <path fill="#FFFFFF" d="M98 138.1l-0.5 1.5c-0.5 1.5-1.3 2.5-1.9 2.5 -0.5 0-0.7-0.3-0.7-0.9 0-1.1 0.6-3 1.5-3.7 0.3-0.2 0.5-0.3 0.8-0.3C97.8 137.3 98.1 137.6 98 138.1zM100.8 133.2C100.8 133.2 100.8 133.1 100.8 133.2l-2 0c0 0-0.1 0.3-0.1 0.3l0.7 0c0.1 0 0.1 0 0.1 0l-1.2 4c-0.1-0.3-0.5-0.5-0.9-0.5 -1.9 0-3.5 2-3.5 3.6 0 1.1 0.5 2 1.6 2 0.7 0 1.3-0.6 1.6-1.2 -0.1 0.7 0.2 1.2 0.9 1.2 0.5 0 1.3-0.4 1.8-1.3l-0.3-0.1c-0.3 0.5-0.6 0.8-1 0.8 -0.3 0-0.3-0.2-0.3-0.4L100.8 133.2z"/>
  <path fill="#FFFFFF" d="M105.9 137l-1.2 0.1 -0.8 2.5c-0.9 1.5-1.5 2.2-2.1 2.2 -0.3 0-0.5-0.3-0.5-0.6 0-1.1 1.1-2.4 1.1-3.4 0-0.5-0.3-0.9-0.9-0.9 -0.5 0-1.1 0.3-1.5 1.1l0.3 0.1c0.2-0.5 0.5-0.7 0.7-0.7 0.2 0 0.3 0.1 0.3 0.4 0 0.7-1.1 2.3-1.1 3.5 0 0.7 0.5 1.2 1.1 1.2 0.7 0 1.5-0.5 2.3-1.9 -0.5 1.3 0 1.9 0.7 1.9 0.6 0 1.3-0.4 1.8-1.3l-0.3-0.1c-0.3 0.6-0.6 0.8-1 0.8 -0.3 0-0.4-0.2-0.3-0.4L105.9 137z"/>
  <path fill="#FFFFFF" d="M111 138.3c0-0.6-0.7-1.4-1.7-1.4 -1.7 0-3.1 1.7-3.1 3.5 0 1.2 0.8 2.1 2 2.1 0.9 0 1.7-0.5 2.3-1.3l-0.2-0.2c-0.5 0.7-1.1 1.2-2 1.2 -0.7 0-0.9-0.4-0.9-1.1 0-0.8 0.6-2.6 0.9-3.2 0.3-0.5 0.5-0.8 1.1-0.8 0.4 0 0.7 0.1 0.7 0.4 0 0.3-0.2 0.3-0.2 0.8 0 0.3 0.2 0.6 0.5 0.6C110.7 138.9 111 138.7 111 138.3z"/>
  <path fill="#FFFFFF" d="M114.9 136.9h-0.9l0.6-1.8 -1.2 0.1 -0.5 1.8h-0.9c0 0-0.1 0.3-0.1 0.3h0.9l-1.2 3.7c-0.3 1 0 1.6 0.8 1.6 0.6 0 1.3-0.4 1.8-1.3l-0.3-0.1c-0.3 0.6-0.6 0.8-1 0.8 -0.2 0-0.3-0.2-0.3-0.4l1.4-4.3h0.9C114.8 137.2 114.9 136.9 114.9 136.9z"/>
  <path fill="#FFFFFF" d="M118.6 138.3c0 0.7-0.5 2.6-0.8 3.1 -0.3 0.5-0.7 0.8-1.3 0.8 -0.7 0-0.9-0.5-0.9-1.1 0-0.7 0.5-2.6 0.8-3.1 0.3-0.5 0.7-0.8 1.3-0.8C118.4 137.3 118.6 137.7 118.6 138.3zM119.7 139.1c0-1.2-0.8-2.1-2-2.1 -1.7 0-3.2 1.7-3.2 3.5 0 1.2 0.8 2.1 2 2.1C118.2 142.5 119.7 140.9 119.7 139.1z"/>
  <path fill="#FFFFFF" d="M125.4 138c0-0.6-0.4-1-1-1 -0.6 0-1.2 0.5-1.7 1.7 0.3-1.1-0.1-1.7-0.8-1.7 -0.6 0-1.2 0.4-1.5 1.1l0.3 0.1c0.2-0.5 0.5-0.7 0.7-0.7s0.4 0.2 0.3 0.6l-1.4 4.3h1.2l0.7-2.3c0.8-1.8 1.3-2.5 1.7-2.5 0.2 0 0.3 0.1 0.3 0.3 0 0.1-0.1 0.2-0.1 0.5 0 0.3 0.2 0.5 0.6 0.5C125.1 138.9 125.4 138.4 125.4 138z"/>
  <path fill="#FFFFFF" d="M131.2 137.3c0-0.2-0.1-0.4-0.4-0.4 -0.8 0-1.6 1.2-2.6 3.7l-0.3-1.5c-0.3-1.5-0.6-2.2-1.3-2.2 -0.6 0-1.1 0.4-1.5 1.2l0.2 0.2c0.2-0.4 0.4-0.5 0.6-0.5 0.3 0 0.7 0.2 1 1.9l0.5 2.8c-1 2.3-1.5 3.5-2.7 3.5 -0.3 0-0.4-0.1-0.4-0.4 0-0.2 0.3-0.5 0.3-0.8 0-0.3-0.2-0.5-0.6-0.5 -0.4 0-0.7 0.3-0.7 0.8 0 0.7 0.6 1.2 1.3 1.2 1.5 0 2.1-1.4 3.3-4.3 1.4-3.4 1.7-4 2.8-4.3C131 137.7 131.2 137.6 131.2 137.3z"/>
  <path fill="#FFFFFF" d="M142.3 141.3l-0.3-0.1c-0.3 0.6-0.6 0.8-1 0.8 -0.3 0-0.4-0.2-0.4-0.5 0-0.8 1.1-2.3 1.1-3.5 0-0.7-0.4-1-1-1 -0.7 0-1.6 0.6-2.3 1.9 0.4-1.3-0.3-1.9-0.9-1.9 -0.7 0-1.5 0.5-2.3 1.9 0.5-1.3 0.1-1.9-0.7-1.9 -0.6 0-1.2 0.4-1.5 1.1l0.3 0.1c0.2-0.5 0.5-0.7 0.7-0.7s0.4 0.2 0.3 0.6l-1.4 4.3h1.2l0.8-2.5c0.9-1.6 1.4-2.2 2-2.2 0.4 0 0.6 0.4 0.3 1.3l-1.1 3.4h1.2l0.8-2.5c0.9-1.6 1.5-2.2 1.9-2.2 0.3 0 0.5 0.2 0.5 0.5 0 1.1-1 2.3-1 3.4 0 0.5 0.4 0.9 1 0.9C141.1 142.5 141.8 142.1 142.3 141.3z"/>
  <path fill="#FFFFFF" d="M146.1 137.9c0 0.8-0.3 1.6-1.9 1.6h-0.4c0.4-1.4 0.8-2.3 1.7-2.3C146 137.3 146.1 137.4 146.1 137.9zM147.2 138.1c0-0.6-0.4-1.1-1.5-1.1 -1.7 0-3.2 1.7-3.2 3.5 0 1.2 0.8 2.1 2 2.1 0.9 0 1.6-0.4 2.1-1.1l-0.2-0.2c-0.5 0.6-1.1 1-1.9 1 -0.7 0-0.9-0.5-0.9-1.1 0-0.5 0.1-0.9 0.2-1.3h0.4C146 139.8 147.2 139.1 147.2 138.1z"/>
  <path fill="#FFFFFF" d="M156.8 141.3l-0.3-0.1c-0.3 0.6-0.6 0.8-1 0.8 -0.3 0-0.4-0.2-0.4-0.5 0-0.8 1.1-2.3 1.1-3.5 0-0.7-0.4-1-1-1 -0.7 0-1.6 0.6-2.3 1.9 0.4-1.3-0.3-1.9-0.9-1.9 -0.7 0-1.5 0.5-2.3 1.9 0.5-1.3 0.1-1.9-0.7-1.9 -0.6 0-1.2 0.4-1.5 1.1l0.3 0.1c0.2-0.5 0.5-0.7 0.7-0.7s0.4 0.2 0.3 0.6l-1.4 4.3h1.2l0.8-2.5c0.9-1.6 1.4-2.2 2-2.2 0.4 0 0.6 0.4 0.3 1.3l-1.1 3.4h1.2l0.8-2.5c0.9-1.6 1.5-2.2 1.9-2.2 0.3 0 0.5 0.2 0.5 0.5 0 1.1-1 2.3-1 3.4 0 0.5 0.4 0.9 1 0.9C155.6 142.5 156.4 142.1 156.8 141.3z"/>
  <path fill="#FFFFFF" d="M161.3 138.3c0 0.8-0.6 2.5-1 3.1 -0.5 0.6-0.9 0.8-1.5 0.8 -0.6 0-0.9-0.5-0.7-1.2l0.6-1.8c0.5-1.3 1.1-2 1.8-2C161.1 137.3 161.3 137.6 161.3 138.3zM162.4 138.8c0-1.2-0.9-1.8-1.8-1.8 -0.6 0-1.2 0.4-1.6 1.1l1.5-4.8c0 0 0 0 0 0l-2 0c0 0-0.1 0.3-0.1 0.3h0.7c0.1 0 0.1 0 0.1 0.1l-2.1 6.6c-0.5 1.6 0 2.4 1.5 2.4C160.5 142.5 162.4 140.7 162.4 138.8z"/>
  <path fill="#FFFFFF" d="M166.6 137.9c0 0.8-0.3 1.6-1.9 1.6h-0.4c0.4-1.4 0.8-2.3 1.7-2.3C166.5 137.3 166.6 137.4 166.6 137.9zM167.7 138.1c0-0.6-0.4-1.1-1.5-1.1 -1.7 0-3.2 1.7-3.2 3.5 0 1.2 0.8 2.1 2 2.1 0.9 0 1.6-0.4 2.1-1.1l-0.2-0.2c-0.5 0.6-1.1 1-1.9 1 -0.7 0-0.9-0.5-0.9-1.1 0-0.5 0.1-0.9 0.2-1.3h0.4C166.5 139.8 167.7 139.1 167.7 138.1z"/>
  <path fill="#FFFFFF" d="M173 138c0-0.6-0.4-1-1-1 -0.6 0-1.2 0.5-1.7 1.7 0.3-1.1-0.1-1.7-0.8-1.7 -0.6 0-1.2 0.4-1.5 1.1l0.3 0.1c0.2-0.5 0.5-0.7 0.7-0.7s0.4 0.2 0.3 0.6l-1.4 4.3h1.2l0.7-2.3c0.8-1.8 1.3-2.5 1.7-2.5 0.2 0 0.3 0.1 0.3 0.3 0 0.1-0.1 0.2-0.1 0.5 0 0.3 0.2 0.5 0.6 0.5C172.7 138.9 173 138.4 173 138z"/>
</svg>
