<?xml version="1.0" standalone="no"?>
<!DOCTYPE svg PUBLIC "-//W3C//DTD SVG 20010904//EN"
 "http://www.w3.org/TR/2001/REC-SVG-20010904/DTD/svg10.dtd">
<svg version="1.0" xmlns="http://www.w3.org/2000/svg"
 width="1200.000000pt" height="1200.000000pt" viewBox="0 0 1200.000000 1200.000000"
 preserveAspectRatio="xMidYMid meet">
<metadata>
Created by potrace 1.11, written by Peter Selinger 2001-2013
</metadata>
<g transform="translate(0.000000,1200.000000) scale(0.100000,-0.100000)"
fill="#000000" stroke="none">
<path d="M3440 10559 c-498 -56 -952 -307 -1269 -700 -232 -286 -370 -621
-410 -991 -15 -136 -15 -5590 0 -5726 40 -370 178 -705 410 -991 324 -402 781
-650 1294 -701 78 -8 835 -10 2605 -8 2742 4 2527 -1 2772 62 602 157 1111
637 1311 1236 76 229 97 396 97 780 l0 280 -775 0 -775 0 0 -249 c0 -225 -2
-255 -21 -317 -18 -59 -30 -77 -88 -135 -58 -58 -76 -70 -135 -88 l-68 -21
-2388 0 -2388 0 -68 21 c-59 18 -77 30 -135 88 -59 59 -70 76 -88 137 l-21 69
2 2745 3 2745 27 57 c34 73 103 142 176 176 l57 27 2435 0 2435 0 58 -27 c76
-36 149 -112 179 -185 21 -55 23 -74 26 -320 l3 -263 775 0 774 0 0 255 c0
358 -22 531 -97 755 -235 704 -862 1208 -1605 1289 -118 13 -4993 13 -5108 0z"/>
</g>
</svg>
