<?xml version="1.0" encoding="utf-8"?>
<!-- Generator: Adobe Illustrator 18.1.1, SVG Export Plug-In . SVG Version: 6.00 Build 0)  -->
<svg version="1.1" id="Layer_1" xmlns="http://www.w3.org/2000/svg" xmlns:xlink="http://www.w3.org/1999/xlink" x="0px" y="0px"
	 viewBox="0 0 398.7 103.8" enable-background="new 0 0 398.7 103.8" xml:space="preserve">
<g>
	<g>
		<g>
			<path fill="#FFFFFF" d="M32.1,24.8h4.1L29.1,47l-4.6-12.3l3.6-9.9h2.6v-1.2H0l0,1.2h2.8l11,30.3h1.3l6-15.5L26.8,55h1.5l9.7-30.3
				h2.7v-1.2h-8.5V24.8z M16.4,47.1L8.2,24.8h7.4l4.6,12.5L16.4,47.1z M20.8,24.8h5.7l-2.8,7.6L20.8,24.8z M171.9,44.7l0,0.1
				c-0.5,2-1.1,4-2.2,5.9c-1.6,2.6-3,2.6-7.1,2.6H157V39.5h2.2c4.1,0,5.1,0.7,5.3,5.9l0,0.1h0.9v-13h-1l0,0.1
				c-0.1,2-0.2,3.1-0.6,3.9c-0.8,1.5-2.5,1.6-4.5,1.6l-2.3,0V24.8h4c4,0,6.3,0,8,2.9c0.5,0.7,0.7,1.3,0.9,2.1
				c0.1,0.2,0.2,0.6,0.3,1.1c0.1,0.5,0.3,1.1,0.4,1.3l0,0.1h0.9l-0.4-8.7h-23.6v1.2h4v28.5h-4.1v1.2H172l0.8-9.7l0-0.2H171.9z
				 M112.5,23.6l-0.4,10h1.1l0-0.1c0.3-1.9,1.4-5.9,3.4-7.5c1.3-1.1,2.4-1.1,4.9-1.1h1.1v28.5h-4.6v1.2h14.5v-1.2H128V24.8h1
				c3.2,0,4.5,0.2,5.6,1.5c1,1.3,2.1,3.7,3,7.1l0,0.1h1l-0.5-10H112.5z M74.8,24.8h3.9v-1.2H65.5v1.2h4v13.1H57.1V24.8h4v-1.2H47.6
				v1.2h4v28.5h-4v1.2h13.4v-1.2h-4V39.4h12.3v13.9h-4v1.2h13.4v-1.2h-4V24.8z M89.4,24.8h4v28.5h-4v1.2H103v-1.2H99V24.8h4.1v-1.2
				H89.4V24.8z"/>
			<path fill="#FFFFFF" d="M70.4,68c-3.6,0-5.8,2.4-6.7,4.8c-0.3,0.8-0.4,1.8-0.4,2.8c0,4.6,3,6.8,5.3,7.4c0.6,0.2,1.2,0.2,1.8,0.2
				c2.6,0,4.3-1.3,5.4-2.5c1.2-1.4,1.7-3.1,1.7-5.2c0-2-0.5-3.8-1.7-5.2C74.9,69.5,73.1,68,70.4,68z M71.7,82.3
				c-0.4,0.1-0.9,0.2-1.3,0.2c-0.4,0-0.9-0.1-1.3-0.2c-2.3-0.7-2.4-2.8-2.4-6.6c0-1.9,0.1-4.1,0.4-5c0.7-1.8,2.9-1.9,3.3-1.9
				c0.4,0,2.5,0.1,3.3,1.9c0.4,0.9,0.4,3,0.4,5C74.1,79.6,74,81.6,71.7,82.3z M50.3,69.2h2.1v-0.8h-7.1v0.8h2V75h-6.3v-5.9H43v-0.8
				h-7.1v0.8H38v13h-2.1v0.8H43v-0.8h-2V76h6.3v6.2h-1.9v0.8h7.1v-0.8h-2.2V69.2z M98,69.2h2v8.9c0,1.8-0.1,2.4-0.7,3.1
				c-0.4,0.6-1.5,1.2-2.9,1.2c-1.4,0-2.4-0.4-3-1.1c-0.6-0.7-0.6-1.8-0.6-2.7v-9.4h2v-0.8h-7.2v0.8h2.1v9c0,1.1,0,2.6,1.2,3.7
				c0.5,0.5,1.9,1.4,4.8,1.4c2.1,0,3.6-0.6,4.5-1.7c0.9-1.1,0.9-2.6,0.8-3.6v-8.7h2v-0.8H98V69.2z M147.5,78.2l0,0.1
				c-0.3,1-0.6,1.9-1.1,2.7c-0.7,1.1-1.3,1.1-3.3,1.1h-2.6v-6.4h0.8c1.7,0,2.4,0.1,2.5,2.4l0,0.2h0.7v-6h-0.8l0,0.2
				c-0.1,1-0.2,1.4-0.3,1.8c-0.4,0.6-1.1,0.7-2,0.7l-0.9,0v-5.8h1.9c2,0,3,0.1,3.7,1.3c0.2,0.3,0.7,1.4,0.9,2l0,0.1h0.7l-0.2-4.3
				h-12.3v0.8h2.2v13h-2.3v0.8h12.6l0.3-4.8H147.5z M120.4,74l-1.2-0.3c-2.4-0.6-3.3-1.3-3.3-2.6c0-1.6,1.5-2.2,3-2.2
				c0.8,0,1.8,0.2,2.6,0.9c0.8,0.7,1.1,1.7,1.2,2.3l0,0.1h0.9l-0.1-4.2H123l-0.7,1c-0.9-0.6-1.9-0.9-3.4-0.9c-2.9,0-4.8,1.7-4.8,4.3
				c0,1.3,0.5,2.4,1.7,3.3c0.7,0.5,2,0.8,3.1,1.1c2.4,0.6,3.7,1.3,3.7,3.1c0,1.6-1.2,2.6-3.3,2.6c-3.4,0-4.2-2.5-4.6-4.3l0-0.2h-0.9
				l0.1,5h0.8l0.6-1c1,0.9,2.4,1.3,3.9,1.3c3.3,0,5.2-2,5.2-4.8C124.5,75.3,122.2,74.5,120.4,74z"/>
			<path fill="#FFFFFF" d="M264.4,69.2h2.2v-0.8h-5.5l-3.7,10.1l-3.6-9.9l0-0.1H248v0.8h2.2v13h-2.1v0.8h5v-0.8h-1.9V70l4.7,12.8
				l0,0.1h0.8l4.8-12.9v12.1h-1.9v0.8h7.1v-0.8h-2.4V69.2z M287.8,82.2l-4.5-12.2l-0.7-1.8l-1.5,0l-5,14h-1.8v0.8h4.9v-0.8h-2
				l1.2-3.6h4.9l1.3,3.6h-2.2v0.8h7.4l0-0.8H287.8z M278.7,77.7l2-5.8l0.1,0l2.1,5.8H278.7z M357.2,78.3c-0.3,1-0.6,1.9-1.1,2.7
				c-0.7,1.1-1.3,1.1-3.3,1.1h-2.6v-6.4h0.8c1.7,0,2.4,0.1,2.5,2.4l0,0.2h0.7v-6h-0.8l0,0.2c-0.1,1-0.2,1.4-0.3,1.8
				c-0.4,0.6-1.1,0.7-2,0.7l-0.9,0v-5.8h1.9c2,0,3,0.1,3.7,1.3c0.2,0.3,0.7,1.4,0.9,2l0,0.1h0.7l-0.2-4.3h-12.2v0.8h2.2v13h-2.3v0.8
				h12.5l0.3-4.8h-0.7L357.2,78.3z M329.2,74.1l4.4-4.9h2.4v-0.8h-5.6v0.8h2l-5.4,6l-0.1,0.1l5.1,6.8h-1.6v0.8h6.4v-0.8h-1.5
				L329.2,74.1z M380.6,68.4h-13.1l-0.2,4.8h0.8l0-0.2c0.2-1,0.7-2.7,1.6-3.4c0.6-0.5,1-0.5,2.2-0.5h0.7v13h-2.5v0.8h8v-0.8h-2.4
				v-13l1,0c0.9,0,1.5,0,2.1,0.7c0.5,0.4,1.2,2.2,1.5,3.2l0,0.1h0.7L380.6,68.4z M312.5,82c-0.5,0.2-0.9,0.2-1,0.2
				c-0.4,0-0.6-0.1-0.8-0.3c-0.3-0.3-0.5-0.9-0.4-1.6v-0.6c0-0.9,0.1-2.4-1.5-3.6c-0.1-0.1-0.8-0.6-1.9-0.9c2.3-0.4,3.7-1.7,3.7-3.4
				c0-1-0.5-1.9-1.4-2.6c-1.4-0.9-3-0.9-4.7-0.9h-6.9v0.8h2.3v13h-2.3v0.8h7.3v-0.8h-2v-6.5c0.2,0,0.4,0,0.5,0c1,0,1.8,0.1,2.3,0.2
				c1.2,0.4,1.4,1.4,1.4,2.3l0,1.1c0,2.5,1.3,3.9,3.7,3.9c0.2,0,1.3,0,2.1-0.4l0.2-0.1l-0.3-0.7L312.5,82z M303.6,74.8h-0.7v-5.6
				h0.8c1.2,0,2.6,0,3.4,0.9c0.4,0.5,0.6,1.3,0.6,1.9c0,0.8-0.2,1.8-1,2.3C305.8,74.8,304.4,74.8,303.6,74.8z M326.5,69.2h1.7v-0.8
				h-6.9v0.8h2.3v13h-2.3v0.8h6.9v-0.8h-1.8V69.2z"/>
			<rect x="201.6" y="0" fill="#FFFFFF" width="1.2" height="103.8"/>
		</g>
	</g>
	<g>
		<path fill="#FFFFFF" d="M379,24.8h3.8v-1.2h-13.3v1.2h4.2v28.5h-4.1v1.2H383v-1.2h-4V24.8z M323.4,53.3l-10.8-30.2h-2l-10.4,30.2
			h-3.3v1.2h9.3v-1.2h-4.2l2.9-8.6h9.8l3,8.6h-4.2l0,1.2h13.5v-1.2H323.4z M305.2,43.5l4.3-12.8h0.2l4.5,12.8H305.2z M396.3,53.3
			l-12.6-17.4l9.4-11.1h4.2v-1.2h-10.5v1.2h4.4l-11.6,13.7l-0.1,0.1l10.6,14.7h-3.8v1.2h12.4v-1.2H396.3z M246,38
			c3.5-0.8,6.9-3.1,6.9-7c0-1.4-0.5-5-5.5-6.6c-2.6-0.8-5.7-0.8-9.9-0.8h-9.2v1.2h4.3v28.5h-4.1v1.2h12c4.4,0,7.9,0,10.8-2.1
			c2.1-1.5,3.2-3.9,3.2-6.7C254.4,40.9,250.1,38.6,246,38z M238,24.8h1.4l0.2,0c2.8,0,4.3,0.1,5.6,1c1,0.7,2.2,1.9,2.2,5.4
			c0,3.5-1.1,5.3-3.5,6c-1.1,0.3-3.2,0.3-4.7,0.3H238V24.8z M245.1,53c-1,0.3-2.2,0.3-4.9,0.4l-2.2,0V38.7h0.8c4.2,0,6,0.1,7.5,1.1
			c1.6,1,2.4,2.9,2.4,6.2C248.6,50.8,246.7,52.4,245.1,53z M288.1,47.4c-0.5,1.7-1,3-1.7,3.9c-1.5,2-3.2,2.1-6.7,2.1h-5.4V24.8h3.9
			v-1.2h-13.6v1.2h4.1v28.5h-4.1v1.2H289l0.9-10.2l0-0.2h-1L288.1,47.4z"/>
		<path fill="#FFFFFF" d="M356.7,54.8h0.9l0.2-9.2l0-0.2h-1l0,0.1c-0.6,2-1.6,4.7-3.2,6.3c-1.1,1.1-2.9,2.1-5.7,2.1
			c-2.1,0-4.1-0.7-5.3-2.2c-2-2.2-2.2-5.7-2.2-11.6c0-9.2,0.8-12.2,2.8-14.1c1.2-1.2,3.1-1.8,4.9-1.8c4.2,0,6.9,2.8,8.2,7.7l0,0.1
			h1.2l-0.1-8.5l0-0.2h-0.9l-1.4,1.9c-2.1-1.3-4.2-2.4-7.3-2.4c-3.3,0-7,1.6-9.5,4.2c-2,2.1-4.3,6.1-4.3,12.3
			c0,9.6,5.2,15.7,13.5,15.7c3.4,0,5.6-1.2,7.2-2.4L356.7,54.8z"/>
	</g>
</g>
</svg>
