<svg xmlns="http://www.w3.org/2000/svg" xmlns:xlink="http://www.w3.org/1999/xlink" version="1.1" id="Layer_1" x="0px" y="0px" viewBox="0 0 32 32" enable-background="new 0 0 32 32" xml:space="preserve">
  <path d="M8.6 29.3c-0.1 0-0.1 0-0.2 0H6.7l1-1.3c0.6-0.7 1.1-2 1.1-3.2 0-0.1 0-0.2 0-0.3C3.1 22.9 0 19.2 0 14 0 6.9 6 2.7 16 2.7S32 6.9 32 14c0 7.2-6 11.5-16 11.5 -0.4 0-0.9 0-1.3 0C13.6 27.3 11.4 29.3 8.6 29.3zM16 4.2C6.8 4.2 1.5 7.8 1.5 14c0 5.9 4.4 8.3 8.1 9.2l0.5 0.1 0.1 0.5c0.1 0.3 0.1 0.7 0.1 1.1 0 0.8-0.2 1.9-0.6 2.8 1.8-0.5 3.2-2 3.9-3.4l0.2-0.4 0.5 0c0.5 0 1.1 0 1.7 0 9.1 0 14.5-3.7 14.5-10C30.5 7.8 25.2 4.2 16 4.2z"/>
</svg>
