<svg xmlns="http://www.w3.org/2000/svg" xmlns:xlink="http://www.w3.org/1999/xlink" version="1.1" id="Layer_1" x="0px" y="0px" viewBox="0 0 32 32" enable-background="new 0 0 32 32" xml:space="preserve">
  <g>
    <path d="M4.2 9.9c-0.6 0-1.2 0.5-1.2 1.2v3.1c0 0.6 0.5 1.2 1.2 1.2h10.3V9.9H4.2z"/>
    <path d="M27.8 9.9H17.5v5.4h10.3c0.6 0 1.2-0.5 1.2-1.2V11C28.9 10.4 28.4 9.9 27.8 9.9z"/>
    <path d="M27.2 32c0.6 0 1.2-0.5 1.2-1.2V17.7c0-0.6-0.5-1.2-1.2-1.2h-9.7V32H27.2z"/>
    <path d="M4.8 16.5c-0.6 0-1.2 0.5-1.2 1.2v13.2c0 0.6 0.5 1.2 1.2 1.2h9.7V16.5H4.8z"/>
  </g>
  <g>
    <path d="M16.3 7.4c-0.9 0-1.6 0.7-1.8 1.5h3.6C17.9 8.1 17.2 7.4 16.3 7.4z"/>
  </g>
  <path d="M17.1 5.3c1.2-2.3 3.3-5 6.1-5.3 2.1-0.2 4.7 1.3 4.3 3.7 -0.3 1.7-2 2.8-3.5 3.5 -1 0.5-2.1 0.9-3.2 1.2 -0.5 0.1-1.4 0.6-1.9 0.3 -0.4-0.2 0.5-0.7 0.6-0.8C20.3 7.5 21 7 21.6 6.5c0.4-0.4 1.1-1.1 0.7-1.7 -0.5-0.7-1.5-0.4-2.1-0.1 -1 0.5-1.9 1.3-2.7 2.2 -0.1 0.1-0.3 0.2-0.5 0.2C16.4 6.8 17 5.5 17.1 5.3 17.1 5.3 16.2 7.6 17.1 5.3z"/>
  <path d="M15 5.3C13.8 3 11.7 0.3 8.9 0 6.8-0.2 4.2 1.3 4.6 3.7c0.3 1.7 2 2.8 3.5 3.5 1 0.5 2.1 0.9 3.2 1.2 0.5 0.1 1.4 0.6 1.9 0.3 0.4-0.2-0.5-0.7-0.6-0.8 -0.7-0.4-1.4-0.9-2.1-1.4 -0.4-0.4-1.1-1.1-0.7-1.7 0.5-0.7 1.5-0.4 2.1-0.1 1 0.5 1.9 1.3 2.7 2.2 0.1 0.1 0.3 0.2 0.5 0.2C15.7 6.8 15.1 5.5 15 5.3 15 5.3 15.9 7.6 15 5.3z"/>
</svg>
