<svg xmlns="http://www.w3.org/2000/svg" xmlns:xlink="http://www.w3.org/1999/xlink" version="1.1" id="Layer_1" x="0px" y="0px" viewBox="0 0 32 32" enable-background="new 0 0 32 32" xml:space="preserve">
  <g>
    <path d="M7.8 25.9c1.2 0 2.1 0.9 2.1 2.1 0 1.2-0.9 2.1-2.1 2.1S5.7 29.1 5.7 28C5.7 26.8 6.6 25.9 7.8 25.9M7.8 24.6c-1.9 0-3.4 1.5-3.4 3.4s1.5 3.4 3.4 3.4 3.4-1.5 3.4-3.4S9.6 24.6 7.8 24.6L7.8 24.6z"/>
    <path d="M25.2 25.9c1.2 0 2.1 0.9 2.1 2.1 0 1.2-0.9 2.1-2.1 2.1s-2.1-0.9-2.1-2.1C23.1 26.8 24.1 25.9 25.2 25.9M25.2 24.6c-1.9 0-3.4 1.5-3.4 3.4s1.5 3.4 3.4 3.4 3.4-1.5 3.4-3.4S27.1 24.6 25.2 24.6L25.2 24.6z"/>
    <g>
      <g>
        <path d="M0.8 7.5C0.4 7.5 0 7.9 0 8.3v2.1c0 0.4 0.4 0.8 0.8 0.8H8V7.5H0.8z"/>
        <path d="M17.2 7.5H10v3.7h7.2c0.4 0 0.8-0.4 0.8-0.8V8.3C18 7.9 17.6 7.5 17.2 7.5z"/>
        <path d="M16.8 22.9c0.4 0 0.8-0.4 0.8-0.8V13c0-0.4-0.4-0.8-0.8-0.8H10v10.8H16.8z"/>
        <path d="M1.2 12.2c-0.4 0-0.8 0.4-0.8 0.8v9.2c0 0.4 0.4 0.8 0.8 0.8H8V12.2H1.2z"/>
      </g>
      <g>
        <path d="M9.2 5.8c-0.6 0-1.1 0.5-1.2 1h2.5C10.3 6.3 9.8 5.8 9.2 5.8z"/>
      </g>
      <path d="M9.7 4.4c0.8-1.6 2.3-3.5 4.2-3.7 1.5-0.1 3.2 0.9 3 2.6 -0.2 1.2-1.4 1.9-2.4 2.4 -0.7 0.3-1.4 0.6-2.2 0.8 -0.3 0.1-1 0.4-1.3 0.2 -0.3-0.2 0.4-0.5 0.4-0.6 0.5-0.3 1-0.6 1.4-1 0.3-0.3 0.8-0.8 0.5-1.2 -0.3-0.5-1-0.3-1.5-0.1 -0.7 0.4-1.3 0.9-1.9 1.5C9.9 5.4 9.8 5.5 9.7 5.5 9.3 5.4 9.7 4.5 9.7 4.4 9.7 4.4 9.1 6 9.7 4.4z"/>
      <path d="M8.3 4.4C7.5 2.7 6 0.9 4.1 0.7c-1.5-0.1-3.2 0.9-3 2.6 0.2 1.2 1.4 1.9 2.4 2.4C4.2 6 4.9 6.3 5.7 6.5 6 6.6 6.7 6.9 7 6.7c0.3-0.2-0.4-0.5-0.4-0.6 -0.5-0.3-1-0.6-1.4-1C4.9 4.9 4.4 4.4 4.7 3.9c0.3-0.5 1-0.3 1.5-0.1C6.9 4.2 7.5 4.8 8 5.4c0.1 0.1 0.2 0.1 0.3 0.1C8.8 5.4 8.4 4.5 8.3 4.4 8.3 4.4 8.9 6 8.3 4.4z"/>
    </g>
    <path d="M16.9 23.5H1.2 0.5v1.3c0 0.4 0.3 0.7 0.7 0.7h3.2c0.8-1.1 2-1.8 3.4-1.8s2.7 0.7 3.4 1.8h5.7c0.4 0 0.7-0.3 0.7-0.7v-1.3L16.9 23.5z"/>
    <path d="M31.2 18.2H26L25.1 13c0-0.5-0.4-0.8-0.8-0.8h-4.9c-0.5 0-0.8 0.4-0.8 0.8v11.7c0 0.5 0.4 0.8 0.8 0.8h2.6c0.8-1 2-1.7 3.3-1.7s2.6 0.7 3.3 1.7h2.6c0.5 0 0.8-0.4 0.8-0.8V19C32 18.5 31.6 18.2 31.2 18.2zM20.4 19.4h-0.5c-0.1 0-0.2-0.1-0.2-0.2 0-0.1 0.1-0.2 0.2-0.2h0.5c0.1 0 0.2 0.1 0.2 0.2C20.7 19.3 20.6 19.4 20.4 19.4zM24.2 18.1h-3.8c-0.4 0-0.8-0.3-0.8-0.8v-3.1c0-0.4 0.3-0.8 0.8-0.8h3c0.4 0 0.8 0.3 0.8 0.8l0.6 3.8L24.2 18.1z"/>
  </g>
</svg>
