<svg xmlns="http://www.w3.org/2000/svg" xmlns:xlink="http://www.w3.org/1999/xlink" version="1.1" id="Layer_1" x="0px" y="0px" viewBox="0 0 32 32" enable-background="new 0 0 32 32" xml:space="preserve">
  <path d="M28.1 4.2H3.9C1.7 4.2 0 5.9 0 8V24c0 2.1 1.7 3.9 3.9 3.9h24.3c2.1 0 3.9-1.7 3.9-3.9V8C32 5.9 30.3 4.2 28.1 4.2zM27.1 9.6c-0.3 0.2-0.6 0.4-1.1 0.4 0 0-0.1 0-0.1 0 0 0-0.1 0-0.1 0h-0.1l0.1-0.1c0.5-0.7 0.7-1.3 0.7-2 0-1.3-0.9-2.2-2.3-2.2 -1.4 0-2.7 1-3.7 2.7 -1 1.8-1.1 3.9-1.3 6.3 0 0.3 0 0.6-0.1 0.9 -0.1 0.8-0.1 1.6-0.2 2.3 -0.1 1.2-0.4 2.4-0.8 3.5 -0.2 0.6-0.5 1.2-0.8 1.7 -0.3 0.5-0.7 1-1.2 1.4 -0.3 0.3-0.7 0.6-1 0.8 -1.4 0.9-3 1.4-4.7 1.4 -2 0-4-0.8-5.3-2.3 -0.4-0.4-0.7-1-0.9-1.5 -0.8-2-0.4-4.5 1-6.1 1.3-1.5 3.6-2.2 5.4-1.3 0.9 0.4 1.7 1.3 1.8 2.1 0.1 0.5 0 0.9-0.3 1.2 -0.2 0.2-0.5 0.4-0.8 0.4 -0.3 0-0.7-0.1-0.9-0.4 -0.4-0.5-0.3-1.1 0-1.5 0 0 0-0.1 0-0.1 0-0.3-0.5-0.6-0.6-0.7 -1.2-0.8-2.7-0.3-3.8 0.5 -1.1 0.9-1.8 2.5-1.8 3.9 -0.1 1.7 0.8 3.3 2.1 4.3 1.5 1.1 4.3 1.4 6.2 0.7 1.7-0.7 3-2.1 3.6-3.8 0.7-1.9 0.9-4 1-6 0.1-0.8 0.2-1.7 0.3-2.6 0.3-2.9 1-4.6 2.3-5.9 1.3-1.4 3-2.1 4.8-2.1 2.1 0 3.7 1.1 3.7 2.6C28.2 8.5 27.9 9.1 27.1 9.6z"/>
</svg>
