<svg xmlns="http://www.w3.org/2000/svg" xmlns:xlink="http://www.w3.org/1999/xlink" version="1.1" id="Layer_1" x="0px" y="0px" viewBox="0 0 32 32" xml:space="preserve" enable-background="new 0 0 32 32">
  <g>
    <path d="M16 18.4C16 18.4 16 18.4 16 18.4c-3.4 0-6.1 2.6-6.1 6 0 3.4 2.7 6.1 6 6.1 0 0 0 0 0 0 3.4 0 6.1-2.7 6.1-6C22 21.1 19.3 18.4 16 18.4zM15.1 28c0-0.9 0-1.8 0-2.7 -0.9 0-1.8 0-2.7 0 0 0 0 0 0 0 0-0.6 0-1.1 0-1.7 0 0 0 0 0 0 0.9 0 1.8 0 2.7 0 0-0.9 0-1.8 0-2.7 0 0 0 0 0 0 0.6 0 1.1 0 1.7 0 0 0 0 0 0 0 0 0.9 0 1.8 0 2.7 0.9 0 1.8 0 2.7 0 0 0 0 0 0 0 0 0.6 0 1.1 0 1.7 0 0 0 0 0 0 -0.9 0-1.7 0-2.7 0 0 0.9 0 1.8 0 2.7 0 0 0 0 0 0C16.2 28 15.7 28 15.1 28 15.1 28 15.1 28 15.1 28z"/>
    <path d="M11 17.6c-0.6-0.5-1.1-1-0.8-1.9 1 0.9 2.2 1.1 2.9 0.5 -0.8-0.4-1.1-0.8-1.1-1.7 0-0.4 0.1-0.8 0.1-1.2 0.1-1.1 0.3-2.1 0.2-3.2C12.3 7.4 9.6 5.4 7 6c-2.2 0.5-3.6 2.6-3.4 5 0.1 1.1 0.3 2.1 0.4 3.2 0.1 1.2-0.2 1.6-1.1 2 1.1 0.5 2.1 0.3 3-0.5C6 16.2 5.9 16.6 5.6 17c-0.4 0.4-0.8 0.7-1.2 1 -0.8 0.4-1.7 0.6-2.5 0.9 -1.4 0.4-2 1.2-1.8 3.1 0 0 0.1 0 0.1 0 2.5 0 5 0 7.5 0 0.2 0 0.3-0.1 0.3-0.3 0.5-1.3 1.2-2.4 2.2-3.3C10.4 18 10.7 17.8 11 17.6z"/>
    <path d="M31.9 20.3c-0.1-0.9-0.7-1.6-1.5-2 -0.3-0.2-0.7-0.3-1.1-0.4 -1.3-0.3-2.6-0.7-3.7-1.5 -0.4-0.3-0.8-0.7-1.1-1.2 -0.2-0.4-0.2-0.8 0-1.2 1.1 1.1 2.6 1.3 3.8 0.6 -1.1-0.3-1.5-1.1-1.5-2.1 0-0.7 0.1-1.5 0.2-2.2 0.2-1.3 0.4-2.5 0.2-3.8 -0.3-2.6-2.4-4.6-5.2-4.9 -2.5-0.2-5 1.5-5.7 4 -0.4 1.4-0.2 2.9 0 4.3 0.1 1 0.2 2 0.3 3 0 0.8-0.4 1.4-1.2 1.7 -0.1 0-0.1 0.1-0.2 0.1 1.1 0.7 2.6 0.5 3.7-0.6 0.4 1-0.1 1.6-0.8 2.3 3 0.9 4.9 2.8 5.9 5.7 2.6 0 5.2 0 7.9 0C32 21.3 32 20.8 31.9 20.3z"/>
  </g>
</svg>