<?xml version="1.0" encoding="utf-8"?>
<!-- Generator: Adobe Illustrator 19.2.1, SVG Export Plug-In . SVG Version: 6.00 Build 0)  -->
<svg version="1.1" id="Layer_1" xmlns="http://www.w3.org/2000/svg" xmlns:xlink="http://www.w3.org/1999/xlink" x="0px" y="0px"
	 viewBox="0 0 33 30" style="enable-background:new 0 0 33 30;" xml:space="preserve">
<title>bag</title>
<path d="M4.5,30h7.3h10.6h5.9c1.3,0,2.3-1.1,2.3-2.4L33,7.5c0-0.3-0.2-0.6-0.5-0.6h-8.7h-0.1h-0.1h-1.7C21.5,4.6,20.4,0,17.2,0
	s-4.4,4.6-4.7,6.9h-1.7H0.5C0.2,6.9,0,7.2,0,7.5c0,0,0,0,0,0.1l2.2,20C2.2,28.9,3.3,30,4.5,30z M17.2,1c2.4,0,3.4,3.8,3.7,5.9h-7.5
	C13.8,4.8,14.7,1,17.2,1z"/>
</svg>
