<svg xmlns="http://www.w3.org/2000/svg" xmlns:xlink="http://www.w3.org/1999/xlink" version="1.1" id="Layer_1" x="0px" y="0px" viewBox="0 0 32 32" enable-background="new 0 0 32 32" xml:space="preserve">
  <path fill-rule="evenodd" clip-rule="evenodd" d="M16.1 9.2C17 6.3 21 6 21.8 4.3 22 3.7 22 2.9 22 1.9c-0.1-0.9-0.3-1.5-0.5-1.8 -0.1 0-0.2-0.1-0.2-0.1 0.3-0.1 0.8 0 0.9 0.3 0.8 1.5 0.5 4.5 0.5 4.5 0.6 2.5 0.9 3.4-0.7 6.7 -1.7 3.5-0.6 6.8 1 9.9l0 0 0 0 0 0 0 0 0 0 0 0 0 0 0 0 0 0c0.6 1.2 0.8 2.9 0.8 4.4 -3.2 0.1-5.2 3.9-7.4 6.1C16.3 31.9 16.2 32 16 32c-0.2 0-0.3-0.1-0.5-0.1 -2.2-2.2-4.2-6-7.4-6.1 0-1.4 0.2-3.1 0.8-4.4l0 0 0 0 0 0 0 0 0 0 0 0 0 0 0 0 0 0c1.7-3.2 2.7-6.5 1-9.9C8.4 8.2 8.7 7.4 9.3 4.8c0 0-0.3-3 0.5-4.5 0.1-0.3 0.6-0.4 0.9-0.3 0 0-0.1 0-0.2 0.1 -0.2 0.3-0.4 0.9-0.5 1.8C10 2.9 10 3.7 10.2 4.3 11 6 15 6.3 15.9 9.2 15.9 9.3 16.1 9.3 16.1 9.2L16.1 9.2z"/>
</svg>
