<?xml version="1.0" standalone="no"?>
<!DOCTYPE svg PUBLIC "-//W3C//DTD SVG 20010904//EN"
 "http://www.w3.org/TR/2001/REC-SVG-20010904/DTD/svg10.dtd">
<svg version="1.0" xmlns="http://www.w3.org/2000/svg"
 width="700.000000pt" height="700.000000pt" viewBox="0 0 700.000000 700.000000"
 preserveAspectRatio="xMidYMid meet">
<metadata>
Created by potrace 1.11, written by Peter Selinger 2001-2013
</metadata>
<g transform="translate(0.000000,700.000000) scale(0.100000,-0.100000)"
fill="#000000" stroke="none">
<path d="M0 3500 l0 -3500 3500 0 3500 0 0 3500 0 3500 -3500 0 -3500 0 0
-3500z m6740 0 l0 -3240 -3240 0 -3240 0 0 3240 0 3240 3240 0 3240 0 0 -3240z"/>
<path d="M3200 4503 c-162 -346 -312 -668 -333 -718 -42 -97 -143 -388 -172
-498 -10 -37 -21 -64 -25 -60 -5 4 -20 51 -35 103 -46 165 -101 327 -350 1040
-134 382 -246 703 -250 713 -7 16 -33 17 -346 17 -186 0 -339 -1 -339 -2 0 -2
265 -727 589 -1613 l589 -1610 33 0 33 0 155 320 c593 1220 671 1388 740 1595
12 36 25 71 30 78 5 9 23 -29 51 -110 64 -184 118 -305 503 -1128 l353 -755
33 0 33 0 579 1610 c318 886 579 1611 579 1613 0 1 -140 1 -311 0 l-312 -3
-206 -595 c-285 -819 -323 -931 -379 -1119 -27 -90 -52 -159 -55 -155 -3 5
-15 43 -27 84 -89 309 -104 345 -477 1133 l-327 687 -31 0 -31 0 -294 -627z"/>
</g>
</svg>
