<svg xmlns="http://www.w3.org/2000/svg" xmlns:xlink="http://www.w3.org/1999/xlink" version="1.1" id="Layer_1" x="0px" y="0px" viewBox="0 0 123 46" enable-background="new 0 0 123 46" xml:space="preserve">
  <path d="M119.7 10.6c0 0-6.6-9.9-7-10.6 0 0-39.4 10.9-45.1 12.1 0 0-4.3 2-4.4-1.4 -0.1-3.4-3.6-2.4-5.1-1.8C56.7 9.5 55.9 7.3 55 7c-0.9-0.3-2.8 1.5-2.6 3.7 0 0-49.5-6.7-51.6-7.6 0 0-1.3 0.9-0.6 3.1s9 19.9 9.2 21.5 0.1 4.2 1.6 4.2c1.5 0 22.2-7.3 24.4-7.5 0 0-0.2 1.7-1.1 2.5 -0.9 0.8-20 14-13.9 16.8 6.1 2.8 25.3-10 35.3-18.5 0 0 24.6 9.8 37.4 18.2 12.7 8.4 6.1-6.4 6.1-6.4s-8.3-11.5-15.3-13.5L114 24C114 24 129.6 25.7 119.7 10.6zM10.9 12.8c-2.8-0.2-2.9-4.1-2.9-4.1 2.4-1.1 9.7 1.9 9.7 1.9S13.7 13 10.9 12.8zM16 25.6c-1.5 0.3-0.9-3.5-0.9-3.5 2.3-1.4 11.4-0.2 11.4-0.2S17.5 25.3 16 25.6zM33.5 13.3c-4.3 0.3-9.2-1.7-9.2-1.7 2-0.3 6 0.6 6 0.6S37.8 13 33.5 13.3zM110.1 5.5c1.2 0.6 3.4 2.5 2.1 3.3C110.9 9.6 98.3 9.8 94 9 94 9 108.9 4.9 110.1 5.5zM87.7 30.6c1.5-0.6 7.4 6.1 6.8 7.9 -0.6 1.8-15.7-8.3-15.7-8.3C86.3 33.1 86.3 31.2 87.7 30.6zM117.8 17.8c-1.6 1.6-10 2.1-14.6 1.8 -4.6-0.3-21.9-2-21.9-2s17.4 0.9 18.4 0.2c0.7-0.5 12.7 0.6 13-0.8 0.7-4.2 1.4-5.1 1.4-5.1S119.3 16.2 117.8 17.8z"/>
</svg>
