<?xml version="1.0" encoding="utf-8"?>
<!-- Generator: Adobe Illustrator 18.1.1, SVG Export Plug-In . SVG Version: 6.00 Build 0)  -->
<svg version="1.1" id="Layer_1" xmlns="http://www.w3.org/2000/svg" xmlns:xlink="http://www.w3.org/1999/xlink" x="0px" y="0px"
	 viewBox="0 0 300 87" enable-background="new 0 0 300 87" xml:space="preserve">
<g>
	<path d="M40,84.8c-2.7-1.5-4.4-3.4-5.2-5.8c9.1-5.3,20.8-14.4,35.9-29.4c6.2-6.8,37-41,35.3-47.8c-0.2-0.8-0.7-1.4-1.5-1.6
		C97.8-2.2,46.5,38.6,34.5,65c-2.4,5.3-3,9.5-2.5,12.7c-10.8,5.9-17,5.6-20.3,4.2c-3.4-1.4-4.5-4.2-4.5-5.1c0-1.7,2.1-3.8,4.2-5.4
		l2.4-1.6c0.5-0.4,0.7-1.1,0.3-1.6c-0.3-0.5-1.1-0.7-1.6-0.4c-0.3,0.2-1.3,0.8-2.6,1.7l-3,2c10.3-10.1,35.5-30.9,52.6-44.5
		c0.5-0.4,0.6-1.2,0.2-1.7c-0.4-0.5-1.2-0.6-1.7-0.2C48.6,32.9,0.6,71.2,0,76.8c-0.1,0.5,0.2,0.9,0.6,1.1c0.4,0.2,0.9,0.2,1.3,0
		l3.1-2c-0.1,0.3-0.1,0.7-0.1,1.1c0,2,1.9,5.6,6,7.3c4.3,1.8,11.2,1.6,21.8-4.1c1.2,3.3,3.7,5.4,6.2,6.8C39,87,39.2,87,39.4,87
		c0.4,0,0.8-0.2,1.1-0.6C40.8,85.8,40.5,85.1,40,84.8z M35.5,68.9C44.4,43.5,97,2.3,103.4,2.3c0.1,0,0.1,0,0.2,0
		c1.4,3.1-16.9,26.1-34.7,45.6c-14.7,14.7-26,23.5-34.6,28.6C34.1,74.3,34.5,71.7,35.5,68.9z"/>
	<path d="M143.8,70.3c-5.1,4-9.1,5.6-11.3,4.5c-0.7-0.3-1.2-1-1.6-1.7l-0.8-3.9c-0.1-0.3-0.2-0.5-0.4-0.7c0.2-0.4,0.2-0.9-0.1-1.3
		c-0.4-0.5-1.1-0.6-1.6-0.2c-8,5.5-11.4,7.4-12.8,7.9c0.1-0.5,0.4-1.1,0.5-1.5c0.7-2,1.6-4.2,0.8-5.9c-0.3-0.8-1-1.3-1.8-1.4
		c-1.6-0.3-4,1.3-6.4,3.3c0-0.8-0.1-1.5-0.5-2.3c-0.3-0.6-0.9-1-1.6-1.2c-2-0.4-4.7,1.7-8.8,5.2c-2.4,2-7.5,6.3-8.5,5.4
		c-0.2-0.2-0.3-0.4-0.3-0.6c0-0.7,0.6-1.5,1.4-2.5l6.6-5.5c0.5-0.4,0.6-1.1,0.2-1.6c-0.4-0.5-1.1-0.6-1.6-0.3c-1,0.6-4.5,3-6.9,5.7
		l-3.3,2.7c1.2-2.9,1-4.1,0.2-4.8c-1.4-1.2-3.8,0.1-5.2,1.1c-1.9,0.3-3.4,0.5-4.6,0.5c1.5-2.1,2.6-4.2,3.2-6c1.5-4.1,0.1-5.5-0.8-6
		C77.5,59.1,77.3,59,77,59c-0.4-0.5-1.1-0.6-1.6-0.3c-0.4,0.2-0.9,0.6-1.6,1c-0.5,0.3-1,0.6-1.5,1c-6.5,4.4-19.1,13.6-18.2,18.4
		c0.2,1,0.9,2.3,3.4,2.8c0.7,0.1,1.4,0.2,2.1,0.2c5.3,0,10.4-4,14.1-8.6c1.9,0.1,4.3,0,7.1-0.5c0.2,0,0.4-0.1,0.5-0.2
		c0.8-0.5,1.7-1,2.3-1.2c-0.1,0.7-0.7,2.6-3.4,7.1c-0.3,0.5-0.2,1.1,0.3,1.5c0.4,0.4,1.1,0.4,1.6,0l4.3-3.5c0.1,0.7,0.5,1.3,1.1,1.8
		c2.6,2.1,7-1.5,11.6-5.4c2.2-1.8,5.8-4.9,6.7-4.8c0.7,1.2-0.3,3.3-1.7,5.2c-1.7,1.7-3.1,3.3-3.8,4.2c-0.4,0.5-0.4,1.2,0.1,1.6
		c0.4,0.4,1.2,0.5,1.6,0c0.4-0.4,2.4-2.1,4-4.3c4-4,7.5-6.8,8.5-6.5c0.4,0.8-0.4,2.8-0.9,4.1c-0.7,1.9-1.4,3.6-0.1,4.5
		c0.9,0.7,1.9,0.8,6.8-2.1c-1.7,2.4-1.1,3.1-0.8,3.6c0.9,1.3,6.6,1.7,10.7-2.7c0.4,0.4,0.9,0.8,1.5,1.1c3.2,1.6,7.8,0,13.9-4.8
		c0.5-0.4,0.6-1.2,0.2-1.7C145.1,70,144.4,69.9,143.8,70.3z M58,79.6c-0.7-0.1-1.5-0.4-1.5-0.9c-0.4-2,4.8-6.9,11.4-11.9
		c-0.4,1.3-0.4,2.7,0.2,3.9c0.6,1.1,1.6,1.8,3,2.3C67.3,77.2,62.4,80.5,58,79.6z M72.6,71c-1.7-0.3-2.3-1-2.5-1.4
		c-0.7-1.3,0.4-3.9,2.5-6c0.4-0.4,0.7-0.7,1.1-1c0.5-0.3,0.9-0.6,1.4-0.9c0.8-0.4,1.3-0.5,1.6-0.4c0.2,0.1,0.4,1-0.3,3.1
		C75.7,66.4,74.3,68.7,72.6,71z M121.7,76.8c-0.1-1.2,3.4-4,6.1-6.5c0.1,0.9,0.3,2.2,0.8,3.5C126,76.9,122.2,78,121.7,76.8z"/>
	<path d="M298.9,84.3c-30.9-1.8-37.4-7.1-38.6-10.1c-0.3-0.8-0.3-1.5-0.1-2.1c1-1.5,1.5-2.5,1.5-2.5c0.2-0.5,0.1-1.1-0.4-1.5
		c-0.5-0.3-1.1-0.3-1.5,0.1c-0.1,0.1-1.3,1.2-1.8,2.9c-2.5,3.5-8.2,9.4-18.4,9.6c-3.2,0.1-4.5-0.5-4.7-1c-0.5-1.6,4-6.1,8.8-9.5
		c0.2-0.1,0.4-0.3,0.6-0.4c0.5-0.4,0.6-1.1,0.2-1.6c-0.4-0.5-1.1-0.6-1.7-0.3c-0.2,0.1-0.3,0.2-0.5,0.4c-5.9,3.8-16.1,1.4-16.2,1.4
		c-0.1,0-0.2,0-0.3,0c0-1.1-0.2-2-0.9-2.6c-1.8-1.5-4.7,0.2-9,5.1c-0.9,1-1.8,1.9-2.6,2.7c-0.2,0.1-0.4,0.3-0.5,0.5
		c-5.4,4.7-9.1,4-9.3,4c-2-0.3-2.5-1.1-2.8-1.8c-2.7-6.9,14.1-29.5,23.1-40.5c1.1-1.3,1.8-2.2,2.3-2.7c0.4-0.5,0.3-1.2-0.2-1.7
		c-0.5-0.4-1.3-0.4-1.7,0.1c-0.4,0.5-1.4,1.6-2.6,3.1c-17.7,21-44.4,48.9-52.1,47c-0.2-0.1-0.2-0.1-0.3-0.2
		C168,77.4,197.5,48,223,24.4c5.8-4.6,10.9-9.2,14.2-12.9c0.4-0.5,0.4-1.2-0.1-1.6c-0.5-0.4-1.2-0.5-1.7,0c-2.7,2.4-7.8,7-14,12.7
		c-11.2,8.7-25.1,17.1-33.9,16.6c-2.8-0.2-4.8-1.2-6.2-3.2c-8.6-12.6,7.2-24.6,7.8-25.1c0.5-0.4,0.6-1.1,0.2-1.7
		c-0.4-0.5-1.2-0.6-1.7-0.2c-0.2,0.1-18.2,13.9-8.4,28.3c1.8,2.6,4.5,4.1,8,4.3c6,0.4,14.1-2.9,22.1-7.7
		c-20.4,19.3-44.1,43.4-42.6,49.5c0.2,1,1,1.6,2,1.9c0.4,0.1,0.8,0.1,1.2,0.1c7.6,0,23.2-14.8,36.1-28.5c-5.4,8.5-9.5,17.1-7.8,21.6
		c0.5,1.3,1.7,2.9,4.6,3.3c0.2,0,3.7,0.8,8.7-2.6c-0.1,1.4,0.1,2.6,1.3,3.2c2.9,1.5,8.4-3.9,10.5-6.6c0.8-1,1.5-2.4,1.9-3.8
		c0,0,0,0,0.1,0c0.3,0.1,5.9,1.4,11.5,0.6c-2.7,2.6-5.1,5.6-4.3,7.9c0.9,2.8,5.5,2.7,7,2.7c9.1-0.2,15-4.5,18.4-8.3
		c0,0,0,0.1,0.1,0.2c2.4,6.3,16.1,10.3,40.7,11.7c0,0,0,0,0.1,0c0.6,0,1.2-0.5,1.2-1.1C300,84.9,299.5,84.4,298.9,84.3z M221.6,74.3
		c-2.9,3.8-6.7,6.1-7.4,6c0,0-0.4-0.6,0.5-3.5c0.9-0.8,1.9-1.8,2.9-3c4.2-4.8,5.7-4.8,5.7-4.9C223.6,69.4,223.2,72.2,221.6,74.3z"/>
</g>
</svg>
