<?xml version="1.0" encoding="utf-8"?>
<!-- Generator: Adobe Illustrator 19.2.1, SVG Export Plug-In . SVG Version: 6.00 Build 0)  -->
<svg version="1.1" id="Layer_1" xmlns="http://www.w3.org/2000/svg" xmlns:xlink="http://www.w3.org/1999/xlink" x="0px" y="0px"
	 viewBox="0 0 32 32" enable-background="new 0 0 32 32" xml:space="preserve">
<g>
	<path fill="#B94A48" d="M16,2.759l13.241,26.483H2.759L16,2.759 M16,0c-1.045,0-2,0.59-2.467,1.525L0.291,28.008
		c-0.428,0.855-0.382,1.871,0.121,2.684C0.915,31.505,1.803,32,2.759,32h26.483c0.956,0,1.844-0.495,2.347-1.308
		c0.503-0.813,0.548-1.829,0.121-2.684L18.467,1.525C18,0.59,17.045,0,16,0L16,0z"/>
</g>
<g enable-background="new    ">
	<g>
		<g>
			<g>
				<path fill="#B94A48" d="M15.714,22.834c1.238,0,2.161,0.971,2.161,2.259c0,1.262-0.922,2.233-2.161,2.233
					c-1.239,0-2.161-0.971-2.161-2.233C13.553,23.805,14.475,22.834,15.714,22.834z M14.038,13.997l-0.121-3.23h3.593l-0.121,3.23
					l-0.51,7.429h-2.331L14.038,13.997z"/>
			</g>
		</g>
	</g>
</g>
</svg>
