<?xml version="1.0" encoding="utf-8"?>
<!-- Generator: Adobe Illustrator 19.2.1, SVG Export Plug-In . SVG Version: 6.00 Build 0)  -->
<svg version="1.1" id="Layer_1" xmlns="http://www.w3.org/2000/svg" xmlns:xlink="http://www.w3.org/1999/xlink" x="0px" y="0px"
	 viewBox="0 0 50 32" style="enable-background:new 0 0 50 32;" xml:space="preserve">
<style type="text/css">
	.st0{fill:#FFFFFF;}
	.st1{fill:#0072CE;}
</style>
<g>
	<rect x="0" y="0" class="st0" width="50" height="32"/>
</g>
<g id="Payment-badge-set">
	<g id="Dark-Payment-badges" transform="translate(-770.000000, -164.000000)">
		<g id="AmericanExpress-dark" transform="translate(770.000000, 164.000000)">
			<path id="EXPRESS" class="st1" d="M50,19.6h-2.6c-0.3,0-0.4,0-0.6,0.1c-0.1,0.1-0.2,0.2-0.2,0.4c0,0.2,0.1,0.4,0.3,0.4
				c0.1,0.1,0.3,0.1,0.5,0.1l0.8,0c0.8,0,1.3,0.2,1.6,0.5c0.1,0,0.1,0.1,0.1,0.1V19.6z M50,23.5c-0.3,0.5-1,0.8-1.9,0.8h-2.7V23h2.7
				c0.3,0,0.5,0,0.6-0.1c0.1-0.1,0.2-0.2,0.2-0.4c0-0.2-0.1-0.3-0.2-0.4c-0.1-0.1-0.3-0.1-0.5-0.1c-1.3,0-3,0-3-1.8
				c0-0.9,0.5-1.7,2-1.7H50v-1.2h-2.6c-0.8,0-1.4,0.2-1.8,0.5v-0.5h-3.8c-0.6,0-1.3,0.2-1.7,0.5v-0.5h-6.9v0.5
				c-0.5-0.4-1.5-0.5-1.9-0.5h-4.5v0.5c-0.4-0.4-1.4-0.5-2-0.5h-5.1l-1.2,1.3l-1.1-1.3H9.9v8.2h7.4l1.2-1.3l1.1,1.3l4.6,0v-1.9h0.5
				c0.6,0,1.3,0,2-0.3v2.2h3.8v-2.1h0.2c0.2,0,0.3,0,0.3,0.2v1.9h11.5c0.7,0,1.5-0.2,1.9-0.5v0.5h3.6c0.8,0,1.5-0.1,2.1-0.4V23.5
				L50,23.5z M44.4,21.1c0.3,0.3,0.4,0.6,0.4,1.2c0,1.3-0.8,1.9-2.2,1.9h-2.7V23h2.7c0.3,0,0.5,0,0.6-0.1c0.1-0.1,0.2-0.2,0.2-0.4
				c0-0.2-0.1-0.3-0.2-0.4c-0.1-0.1-0.3-0.1-0.5-0.1c-1.3,0-3,0-3-1.8c0-0.9,0.5-1.7,2-1.7h2.8v1.2H42c-0.3,0-0.4,0-0.6,0.1
				c-0.2,0.1-0.2,0.2-0.2,0.4c0,0.2,0.1,0.4,0.3,0.4c0.1,0.1,0.3,0.1,0.5,0.1l0.8,0C43.6,20.7,44.1,20.8,44.4,21.1L44.4,21.1z
				 M31.7,20.8c-0.2,0.1-0.4,0.1-0.7,0.1h-1.7v-1.3H31c0.3,0,0.5,0,0.7,0.1c0.2,0.1,0.3,0.3,0.3,0.5C32,20.4,31.9,20.6,31.7,20.8
				L31.7,20.8z M32.6,21.5c0.3,0.1,0.6,0.3,0.7,0.5c0.2,0.3,0.2,0.6,0.2,1.1v1.2h-1.4v-0.7c0-0.4,0-0.9-0.2-1.1
				c-0.2-0.2-0.5-0.3-1-0.3h-1.5v2.1h-1.4v-5.9h3.2c0.7,0,1.2,0,1.7,0.3c0.4,0.3,0.7,0.6,0.7,1.3C33.6,20.9,32.9,21.3,32.6,21.5
				L32.6,21.5z M34.3,18.3H39v1.2h-3.3v1.1h3.2v1.2h-3.2V23l3.3,0v1.2h-4.7V18.3L34.3,18.3z M24.9,21.1H23v-1.5h1.8
				c0.5,0,0.9,0.2,0.9,0.7C25.7,20.8,25.4,21.1,24.9,21.1L24.9,21.1z M21.6,23.7l-2.2-2.4l2.2-2.3V23.7L21.6,23.7z M16.1,23h-3.5
				v-1.2h3.1v-1.2h-3.1v-1.1h3.5l1.5,1.7L16.1,23L16.1,23z M27.2,20.3c0,1.6-1.2,2-2.4,2H23v2h-2.7l-1.7-1.9l-1.8,1.9h-5.6v-5.9h5.7
				l1.7,1.9l1.8-1.9h4.5C26,18.3,27.2,18.7,27.2,20.3L27.2,20.3z"/>
			<path id="AMERICAN" class="st1" d="M4.5,11.6l-1-2.3l-1,2.3H4.5z M25.7,10.7c-0.2,0.1-0.4,0.1-0.7,0.1h-1.7V9.5H25
				c0.2,0,0.5,0,0.7,0.1c0.2,0.1,0.3,0.3,0.3,0.5C26,10.4,25.9,10.6,25.7,10.7L25.7,10.7z M37.9,11.6l-1-2.3l-1,2.3H37.9L37.9,11.6z
				 M15.2,14.1h-1.4l0-4.6l-2,4.6h-1.2l-2-4.6v4.6H5.6L5,12.8H2.1l-0.5,1.3H0l2.5-5.9h2.1L7,13.8V8.3h2.3l1.8,4l1.7-4h2.3L15.2,14.1
				L15.2,14.1z M20.9,14.1h-4.7V8.3h4.7v1.2h-3.3v1.1h3.2v1.2h-3.2v1.2h3.3V14.1L20.9,14.1z M27.5,9.8c0,0.9-0.6,1.4-1,1.6
				c0.3,0.1,0.6,0.3,0.7,0.5c0.2,0.3,0.2,0.6,0.2,1.1v1.2h-1.4l0-0.7c0-0.4,0-0.9-0.2-1.1c-0.2-0.2-0.5-0.3-1-0.3h-1.5v2.1h-1.4V8.3
				h3.2c0.7,0,1.2,0,1.7,0.3C27.3,8.8,27.5,9.2,27.5,9.8L27.5,9.8z M29.8,14.1h-1.4V8.3h1.4V14.1L29.8,14.1z M46.4,14.1h-2l-2.7-4.4
				v4.4h-2.9l-0.5-1.3h-2.9l-0.5,1.3h-1.6c-0.7,0-1.5-0.2-2-0.6c-0.5-0.5-0.8-1.2-0.8-2.2c0-0.9,0.2-1.7,0.8-2.3
				c0.5-0.5,1.2-0.7,2.1-0.7h1.4v1.3h-1.3c-0.5,0-0.8,0.1-1.1,0.3c-0.2,0.2-0.4,0.7-0.4,1.3c0,0.6,0.1,1.1,0.4,1.4
				c0.2,0.2,0.6,0.3,1,0.3h0.6l2-4.6H38l2.4,5.5V8.3h2.1l2.5,4.1V8.3h1.4V14.1L46.4,14.1z M0,15.3h2.4L2.9,14h1.2l0.5,1.3h4.7v-1
				l0.4,1h2.5l0.4-1v1h11.7l0-2.1h0.2c0.2,0,0.2,0,0.2,0.3v1.9H31v-0.5c0.5,0.3,1.3,0.5,2.3,0.5h2.6l0.5-1.3h1.2l0.5,1.3H43V14
				l0.7,1.2h3.9V7.1h-3.9v1l-0.5-1h-4v1l-0.5-1h-5.4c-0.9,0-1.7,0.1-2.3,0.5V7.1h-3.7v0.5c-0.4-0.4-1-0.5-1.6-0.5H12l-0.9,2.1
				l-0.9-2.1H5.8v1l-0.5-1H1.7L0,11L0,15.3L0,15.3z"/>
		</g>
	</g>
</g>
</svg>
