<?xml version="1.0" encoding="utf-8"?>
<!-- Generator: Adobe Illustrator 19.2.1, SVG Export Plug-In . SVG Version: 6.00 Build 0)  -->
<svg version="1.1" id="Layer_1" xmlns="http://www.w3.org/2000/svg" xmlns:xlink="http://www.w3.org/1999/xlink" x="0px" y="0px"
	 viewBox="0 0 50 32" style="enable-background:new 0 0 50 32;" xml:space="preserve">
<style type="text/css">
	.st0{fill:#FFFFFF;}
	.st1{fill:#E7772F;}
	.st2{fill:#1A1918;}
</style>
<rect class="st0" width="50" height="32"/>
<g>
	<g id="CHANGES-3_x2F_14_x2F_17">
		<g id="MODAL:-Saved-Payment---updates" transform="translate(-379.000000, -333.000000)">
			<g id="Discover-light" transform="translate(379.000000, 333.000000)">
				<g id="Rectangle">
					<g id="Mask_1_">
						<path id="path-5_2_" class="st1" d="M50,32V18.8c0,0-13.4,9.1-37.9,13.2"/>
					</g>
				</g>
				<path id="Fill-13" class="st2" d="M9.1,16.9c-0.4,0.3-0.9,0.5-1.6,0.5H7.2v-3.8h0.3c0.8,0,1.2,0.1,1.6,0.5
					c0.4,0.3,0.7,0.9,0.7,1.4C9.8,16,9.6,16.6,9.1,16.9L9.1,16.9z M7.8,12.6H6v5.8h1.7c0.9,0,1.6-0.2,2.2-0.7
					c0.7-0.5,1.1-1.4,1.1-2.2C11,13.7,9.7,12.6,7.8,12.6L7.8,12.6z"/>
				<polygon id="Fill-14" class="st2" points="11.6,12.6 12.7,12.6 12.7,18.4 11.6,18.4 				"/>
				<path id="Fill-15" class="st2" d="M15.6,14.8c-0.7-0.2-0.9-0.4-0.9-0.7c0-0.4,0.4-0.6,0.9-0.6c0.4,0,0.6,0.1,1,0.5l0.6-0.8
					c-0.5-0.4-1.1-0.6-1.8-0.6c-1.1,0-1.9,0.7-1.9,1.7c0,0.8,0.4,1.2,1.5,1.6c0.5,0.2,0.7,0.3,0.8,0.3c0.2,0.1,0.4,0.4,0.4,0.6
					c0,0.5-0.4,0.8-0.9,0.8c-0.6,0-1-0.3-1.3-0.8l-0.8,0.7c0.5,0.8,1.2,1.1,2.1,1.1c1.2,0,2.1-0.8,2.1-1.9
					C17.4,15.7,17,15.3,15.6,14.8"/>
				<path id="Fill-16" class="st2" d="M17.7,15.5c0,1.7,1.4,3,3.2,3c0.5,0,0.9-0.1,1.5-0.3v-1.3c-0.5,0.5-0.9,0.6-1.4,0.6
					c-1.2,0-2-0.8-2-2c0-1.1,0.9-2,2-2c0.6,0,1,0.2,1.5,0.7v-1.3c-0.5-0.3-0.9-0.4-1.5-0.4C19.2,12.4,17.7,13.8,17.7,15.5"/>
				<polyline id="Fill-17" class="st2" points="32,16.5 30.4,12.6 29.1,12.6 31.6,18.5 32.3,18.5 34.9,12.6 33.6,12.6 32,16.5 				
					"/>
				<polyline id="Fill-18" class="st2" points="35.4,18.4 38.8,18.4 38.8,17.4 36.6,17.4 36.6,15.8 38.7,15.8 38.7,14.8 36.6,14.8 
					36.6,13.5 38.8,13.5 38.8,12.6 35.4,12.6 35.4,18.4 				"/>
				<path id="Fill-19" class="st2" d="M41.1,15.2h-0.3v-1.8h0.4c0.7,0,1.1,0.3,1.1,0.9C42.2,14.9,41.8,15.2,41.1,15.2L41.1,15.2z
					 M43.4,14.3c0-1.1-0.8-1.7-2.1-1.7h-1.8v5.8h1.2V16h0.2l1.6,2.3H44l-1.9-2.4C43,15.7,43.4,15.2,43.4,14.3L43.4,14.3z"/>
				<path id="Fill-20" class="st1" d="M29.2,15.5c0,1.7-1.4,3-3.2,3c-1.7,0-3.2-1.4-3.2-3c0-1.7,1.4-3,3.2-3
					C27.8,12.5,29.2,13.8,29.2,15.5"/>
			</g>
		</g>
	</g>
</g>
</svg>
