<svg xmlns="http://www.w3.org/2000/svg" xmlns:xlink="http://www.w3.org/1999/xlink" version="1.1" id="Layer_1" x="0px" y="0px" viewBox="0 0 32 32" xml:space="preserve" enable-background="new 0 0 32 32">
  <path d="M24.3 12.8h-0.4v-5C23.9 3.5 20.4 0 16 0S8.1 3.5 8.1 7.8v5H7.7c-1.3 0-2.4 1.1-2.4 2.4v14.5c0 1.3 1.1 2.4 2.4 2.4h16.6c1.3 0 2.4-1.1 2.4-2.4V15.2C26.7 13.9 25.6 12.8 24.3 12.8zM17.1 21.9v2.8c0 0.6-0.5 1.1-1.1 1.1 -0.6 0-1.1-0.5-1.1-1.1v-2.8c-0.5-0.4-0.9-1-0.9-1.7 0-1.1 0.9-2 2-2s2 0.9 2 2C18 20.9 17.7 21.5 17.1 21.9zM21.7 12.8H10.3v-5c0-3.1 2.5-5.6 5.7-5.6s5.7 2.5 5.7 5.6V12.8z"/>
</svg>
