<?xml version="1.0" encoding="utf-8"?>
<!-- Generator: Adobe Illustrator 19.2.1, SVG Export Plug-In . SVG Version: 6.00 Build 0)  -->
<svg version="1.1" id="Layer_1" xmlns="http://www.w3.org/2000/svg" xmlns:xlink="http://www.w3.org/1999/xlink" x="0px" y="0px"
	 viewBox="0 0 50 32" style="enable-background:new 0 0 50 32;" xml:space="preserve">
<style type="text/css">
	.st0{fill:#CC0000;}
	.st1{fill:#FF9900;}
	.st2{fill:#000066;}
	.st3{fill:#FFFFFF;}
</style>
<g id="Payment-badge-set">
	<g id="Dark-Payment-badges" transform="translate(-307.000000, -174.000000)">
		<g id="MasterCard-dark" transform="translate(307.000000, 174.000000)">
			<path id="Fill-333" class="st0" d="M28.3,16c0,5.5-4.4,9.9-9.9,9.9c-5.5,0-9.9-4.4-9.9-9.9c0-5.5,4.4-9.9,9.9-9.9
				C23.8,6.1,28.3,10.5,28.3,16"/>
			<path id="Fill-334" class="st1" d="M31.7,6.1c-2.6,0-4.9,1-6.7,2.6c-0.4,0.3-0.7,0.7-1,1.1h2c0.3,0.3,0.5,0.7,0.8,1.1h-3.5
				c-0.2,0.3-0.4,0.7-0.6,1.1h4.7c0.2,0.3,0.3,0.7,0.4,1.1h-5.5c-0.1,0.3-0.2,0.7-0.3,1.1H28c0.1,0.7,0.2,1.4,0.2,2.1
				c0,1.1-0.2,2.2-0.5,3.2h-5.5c0.1,0.4,0.3,0.7,0.4,1.1h4.7c-0.2,0.4-0.4,0.7-0.6,1.1h-3.5c0.2,0.4,0.5,0.7,0.8,1.1h2
				c-0.3,0.4-0.6,0.7-1,1.1c1.8,1.6,4.1,2.6,6.7,2.6c5.5,0,9.9-4.4,9.9-9.9C41.6,10.5,37.2,6.1,31.7,6.1"/>
			<path id="Fill-336" class="st2" d="M16,17.1c-0.1,0-0.2,0-0.2,0c-0.6,0-0.9,0.2-0.9,0.6c0,0.3,0.2,0.4,0.4,0.4
				C15.7,18.1,16,17.7,16,17.1L16,17.1z M16.8,18.9h-0.9l0-0.4c-0.3,0.3-0.6,0.5-1.1,0.5c-0.6,0-1-0.5-1-1.1c0-1,0.7-1.6,1.9-1.6
				c0.1,0,0.3,0,0.4,0c0-0.1,0-0.2,0-0.3c0-0.3-0.2-0.4-0.7-0.4c-0.5,0-1,0.1-1.1,0.2c0-0.1,0.1-0.9,0.1-0.9
				c0.5-0.2,0.9-0.2,1.3-0.2c0.9,0,1.4,0.4,1.4,1.2c0,0.2,0,0.5-0.1,0.8C17,17.3,16.8,18.6,16.8,18.9L16.8,18.9z"/>
			<polyline id="Fill-337" class="st2" points="13.4,18.9 12.3,18.9 12.9,15 11.5,18.9 10.8,18.9 10.7,15.1 10,18.9 9,18.9 
				9.9,13.9 11.4,13.9 11.5,16.7 12.5,13.9 14.2,13.9 13.4,18.9 			"/>
			<path id="Fill-338" class="st2" d="M33,17.1c-0.1,0-0.2,0-0.2,0c-0.6,0-0.9,0.2-0.9,0.6c0,0.3,0.2,0.4,0.4,0.4
				C32.7,18.1,33,17.7,33,17.1L33,17.1z M33.8,18.9h-0.9l0-0.4c-0.3,0.3-0.6,0.5-1.1,0.5c-0.6,0-1-0.5-1-1.1c0-1,0.7-1.6,1.9-1.6
				c0.1,0,0.3,0,0.4,0c0-0.1,0-0.2,0-0.3c0-0.3-0.2-0.4-0.7-0.4c-0.5,0-1,0.1-1.1,0.2c0-0.1,0.2-0.9,0.2-0.9
				c0.5-0.2,0.9-0.2,1.3-0.2c0.9,0,1.4,0.4,1.4,1.2c0,0.2,0,0.5-0.1,0.8C34,17.3,33.8,18.6,33.8,18.9L33.8,18.9z"/>
			<path id="Fill-339" class="st2" d="M21.6,18.9c-0.3,0.1-0.5,0.1-0.8,0.1c-0.6,0-0.9-0.3-0.9-0.9c0-0.2,0.1-0.7,0.1-1.1
				c0.1-0.4,0.5-2.8,0.5-2.8h1.1l-0.1,0.6h0.6l-0.1,1h-0.6c-0.1,0.8-0.3,1.7-0.3,1.9c0,0.2,0.1,0.3,0.4,0.3c0.1,0,0.2,0,0.3,0
				L21.6,18.9"/>
			<path id="Fill-340" class="st2" d="M24.9,18.8c-0.4,0.1-0.7,0.2-1.1,0.2c-1.2,0-1.8-0.6-1.8-1.8c0-1.4,0.8-2.4,1.9-2.4
				c0.9,0,1.4,0.6,1.4,1.5c0,0.3,0,0.6-0.1,1H23c-0.1,0.6,0.3,0.8,0.9,0.8c0.4,0,0.7-0.1,1.1-0.3L24.9,18.8L24.9,18.8z M24.3,16.4
				c0-0.1,0.1-0.7-0.5-0.7c-0.3,0-0.6,0.3-0.7,0.7H24.3L24.3,16.4z"/>
			<path id="Fill-341" class="st2" d="M17.4,16.1c0,0.5,0.3,0.9,0.8,1.1c0.4,0.2,0.5,0.3,0.5,0.5c0,0.3-0.2,0.4-0.6,0.4
				c-0.3,0-0.6-0.1-1-0.2c0,0-0.1,0.9-0.1,0.9c0.2,0.1,0.5,0.1,1.1,0.1c1.1,0,1.7-0.4,1.7-1.4c0-0.6-0.2-0.9-0.8-1.1
				c-0.5-0.2-0.5-0.3-0.5-0.4c0-0.2,0.2-0.3,0.5-0.3c0.2,0,0.5,0,0.8,0.1l0.2-1c-0.3,0-0.7-0.1-0.9-0.1
				C17.9,14.7,17.4,15.4,17.4,16.1"/>
			<path id="Fill-342" class="st2" d="M30.1,14.8c0.3,0,0.6,0.1,1,0.3l0.2-1.1c-0.2-0.1-0.7-0.4-1.2-0.4c-0.7,0-1.3,0.4-1.8,0.9
				c-0.6-0.2-0.9,0.2-1.2,0.6l-0.3,0.1c0-0.1,0-0.3,0-0.4h-1c-0.1,1.3-0.4,2.6-0.6,3.8l0,0.3h1.1c0.2-1.2,0.3-1.9,0.3-2.4l0.4-0.2
				c0.1-0.2,0.3-0.3,0.6-0.3c0,0.3-0.1,0.5-0.1,0.8c0,1.3,0.7,2.2,1.9,2.2c0.3,0,0.6,0,1-0.1l0.2-1.1c-0.4,0.2-0.7,0.3-0.9,0.3
				c-0.6,0-1-0.5-1-1.2C28.8,15.6,29.3,14.8,30.1,14.8"/>
			<path id="Fill-343" class="st2" d="M39.2,13.9L39,15.3c-0.3-0.4-0.6-0.7-1-0.7c-0.5,0-1,0.4-1.4,1c-0.5-0.1-0.9-0.3-0.9-0.3l0,0
				c0-0.3,0.1-0.5,0-0.6h-1c-0.1,1.3-0.4,2.6-0.6,3.8l0,0.3h1.1c0.1-0.9,0.3-1.7,0.3-2.4c0.4-0.3,0.6-0.6,0.9-0.6
				c-0.2,0.4-0.3,0.9-0.3,1.3c0,1,0.5,1.7,1.3,1.7c0.4,0,0.7-0.1,1-0.5l-0.1,0.4h1l0.8-5H39.2L39.2,13.9z M37.9,18
				c-0.4,0-0.6-0.3-0.6-0.8c0-0.8,0.3-1.4,0.8-1.4c0.4,0,0.6,0.3,0.6,0.8C38.8,17.4,38.4,18,37.9,18L37.9,18z"/>
			<polyline id="Fill-344" class="st3" points="13.7,18.6 12.6,18.6 13.2,14.7 11.8,18.6 11.1,18.6 11,14.8 10.4,18.6 9.3,18.6 
				10.2,13.6 11.7,13.6 11.8,16.7 12.8,13.6 14.5,13.6 13.7,18.6 			"/>
			<path id="Fill-345" class="st3" d="M16.3,16.8c-0.1,0-0.2,0-0.2,0c-0.6,0-0.9,0.2-0.9,0.6c0,0.3,0.2,0.4,0.4,0.4
				C16,17.8,16.3,17.4,16.3,16.8L16.3,16.8z M17.1,18.6h-0.9l0-0.4c-0.3,0.3-0.6,0.5-1.1,0.5c-0.6,0-1-0.5-1-1.1
				c0-1,0.7-1.6,1.9-1.6c0.1,0,0.3,0,0.4,0c0-0.1,0-0.2,0-0.3c0-0.3-0.2-0.4-0.7-0.4c-0.5,0-1,0.1-1.1,0.2c0-0.1,0.1-0.9,0.1-0.9
				c0.5-0.2,0.9-0.2,1.3-0.2c0.9,0,1.4,0.4,1.4,1.2c0,0.2,0,0.5-0.1,0.8C17.3,17,17.1,18.3,17.1,18.6L17.1,18.6z"/>
			<path id="Fill-346" class="st3" d="M31.6,13.7l-0.2,1.1c-0.4-0.2-0.7-0.3-1-0.3c-0.8,0-1.4,0.8-1.4,1.9c0,0.8,0.4,1.2,1,1.2
				c0.3,0,0.6-0.1,0.9-0.3l-0.2,1.1c-0.4,0.1-0.7,0.1-1,0.1c-1.2,0-1.9-0.8-1.9-2.2c0-1.8,1-3.1,2.4-3.1
				C30.9,13.5,31.4,13.7,31.6,13.7"/>
			<path id="Fill-347" class="st3" d="M33.3,16.8c-0.1,0-0.2,0-0.2,0c-0.6,0-0.9,0.2-0.9,0.6c0,0.3,0.2,0.4,0.4,0.4
				C33,17.8,33.3,17.4,33.3,16.8L33.3,16.8z M34.1,18.6h-0.9l0-0.4c-0.3,0.3-0.6,0.5-1.1,0.5c-0.6,0-1-0.5-1-1.1
				c0-1,0.7-1.6,1.9-1.6c0.1,0,0.3,0,0.4,0c0-0.1,0-0.2,0-0.3c0-0.3-0.2-0.4-0.7-0.4c-0.5,0-1,0.1-1.1,0.2c0-0.1,0.1-0.9,0.1-0.9
				c0.5-0.2,0.9-0.2,1.3-0.2c0.9,0,1.4,0.4,1.4,1.2c0,0.2,0,0.5-0.1,0.8C34.3,17,34.1,18.3,34.1,18.6L34.1,18.6z"/>
			<path id="Fill-348" class="st3" d="M21.9,18.6c-0.3,0.1-0.5,0.1-0.8,0.1c-0.6,0-0.9-0.3-0.9-0.9c0-0.2,0.1-0.7,0.1-1.1
				c0.1-0.4,0.5-2.8,0.5-2.8H22l-0.1,0.6h0.6l-0.1,1h-0.6c-0.1,0.8-0.3,1.7-0.3,1.9c0,0.2,0.1,0.3,0.4,0.3c0.1,0,0.2,0,0.3,0
				L21.9,18.6"/>
			<path id="Fill-349" class="st3" d="M25.2,18.5c-0.4,0.1-0.7,0.2-1.1,0.2c-1.2,0-1.8-0.6-1.8-1.8c0-1.4,0.8-2.4,1.9-2.4
				c0.9,0,1.4,0.6,1.4,1.5c0,0.3,0,0.6-0.1,1h-2.1c-0.1,0.6,0.3,0.8,0.9,0.8c0.4,0,0.7-0.1,1.1-0.3L25.2,18.5L25.2,18.5z M24.6,16.1
				c0-0.1,0.1-0.7-0.5-0.7c-0.3,0-0.6,0.3-0.7,0.7H24.6L24.6,16.1z"/>
			<path id="Fill-350" class="st3" d="M17.8,15.8c0,0.5,0.3,0.9,0.8,1.1c0.4,0.2,0.5,0.3,0.5,0.5c0,0.3-0.2,0.4-0.6,0.4
				c-0.3,0-0.6,0-1-0.2c0,0-0.1,0.9-0.1,0.9c0.2,0.1,0.5,0.1,1.1,0.1c1.1,0,1.7-0.4,1.7-1.4c0-0.6-0.2-0.9-0.8-1.1
				c-0.5-0.2-0.5-0.3-0.5-0.4c0-0.2,0.2-0.3,0.5-0.3c0.2,0,0.5,0,0.8,0.1l0.2-1c-0.3,0-0.7-0.1-0.9-0.1
				C18.2,14.4,17.8,15.1,17.8,15.8"/>
			<path id="Fill-351" class="st3" d="M38.8,18.6l0.1-0.4c-0.3,0.3-0.6,0.5-1,0.5c-0.8,0-1.3-0.7-1.3-1.7c0-1.4,0.8-2.5,1.8-2.5
				c0.4,0,0.7,0.2,1,0.6l0.2-1.5h1.1l-0.8,5H38.8z M38.2,17.7c0.5,0,0.9-0.6,0.9-1.4c0-0.5-0.2-0.8-0.6-0.8c-0.5,0-0.8,0.6-0.8,1.4
				C37.7,17.4,37.8,17.7,38.2,17.7L38.2,17.7z"/>
			<path id="Fill-352" class="st3" d="M35.1,14.5c-0.1,1.3-0.4,2.6-0.6,3.8l0,0.3h1.1c0.4-2.5,0.5-3,1.1-2.9c0.1-0.5,0.3-1,0.4-1.2
				c-0.5-0.1-0.7,0.2-1,0.6c0-0.2,0.1-0.4,0.1-0.6H35.1"/>
			<path id="Fill-353" class="st3" d="M26.2,14.5c-0.1,1.3-0.4,2.6-0.6,3.8l0,0.3h1.1c0.4-2.5,0.5-3,1.1-2.9c0.1-0.5,0.3-1,0.4-1.2
				c-0.5-0.1-0.7,0.2-1,0.6c0-0.2,0.1-0.4,0.1-0.6H26.2"/>
		</g>
	</g>
</g>
</svg>
