<?xml version="1.0" encoding="utf-8"?>
<!-- Generator: Adobe Illustrator 19.2.1, SVG Export Plug-In . SVG Version: 6.00 Build 0)  -->
<svg version="1.1" id="Layer_1" xmlns="http://www.w3.org/2000/svg" xmlns:xlink="http://www.w3.org/1999/xlink" x="0px" y="0px"
	 viewBox="0 0 57 32" style="enable-background:new 0 0 57 32;" xml:space="preserve">
<title>Shape</title>
<desc>Created with Sketch.</desc>
<g id="CHANGES-3_x2F_14_x2F_17">
	<g id="_x32_---shipping-options-updates" transform="translate(-229.000000, -538.000000)">
		<g id="Group-6" transform="translate(218.000000, 512.000000)">
			<path id="Shape" d="M32.2,48.5c-2.6,0-4.7,2.1-4.7,4.8c0,2.6,2.1,4.8,4.7,4.8c2.6,0,4.7-2.1,4.7-4.8
				C36.9,50.7,34.8,48.5,32.2,48.5z M32.2,55.7c-1.3,0-2.4-1.1-2.4-2.4s1.1-2.4,2.4-2.4c1.3,0,2.4,1.1,2.4,2.4
				C34.5,54.6,33.5,55.7,32.2,55.7z M68,45v5.1c0,1.3-1,2.3-2.3,2.3h-2.5c-0.5-3-3.1-5.4-6.2-5.4c-3.1,0-5.8,2.3-6.2,5.4H38.4
				c-0.5-3-3.1-5.4-6.2-5.4c-3.1,0-5.8,2.3-6.2,5.4h-3.1c-1.3,0-2.3-1-2.3-2.3V45H68L68,45z M57,48.5c-2.6,0-4.7,2.1-4.7,4.8
				c0,2.6,2.1,4.8,4.7,4.8c2.6,0,4.7-2.1,4.7-4.8C61.8,50.7,59.7,48.5,57,48.5z M57,55.7c-1.3,0-2.4-1.1-2.4-2.4s1.1-2.4,2.4-2.4
				s2.4,1.1,2.4,2.4S58.3,55.7,57,55.7z M67.1,39.9l-9-8.9c-0.6-0.6-1.4-0.9-2.2-0.9h-4.6v-1.7c0-1.3-1-2.3-2.3-2.3H22.8
				c-1.3,0-2.3,1-2.3,2.3v0.3l-9.3,1.1l16.4,2.2L11,33.6l16.6,2.3L11,37.3l9.5,1.8v4.5h47.4V42C68,41.2,67.7,40.4,67.1,39.9z
				 M63.2,40.2h-8.7c-0.2,0-0.3-0.2-0.3-0.3v-6.8c0-0.2,0.2-0.3,0.3-0.3h1.7c0.1,0,0.2,0.1,0.2,0.1l7,6.8
				C63.7,39.8,63.5,40.2,63.2,40.2z"/>
		</g>
	</g>
</g>
</svg>
