<?xml version="1.0" encoding="utf-8"?>
<!-- Generator: Adobe Illustrator 19.2.1, SVG Export Plug-In . SVG Version: 6.00 Build 0)  -->
<svg version="1.1" id="Layer_1" xmlns="http://www.w3.org/2000/svg" xmlns:xlink="http://www.w3.org/1999/xlink" x="0px" y="0px"
	 viewBox="0 0 57 32" style="enable-background:new 0 0 57 32;" xml:space="preserve">
<title>Shape</title>
<desc>Created with Sketch.</desc>
<g id="CHANGES-3_x2F_14_x2F_17">
	<g id="_x32_---shipping-options-updates" transform="translate(-236.000000, -385.000000)">
		<g id="Group-5" transform="translate(218.000000, 362.000000)">
			<path id="Shape" d="M43.8,27l-15.9,7.5v4.8l-2.8-1.2v-4.8L41,25.8l-5.4-2.4c-0.7-0.3-1.9-0.3-2.6,0l-13.1,5.8
				c-1.1,0.5-1.9,1.8-1.9,3L18.1,46c0,1.2,0.9,2.5,1.9,3l13.1,5.6c0,0,1.8,0.3,2.5,0l13.1-5.6c1.1-0.4,1.9-1.8,1.9-3l0.1-13.7
				c0-1.1-0.9-2.5-1.9-3L43.8,27z M47.7,38L47,38.4v5.4c0,0.2-0.2,0.5-0.5,0.6L45.4,45c-0.3,0.1-0.5,0-0.5-0.2v-5.4l-0.8,0.3
				c-0.4,0.2-0.6-0.1-0.4-0.5l1.8-3.8c0.2-0.4,0.6-0.6,0.8-0.4l1.8,2.1C48.4,37.4,48.1,37.9,47.7,38z M40.2,46.7
				c0,0.2-0.2,0.5-0.4,0.6l-1.1,0.5c-0.2,0.1-0.4,0-0.4-0.2l-0.1-5.2l-0.7,0.3c-0.3,0.2-0.5-0.1-0.4-0.4l1.6-3.6
				c0.2-0.4,0.6-0.6,0.8-0.4l1.7,2c0.2,0.2-0.1,0.6-0.4,0.8l-0.7,0.3L40.2,46.7z M49,45.3c0,0.1-0.1,0.3-0.2,0.3l-12.2,5.2
				c-0.1,0.1-0.2,0-0.2-0.1v-0.6c0-0.1,0.1-0.2,0.2-0.3l12.2-5.2c0.1-0.1,0.2,0,0.2,0.1V45.3z"/>
		</g>
	</g>
</g>
</svg>
