<?xml version="1.0" encoding="utf-8"?>
<!-- Generator: Adobe Illustrator 18.1.1, SVG Export Plug-In . SVG Version: 6.00 Build 0)  -->
<svg version="1.1" id="Layer_1" xmlns="http://www.w3.org/2000/svg" xmlns:xlink="http://www.w3.org/1999/xlink" x="0px" y="0px"
	 viewBox="0 0 57 77" enable-background="new 0 0 57 77" xml:space="preserve">
<g>
	<g>
		<g>
			<rect x="17.2" y="32.1" transform="matrix(0.4994 0.8663 -0.8663 0.4994 37.9472 -0.2242)" width="4" height="1.2"/>
			<rect x="34.1" y="61.5" transform="matrix(0.4994 0.8663 -0.8663 0.4994 71.954 -0.1929)" width="4" height="1.2"/>
		</g>
		<g>
			<rect x="11" y="38.3" transform="matrix(0.8657 0.5005 -0.5005 0.8657 21.2332 -1.254)" width="4" height="1.2"/>
			<rect x="40.4" y="55.3" transform="matrix(0.8657 0.5005 -0.5005 0.8657 33.6937 -13.6887)" width="4" height="1.2"/>
		</g>
	</g>
	<g>
		<g>
			<rect x="41.7" y="37" transform="matrix(0.4993 0.8664 -0.8664 0.4993 54.9547 -17.1983)" width="1.2" height="4"/>
			<rect x="12.3" y="54" transform="matrix(0.4993 0.8664 -0.8664 0.4993 54.9617 16.7897)" width="1.2" height="4"/>
		</g>
		<g>
			<rect x="35.5" y="30.7" transform="matrix(0.8658 0.5004 -0.5004 0.8658 21.2251 -13.6935)" width="1.2" height="4"/>
			<rect x="18.5" y="60.2" transform="matrix(0.8658 0.5004 -0.5004 0.8658 33.6801 -1.2484)" width="1.2" height="4"/>
		</g>
	</g>
	<circle cx="27.7" cy="30.5" r="1.4"/>
	<circle cx="27.7" cy="64.5" r="1.4"/>
	<g>
		<circle cx="44.6" cy="47.5" r="1.4"/>
		<circle cx="10.7" cy="47.5" r="1.4"/>
	</g>
	<circle cx="27.7" cy="47.5" r="1.4"/>
	<rect x="27" y="35.9" width="1.2" height="12"/>
	<path d="M48.6,29l2.3,2.3l1.9-1.9l-6.5-6.5l-1.9,1.9l2.3,2.3l-3,3c-3.1-2.8-6.9-4.8-11.1-5.7c3-1.7,5-5,5-8.7c0-5.5-4.5-10-10-10
		s-10,4.5-10,10c0,3.7,2,7,5,8.7C11.9,26.6,3.9,36.1,3.9,47.6c0,13.2,10.7,23.8,23.8,23.8s23.8-10.7,23.8-23.8
		c0-6-2.2-11.5-5.9-15.6L48.6,29z M19.7,15.6c0-4.4,3.6-8,8-8c4.4,0,8,3.6,8,8c0,3.9-2.8,7.2-6.6,7.9v-3.9h3.2v-2.8h-9.2v2.8h3.2
		v3.9C22.5,22.9,19.7,19.6,19.7,15.6z M27.7,69.4c-12,0-21.8-9.8-21.8-21.8s9.8-21.8,21.8-21.8s21.8,9.8,21.8,21.8
		S39.7,69.4,27.7,69.4z"/>
</g>
</svg>
