<?xml version="1.0" encoding="utf-8"?>
<!-- Generator: Adobe Illustrator 18.1.1, SVG Export Plug-In . SVG Version: 6.00 Build 0)  -->
<svg version="1.1" id="Layer_1" xmlns="http://www.w3.org/2000/svg" xmlns:xlink="http://www.w3.org/1999/xlink" x="0px" y="0px"
	 viewBox="0 0 57 77" enable-background="new 0 0 57 77" xml:space="preserve">
<g>
	<path d="M34.2,27.8c0.1-8,2.6-8.8,3-11.8s0.1-5.8,0.1-5.8L37,2.6c0-0.9,0.1-1.4,0.2-1.7c0.2-0.3,0.4-0.6,0.1-0.8
		C37-0.1,36.9,0,36.7,0.3c0,0-0.7,1-0.7,2.3v7.3c-2.7-0.4-7.9-0.4-7.9-0.4l0,0c0,0,0,0,0,0s0,0,0,0l0,0c-0.1,0-5.2,0-7.9,0.4V2.6
		c0-1.3-0.6-2.3-0.7-2.3c-0.2-0.3-0.3-0.3-0.6-0.2c-0.3,0.2,0,0.5,0.1,0.8c0.1,0.3,0.2,0.8,0.2,1.7l-0.4,7.6c0,0-0.3,2.8,0.1,5.8
		s2.9,3.8,3,11.8c0.1,7.9-5.3,20.2-4.9,28.2s2.7,18.6,4.5,19.8c1.9,1.1,6.4,1.2,6.4,1.3v0c0,0,0,0,0,0s0,0,0,0v0
		c0.1,0,4.6-0.1,6.4-1.3c1.9-1.1,4.2-11.8,4.5-19.8S34.1,35.7,34.2,27.8z"/>
</g>
</svg>
