<?xml version="1.0" standalone="no"?>
<!DOCTYPE svg PUBLIC "-//W3C//DTD SVG 20010904//EN"
 "http://www.w3.org/TR/2001/REC-SVG-20010904/DTD/svg10.dtd">
<svg version="1.0" xmlns="http://www.w3.org/2000/svg"
 width="1200.000000pt" height="1200.000000pt" viewBox="0 0 1200.000000 1200.000000"
 preserveAspectRatio="xMidYMid meet">
<metadata>
Created by potrace 1.11, written by Peter Selinger 2001-2013
</metadata>
<g transform="translate(0.000000,1200.000000) scale(0.100000,-0.100000)"
fill="#000000" stroke="none">
<path d="M9165 10344 c-635 -86 -1203 -389 -1647 -879 -442 -487 -689 -1056
-837 -1925 -56 -327 -90 -627 -181 -1605 -82 -875 -122 -1200 -191 -1550 -159
-808 -426 -1372 -854 -1801 -484 -485 -1058 -713 -1796 -714 -474 0 -914 94
-1284 275 -158 78 -251 141 -390 265 -340 304 -561 666 -665 1092 -84 344 -78
641 21 1032 71 281 217 579 398 813 191 247 489 451 813 557 175 58 257 69
463 64 163 -4 188 -7 265 -33 84 -27 207 -85 265 -124 67 -46 186 -177 216
-238 32 -63 32 -90 3 -123 -26 -31 -75 -149 -90 -221 -51 -241 74 -442 321
-515 76 -22 183 -22 257 -1 124 37 247 153 299 284 22 52 24 73 24 208 -1 145
-2 153 -33 236 -64 167 -170 326 -319 475 -161 161 -336 272 -534 339 -746
249 -1652 -36 -2136 -671 -228 -300 -378 -627 -458 -999 -43 -204 -50 -279
-49 -535 1 -218 4 -261 27 -390 71 -397 223 -737 462 -1035 81 -101 265 -285
375 -373 393 -318 840 -508 1386 -589 149 -22 603 -25 764 -5 846 104 1518
417 2047 953 400 405 647 837 847 1483 182 584 254 1077 356 2421 72 940 125
1367 220 1750 205 833 659 1494 1225 1785 157 80 310 125 475 139 399 34 763
-134 917 -425 78 -147 95 -217 101 -404 3 -128 1 -185 -12 -253 -32 -166 -115
-362 -230 -537 -30 -47 -51 -89 -47 -93 12 -12 209 -10 266 3 266 61 566 303
676 546 108 239 70 557 -95 787 -97 138 -278 284 -454 368 -165 79 -408 144
-634 168 -132 15 -431 12 -553 -5z"/>
</g>
</svg>
