<svg xmlns="http://www.w3.org/2000/svg" xmlns:xlink="http://www.w3.org/1999/xlink" version="1.1" id="Layer_1" x="0" y="0" viewBox="0 0 32 32" enable-background="new 0 0 32 32" xml:space="preserve">
  <path d="M20.1 13.2l9.8 8.8c0.3 0.3 0.5 0.6 0.7 1 0.2 0.4 0.3 0.8 0.3 1.2v1.1c0 0.4-0.1 0.6-0.3 0.7 -0.2 0.1-0.5 0.1-0.8-0.1l-9.7-6.7v7.1c1.8 1.6 2.7 2.7 2.7 3.1v1.7c0 0.4-0.1 0.6-0.4 0.8 -0.2 0.1-0.5 0.1-0.9 0L19 29.8h-6l-2.5 2.1c-0.3 0.2-0.6 0.2-0.9 0 -0.2-0.1-0.4-0.4-0.4-0.8v-1.7c0-0.4 0.9-1.4 2.7-3.1v-7.1l-9.7 6.7c-0.3 0.2-0.6 0.3-0.8 0.1 -0.2-0.1-0.3-0.4-0.3-0.7v-1.1c0-0.4 0.1-0.8 0.3-1.2 0.2-0.4 0.4-0.8 0.7-1l9.8-8.8V4.1c0-1.1 0.4-2.1 1.2-2.9C13.9 0.4 14.9 0 16 0c1.1 0 2.1 0.4 2.9 1.2 0.8 0.8 1.2 1.8 1.2 2.9V13.2z"/>
</svg>
