<svg xmlns="http://www.w3.org/2000/svg" xmlns:xlink="http://www.w3.org/1999/xlink" version="1.1" id="Layer_2" x="0px" y="0px" viewBox="62.9 124 491.4 544.1" enable-background="new 62.9 124 491.4 544.1" xml:space="preserve">
  <path d="M240.4 324.6c2.2-9.8 4.7-19.7 7.8-28.9 10.2-40.8 17-76.5 34-120.7 10.2-30.6 18.7-34 23.8-34 8.5 0 13.6 1.7 28.9 44.2 15.1 45.5 26.3 92.4 36.9 139.4H240.4zM157.6 324.6c-28.6 0-57.1 0-86.2 0 -8.5 0-8.5 0-8.5 8.5 1.7 23.8 3.4 45.9 5.1 69.7 0 18.7 1.7 39.1 3.4 57.8 1.7 22.1 3.4 44.2 5.1 66.3 1.7 18.7 3.4 35.7 5.1 52.7 3.4 27.2 6.8 52.7 20.4 76.5 1.7 5.1 5.1 8.5 8.5 11.9 130.9 0 260.1 0 389.3 0 11.9-10.2 17-25.5 27.2-39.1 3.4-20.4 6.8-40.8 10.2-61.2 3.4-23.8 5.1-49.3 6.8-73.1 1.7-23.9 3.4-47.6 5.1-71.4 1.7-27.2 3.4-52.7 5.1-79.9 0-3.4 0-8.5 0-11.9 0-5.1-1.7-6.8-6.8-6.8s-10.2 0-15.3 0c-25.4 0-50.8 0-76.2 0h-66.4c-24.8-103.1-30.3-125.5-47.9-173.5 -8.5-20.4-18.7-27.2-34-27.2 -18.7 0-27.2 10.2-32.3 23.8 -10 26.6-37.9 121.8-51.9 176.8L157.6 324.6 157.6 324.6z"/>
</svg>
