<svg xmlns="http://www.w3.org/2000/svg" version="1.1" x="0px" y="0px" viewBox="0 0 52.939 48.915" enable-background="new 0 0 52.939 48.915" xml:space="preserve"><path fill="#010101" d="M17.125 33.505c0-8.975 8.964-16.005 20.407-16.005 2.877 0 5.596 0.446 8.057 1.254 0.159-0.779 0.244-1.574 0.244-2.385C45.833 7.316 35.576 0 22.917 0S0 7.34 0 16.369c0 5.192 3.375 9.821 8.643 12.814 -1.201 4.271-3.043 5.807-4.653 7.623 -0.384 0.459-0.817 0.843-0.69 1.48 0 0 0 0 0 0.026 0.127 0.615 0.664 1.025 1.227 0.973 0.999-0.127 1.995-0.306 2.916-0.563 3.562-0.906 6.834-2.45 9.723-4.561C17.155 33.942 17.125 33.727 17.125 33.505z"/><path fill="#010101" d="M22.125 33.505c0-6.087 6.896-11.005 15.407-11.005s15.407 4.935 15.407 11.005c0 3.491-2.269 6.603-5.811 8.615 0.807 2.872 2.046 3.904 3.129 5.125 0.258 0.308 0.549 0.567 0.464 0.995 0 0 0 0 0 0.018 -0.085 0.414-0.446 0.689-0.825 0.654 -0.672-0.085-1.341-0.206-1.96-0.379 -2.976-0.757-5.658-2.166-7.909-4.161 -0.81 0.086-1.652 0.138-2.494 0.138C29.021 44.51 22.125 39.592 22.125 33.505z"/></svg>