<svg xmlns="http://www.w3.org/2000/svg" xmlns:xlink="http://www.w3.org/1999/xlink" version="1.1" id="Layer_2" x="0" y="0" viewBox="0 90 610.6 612.3" enable-background="new 0 90 610.6 612.3" xml:space="preserve">
  <path id="XMLID_23_" d="M532.1 698.6L387.6 554.1c-39.1 25.5-86.7 40.8-137.7 40.8C112.2 594.9 0 482.7 0 343.3S112.2 90 249.9 90s249.9 113.9 249.9 253.3c0 49.3-13.6 93.5-37.4 132.6l144.5 146.2c8.5 6.8 1.7 25.5-13.6 42.5L572.9 685C557.6 700.3 538.9 707.1 532.1 698.6zM418.2 343.3c0-93.5-74.8-168.3-166.6-168.3S83.3 249.8 83.3 343.3s74.8 168.3 168.3 168.3C343.4 511.6 418.2 435.1 418.2 343.3z"/>
</svg>