<svg xmlns="http://www.w3.org/2000/svg" xmlns:xlink="http://www.w3.org/1999/xlink" version="1.1" id="Layer_1" x="0" y="0" viewBox="0 0 32 32" enable-background="new 0 0 32 32" xml:space="preserve">
  <rect x="0" y="0" fill="#CC2128" width="32" height="32"/>
  <path fill="#FFFFFF" d="M16.5 4.6c4.3 0 8.2 3 8.2 7.5 0 4.3-2.2 9-7 9 -1.2 0-2.6-0.6-3.2-1.6 -1 4.1-1 4.7-3.3 7.9l-0.2 0.1L11 27.3c-0.1-0.9-0.2-1.7-0.2-2.6 0-2.8 1.3-6.8 1.9-9.6 -0.3-0.7-0.4-1.5-0.4-2.3 0-1.4 1-3.1 2.5-3.1 1.2 0 1.8 0.9 1.8 2 0 1.8-1.2 3.5-1.2 5.2 0 1.2 1 2 2.1 2 3.2 0 4.1-4.6 4.1-7 0-3.2-2.3-5-5.4-5 -3.6 0-6.4 2.6-6.4 6.3 0 1.8 1.1 2.7 1.1 3.1 0 0.4-0.3 1.6-0.7 1.6 -0.1 0-0.2 0-0.2 0 -2-0.6-2.7-3.2-2.7-5C7.2 7.7 11.9 4.6 16.5 4.6z"/>
</svg>
