<svg xmlns="http://www.w3.org/2000/svg" xmlns:xlink="http://www.w3.org/1999/xlink" version="1.1" id="Layer_1" x="0px" y="0px" viewBox="0 0 32 32" enable-background="new 0 0 32 32" xml:space="preserve">
  <g>
    <rect x="0" y="0" fill="#333333" width="32" height="32"/>
    <g>
      <path fill="#FFFFFF" d="M23.9 13c-1.7 1.2-3.4 2.4-5.1 3.6 -0.7 0.5-1.9 1.5-2.8 1.5h0 0c-0.9 0-2.1-1-2.8-1.5 -1.7-1.2-3.4-2.4-5.1-3.6 -0.8-0.5-1.9-1.8-1.9-2.8 0-1.1 0.6-2 1.8-2h16.1c1 0 1.8 0.8 1.8 1.8C25.8 11.3 24.9 12.4 23.9 13zM25.8 22c0 1-0.8 1.8-1.8 1.8H7.9c-1 0-1.8-0.8-1.8-1.8v-8.7c0.3 0.4 0.7 0.7 1.1 1 1.8 1.2 3.7 2.5 5.4 3.8 0.9 0.7 2.1 1.5 3.3 1.5h0 0c1.2 0 2.3-0.8 3.3-1.5 1.8-1.3 3.6-2.5 5.5-3.8 0.4-0.3 0.8-0.6 1.1-1V22z"/>
    </g>
  </g>
</svg>
