<svg xmlns="http://www.w3.org/2000/svg" xmlns:xlink="http://www.w3.org/1999/xlink" version="1.1" id="Layer_1" x="0px" y="0px" viewBox="0 0 32 32" enable-background="new 0 0 32 32" xml:space="preserve">
  <g>
    <rect x="0" y="0" fill="#5FA9DD" width="32" height="32"/>
    <g>
      <path fill="#FFFFFF" d="M24.6 11.6c0 0.2 0 0.4 0 0.6 0 5.9-4.5 12.6-12.6 12.6 -2.5 0-4.8-0.7-6.8-2 0.4 0 0.7 0.1 1.1 0.1 2.1 0 4-0.7 5.5-1.9 -1.9 0-3.6-1.3-4.1-3.1 0.3 0 0.5 0.1 0.8 0.1 0.4 0 0.8-0.1 1.2-0.2 -2-0.4-3.5-2.2-3.5-4.3 0 0 0 0 0-0.1 0.6 0.3 1.3 0.5 2 0.6 -1.2-0.8-2-2.2-2-3.7 0-0.8 0.2-1.6 0.6-2.2 2.2 2.7 5.5 4.4 9.1 4.6 -0.1-0.3-0.1-0.7-0.1-1 0-2.4 2-4.4 4.4-4.4 1.3 0 2.4 0.5 3.2 1.4 1-0.2 2-0.6 2.8-1.1 -0.3 1-1 1.9-1.9 2.4 0.9-0.1 1.8-0.3 2.5-0.7C26.2 10.2 25.4 11 24.6 11.6z"/>
    </g>
  </g>
</svg>
