<svg xmlns="http://www.w3.org/2000/svg" xmlns:xlink="http://www.w3.org/1999/xlink" version="1.1" id="Layer_1" x="0px" y="0px" viewBox="0 0 32 32" xml:space="preserve" enable-background="new 0 0 32 32">
  <style type="text/css">
  .starfill{fill:#DFDFDF;}
  .starstroke{fill:#757575;}
  </style>
  <g>
    <polygon class="starfill" points="16 0.8 20.9 10.8 32 12.4 24 20.2 25.9 31.2 16 26 6.1 31.2 8 20.2 0 12.4 11.1 10.8 "/>
    <path class="starstroke" d="M16 4.2l3.6 7.3 0.3 0.7 0.8 0.1 8.1 1.2L23 19.1l-0.6 0.6 0.1 0.8 1.4 8 -7.2-3.8L16 24.3l-0.7 0.4 -7.2 3.8 1.4-8 0.1-0.8L9 19.1l-5.8-5.7 8.1-1.2 0.8-0.1 0.3-0.7L16 4.2M16 0.8l-4.9 10L0 12.4l8 7.8 -1.9 11L16 26l9.9 5.2 -1.9-11 8-7.8 -11.1-1.6L16 0.8 16 0.8z"/>
  </g>
</svg>
