<svg xmlns="http://www.w3.org/2000/svg" xmlns:xlink="http://www.w3.org/1999/xlink" version="1.1" id="Layer_1" x="0px" y="0px" viewBox="0 0 48 30" enable-background="new 0 0 48 30" xml:space="preserve">
  <g class="style-note-wrap">
    <g class="style-note-bg">
      <path d="M46.5 0h-45C0.7 0 0 0.7 0 1.5v23.1c0 0.8 0.7 1.5 1.5 1.5H20l4 3.9 4-3.9h18.6c0.8 0 1.5-0.7 1.5-1.5V1.5C48 0.7 47.3 0 46.5 0z"/>
    </g>
    <g class="style-note-text">
      <path d="M10.7 6.9h-0.2c0.4-1.3-0.3-2-1.2-2 -1 0-1.5 0.6-1.5 1.4 0 1.7 2.8 2.3 2.8 4.2 0 1.6-1.1 2.9-2.9 2.9 -1 0-1.4-0.5-1.9-0.5 -0.3 0-0.4 0.1-0.5 0.3 0 0-0.3 0-0.2 0L6 10.6h0.3c-0.4 1.3 0.1 2.7 1.6 2.7 1.2 0 1.8-0.6 1.8-1.6C9.6 9.9 7 9.4 7 7.4 7 6 8.1 4.7 9.6 4.7c0.7 0 1.1 0.3 1.4 0.3 0.3 0 0.4-0.1 0.5-0.3 0 0 0.3 0 0.2 0L10.7 6.9z"/>
      <path d="M15.8 8.5h-0.9l-1.4 4.1c-0.1 0.2 0 0.4 0.2 0.4 0.4 0 0.7-0.2 1-0.8l0.2 0.1c-0.4 0.9-1.1 1.2-1.6 1.2 -0.7 0-1.1-0.6-0.8-1.5l1.1-3.5h-0.9c0 0 0-0.2 0.1-0.2h0.9l0.5-1.7 1.3-0.3L15 8.2h0.9L15.8 8.5"/>
      <path d="M21.8 9c-1 0.3-1.3 0.9-2.6 4 -1.1 2.7-1.7 4-3.1 4 -0.7 0-1.3-0.4-1.3-1.1 0-0.4 0.3-0.7 0.6-0.7 0.4 0 0.5 0.2 0.5 0.5s-0.2 0.5-0.2 0.7c0 0.3 0.1 0.3 0.4 0.3 1.1 0 1.7-1.2 2.6-3.3l-0.5-2.8c-0.3-1.7-0.6-1.9-0.9-1.9 -0.2 0-0.4 0.2-0.6 0.5l-0.2-0.1c0.4-0.8 0.9-1.2 1.4-1.2 0.6 0 0.9 0.6 1.2 2.1l0.3 1.5c1-2.4 1.7-3.6 2.4-3.6 0.3 0 0.4 0.1 0.4 0.3C22.3 8.8 22.1 8.9 21.8 9"/>
      <path d="M23.9 12.5c-0.1 0.3 0 0.4 0.2 0.4 0.4 0 0.7-0.3 1-0.8l0.2 0.1c-0.4 0.8-1.1 1.2-1.7 1.2 -0.7 0-1-0.6-0.7-1.5l2.3-7c0 0 0 0-0.1 0h-0.6l0.1-0.2h1.9l0 0L23.9 12.5z"/>
      <path d="M28.4 10.9h-0.5c-0.2 0.5-0.2 0.9-0.2 1.4 0 0.6 0.2 1 0.9 1 0.8 0 1.3-0.4 1.8-1l0.1 0.2c-0.6 0.7-1.2 1-2 1 -1.1 0-1.9-0.8-1.9-2 0-1.7 1.4-3.3 3-3.3 1 0 1.4 0.5 1.4 1.1C31.1 10.2 30 10.9 28.4 10.9M29.6 8.4c-0.9 0-1.3 0.9-1.7 2.2h0.5c1.5 0 1.8-0.8 1.8-1.6C30.2 8.6 30 8.4 29.6 8.4"/>
      <polygon points="25.9 20.9 23.1 17 23.1 20.9 22.5 20.9 22.5 15.9 23.1 15.9 25.8 19.6 25.8 15.9 26.4 15.9 26.4 20.9 "/>
      <path d="M30.6 21c-1.5 0-2.4-1.1-2.4-2.7s0.9-2.7 2.4-2.7c1.5 0 2.4 1.1 2.4 2.7C33 19.9 32 21 30.6 21M30.6 16.4c-1 0-1.7 0.8-1.7 2s0.6 2 1.7 2c1 0 1.7-0.8 1.7-2C32.2 17.2 31.6 16.4 30.6 16.4"/>
      <polygon points="36.8 16.5 36.8 20.9 36 20.9 36 16.5 34.4 16.5 34.4 15.9 38.3 15.9 38.5 16.5 "/>
      <polygon points="40 20.9 40 15.9 42.7 15.9 42.7 16.5 40.7 16.5 40.7 18 42.3 18 42.4 18.7 40.7 18.7 40.7 20.3 42.8 20.3 42.8 20.9 "/>
    </g>
  </g>
</svg>
