<svg xmlns="http://www.w3.org/2000/svg" xmlns:xlink="http://www.w3.org/1999/xlink" version="1.1" id="Layer_1" x="0px" y="0px" viewBox="0 0 32 32" enable-background="new 0 0 32 32" xml:space="preserve">
  <path d="M25.1 10.4c-0.7 0.3-1.4 0.5-2.1 0.6 0.8-0.5 1.4-1.2 1.6-2.1 -0.7 0.4-1.5 0.7-2.4 0.9 -0.7-0.7-1.6-1.2-2.7-1.2 -2.1 0-3.7 1.7-3.7 3.7 0 0.3 0 0.6 0.1 0.8C12.8 13 10 11.6 8.2 9.3c-0.3 0.6-0.5 1.2-0.5 1.9 0 1.3 0.7 2.4 1.7 3.1 -0.6 0-1.2-0.2-1.7-0.5v0c0 1.8 1.3 3.3 3 3.7 -0.3 0.1-0.6 0.1-1 0.1 -0.2 0-0.5 0-0.7-0.1 0.5 1.5 1.9 2.6 3.5 2.6 -1.3 1-2.9 1.6-4.6 1.6 -0.3 0-0.6 0-0.9-0.1 1.7 1.1 3.6 1.7 5.7 1.7 6.9 0 10.6-5.7 10.6-10.6 0-0.2 0-0.3 0-0.5C24 11.8 24.6 11.1 25.1 10.4"/>
</svg>