<svg xmlns="http://www.w3.org/2000/svg" xmlns:xlink="http://www.w3.org/1999/xlink" version="1.1" id="Layer_1" x="0px" y="0px" viewBox="0 0 32 32" enable-background="new 0 0 32 32" xml:space="preserve">
  <g>
    <path id="XMLID_23_" d="M27.9 31.8l-7.6-7.6c-2 1.3-4.5 2.1-7.2 2.1C5.9 26.4 0 20.5 0 13.2S5.9 0 13.1 0s13.1 6 13.1 13.2c0 2.6-0.7 4.9-2 6.9l7.6 7.6c0.4 0.4 0.1 1.3-0.7 2.2L30 31.1C29.2 31.9 28.2 32.3 27.9 31.8zM21.9 13.2c0-4.9-3.9-8.8-8.7-8.8s-8.8 3.9-8.8 8.8S8.3 22 13.2 22C18 22 21.9 18 21.9 13.2z"/>
    <polygon points="14.4 12.1 14.4 6.8 12 6.8 12 12.1 6.7 12.1 6.7 14.5 12 14.5 12 19.7 14.4 19.7 14.4 14.5 19.7 14.5 19.7 12.1 "/>
  </g>
</svg>
