<?xml version="1.0" encoding="utf-8"?>
<!-- Generator: Adobe Illustrator 18.1.1, SVG Export Plug-In . SVG Version: 6.00 Build 0)  -->
<svg version="1.1" id="Layer_1" xmlns="http://www.w3.org/2000/svg" xmlns:xlink="http://www.w3.org/1999/xlink" x="0px" y="0px"
	 viewBox="0 0 57 77" enable-background="new 0 0 57 77" xml:space="preserve">
<g>
	<g>
		<path d="M57,24v-6.2c0-2.5-2-4.5-4.5-4.5H35.1H21.9H4.5c-2.5,0-4.5,2-4.5,4.5V24H57z"/>
	</g>
	<g>
		<ellipse fill="#FFFFFF" cx="15.6" cy="18.6" rx="3.2" ry="3.2"/>
		<path d="M17.6,6.5v11.6c0,1.1-0.9,2-2,2s-2-0.9-2-2V6.5"/>
		<ellipse fill="#FFFFFF" cx="41.5" cy="18.6" rx="3.2" ry="3.2"/>
		<path d="M39.5,6.5v11.6c0,1.1,0.9,2,2,2s2-0.9,2-2V6.5"/>
	</g>
	<g>
		<path d="M0,26.4v40.1C0,69,2,71,4.5,71h48.1c2.5,0,4.5-2,4.5-4.5V26.4H0z M14,67H4.5C4.2,67,4,66.8,4,66.5V56.5h10V67z M14,54H4
			V43.5h10V54z M14,41H4V30.4c0-0.3,0.2-0.5,0.5-0.5H14V41z M27.9,67H16.5V56.5h11.4V67z M27.9,54H16.5V43.5h11.4V54z M27.9,41H16.5
			V29.9h11.4V41z M40.8,67H30.4V56.5h10.4V67z M40.8,54H30.4V43.5h10.4V54z M40.8,41H30.4V29.9h10.4V41z M53,66.5
			c0,0.3-0.2,0.5-0.5,0.5h-9.2V56.5H53V66.5z M53,54h-9.7V43.5H53V54z M53,41h-9.7V29.9h9.2c0.3,0,0.5,0.2,0.5,0.5V41z"/>
	</g>
</g>
</svg>
