<?xml version="1.0" encoding="utf-8"?>
<!-- Generator: Adobe Illustrator 18.1.1, SVG Export Plug-In . SVG Version: 6.00 Build 0)  -->
<svg version="1.1" id="Layer_1" xmlns="http://www.w3.org/2000/svg" xmlns:xlink="http://www.w3.org/1999/xlink" x="0px" y="0px"
	 viewBox="0 0 146.6 30" enable-background="new 0 0 146.6 30" xml:space="preserve">
<g>
	<g>
		<g>
			<path fill="#FFFFFF" d="M139.7,5.5L139.7,5.5L129.5,30L119.4,5.5h-0.1l-5.1,23.6h-1.7L118.8,0l10.7,25.9L140.2,0l6.4,29.1h-1.7
				L139.7,5.5z"/>
		</g>
	</g>
	<path fill="#FFFFFF" d="M82.1,0.9h10.1c5.5,0,8.4,3,8.4,7.2c0,3-1.8,4.9-3.9,5.8c-0.1,0-0.5-0.2-0.6-0.1c3.6,0.8,6.1,3.1,6.1,7.1
		c0,4.6-3.4,8.2-9.2,8.2H82.1V0.9z M90.8,11.9c2.6,0,3.7-1.4,3.7-3.2c0-1.8-1-2.9-3.3-2.9h-3.4v6.1H90.8z M92.2,24.2
		c2.4,0,3.9-1.5,3.9-3.8c0-2.2-1.6-3.7-4.2-3.7h-4v7.5H92.2z"/>
	<path fill="#FFFFFF" d="M0,0.9h6l4,11.6c0.7,1.9,1.6,5.1,1.6,5.1s0.9-3.4,1.8-5.3l5.4-11.6h0.6L25,12.2c0.9,1.9,1.9,5.3,1.9,5.3
		s0.9-3.2,1.6-5.1l4-11.6h5.5L27.7,29.3h-0.6l-6.3-13.6c-0.7-1.6-1.6-4.2-1.6-4.2s-0.9,2.6-1.6,4.2L11,29.3h-0.6L0,0.9z"/>
	<path fill="#FFFFFF" d="M49.1,0.9h1.7v12.4h17.9V0.9h1.7v28.2h-1.7V14.8H50.8v14.3h-1.7V0.9z"/>
</g>
</svg>
