<?xml version="1.0" encoding="utf-8"?>
<!-- Generator: Adobe Illustrator 18.1.1, SVG Export Plug-In . SVG Version: 6.00 Build 0)  -->
<svg version="1.1" id="Layer_1" xmlns="http://www.w3.org/2000/svg" xmlns:xlink="http://www.w3.org/1999/xlink" x="0px" y="0px"
	 viewBox="0 0 202 30" enable-background="new 0 0 202 30" xml:space="preserve">
<g>
	<path fill="#FFFFFF" d="M40.6,15.1c-0.7-0.5-1.3-0.9-2-1.2h-0.1c-0.3-0.1-0.5-0.3-0.7-0.4l-0.1-0.1c-0.7-0.4-1.5-0.9-2-1.6
		s-0.6-1.7-0.3-2.6c0.2-0.7,0.8-1.4,1.5-1.7c0.8-0.3,1.8-0.3,2.7,0.1c0.3,0.2,1,0.9,1.3,1.2c0,0.1,0.1,0.1,0.1,0.1L41,9.1l0.9-0.6
		V8.4c0,0,0-0.1-0.5-0.7c-0.1-0.1-0.3-0.3-0.5-0.5c-0.4-0.3-0.8-0.6-1.3-0.7c-0.9-0.3-1.9-0.3-2.7-0.1c-1.5,0.5-2.7,1.9-2.8,3.5
		c-0.1,1.1,0.3,2.2,1,3.1c0.7,0.8,1.6,1.3,2.5,1.7c0.1,0.1,0.3,0.1,0.4,0.2l0.1,0.1c0.7,0.4,1.5,0.8,2.1,1.3
		c0.7,0.6,1.1,1.3,1.2,2.1c0.3,1.6-0.7,3.2-2.1,3.8c-0.5,0.2-0.9,0.3-1.5,0.3c-1.2,0-2.3-0.5-3-1.4c-0.1-0.1-0.4-0.5-0.5-0.7
		l-0.1-0.3l-1.1,0.5l0.1,0.1c0,0.1,0.5,0.9,0.8,1.3c0.7,0.8,1.7,1.3,2.7,1.5c0.3,0.1,0.7,0.1,1,0.1c0.8,0,1.6-0.2,2.3-0.5
		c1-0.5,1.8-1.3,2.3-2.4c0.4-1,0.5-2.2,0.1-3.3C42.1,16.7,41.5,15.8,40.6,15.1z"/>
	<path fill="#FFFFFF" d="M196.8,15.7c1.1-0.3,4-1.3,4-4.7c0-0.1,0.2-1.5-0.9-2.8c-1.1-1.3-3.2-2-6.2-2c-0.4,0-0.9,0-1.3,0.1h-0.3
		v17.3h1.2V7.5c0.2,0,0.5,0,0.9,0c1.3,0,3.6,0.2,4.8,1.5c0.5,0.6,0.8,1.4,0.7,2.4c0,0.1-0.2,3.3-4.2,3.3c-0.3,0-0.7,0-1-0.1h-0.1
		v1.3h0.1c0.2,0,0.6,0.1,0.9,0.1l5.6,8L201,24l1-0.7L196.8,15.7z"/>
	<polygon fill="#FFFFFF" points="177.6,15.3 183.9,15.3 183.9,14.1 177.6,14.1 177.6,7.6 184.6,7.6 184.6,6.3 176.3,6.3 176.3,23.7 
		185.8,23.7 185.8,22.5 177.6,22.5 	"/>
	<path fill="#FFFFFF" d="M161.5,6.3h-0.3v17.3h1.2V7.5c0.2,0,0.5,0,0.9,0c1.3,0,3.6,0.2,4.8,1.5c0.5,0.6,0.8,1.4,0.7,2.4
		c0,0.1-0.2,3.3-4.2,3.3c-0.3,0-0.7,0-1-0.1h-0.1v1.3h0.1c0.3,0.1,0.6,0.1,0.9,0.1h0.1c0.5,0,0.9-0.1,0.9-0.1c0.2,0,4.5-0.5,4.5-4.8
		c0-0.3,0.1-1.5-0.9-2.8C167.7,6.8,165.1,6.1,161.5,6.3z"/>
	<path fill="#FFFFFF" d="M109.6,6.3c-0.4,0-0.9,0-1.3,0.1h-0.3v17.3h1.2V7.5c0.2,0,0.5,0,0.9,0c1.3,0,3.6,0.2,4.8,1.5
		c0.5,0.6,0.8,1.4,0.7,2.4c0,0.1-0.2,3.3-4.2,3.3c-0.3,0-0.7,0-1-0.1h-0.1v1.3h0.1c0.3,0,0.7,0.1,1.1,0.1c0.5,0,0.7,0,0.8,0
		c0.1,0,4.5-0.5,4.6-4.8c0-0.3,0.1-1.5-0.9-2.8C114.6,6.9,112.5,6.3,109.6,6.3z"/>
	<path fill="#FFFFFF" d="M131.3,11.1c0-0.3,0.1-1.5-0.9-2.8c-1.1-1.3-3.2-2-6.2-2c-0.4,0-0.9,0-1.3,0.1h-0.3v17.3h1.2V7.5
		c0.2,0,0.5,0,0.9,0c1.3,0,3.6,0.2,4.8,1.5c0.5,0.6,0.8,1.4,0.7,2.4c0,0.3-0.3,3.3-4.2,3.3c-0.3,0-0.7,0-1-0.1h-0.1v1.3h0.1
		c0.1,0,0.5,0.1,0.9,0.1l5.6,8l0.1,0.1l1-0.7l-5.2-7.5C128.5,15.5,131.3,14.5,131.3,11.1z"/>
	<path fill="#FFFFFF" d="M146.2,6.2c-4.9,0-8.8,3.9-8.8,8.8s3.9,8.8,8.8,8.8s8.8-3.9,8.8-8.8C154.9,10.1,151,6.2,146.2,6.2z
		 M146.2,22.6c-4.2,0-7.6-3.4-7.6-7.6s3.4-7.6,7.6-7.6s7.6,3.4,7.6,7.6C153.7,19.2,150.3,22.6,146.2,22.6z"/>
	<path fill="#FFFFFF" d="M92.8,21.4L80.3,5v18.7h1.2v-15c0.7,1,2.2,2.9,5.6,7.4c3.1,4.1,6.2,8.1,6.2,8.1L94,25v-1c0,0,0-17.2,0-17.3
		V6.3h-1.2V21.4z"/>
	<path fill="#FFFFFF" d="M68,6.2c-4.9,0-8.8,3.9-8.8,8.8s3.9,8.8,8.8,8.8s8.8-3.9,8.8-8.8S72.9,6.2,68,6.2z M68,22.6
		c-4.2,0-7.6-3.4-7.6-7.6s3.4-7.6,7.6-7.6c4.2,0,7.6,3.4,7.6,7.6S72.2,22.6,68,22.6z"/>
	<polygon fill="#FFFFFF" points="44.3,7.5 50.5,7.5 50.5,23.7 51.6,23.7 51.6,7.5 57.8,7.5 57.8,6.3 44.3,6.3 	"/>
	<path fill="#FFFFFF" d="M22,6.2c-4.9,0-8.8,3.9-8.8,8.8s4,8.8,8.8,8.8c4.9,0,8.8-3.9,8.8-8.8S26.9,6.2,22,6.2z M22.1,22.6
		c-4.2,0-7.6-3.4-7.6-7.6s3.4-7.6,7.6-7.6s7.5,3.4,7.5,7.6S26.2,22.6,22.1,22.6z"/>
	<path fill="#FFFFFF" d="M7.6,14.3c0.9-0.5,2.1-1.7,2.1-3.8c0-0.1,0.1-1.7-0.9-2.9C8,6.8,6.7,6.3,5,6.3c-0.1,0-0.2,0-0.3,0L4.7,6.4
		L0,6.3v17.3h4.3c0.1,0,0.2,0,0.4,0c0.9,0,3.1-0.1,4.6-1.7c0.9-0.9,1.3-2.2,1.2-3.7C10.5,18.2,10.3,15.4,7.6,14.3z M8.5,21.1
		c-1.2,1.3-3.3,1.4-3.3,1.4h-4v-15h4.1c1.3,0.1,2.2,0.4,2.7,1c0.7,0.7,0.6,1.7,0.6,1.9c-0.4,3.3-3.1,3.4-3.3,3.4h-3v1.3h3.2
		c3.8,0.3,3.9,3.4,3.9,3.5C9.3,19.6,9.1,20.5,8.5,21.1z"/>
</g>
</svg>
