<?xml version="1.0" encoding="utf-8"?>
<!-- Generator: Adobe Illustrator 18.1.1, SVG Export Plug-In . SVG Version: 6.00 Build 0)  -->
<svg version="1.1" id="Layer_1" xmlns="http://www.w3.org/2000/svg" xmlns:xlink="http://www.w3.org/1999/xlink" x="0px" y="0px"
	 viewBox="0 0 151.2 30" enable-background="new 0 0 151.2 30" xml:space="preserve">
<g>
	<path fill="#FFFFFF" d="M123.9,10.1h-2.6V1.7h4.9v1.1C126.2,7.7,123.9,10.1,123.9,10.1z"/>
	<path fill="#FFFFFF" d="M5.1,5.7C2.3,5.7,0,7.9,0,10.7v14.2C0,27.7,2.3,30,5.1,30h12.5c2.8,0,5.1-2.3,5.1-5.1c0,0,0-0.4,0-1.2
		c-1,0-3.2,0-4.1,0c0,0.8,0,1.2,0,1.2c0,0.5-0.4,0.9-0.9,0.9H5.1c-0.5,0-0.9-0.4-0.9-0.9V10.6c0-0.5,0.4-0.9,0.9-0.9h12.5
		c0.5,0,0.9,0.4,0.9,0.9c0,0,0,0.4,0,1.2c1,0,3.2,0,4.1,0c0-0.8,0-1.1,0-1.1c0-2.8-2.3-5.1-5.1-5.1H5.1z"/>
	<path fill="#FFFFFF" d="M71.7,5.7c-2.8,0-5.1,2.3-5.1,5.1v14.2c0,2.8,2.3,5.1,5.1,5.1h12.5c2.8,0,5.1-2.3,5.1-5.1c0,0,0-0.4,0-1.2
		c-1,0-3.2,0-4.1,0c0,0.8,0,1.2,0,1.2c0,0.5-0.4,0.9-0.9,0.9H71.7c-0.5,0-0.9-0.4-0.9-0.9V10.6c0-0.5,0.4-0.9,0.9-0.9h12.5
		c0.5,0,0.9,0.4,0.9,0.9c0,0,0,0.4,0,1.2c1,0,3.2,0,4.1,0c0-0.8,0-1.1,0-1.1c0-2.8-2.3-5.1-5.1-5.1H71.7z"/>
	<path fill="#FFFFFF" d="M99.3,5.7c-2.8,0-5.1,2.3-5.1,5.1v14.2c0,2.8,2.3,5.1,5.1,5.1h12.9c2.8,0,5.1-2.3,5.1-5.1V10.7
		c0-2.8-2.3-5.1-5.1-5.1H99.3z M98.4,25.2V10.6c0-0.5,0.4-0.9,0.9-0.9h12.9c0.5,0,0.9,0.4,0.9,0.9v14.6c0,0.5-0.4,0.9-0.9,0.9H99.3
		C98.8,26.1,98.4,25.7,98.4,25.2z"/>
	<path fill="#FFFFFF" d="M56.7,6.3c0,1.4,0,22.3,0,23.7c1,0,3.2,0,4.1,0c0-1.4,0-22.3,0-23.7C59.9,6.3,57.6,6.3,56.7,6.3z"/>
	<path fill="#FFFFFF" d="M133.6,5.7c-2.8,0-5.1,2.3-5.1,5.1c0,0,0,4.1,0,4.1c0,2.8,2.3,5.1,5.1,5.1h12.5c0.5,0,0.9,0.4,0.9,0.9
		c0,0,0,4.3,0,4.3c0,0.5-0.4,0.9-0.9,0.9h-12.5c-0.5,0-0.9-0.4-0.9-0.9c0,0,0-1.2,0-1.7c-1,0-3.2,0-4.1,0c0,0.5,0,1.5,0,1.5
		c0,3.1,1.9,5.1,5.1,5.1h12.5c2.8,0,5.1-2.3,5.1-5.1v-4.1c0-2.8-2.3-5.1-5.1-5.1h-12.5c-0.5,0-0.9-0.4-0.9-0.9v-4.1
		c0-0.5,0.3-0.9,0.9-0.9h12.5c0.5,0,0.9,0.4,0.9,0.9c0,0,0,0.4,0,1.1c1,0,3.2,0,4.1,0c0-0.7,0-1.1,0-1.1c0-3.2-1.9-5.1-5.1-5.1
		H133.6z"/>
	<path fill="#FFFFFF" d="M45.2,5.7h-10c-1.5,0-2.8,0.8-3.4,2.2V0h-4.1v30h4.1V10.6c0-0.5,0.4-0.9,0.9-0.9h12.5
		c0.5,0,0.9,0.4,0.9,0.9c0,0,0,0.4,0,1.2V30h4.1V11.8c0-0.8,0-1.1,0-1.1C50.3,7.9,48,5.7,45.2,5.7z"/>
</g>
</svg>
