<?xml version="1.0" encoding="utf-8"?>
<!-- Generator: Adobe Illustrator 19.2.1, SVG Export Plug-In . SVG Version: 6.00 Build 0)  -->
<svg version="1.1" id="Layer_1" xmlns="http://www.w3.org/2000/svg" xmlns:xlink="http://www.w3.org/1999/xlink" x="0px" y="0px"
	 viewBox="0 0 50 32" enable-background="new 0 0 50 32" xml:space="preserve">
<g>
	<g>
		<g>
			<path fill="#0069AA" d="M24.736,7.179v6.499c1.306-0.502,2.234-1.766,2.236-3.25C26.97,8.945,26.043,7.68,24.736,7.179z"/>
			<path fill="#0069AA" d="M20.01,10.428c0.003,1.483,0.929,2.746,2.234,3.248V7.179C20.939,7.682,20.012,8.946,20.01,10.428z"/>
			<path fill="#0069AA" d="M26.3,4.439h-2.823c-3.319-0.001-6.051,2.473-6.051,6.052c0,3.274,2.732,5.963,6.051,5.947H26.3
				c3.28,0.016,6.274-2.674,6.274-5.947C32.574,6.912,29.58,4.438,26.3,4.439z M23.491,15.92c-3.033-0.001-5.491-2.459-5.492-5.492
				C18,7.394,20.457,4.936,23.491,4.935c3.034,0.001,5.492,2.459,5.493,5.493C28.983,13.462,26.524,15.919,23.491,15.92z"/>
		</g>
	</g>
	<g>
		<g>
			<path d="M9.659,18.479c0-0.608-0.318-0.568-0.622-0.575v-0.175c0.263,0.013,0.534,0.013,0.798,0.013
				c0.284,0,0.669-0.013,1.17-0.013c1.75,0,2.704,1.169,2.704,2.366c0,0.67-0.392,2.353-2.785,2.353
				c-0.344,0-0.663-0.013-0.98-0.013c-0.304,0-0.602,0.007-0.906,0.013v-0.176c0.405-0.041,0.602-0.054,0.622-0.513V18.479z
				 M10.322,21.65c0,0.521,0.372,0.581,0.703,0.581c1.461,0,1.94-1.101,1.94-2.109c0-1.264-0.811-2.177-2.116-2.177
				c-0.277,0-0.405,0.019-0.527,0.027V21.65z"/>
			<path d="M13.946,22.272h0.128c0.189,0,0.324,0,0.324-0.224v-1.831c0-0.298-0.101-0.339-0.352-0.473v-0.108
				c0.318-0.095,0.696-0.223,0.724-0.244c0.048-0.026,0.087-0.033,0.122-0.033c0.033,0,0.047,0.04,0.047,0.094v2.595
				c0,0.224,0.149,0.224,0.338,0.224h0.115v0.176c-0.23,0-0.466-0.013-0.71-0.013c-0.243,0-0.487,0.007-0.737,0.013V22.272z
				 M14.67,18.317c-0.176,0-0.332-0.162-0.332-0.338c0-0.169,0.162-0.325,0.332-0.325c0.175,0,0.331,0.142,0.331,0.325
				C15.001,18.162,14.852,18.317,14.67,18.317z"/>
			<path d="M16.035,20.257c0-0.25-0.074-0.317-0.392-0.445v-0.129c0.29-0.095,0.567-0.183,0.892-0.324c0.02,0,0.04,0.013,0.04,0.066
				v0.441c0.386-0.278,0.717-0.507,1.17-0.507c0.575,0,0.777,0.419,0.777,0.946v1.743c0,0.224,0.149,0.224,0.338,0.224h0.122v0.176
				c-0.237,0-0.474-0.013-0.716-0.013c-0.244,0-0.487,0.007-0.731,0.013v-0.176h0.122c0.189,0,0.324,0,0.324-0.224v-1.75
				c0-0.386-0.236-0.575-0.622-0.575c-0.217,0-0.561,0.176-0.785,0.325v2c0,0.224,0.15,0.224,0.339,0.224h0.122v0.176
				c-0.237,0-0.474-0.013-0.718-0.013c-0.243,0-0.486,0.007-0.73,0.013v-0.176h0.123c0.189,0,0.324,0,0.324-0.224V20.257z"/>
			<path d="M19.497,20.582c-0.014,0.061-0.014,0.162,0,0.392c0.04,0.643,0.453,1.17,0.993,1.17c0.372,0,0.664-0.203,0.913-0.453
				l0.095,0.095c-0.311,0.412-0.696,0.764-1.25,0.764c-1.075,0-1.291-1.041-1.291-1.474c0-1.325,0.892-1.717,1.365-1.717
				c0.548,0,1.137,0.344,1.143,1.061c0,0.041,0,0.081-0.006,0.122l-0.062,0.041H19.497z M20.694,20.366
				c0.168,0,0.188-0.088,0.188-0.169c0-0.345-0.209-0.623-0.588-0.623c-0.412,0-0.696,0.304-0.777,0.791H20.694z"/>
			<path d="M21.619,22.272h0.183c0.189,0,0.323,0,0.323-0.224v-1.899c0-0.209-0.25-0.25-0.351-0.305v-0.1
				c0.493-0.21,0.765-0.386,0.826-0.386c0.04,0,0.06,0.019,0.06,0.088v0.608h0.014c0.168-0.263,0.453-0.696,0.865-0.696
				c0.169,0,0.385,0.114,0.385,0.358c0,0.182-0.128,0.345-0.318,0.345c-0.21,0-0.21-0.163-0.446-0.163
				c-0.115,0-0.493,0.155-0.493,0.562v1.587c0,0.224,0.135,0.224,0.324,0.224h0.378v0.176c-0.372-0.006-0.655-0.013-0.946-0.013
				c-0.277,0-0.561,0.007-0.805,0.013V22.272z"/>
			<path d="M24.222,21.508c0.089,0.446,0.359,0.825,0.853,0.825c0.398,0,0.546-0.244,0.546-0.48c0-0.797-1.473-0.542-1.473-1.629
				c0-0.379,0.305-0.865,1.048-0.865c0.216,0,0.507,0.061,0.77,0.196l0.048,0.69h-0.155c-0.067-0.426-0.304-0.67-0.737-0.67
				c-0.271,0-0.527,0.156-0.527,0.446c0,0.792,1.568,0.548,1.568,1.609c0,0.446-0.358,0.919-1.163,0.919
				c-0.271,0-0.589-0.094-0.825-0.229l-0.074-0.778L24.222,21.508z"/>
			<path d="M32.267,18.953h-0.169c-0.128-0.791-0.69-1.108-1.446-1.108c-0.778,0-1.908,0.52-1.908,2.142
				c0,1.367,0.975,2.347,2.015,2.347c0.669,0,1.224-0.459,1.359-1.17l0.155,0.04l-0.155,0.987c-0.284,0.176-1.049,0.358-1.495,0.358
				c-1.582,0-2.581-1.021-2.581-2.542c0-1.386,1.236-2.38,2.562-2.38c0.548,0,1.075,0.176,1.595,0.359L32.267,18.953z"/>
			<path d="M32.51,22.272h0.129c0.189,0,0.325,0,0.325-0.224v-3.764c0-0.44-0.102-0.454-0.359-0.528v-0.108
				c0.27-0.088,0.554-0.209,0.696-0.291c0.074-0.04,0.129-0.075,0.149-0.075c0.041,0,0.054,0.041,0.054,0.095v4.67
				c0,0.224,0.149,0.224,0.338,0.224h0.115v0.176c-0.229,0-0.466-0.013-0.71-0.013c-0.243,0-0.486,0.007-0.737,0.013V22.272z"/>
			<path d="M36.852,22.076c0,0.122,0.074,0.129,0.189,0.129c0.081,0,0.183-0.006,0.271-0.006v0.142
				c-0.292,0.027-0.845,0.169-0.975,0.209l-0.033-0.02v-0.547c-0.405,0.331-0.717,0.567-1.197,0.567
				c-0.365,0-0.743-0.236-0.743-0.803v-1.731c0-0.176-0.027-0.345-0.405-0.379v-0.129c0.244-0.008,0.783-0.047,0.872-0.047
				c0.075,0,0.075,0.047,0.075,0.196V21.4c0,0.202,0,0.784,0.588,0.784c0.229,0,0.533-0.176,0.817-0.411v-1.82
				c0-0.135-0.324-0.209-0.567-0.277v-0.122c0.608-0.041,0.987-0.094,1.054-0.094c0.054,0,0.054,0.047,0.054,0.122V22.076z"/>
			<path d="M38.197,19.845c0.271-0.229,0.636-0.486,1.008-0.486c0.784,0,1.258,0.683,1.258,1.419c0,0.885-0.649,1.771-1.617,1.771
				c-0.5,0-0.763-0.162-0.939-0.236l-0.203,0.155l-0.141-0.074c0.06-0.399,0.094-0.792,0.094-1.204v-2.906
				c0-0.44-0.101-0.454-0.358-0.528v-0.108c0.271-0.088,0.554-0.209,0.697-0.291c0.074-0.04,0.128-0.075,0.149-0.075
				c0.04,0,0.053,0.041,0.053,0.095V19.845z M38.197,21.684c0,0.257,0.243,0.69,0.697,0.69c0.724,0,1.028-0.71,1.028-1.312
				c0-0.73-0.555-1.338-1.082-1.338c-0.251,0-0.46,0.162-0.643,0.318V21.684z"/>
		</g>
		<g>
			<path d="M9.03,26.378h0.051c0.132,0,0.272-0.018,0.272-0.209v-1.927c0-0.192-0.14-0.209-0.272-0.209H9.03v-0.112
				c0.144,0,0.364,0.015,0.545,0.015c0.184,0,0.404-0.015,0.577-0.015v0.112h-0.051c-0.132,0-0.272,0.018-0.272,0.209v1.927
				c0,0.192,0.14,0.209,0.272,0.209h0.051v0.111c-0.176,0-0.397-0.014-0.581-0.014c-0.181,0-0.397,0.014-0.541,0.014V26.378z"/>
			<path d="M10.152,26.505c-0.178,0-0.398-0.014-0.581-0.014l0,0c-0.18,0-0.396,0.014-0.541,0.014l0,0H9.014v-0.016v-0.11v-0.016
				H9.03h0.051c0.133-0.003,0.255-0.014,0.256-0.194l0,0v-1.927c-0.001-0.18-0.123-0.192-0.256-0.194l0,0H9.014v-0.015v-0.127H9.03
				c0.144,0,0.365,0.014,0.545,0.014l0,0c0.183,0,0.403-0.014,0.577-0.014l0,0h0.016v0.016v0.125h-0.016h-0.051
				c-0.134,0.003-0.256,0.014-0.257,0.194l0,0v1.927c0.001,0.18,0.123,0.191,0.257,0.194l0,0h0.067v0.016v0.126H10.152
				L10.152,26.505z M10.136,26.474l0-0.078h-0.036c-0.131,0-0.288-0.023-0.289-0.226l0,0v-1.927
				c0.001-0.203,0.157-0.226,0.289-0.226l0,0h0.035v-0.078c-0.17,0-0.383,0.014-0.561,0.014l0,0c-0.175,0-0.386-0.014-0.529-0.014
				l0,0v0.078h0.035c0.131,0,0.288,0.023,0.288,0.226l0,0v1.927c0,0.203-0.157,0.226-0.288,0.226l0,0H9.047v0.078
				c0.142-0.002,0.35-0.015,0.525-0.015l0,0C9.75,26.459,9.963,26.472,10.136,26.474L10.136,26.474z"/>
		</g>
		<g>
			<path d="M12.68,25.765l0.007-0.008v-1.379c0-0.302-0.21-0.345-0.321-0.345h-0.081v-0.112c0.173,0,0.342,0.015,0.515,0.015
				c0.15,0,0.302-0.015,0.452-0.015v0.112h-0.054c-0.155,0-0.328,0.029-0.328,0.466v1.674c0,0.129,0.004,0.257,0.022,0.371h-0.14
				l-1.894-2.111v1.515c0,0.321,0.062,0.43,0.345,0.43h0.063v0.111c-0.158,0-0.316-0.014-0.475-0.014
				c-0.164,0-0.334,0.014-0.5,0.014v-0.111h0.051c0.254,0,0.331-0.172,0.331-0.466v-1.549c0-0.206-0.17-0.33-0.335-0.33h-0.048
				v-0.112c0.139,0,0.283,0.015,0.423,0.015c0.111,0,0.218-0.015,0.328-0.015L12.68,25.765z"/>
			<path d="M12.893,26.561l-0.152-0.006l-1.867-2.081v1.474c0.005,0.32,0.053,0.411,0.33,0.415l0,0h0.079v0.015v0.127h-0.017
				c-0.159,0-0.318-0.014-0.475-0.014l0,0c-0.164,0-0.333,0.014-0.5,0.014l0,0h-0.016v-0.016v-0.126h0.016h0.052
				c0.243-0.002,0.313-0.158,0.316-0.451l0,0v-1.549c-0.001-0.196-0.162-0.315-0.319-0.315l0,0h-0.064v-0.016v-0.125h0.016
				c0.141,0,0.284,0.014,0.423,0.014l0,0c0.109,0,0.216-0.014,0.34-0.009l0,0l1.616,1.819v-1.353
				c-0.002-0.293-0.197-0.328-0.305-0.33l0,0h-0.097v-0.016v-0.125h0.017c0.173,0,0.343,0.014,0.515,0.014l0,0
				c0.149,0,0.3-0.014,0.452-0.014l0,0h0.017v0.015v0.127h-0.017h-0.054c-0.152,0.004-0.308,0.018-0.312,0.451l0,0v1.674
				c0,0.128,0.004,0.256,0.022,0.369l0,0l0.003,0.019H12.893L12.893,26.561z M12.753,26.528h0.122
				c-0.017-0.11-0.019-0.233-0.019-0.355l0,0v-1.674c0-0.441,0.184-0.483,0.343-0.483l0,0h0.039v-0.078
				c-0.146,0.001-0.29,0.014-0.436,0.014l0,0c-0.168,0-0.332-0.014-0.499-0.014l0,0v0.078h0.064c0.113,0,0.336,0.05,0.336,0.362l0,0
				l-0.004,1.39l-0.008,0.007l-0.012,0.012l-1.636-1.849c-0.109,0-0.216,0.014-0.328,0.014l0,0c-0.135,0-0.273-0.014-0.406-0.014
				l0,0l-0.001,0.078h0.032c0.173,0,0.35,0.132,0.35,0.347l0,0v1.549c0,0.295-0.082,0.482-0.347,0.483l0,0l-0.035-0.001v0.08
				c0.159-0.002,0.323-0.015,0.484-0.015l0,0c0.154,0,0.307,0.013,0.459,0.015l0,0v-0.078h-0.046
				c-0.29-0.001-0.361-0.127-0.361-0.447l0,0v-1.557L12.753,26.528L12.753,26.528z M12.68,25.765l0.012-0.011L12.68,25.765
				L12.68,25.765z M12.671,25.757v-0.001l-0.003-0.003L12.671,25.757L12.671,25.757z"/>
		</g>
		<g>
			<path d="M13.804,24.105c-0.276,0-0.286,0.066-0.342,0.335h-0.11c0.015-0.103,0.033-0.206,0.045-0.313
				c0.014-0.103,0.022-0.206,0.022-0.312h0.089c0.03,0.11,0.121,0.106,0.221,0.106h1.898c0.099,0,0.191-0.003,0.199-0.113
				l0.087,0.015c-0.013,0.098-0.029,0.198-0.04,0.298c-0.008,0.099-0.008,0.199-0.008,0.298l-0.11,0.041
				c-0.007-0.137-0.026-0.354-0.272-0.354h-0.603v1.957c0,0.284,0.129,0.316,0.305,0.316h0.07v0.111
				c-0.143,0-0.401-0.014-0.599-0.014c-0.22,0-0.478,0.014-0.622,0.014v-0.111h0.07c0.203,0,0.305-0.018,0.305-0.308v-1.965H13.804z
				"/>
			<path d="M15.255,26.505c-0.145,0-0.402-0.014-0.6-0.014l0,0c-0.22,0-0.477,0.014-0.622,0.014l0,0h-0.015v-0.016v-0.126h0.015
				h0.07c0.203-0.005,0.285-0.008,0.289-0.293l0,0v-1.95h-0.587v-0.016V24.09h0.62v1.981c0,0.295-0.119,0.325-0.321,0.325l0,0
				h-0.054v0.078c0.145-0.001,0.392-0.014,0.606-0.014l0,0c0.192,0,0.438,0.013,0.583,0.014l0,0v-0.078h-0.053
				c-0.178,0-0.322-0.043-0.322-0.333l0,0V24.09h0.62c0.247,0.001,0.279,0.21,0.287,0.347l0,0l0.08-0.029
				c0-0.095,0.001-0.192,0.007-0.289l0,0c0.01-0.094,0.024-0.188,0.038-0.282l0,0l-0.056-0.009
				c-0.018,0.107-0.121,0.113-0.213,0.112l0,0h-1.897c-0.007,0-0.014,0-0.019,0l0,0c-0.087,0-0.181-0.004-0.213-0.107l0,0h-0.061
				c0,0.102-0.008,0.2-0.022,0.298l0,0c-0.011,0.101-0.027,0.198-0.041,0.295l0,0h0.079c0.049-0.256,0.08-0.339,0.354-0.335l0,0
				v0.016v0.016c-0.272,0.006-0.266,0.051-0.326,0.323l0,0l-0.002,0.013h-0.014h-0.129l0.003-0.019
				c0.014-0.103,0.033-0.206,0.045-0.313l0,0c0.015-0.102,0.022-0.204,0.022-0.31l0,0v-0.016h0.016h0.101l0.003,0.012
				c0.025,0.093,0.093,0.093,0.187,0.095l0,0c0.006,0,0.012,0,0.019,0l0,0h1.897c0.102-0.002,0.177-0.004,0.183-0.1l0,0l0.001-0.017
				l0.017,0.003l0.103,0.016l-0.002,0.016c-0.014,0.099-0.029,0.198-0.039,0.297l0,0c-0.008,0.098-0.008,0.198-0.008,0.297l0,0
				v0.011l-0.011,0.004l-0.13,0.048l-0.001-0.022c-0.01-0.138-0.025-0.339-0.257-0.339l0,0h-0.587v1.942
				c0.004,0.278,0.114,0.297,0.29,0.301l0,0h0.085v0.015v0.127H15.255L15.255,26.505z"/>
		</g>
		<g>
			<path d="M16.03,26.378h0.051c0.132,0,0.272-0.018,0.272-0.209v-1.927c0-0.192-0.139-0.209-0.272-0.209H16.03v-0.112
				c0.223,0,0.607,0.015,0.916,0.015c0.309,0,0.691-0.015,0.941-0.015c-0.006,0.159-0.003,0.402,0.008,0.564l-0.111,0.029
				c-0.017-0.239-0.062-0.43-0.448-0.43h-0.51v0.963h0.436c0.221,0,0.27-0.124,0.291-0.323h0.11
				c-0.007,0.144-0.011,0.286-0.011,0.43c0,0.14,0.004,0.28,0.011,0.419l-0.11,0.022c-0.021-0.221-0.033-0.364-0.287-0.364h-0.44
				v0.857c0,0.239,0.213,0.239,0.448,0.239c0.442,0,0.636-0.029,0.747-0.449l0.103,0.026c-0.048,0.196-0.092,0.389-0.125,0.585
				c-0.235,0-0.659-0.014-0.99-0.014c-0.331,0-0.769,0.014-0.978,0.014V26.378z"/>
			<path d="M17.998,26.505c-0.236,0-0.659-0.015-0.99-0.015l0,0c-0.331,0-0.768,0.015-0.978,0.015l0,0h-0.016v-0.016v-0.111v-0.015
				h0.016h0.051c0.133-0.003,0.254-0.014,0.256-0.194l0,0v-1.927c-0.001-0.179-0.123-0.191-0.256-0.194l0,0h-0.068v-0.015v-0.127
				h0.016c0.224,0,0.607,0.014,0.916,0.014l0,0c0.309,0,0.691-0.014,0.941-0.014l0,0h0.017v0.016
				c-0.003,0.055-0.004,0.12-0.004,0.191l0,0c0,0.127,0.004,0.266,0.011,0.37l0,0v0.013L17.898,24.5l-0.129,0.034l-0.001-0.019
				c-0.022-0.238-0.053-0.412-0.433-0.415l0,0H16.84v0.931h0.422c0.213-0.001,0.249-0.11,0.275-0.308l0,0l0.001-0.014h0.014h0.127
				v0.016c-0.008,0.144-0.012,0.286-0.012,0.43l0,0c0,0.139,0.004,0.279,0.012,0.419l0,0v0.013l-0.013,0.003l-0.128,0.025
				l-0.001-0.017c-0.025-0.224-0.027-0.347-0.271-0.35l0,0l-0.426-0.001v0.842c0.001,0.224,0.193,0.223,0.433,0.224l0,0
				c0.443-0.003,0.62-0.024,0.731-0.438l0,0l0.004-0.015l0.016,0.003l0.118,0.031l-0.003,0.015
				c-0.048,0.194-0.091,0.389-0.124,0.584l0,0l-0.003,0.013H17.998L17.998,26.505z M17.984,26.473
				c0.032-0.186,0.074-0.372,0.119-0.557l0,0l-0.073-0.018c-0.11,0.412-0.323,0.448-0.758,0.445l0,0c-0.232,0-0.464,0-0.465-0.255
				l0,0v-0.873h0.458c0.257-0.003,0.283,0.152,0.301,0.362l0,0l0.08-0.016c-0.007-0.135-0.01-0.272-0.01-0.407l0,0
				c0-0.138,0.004-0.276,0.01-0.415l0,0h-0.08c-0.02,0.192-0.08,0.327-0.305,0.324l0,0h-0.454v-0.996h0.528
				c0.382-0.002,0.446,0.196,0.462,0.426l0,0l0.08-0.021c-0.006-0.104-0.01-0.236-0.01-0.359l0,0c0-0.064,0.001-0.123,0.003-0.175
				l0,0c-0.25,0.001-0.623,0.014-0.925,0.014l0,0c-0.302,0-0.675-0.014-0.9-0.014l0,0v0.078h0.036c0.131,0,0.288,0.023,0.288,0.226
				l0,0v1.927c-0.001,0.203-0.157,0.225-0.288,0.226l0,0h-0.036v0.078c0.214-0.001,0.639-0.014,0.962-0.014l0,0
				C17.333,26.459,17.746,26.472,17.984,26.473L17.984,26.473z"/>
		</g>
		<g>
			<path d="M18.62,24.312c0-0.269-0.147-0.279-0.261-0.279h-0.067v-0.112c0.118,0,0.346,0.015,0.571,0.015
				c0.22,0,0.397-0.015,0.592-0.015c0.462,0,0.875,0.125,0.875,0.648c0,0.331-0.22,0.533-0.511,0.648l0.629,0.94
				c0.103,0.156,0.176,0.199,0.356,0.221v0.111c-0.121,0-0.239-0.014-0.36-0.014c-0.115,0-0.232,0.014-0.346,0.014
				c-0.283-0.371-0.526-0.769-0.765-1.192H19.09v0.787c0,0.284,0.132,0.294,0.301,0.294h0.067v0.111
				c-0.211,0-0.424-0.014-0.633-0.014c-0.176,0-0.349,0.014-0.534,0.014v-0.111h0.067c0.135,0,0.261-0.061,0.261-0.198V24.312z
				 M19.09,25.165h0.18c0.368,0,0.566-0.139,0.566-0.574c0-0.327-0.21-0.537-0.537-0.537c-0.111,0-0.158,0.012-0.209,0.015V25.165z"
				/>
			<path d="M20.804,26.505c-0.123,0-0.24-0.014-0.361-0.014l0,0c-0.112,0-0.23,0.014-0.358,0.009l0,0
				c-0.281-0.37-0.523-0.765-0.761-1.186l0,0h-0.217v0.771c0.004,0.277,0.115,0.275,0.285,0.279l0,0h0.082v0.015v0.127h-0.017
				c-0.211,0-0.424-0.014-0.633-0.014l0,0c-0.176,0-0.348,0.014-0.533,0.014l0,0h-0.015v-0.016v-0.126h0.015h0.067
				c0.132-0.001,0.243-0.059,0.244-0.183l0,0v-1.869c-0.003-0.261-0.13-0.26-0.244-0.264l0,0h-0.082v-0.015v-0.127h0.015
				c0.12,0,0.347,0.014,0.571,0.014l0,0c0.219,0,0.396-0.014,0.592-0.014l0,0c0.463,0,0.89,0.129,0.891,0.663l0,0
				c0,0.332-0.22,0.54-0.503,0.655l0,0l0.618,0.925c0.103,0.153,0.166,0.191,0.345,0.214l0,0l0.013,0.001v0.014v0.127H20.804
				L20.804,26.505z M19.09,25.281h0.251l0.004,0.008c0.239,0.423,0.481,0.82,0.752,1.184l0,0c0.113,0,0.231-0.015,0.345-0.015l0,0
				c0.118,0,0.231,0.013,0.345,0.014l0,0v-0.081c-0.173-0.021-0.253-0.073-0.354-0.225l0,0l-0.641-0.958l0.019-0.008
				c0.288-0.113,0.501-0.31,0.501-0.633l0,0c-0.001-0.51-0.397-0.629-0.859-0.631l0,0c-0.194,0-0.372,0.014-0.592,0.014l0,0
				c-0.217,0-0.435-0.014-0.555-0.014l0,0v0.078h0.051c0.114,0,0.276,0.019,0.276,0.295l0,0v1.869c0,0.148-0.138,0.215-0.276,0.215
				l0,0h-0.051v0.078c0.177-0.001,0.344-0.014,0.517-0.014l0,0c0.206,0,0.413,0.014,0.617,0.014l0,0v-0.078h-0.05
				c-0.168,0-0.318-0.021-0.318-0.311l0,0v-0.803H19.09L19.09,25.281z M19.09,25.18h-0.016v-1.127l0.014-0.001
				c0.05-0.004,0.1-0.014,0.211-0.014l0,0c0.335,0,0.553,0.218,0.554,0.553l0,0c-0.001,0.439-0.212,0.589-0.583,0.589l0,0H19.09
				L19.09,25.18z M19.27,25.149c0.364-0.004,0.548-0.13,0.551-0.557l0,0c-0.002-0.321-0.202-0.52-0.522-0.522l0,0
				c-0.1,0-0.146,0.009-0.193,0.014l0,0v1.066H19.27L19.27,25.149z"/>
		</g>
		<g>
			<path d="M23.301,25.765l0.007-0.008v-1.379c0-0.302-0.209-0.345-0.319-0.345h-0.081v-0.112c0.174,0,0.342,0.015,0.515,0.015
				c0.151,0,0.302-0.015,0.453-0.015v0.112h-0.055c-0.155,0-0.328,0.029-0.328,0.466v1.674c0,0.129,0.003,0.257,0.021,0.371h-0.139
				l-1.894-2.111v1.515c0,0.321,0.063,0.43,0.346,0.43h0.063v0.111c-0.159,0-0.317-0.014-0.475-0.014
				c-0.165,0-0.335,0.014-0.5,0.014v-0.111h0.05c0.255,0,0.332-0.172,0.332-0.466v-1.549c0-0.206-0.169-0.33-0.334-0.33h-0.048
				v-0.112c0.139,0,0.284,0.015,0.423,0.015c0.11,0,0.217-0.015,0.327-0.015L23.301,25.765z"/>
			<path d="M23.514,26.561l-0.151-0.006l-1.867-2.081v1.474c0.005,0.321,0.053,0.411,0.33,0.415l0,0h0.078v0.015v0.127h-0.016
				c-0.159,0-0.317-0.015-0.475-0.015l0,0c-0.165,0-0.335,0.015-0.5,0.015l0,0h-0.017v-0.016v-0.126h0.017h0.05
				c0.243-0.001,0.313-0.158,0.315-0.452l0,0v-1.548c-0.001-0.196-0.16-0.315-0.318-0.315l0,0h-0.065v-0.015v-0.127h0.017
				c0.14,0,0.284,0.014,0.423,0.014l0,0c0.108,0,0.215-0.014,0.338-0.01l0,0l1.617,1.821v-1.353c0-0.293-0.197-0.328-0.304-0.33l0,0
				h-0.097v-0.015v-0.127h0.016c0.174,0,0.344,0.014,0.515,0.014l0,0c0.15,0,0.301-0.014,0.452-0.014l0,0h0.016v0.016v0.125h-0.016
				h-0.054c-0.152,0.004-0.308,0.018-0.312,0.451l0,0v1.674c0,0.128,0.003,0.255,0.022,0.369l0,0l0.002,0.019H23.514L23.514,26.561z
				 M23.375,26.528h0.12c-0.015-0.11-0.019-0.233-0.019-0.355l0,0v-1.674c0-0.441,0.186-0.482,0.344-0.483l0,0h0.038v-0.078
				c-0.145,0.001-0.29,0.014-0.436,0.014l0,0c-0.169,0-0.333-0.014-0.499-0.014l0,0v0.078h0.065c0.113,0.001,0.336,0.05,0.336,0.362
				l0,0l-0.005,1.39l-0.007,0.007l-0.012,0.013l-1.637-1.85c-0.109,0-0.217,0.014-0.327,0.014l0,0c-0.136,0-0.274-0.014-0.408-0.014
				l0,0v0.078h0.032c0.173,0.001,0.35,0.131,0.35,0.347l0,0v1.548c0,0.295-0.083,0.483-0.347,0.484l0,0H20.93v0.078
				c0.159-0.001,0.323-0.014,0.485-0.014l0,0c0.154,0,0.307,0.013,0.459,0.014l0,0v-0.078h-0.046c-0.29,0-0.362-0.126-0.363-0.447
				l0,0v-1.557L23.375,26.528L23.375,26.528z M23.301,25.765l0.012-0.011L23.301,25.765L23.301,25.765z M23.292,25.757v-0.001
				l-0.002-0.003L23.292,25.757L23.292,25.757z"/>
		</g>
		<g>
			<path d="M24.468,25.963c-0.037,0.125-0.082,0.221-0.082,0.286c0,0.111,0.155,0.128,0.276,0.128h0.041v0.111
				c-0.148-0.008-0.298-0.014-0.446-0.014c-0.133,0-0.265,0.007-0.397,0.014v-0.111h0.022c0.144,0,0.265-0.085,0.319-0.239
				l0.589-1.688c0.048-0.137,0.115-0.32,0.136-0.457c0.118-0.04,0.265-0.113,0.335-0.158c0.011-0.004,0.017-0.007,0.029-0.007
				c0.011,0,0.018,0,0.026,0.011c0.011,0.029,0.022,0.063,0.034,0.092l0.676,1.924c0.044,0.129,0.088,0.265,0.136,0.376
				c0.045,0.103,0.122,0.146,0.243,0.146h0.022v0.111c-0.165-0.008-0.331-0.014-0.507-0.014c-0.18,0-0.364,0.007-0.551,0.014v-0.111
				h0.04c0.084,0,0.228-0.014,0.228-0.106c0-0.048-0.033-0.147-0.074-0.265L25.42,25.58h-0.835L24.468,25.963z M25.005,24.333
				h-0.008l-0.342,1.041h0.688L25.005,24.333z"/>
			<path d="M26.426,26.505c-0.165-0.007-0.33-0.015-0.506-0.015l0,0c-0.18,0-0.363,0.008-0.551,0.015l0,0l-0.017,0.001v-0.017
				v-0.127h0.017h0.04c0.085,0,0.211-0.019,0.211-0.09l0,0c0.001-0.042-0.031-0.143-0.072-0.26l0,0l-0.14-0.416h-0.812l-0.115,0.371
				c-0.038,0.126-0.081,0.223-0.081,0.283l0,0c0.001,0.09,0.139,0.112,0.261,0.112l0,0h0.056v0.017v0.127l-0.017-0.001
				c-0.147-0.007-0.298-0.015-0.444-0.015l0,0c-0.132,0-0.265,0.008-0.396,0.015l0,0l-0.016,0.001v-0.017v-0.127h0.016h0.022
				c0.137,0,0.251-0.078,0.304-0.228l0,0l0.59-1.688c0.048-0.137,0.114-0.32,0.146-0.466l0,0c0.115-0.04,0.263-0.114,0.334-0.159
				l0,0c0.01-0.004,0.02-0.009,0.035-0.009l0,0c0.009-0.001,0.029,0.003,0.04,0.022l0,0c0.011,0.03,0.023,0.063,0.034,0.092l0,0
				l0.678,1.925c0.043,0.129,0.087,0.265,0.135,0.373l0,0c0.043,0.098,0.11,0.137,0.228,0.137l0,0h0.038v0.017v0.127L26.426,26.505
				L26.426,26.505z M25.384,26.472c0.182-0.006,0.36-0.013,0.536-0.013l0,0c0.171,0,0.331,0.008,0.491,0.013l0,0v-0.076h-0.006
				c-0.126,0.001-0.212-0.049-0.258-0.157l0,0c-0.048-0.112-0.092-0.248-0.136-0.377l0,0l-0.677-1.924
				c-0.011-0.029-0.022-0.063-0.031-0.089l0,0c-0.004-0.004-0.003-0.004-0.006-0.004l0,0c-0.002,0-0.004,0-0.007,0l0,0
				c-0.008,0-0.012,0.003-0.021,0.005l0,0c-0.071,0.046-0.219,0.118-0.328,0.147l0,0c-0.022,0.14-0.088,0.323-0.137,0.459l0,0
				l-0.588,1.689c-0.056,0.16-0.185,0.25-0.335,0.25l0,0h-0.006v0.076c0.126-0.006,0.253-0.013,0.381-0.013l0,0
				c0.142,0,0.288,0.008,0.428,0.013l0,0v-0.076h-0.023c-0.12-0.001-0.287-0.014-0.292-0.145l0,0c0-0.073,0.045-0.168,0.081-0.292
				l0,0l0.016,0.004l-0.016-0.005l0.121-0.393h0.857l0.147,0.437c0.042,0.118,0.075,0.216,0.075,0.27l0,0
				c-0.006,0.113-0.16,0.121-0.243,0.123l0,0h-0.025V26.472L25.384,26.472z M24.632,25.391l0.352-1.073h0.013h0.008v0.016
				l-0.004,0.001l0.004-0.001v-0.016h0.011l0.349,1.073H24.632L24.632,25.391z M24.676,25.359h0.644L25,24.373L24.676,25.359
				L24.676,25.359z M24.988,24.338l0.009-0.003L24.988,24.338L24.988,24.338z"/>
		</g>
		<g>
			<path d="M26.59,24.105c-0.276,0-0.287,0.066-0.342,0.335h-0.111c0.015-0.103,0.034-0.206,0.044-0.313
				c0.015-0.103,0.022-0.206,0.022-0.312h0.088c0.029,0.11,0.122,0.106,0.221,0.106h1.898c0.099,0,0.191-0.003,0.198-0.113
				l0.088,0.015c-0.014,0.098-0.028,0.198-0.04,0.298c-0.009,0.099-0.009,0.199-0.009,0.298l-0.109,0.041
				c-0.006-0.137-0.025-0.354-0.272-0.354h-0.603v1.957c0,0.284,0.129,0.316,0.305,0.316h0.069v0.111
				c-0.143,0-0.4-0.014-0.599-0.014c-0.221,0-0.479,0.014-0.623,0.014v-0.111h0.07c0.203,0,0.306-0.018,0.306-0.308v-1.965H26.59z"
				/>
			<path d="M28.038,26.505c-0.144,0-0.401-0.014-0.599-0.014l0,0c-0.22,0-0.477,0.014-0.623,0.014l0,0h-0.015v-0.016v-0.126h0.015
				h0.07c0.203-0.005,0.284-0.008,0.289-0.293l0,0v-1.95H26.59v-0.016V24.09h0.618v1.981c0,0.295-0.119,0.323-0.321,0.325l0,0
				h-0.054v0.078c0.145-0.002,0.392-0.015,0.606-0.015l0,0c0.192,0,0.438,0.013,0.584,0.015l0,0l-0.001-0.078h-0.054
				c-0.177-0.001-0.32-0.043-0.321-0.333l0,0V24.09h0.619c0.248,0.001,0.279,0.21,0.286,0.347l0,0l0.08-0.029
				c0-0.095,0-0.192,0.008-0.288l0,0c0.01-0.095,0.024-0.189,0.037-0.282l0,0l-0.055-0.01c-0.018,0.107-0.121,0.113-0.213,0.112l0,0
				h-1.898c-0.007,0-0.013,0-0.019,0l0,0c-0.087,0.001-0.18-0.004-0.214-0.108l0,0h-0.06c-0.001,0.103-0.008,0.201-0.023,0.3l0,0
				c-0.01,0.102-0.028,0.198-0.042,0.295l0,0h0.079c0.048-0.256,0.08-0.34,0.355-0.335l0,0v0.016v0.016
				c-0.273,0.005-0.267,0.051-0.327,0.323l0,0l-0.003,0.013h-0.013h-0.13l0.003-0.019c0.015-0.103,0.034-0.206,0.045-0.312l0,0
				c0.015-0.103,0.022-0.206,0.022-0.311l0,0v-0.016h0.017h0.1l0.003,0.012c0.026,0.093,0.094,0.093,0.187,0.095l0,0
				c0.007,0,0.012,0,0.019,0l0,0h1.898c0.102-0.002,0.176-0.004,0.182-0.1l0,0l0.001-0.017l0.018,0.003l0.105,0.016l-0.003,0.016
				c-0.016,0.099-0.029,0.198-0.04,0.297l0,0c-0.007,0.098-0.007,0.198-0.007,0.297l0,0v0.011l-0.011,0.004l-0.13,0.048v-0.022
				c-0.009-0.138-0.024-0.339-0.257-0.339l0,0h-0.587v1.942c0.004,0.278,0.114,0.297,0.289,0.301l0,0h0.086v0.015v0.127H28.038
				L28.038,26.505z"/>
		</g>
		<g>
			<path d="M28.833,26.378h0.051c0.133,0,0.272-0.018,0.272-0.209v-1.927c0-0.192-0.139-0.209-0.272-0.209h-0.051v-0.112
				c0.144,0,0.364,0.015,0.544,0.015c0.184,0,0.405-0.015,0.578-0.015v0.112h-0.051c-0.133,0-0.274,0.018-0.274,0.209v1.927
				c0,0.192,0.14,0.209,0.274,0.209h0.051v0.111c-0.177,0-0.397-0.014-0.581-0.014c-0.181,0-0.397,0.014-0.541,0.014V26.378z"/>
			<path d="M29.955,26.505c-0.178,0-0.398-0.015-0.581-0.015l0,0c-0.18,0-0.397,0.015-0.541,0.015l0,0h-0.015v-0.016v-0.111v-0.015
				h0.015h0.051c0.133-0.003,0.255-0.014,0.255-0.194l0,0v-1.927c-0.001-0.179-0.122-0.192-0.255-0.194l0,0h-0.067v-0.015v-0.127
				h0.015c0.144,0,0.365,0.014,0.544,0.014l0,0c0.184,0,0.404-0.014,0.578-0.014l0,0h0.015v0.015v0.127h-0.015h-0.051
				c-0.134,0.003-0.256,0.015-0.257,0.194l0,0v1.927c0.001,0.18,0.123,0.192,0.257,0.194l0,0h0.066v0.015v0.127H29.955
				L29.955,26.505z M29.938,26.473v-0.078h-0.034c-0.132,0-0.288-0.023-0.288-0.226l0,0v-1.927c0-0.203,0.156-0.226,0.288-0.226l0,0
				h0.034v-0.078c-0.17,0.001-0.382,0.014-0.561,0.014l0,0c-0.175,0-0.386-0.014-0.528-0.014l0,0v0.078h0.035
				c0.131,0,0.288,0.023,0.288,0.226l0,0v1.927c0,0.203-0.157,0.226-0.288,0.226l0,0h-0.035v0.078
				c0.142-0.002,0.35-0.014,0.525-0.014l0,0C29.552,26.459,29.765,26.472,29.938,26.473L29.938,26.473z"/>
		</g>
		<g>
			<path d="M31.422,23.866c0.784,0,1.409,0.486,1.409,1.269c0,0.846-0.607,1.409-1.39,1.409c-0.781,0-1.375-0.529-1.375-1.321
				C30.065,24.459,30.657,23.866,31.422,23.866z M31.477,26.383c0.715,0,0.838-0.629,0.838-1.165c0-0.538-0.29-1.189-0.901-1.189
				c-0.644,0-0.835,0.574-0.835,1.066C30.58,25.753,30.882,26.383,31.477,26.383z"/>
			<path d="M30.049,25.224c0.002-0.774,0.601-1.372,1.374-1.374l0,0v0.016v0.016c-0.757,0-1.342,0.584-1.342,1.341l0,0
				c0.001,0.782,0.588,1.304,1.361,1.305l0,0c0.775-0.001,1.374-0.555,1.375-1.393l0,0c-0.001-0.774-0.617-1.252-1.394-1.253l0,0
				v-0.016V23.85c0.79,0.001,1.423,0.492,1.425,1.285l0,0c-0.001,0.855-0.615,1.424-1.406,1.426l0,0
				C30.654,26.559,30.05,26.023,30.049,25.224L30.049,25.224z M30.564,25.094c0.001-0.495,0.195-1.083,0.851-1.083l0,0
				c0.625,0.001,0.916,0.665,0.917,1.206l0,0c-0.001,0.536-0.127,1.18-0.854,1.18l0,0v-0.015v-0.016
				c0.7-0.001,0.821-0.614,0.823-1.15l0,0c0-0.534-0.287-1.172-0.885-1.173l0,0c-0.631,0.001-0.818,0.56-0.819,1.05l0,0
				c0.001,0.656,0.3,1.271,0.881,1.273l0,0v0.016v0.015C30.867,26.397,30.565,25.757,30.564,25.094L30.564,25.094z"/>
		</g>
		<g>
			<path d="M35.311,25.765l0.007-0.008v-1.379c0-0.302-0.21-0.345-0.321-0.345h-0.079v-0.112c0.172,0,0.342,0.015,0.514,0.015
				c0.152,0,0.302-0.015,0.453-0.015v0.112h-0.055c-0.155,0-0.328,0.029-0.328,0.466v1.674c0,0.129,0.004,0.257,0.022,0.371h-0.14
				l-1.894-2.111v1.515c0,0.321,0.062,0.43,0.346,0.43h0.062v0.111c-0.158,0-0.316-0.014-0.475-0.014
				c-0.165,0-0.335,0.014-0.501,0.014v-0.111h0.052c0.255,0,0.33-0.172,0.33-0.466v-1.549c0-0.206-0.168-0.33-0.335-0.33h-0.048
				v-0.112c0.14,0,0.283,0.015,0.423,0.015c0.11,0,0.217-0.015,0.327-0.015L35.311,25.765z"/>
			<path d="M35.523,26.561l-0.152-0.006l-1.867-2.081v1.474c0.004,0.321,0.053,0.411,0.329,0.414l0,0h0.08v0.017v0.126h-0.016
				c-0.159,0-0.317-0.014-0.475-0.014l0,0c-0.165,0-0.334,0.014-0.501,0.014l0,0h-0.015v-0.016v-0.127h0.015h0.052
				c0.243-0.001,0.312-0.157,0.314-0.45l0,0v-1.549c0-0.196-0.16-0.315-0.319-0.315l0,0h-0.063v-0.015v-0.127h0.015
				c0.141,0,0.285,0.014,0.423,0.014l0,0c0.109,0,0.215-0.014,0.34-0.009l0,0l1.616,1.819v-1.353
				c-0.001-0.293-0.196-0.328-0.305-0.33l0,0h-0.096v-0.015v-0.127h0.016c0.173,0,0.344,0.014,0.513,0.014l0,0
				c0.152,0,0.301-0.014,0.454-0.014l0,0H35.9v0.015v0.127h-0.016h-0.055c-0.151,0.004-0.308,0.018-0.311,0.451l0,0v1.674
				c0,0.128,0.003,0.256,0.02,0.369l0,0l0.003,0.019H35.523L35.523,26.561z M35.383,26.528h0.122
				c-0.016-0.11-0.019-0.233-0.019-0.355l0,0v-1.674c0-0.442,0.186-0.482,0.344-0.483l0,0h0.04v-0.078
				c-0.146,0.001-0.291,0.014-0.439,0.014l0,0c-0.166,0-0.331-0.014-0.498-0.014l0,0v0.078h0.064
				c0.115,0.001,0.337,0.051,0.337,0.362l0,0l-0.004,1.39l-0.007,0.007l-0.012,0.013l-1.638-1.85c-0.108,0-0.216,0.014-0.327,0.014
				l0,0c-0.136,0-0.274-0.014-0.407-0.014l0,0v0.078h0.032c0.173,0.001,0.351,0.131,0.351,0.347l0,0v1.549
				c0,0.295-0.082,0.482-0.347,0.483l0,0h-0.036v0.078c0.16-0.001,0.323-0.014,0.485-0.014l0,0c0.154,0,0.307,0.013,0.459,0.014l0,0
				v-0.078h-0.048c-0.289,0-0.361-0.126-0.361-0.447l0,0v-1.557L35.383,26.528L35.383,26.528z M35.311,25.765l0.012-0.011
				L35.311,25.765L35.311,25.765z M35.301,25.757v-0.001l-0.003-0.003L35.301,25.757L35.301,25.757z"/>
		</g>
		<g>
			<path d="M36.475,25.963c-0.036,0.125-0.08,0.221-0.08,0.286c0,0.111,0.155,0.128,0.275,0.128h0.041v0.111
				c-0.147-0.008-0.298-0.014-0.445-0.014c-0.134,0-0.265,0.007-0.397,0.014v-0.111h0.02c0.144,0,0.266-0.085,0.321-0.239
				l0.59-1.688c0.048-0.137,0.113-0.32,0.135-0.457c0.118-0.04,0.265-0.113,0.335-0.158c0.011-0.004,0.019-0.007,0.03-0.007
				c0.01,0,0.017,0,0.025,0.011c0.011,0.029,0.022,0.063,0.034,0.092l0.676,1.924c0.043,0.129,0.088,0.265,0.136,0.376
				c0.044,0.103,0.122,0.146,0.243,0.146h0.022v0.111c-0.165-0.008-0.331-0.014-0.507-0.014c-0.18,0-0.365,0.007-0.552,0.014v-0.111
				h0.041c0.084,0,0.228-0.014,0.228-0.106c0-0.048-0.034-0.147-0.074-0.265l-0.143-0.427h-0.834L36.475,25.963z M37.013,24.333
				h-0.007l-0.342,1.041h0.689L37.013,24.333z"/>
			<path d="M38.436,26.505c-0.165-0.006-0.332-0.014-0.507-0.014l0,0c-0.18,0-0.364,0.008-0.552,0.014l0,0l-0.016,0.001v-0.017
				v-0.126h0.016h0.04c0.086,0,0.213-0.02,0.213-0.091l0,0c0.001-0.042-0.032-0.142-0.074-0.26l0,0l-0.139-0.416h-0.812
				l-0.113,0.371l0,0c-0.037,0.127-0.081,0.223-0.08,0.282l0,0c0,0.09,0.138,0.113,0.259,0.113l0,0h0.056v0.015v0.128l-0.017-0.001
				c-0.147-0.006-0.298-0.014-0.444-0.014l0,0c-0.133,0-0.264,0.008-0.397,0.014l0,0l-0.016,0.001v-0.017v-0.126h0.016h0.02
				c0.137-0.001,0.253-0.08,0.306-0.229l0,0l0.589-1.688c0.047-0.137,0.113-0.32,0.145-0.466l0,0
				c0.116-0.04,0.264-0.114,0.335-0.159l0,0c0.009-0.004,0.021-0.008,0.035-0.008l0,0c0.009-0.001,0.029,0.002,0.04,0.022l0,0
				c0.01,0.029,0.021,0.062,0.033,0.092l0,0l0.677,1.925c0.044,0.129,0.088,0.265,0.136,0.374l0,0
				c0.043,0.098,0.109,0.137,0.228,0.138l0,0h0.038v0.015v0.128L38.436,26.505L38.436,26.505z M37.393,26.472
				c0.181-0.006,0.361-0.014,0.536-0.014l0,0c0.171,0,0.331,0.008,0.491,0.013l0,0v-0.076h-0.006c-0.124,0-0.212-0.049-0.258-0.157
				l0,0c-0.049-0.112-0.093-0.248-0.137-0.377l0,0l-0.676-1.924c-0.011-0.029-0.023-0.063-0.032-0.088l0,0
				c-0.003-0.005-0.003-0.005-0.006-0.005l0,0c-0.001,0-0.004,0-0.006,0l0,0c-0.008,0-0.012,0.003-0.022,0.005l0,0
				c-0.071,0.045-0.218,0.119-0.328,0.147l0,0c-0.022,0.14-0.089,0.323-0.136,0.459l0,0l-0.589,1.689
				c-0.056,0.16-0.184,0.25-0.335,0.25l0,0h-0.006v0.076c0.127-0.006,0.254-0.013,0.382-0.013l0,0c0.142,0,0.287,0.008,0.43,0.013
				l0,0v-0.076H36.67c-0.119-0.001-0.287-0.014-0.292-0.145l0,0c0.001-0.073,0.046-0.167,0.082-0.291l0,0l0.014,0.004l-0.014-0.005
				l0.121-0.393h0.858l0.147,0.437c0.041,0.118,0.074,0.216,0.074,0.27l0,0c-0.005,0.113-0.16,0.121-0.244,0.123l0,0h-0.024V26.472
				L37.393,26.472z M36.641,25.39l0.354-1.072h0.01h0.007v0.016l-0.003,0.001l0.003-0.001v-0.016h0.012l0.348,1.072H36.641
				L36.641,25.39z M36.685,25.358h0.644l-0.321-0.985L36.685,25.358L36.685,25.358z M36.999,24.338l0.007-0.003L36.999,24.338
				L36.999,24.338z"/>
		</g>
		<g>
			<path d="M39.364,26.129c0,0.147,0.102,0.191,0.22,0.206c0.151,0.011,0.316,0.011,0.486-0.008
				c0.154-0.018,0.287-0.107,0.352-0.199c0.059-0.081,0.091-0.184,0.114-0.265h0.107c-0.041,0.21-0.092,0.416-0.137,0.626
				c-0.324,0-0.648-0.014-0.97-0.014c-0.324,0-0.648,0.014-0.972,0.014v-0.111h0.051c0.134,0,0.277-0.018,0.277-0.246v-1.89
				c0-0.192-0.143-0.209-0.277-0.209h-0.051v-0.112c0.195,0,0.387,0.015,0.581,0.015c0.188,0,0.372-0.015,0.56-0.015v0.112h-0.093
				c-0.139,0-0.249,0.004-0.249,0.199V26.129z"/>
			<path d="M40.507,26.505c-0.324,0-0.648-0.014-0.97-0.014l0,0c-0.324,0-0.648,0.014-0.973,0.014l0,0h-0.015v-0.016v-0.126h0.015
				h0.051c0.134-0.003,0.26-0.013,0.261-0.231l0,0v-1.891c-0.001-0.179-0.127-0.191-0.261-0.194l0,0h-0.066v-0.015v-0.127h0.015
				c0.196,0,0.387,0.014,0.582,0.014l0,0c0.187,0,0.371-0.014,0.56-0.014l0,0h0.014v0.015v0.127h-0.014h-0.093
				c-0.142,0.004-0.232-0.003-0.235,0.184l0,0v1.898c0.002,0.137,0.091,0.174,0.207,0.191l0,0c0.064,0.004,0.133,0.007,0.203,0.007
				l0,0c0.09,0,0.183-0.004,0.28-0.014l0,0c0.149-0.018,0.278-0.104,0.342-0.192l0,0c0.057-0.079,0.089-0.18,0.111-0.26l0,0
				l0.004-0.013h0.013h0.126l-0.004,0.02c-0.041,0.21-0.092,0.416-0.136,0.626l0,0l-0.004,0.012H40.507L40.507,26.505z
				 M40.494,26.473c0.043-0.199,0.091-0.395,0.129-0.594l0,0h-0.076c-0.022,0.081-0.055,0.179-0.113,0.259l0,0
				c-0.068,0.096-0.205,0.186-0.365,0.205l0,0c-0.097,0.011-0.192,0.015-0.282,0.015l0,0c-0.071,0-0.141-0.003-0.207-0.008l0,0
				c-0.119-0.014-0.235-0.065-0.234-0.222l0,0v-1.898c0-0.205,0.129-0.215,0.266-0.215l0,0h0.076v-0.078
				c-0.181,0.001-0.361,0.014-0.544,0.014l0,0c-0.191,0-0.377-0.014-0.565-0.014l0,0v0.078h0.035c0.132,0,0.292,0.023,0.292,0.225
				l0,0v1.891c0,0.238-0.16,0.263-0.292,0.263l0,0h-0.035v0.078c0.317-0.001,0.636-0.014,0.956-0.014l0,0
				C39.856,26.459,40.175,26.472,40.494,26.473L40.494,26.473z"/>
		</g>
		<path d="M40.598,23.818c0.222,0,0.387,0.171,0.387,0.388s-0.166,0.386-0.387,0.386c-0.221,0-0.387-0.169-0.387-0.386
			S40.377,23.818,40.598,23.818z M40.598,24.52c0.173,0,0.307-0.147,0.307-0.314s-0.131-0.316-0.307-0.316
			c-0.175,0-0.307,0.149-0.307,0.316S40.424,24.52,40.598,24.52z M40.406,24.41v-0.019c0.047-0.006,0.056-0.004,0.056-0.034V24.07
			c0-0.041-0.004-0.055-0.055-0.052v-0.02h0.199c0.067,0,0.13,0.033,0.13,0.103c0,0.058-0.038,0.1-0.092,0.117l0.063,0.089
			c0.03,0.039,0.064,0.078,0.086,0.091v0.013h-0.076c-0.036,0-0.067-0.076-0.139-0.178h-0.043v0.128
			c0,0.026,0.009,0.024,0.056,0.031v0.019H40.406z M40.537,24.206h0.045c0.05,0,0.073-0.038,0.073-0.098
			c0-0.062-0.037-0.083-0.076-0.083h-0.043V24.206z"/>
	</g>
</g>
</svg>
