<svg xmlns="http://www.w3.org/2000/svg" xmlns:xlink="http://www.w3.org/1999/xlink" version="1.1" id="Layer_1" x="0px" y="0px" viewBox="0 0 120 32" xml:space="preserve" enable-background="new 0 0 120 32">
  <style type="text/css">
    .pp-dark{fill:#002F87;}
    .pp-light{fill:#009BDE;}
  </style>
  <g>
    <path id="XMLID_57_" class="pp-dark" d="M15.5 8.7c-0.5 3.4-3.1 3.4-5.5 3.4H8.5l1-6.3c0.1-0.4 0.4-0.7 0.8-0.7h0.6c1.7 0 3.3 0 4.1 1C15.5 6.7 15.7 7.6 15.5 8.7zM14.4 0H5.1C4.4 0 3.9 0.5 3.8 1.1L0 25c-0.1 0.5 0.3 0.9 0.8 0.9h4.5c0.6 0 1.2-0.5 1.3-1.1l1-6.5c0.1-0.6 0.6-1.1 1.3-1.1h3c6.1 0 9.7-3 10.6-8.9 0.4-2.6 0-4.6-1.2-6C19.9 0.8 17.5 0 14.4 0z"/>
    <path id="XMLID_54_" class="pp-dark" d="M36.1 17.3c-0.4 2.6-2.5 4.3-5 4.3 -1.3 0-2.3-0.4-3-1.2 -0.7-0.8-0.9-1.9-0.7-3.1 0.4-2.5 2.5-4.3 5-4.3 1.3 0 2.3 0.4 3 1.2C36 15 36.3 16.1 36.1 17.3zM42.3 8.6h-4.5c-0.4 0-0.7 0.3-0.8 0.7l-0.2 1.3 -0.3-0.5c-1-1.4-3.1-1.9-5.3-1.9 -4.9 0-9.2 3.7-10 9 -0.4 2.6 0.2 5.1 1.7 6.9 1.4 1.6 3.3 2.3 5.6 2.3 4 0 6.2-2.6 6.2-2.6L34.6 25c-0.1 0.5 0.3 0.9 0.8 0.9h4c0.6 0 1.2-0.5 1.3-1.1l2.4-15.3C43.1 9.1 42.8 8.6 42.3 8.6z"/>
    <path id="XMLID_33_" class="pp-dark" d="M66.1 8.6h-4.5c-0.4 0-0.8 0.2-1.1 0.6l-6.2 9.1 -2.6-8.8C51.6 9 51 8.6 50.5 8.6h-4.4c-0.5 0-0.9 0.5-0.7 1l4.9 14.5 -4.7 6.6c-0.4 0.5 0 1.2 0.6 1.2h4.5c0.4 0 0.8-0.2 1.1-0.6L66.7 9.9C67.1 9.3 66.7 8.6 66.1 8.6z"/>
    <path id="XMLID_38_" class="pp-light" d="M82.1 8.7c-0.5 3.4-3.1 3.4-5.5 3.4h-1.4l1-6.3c0.1-0.4 0.4-0.7 0.8-0.7h0.6c1.7 0 3.3 0 4.1 1C82.1 6.7 82.2 7.6 82.1 8.7zM81 0h-9.3c-0.6 0-1.2 0.5-1.3 1.1l-3.8 24c-0.1 0.5 0.3 0.9 0.8 0.9h4.8c0.4 0 0.8-0.3 0.9-0.8l1.1-6.8c0.1-0.6 0.6-1.1 1.3-1.1h3c6.1 0 9.7-3 10.6-8.9 0.4-2.6 0-4.6-1.2-6C86.5 0.8 84.1 0 81 0z"/>
    <path id="XMLID_21_" class="pp-light" d="M102.6 17.3c-0.4 2.6-2.5 4.3-5 4.3 -1.3 0-2.3-0.4-3-1.2 -0.7-0.8-0.9-1.9-0.7-3.1 0.4-2.5 2.5-4.3 5-4.3 1.3 0 2.3 0.4 3 1.2C102.6 15 102.8 16.1 102.6 17.3zM108.9 8.6h-4.5c-0.4 0-0.7 0.3-0.8 0.7l-0.2 1.3 -0.3-0.5c-1-1.4-3.1-1.9-5.3-1.9 -4.9 0-9.2 3.7-10 9 -0.4 2.6 0.2 5.1 1.7 6.9 1.4 1.6 3.3 2.3 5.6 2.3 4 0 6.2-2.6 6.2-2.6l-0.2 1.2c-0.1 0.5 0.3 0.9 0.8 0.9h4c0.6 0 1.2-0.5 1.3-1.1l2.4-15.3C109.7 9.1 109.4 8.6 108.9 8.6z"/>
    <path id="XMLID_28_" class="pp-light" d="M114.1 0.7L110.3 25c-0.1 0.5 0.3 0.9 0.8 0.9h3.9c0.6 0 1.2-0.5 1.3-1.1l3.8-24c0.1-0.5-0.3-0.9-0.8-0.9h-4.3C114.5 0 114.2 0.3 114.1 0.7z"/>
  </g>
</svg>