<?xml version="1.0" encoding="utf-8"?>
<!-- Generator: Adobe Illustrator 19.2.1, SVG Export Plug-In . SVG Version: 6.00 Build 0)  -->
<svg version="1.1" id="Layer_1" xmlns="http://www.w3.org/2000/svg" xmlns:xlink="http://www.w3.org/1999/xlink" x="0px" y="0px"
	 viewBox="0 0 57 32" style="enable-background:new 0 0 57 32;" xml:space="preserve">
<title>Shape</title>
<desc>Created with Sketch.</desc>
<g id="CHANGES-3_x2F_14_x2F_17">
	<g id="_x32_---shipping-options-updates" transform="translate(-230.000000, -466.000000)">
		<g id="Group-3" transform="translate(218.000000, 441.000000)">
			<path id="Shape" d="M68,43.9v5.1c0,1.3-1,2.3-2.3,2.3h-2.5c-0.4-3.1-3.1-5.4-6.3-5.4s-5.8,2.3-6.3,5.4H29.9
				c-0.4-3.1-3.1-5.4-6.3-5.4c-3.2,0-5.8,2.3-6.3,5.4h-3.1c-1.3,0-2.3-1-2.3-2.3v-5.1H68z M61.7,52.2c0,2.6-2.2,4.8-4.8,4.8
				c-2.6,0-4.8-2.2-4.8-4.8c0-2.6,2.2-4.8,4.8-4.8C59.6,47.5,61.7,49.6,61.7,52.2z M59.4,52.2c0-1.3-1.1-2.4-2.4-2.4
				c-1.3,0-2.4,1.1-2.4,2.4c0,1.3,1.1,2.4,2.4,2.4C58.3,54.6,59.4,53.6,59.4,52.2z M28.4,52.2c0,2.6-2.1,4.8-4.8,4.8
				s-4.8-2.2-4.8-4.8c0-2.6,2.1-4.8,4.8-4.8S28.4,49.6,28.4,52.2z M26,52.2c0-1.3-1.1-2.4-2.4-2.4c-1.3,0-2.4,1.1-2.4,2.4
				c0,1.3,1.1,2.4,2.4,2.4C24.9,54.6,26,53.6,26,52.2z M68,42.7H12V27.3c0-1.3,1-2.3,2.3-2.3H49c1.3,0,2.3,1,2.3,2.3V29h4.6
				c0.8,0,1.6,0.3,2.2,0.9l9,9c0.6,0.6,0.9,1.4,0.9,2.2L68,42.7L68,42.7z M63.4,38.5l-7.1-6.7c-0.1-0.1-0.2-0.1-0.2-0.1h-1.7
				c-0.2,0-0.4,0.2-0.4,0.4v6.7c0,0.2,0.2,0.4,0.4,0.4h8.7C63.5,39.1,63.6,38.7,63.4,38.5z"/>
		</g>
	</g>
</g>
</svg>
