<svg xmlns="http://www.w3.org/2000/svg" xmlns:xlink="http://www.w3.org/1999/xlink" version="1.1" id="Layer_1" x="0px" y="0px" viewBox="0 0 57 32" xml:space="preserve" enable-background="new 0 0 57 32">
  <g transform="translate(-230.000000, -618.000000)">
    <g transform="translate(207.000000, 589.000000)">
      <g transform="translate(23.000000, 29.000000)">
        <path id="Shape" d="M13.7 20.2l-9.1 2.9c-0.4 0.1-0.8-0.2-1-0.7 -0.1-0.5 0.1-1 0.5-1.2l9.6-3.1L13.7 20.2 13.7 20.2zM13.5 4.9L8.7 6.5c-0.4 0.1-0.8-0.2-1-0.7 -0.1-0.5 0.1-1 0.5-1.2l4.5-1.4L13.5 4.9 13.5 4.9zM13.4 24.6l0.1-2.1 -9.3 3c-0.4 0.1-0.7 0.7-0.5 1.2 0.1 0.5 0.5 0.9 1 0.7L13.4 24.6 13.4 24.6zM13 29.3L4.6 32c-0.4 0.1-0.8-0.2-1-0.7 -0.1-0.5 0.1-1 0.5-1.2l8.9-2.9L13 29.3z"/>
        <path id="Shape_1_" d="M8.7 10.2l5.9-1.9 1.7-0.6 13.4-4.3 2.6-0.9 3.5-1.2C37.3 0.9 42.5 1 42.9 3l0 0c0.4 2-4.1 5.2-5.7 5.6l-5.6 1.8c0.3-0.7 1-2.5 1.3-3.3l-1.6 0.4c-3.1 7.6-7 13.3-11.7 19.3 -1.9 0.7-2.4 0.9-4.4 1.5l1-13 -9.4 3C3.5 19.4 0.7 7.7 0 6.3L4 5 8.7 10.2 8.7 10.2zM15.9 6.4l12.5-4L18.9 0l-5 1.7L15.9 6.4z"/>
      </g>
    </g>
  </g>
</svg>
