<?xml version="1.0" encoding="utf-8"?>
<!-- Generator: Adobe Illustrator 19.2.1, SVG Export Plug-In . SVG Version: 6.00 Build 0)  -->
<svg version="1.1" id="Layer_1" xmlns="http://www.w3.org/2000/svg" xmlns:xlink="http://www.w3.org/1999/xlink" x="0px" y="0px"
	 viewBox="0 0 50 32" style="enable-background:new 0 0 50 32;" xml:space="preserve">
<style type="text/css">
	.st0{fill:#FFFFFF;}
	.st1{fill:#00589F;}
	.st2{fill:#F9A51A;}
</style>
<g>
	<g>
		<rect class="st0" width="50" height="32"/>
	</g>
	<g>
		<g>
			<polygon class="st1" points="20.1,21 21.8,11.1 24.5,11.1 22.8,21 			"/>
			<path class="st1" d="M32.6,11.3c-0.5-0.2-1.4-0.4-2.4-0.4c-2.7,0-4.6,1.4-4.6,3.3c0,1.4,1.4,2.2,2.3,2.7c1.1,0.5,1.4,0.7,1.4,1.3
				c0,0.6-0.9,1-1.6,1c-1.1,0-1.7-0.1-2.6-0.5l-0.3-0.1l-0.4,2.2c0.6,0.3,1.8,0.5,3,0.5c2.9,0,4.7-1.3,4.7-3.4c0-1.2-0.7-2-2.2-2.7
				c-1-0.4-1.5-0.7-1.5-1.3c0-0.4,0.5-0.9,1.6-0.9c0.9,0,1.5,0.2,2,0.4l0.2,0.1L32.6,11.3"/>
			<path class="st1" d="M39.5,11.1h-2.1c-0.6,0-1.2,0.2-1.4,0.9l-4,9h2.9c0,0,0.4-1.2,0.5-1.5c0.3,0,3.1,0,3.4,0
				C38.8,19.8,39,21,39,21h2.6L39.5,11.1 M36.2,17.5c0.2-0.5,1.1-2.8,1.1-2.8s0.2-0.5,0.3-1l0.2,0.9c0,0,0.5,2.3,0.6,2.9H36.2z"/>
			<path class="st1" d="M17.9,11.1l-2.7,6.7l-0.3-1.4c-0.5-1.6-2-3.3-3.7-4.1l2.4,8.6h2.9l4.3-9.9h-2.9"/>
			<path class="st2" d="M12.8,11.1H8.4v0.2c3.4,0.9,5.6,2.8,6.6,5.2L14,12C13.8,11.3,13.3,11.1,12.8,11.1"/>
		</g>
	</g>
</g>
</svg>
