<svg xmlns="http://www.w3.org/2000/svg" xmlns:xlink="http://www.w3.org/1999/xlink" version="1.1" id="Layer_1" x="0px" y="0px" viewBox="0 90 612 612" enable-background="new 0 90 612 612" xml:space="preserve">
  <g>
    <rect x="-0.1" y="90" fill="#333333" width="612" height="612"/>
  </g>
  <g>
    <path fill="#FFFFFF" d="M305.9 503.8c-10.3 0-20.6-0.6-30.5-1.7 -27.6 24.4-60.4 41.7-96.8 50.9 -7.6 2.1-15.8 3.6-24 4.6 -4.6 0.4-9.1-2.9-10.1-8 0-0.2 0-0.2 0-0.2 -1.1-5.3 2.5-8.4 5.7-12.2 13.3-14.9 28.4-27.6 38.3-62.7 -43.4-24.6-71.2-62.7-71.2-105.5 0-74.3 84.4-134.7 188.6-134.7S494.5 294.5 494.5 369 410.1 503.8 305.9 503.8z"/>
  </g>
</svg>
