<?xml version="1.0" encoding="utf-8"?>
<!-- Generator: Adobe Illustrator 18.1.1, SVG Export Plug-In . SVG Version: 6.00 Build 0)  -->
<svg version="1.1" id="Layer_1" xmlns="http://www.w3.org/2000/svg" xmlns:xlink="http://www.w3.org/1999/xlink" x="0px" y="0px"
	 viewBox="0 0 39.2 30" enable-background="new 0 0 39.2 30" xml:space="preserve">
<g>
	<path fill="#FFFFFF" d="M26.9,0c-0.7,0-1.5,0-2.3,0.1H24V30h2.1V2.2c0.3,0,0.9,0,1.5,0c2.2,0,6.2,0.3,8.3,2.5
		c0.9,1,1.4,2.4,1.3,4.1c0,0.2-0.3,5.6-7.2,5.6c-0.6,0-1.1,0-1.7-0.1h-0.2v2.2H28c0.6,0,1.3,0.1,1.8,0.1c0.8,0,1.3,0,1.4,0
		c0.1,0,7.8-0.8,7.9-8.3c0-0.5,0.2-2.6-1.5-4.8C35.5,1.1,32,0,26.9,0z"/>
	<path fill="#FFFFFF" d="M13.1,13.9c1.5-0.9,3.6-3,3.7-6.6c0-0.2,0.2-2.9-1.6-4.9c-1.4-1.5-3.6-2.3-6.6-2.3c-0.1,0-0.3,0-0.5,0
		L8,0.2L0,0.1v29.8h7.5c0.1,0,0.3,0,0.7,0c1.6,0,5.4-0.2,7.9-2.9c1.5-1.6,2.2-3.8,2.1-6.4C18.2,20.6,17.8,15.7,13.1,13.9z
		 M14.6,25.6C12.5,27.8,9,28,9,28H2.1V2.2h7c2.2,0.1,3.8,0.7,4.7,1.7c1.1,1.3,1,3,1,3.2C14.1,12.9,9.5,13,9.1,13H3.9v2.2h5.5
		c6.6,0.6,6.7,5.9,6.7,6.1C16.1,23,15.6,24.5,14.6,25.6z"/>
</g>
</svg>
