<?xml version="1.0" encoding="utf-8"?>
<!-- Generator: Adobe Illustrator 18.1.1, SVG Export Plug-In . SVG Version: 6.00 Build 0)  -->
<svg version="1.1" id="Layer_1" xmlns="http://www.w3.org/2000/svg" xmlns:xlink="http://www.w3.org/1999/xlink" x="0px" y="0px"
	 viewBox="0 0 160.8 30" enable-background="new 0 0 160.8 30" xml:space="preserve">
<g>
	<g>
		<g>
			<g>
				<path fill="#FFFFFF" d="M101.4,17.1h0.1l5.2,12.5h-0.8l-1.6-3.9h-5.7L97,29.6h-0.8L101.4,17.1z M104,25l-2.2-5.4
					c-0.2-0.4-0.3-0.9-0.3-0.9s-0.2,0.4-0.3,0.9L98.9,25L104,25z"/>
				<path fill="#FFFFFF" d="M155.9,18h-4.1v-0.6h9V18h-4.1v11.6h-0.7V18z"/>
			</g>
			<path fill="#FFFFFF" d="M120.3,29.6l-4.3-5.8c1.9-0.2,3.4-1.1,3.4-3.2c0-2.4-2-3.3-4.3-3.3h-2.4v12.3h0.7v-5.8h1.7
				c0,0,0.1,0,0.1,0l4.3,5.8H120.3z M113.4,18h1.7c2,0,3.5,0.6,3.5,2.6c0,2-1.5,2.6-3.5,2.6h-1.7V18z"/>
			<g>
				<g>
					<path fill="#FFFFFF" d="M88.2,19.3L88.2,19.3L83.7,30l-4.4-10.7h0l-2.2,10.3h-0.7l2.8-12.6l4.6,11.3l4.7-11.3l2.8,12.6h-0.7
						L88.2,19.3z"/>
				</g>
			</g>
			<path fill="#FFFFFF" d="M140.4,17.3h6.6V18h-5.9v4.9h5.8v0.7h-5.8v5.4h6.2v0.6h-6.9V17.3z"/>
		</g>
		<g>
			<g>
				<path fill="#FFFFFF" d="M15.4,17.3H18v10.1h5.1v2.2h-7.7V17.3z"/>
				<path fill="#FFFFFF" d="M0,17.3h4.4c2.4,0,3.6,1.3,3.6,3.1c0,1.3-0.8,2.1-1.7,2.5c0,0-0.2-0.1-0.3-0.1c1.6,0.3,2.7,1.3,2.7,3.1
					c0,2-1.5,3.6-4,3.6H0V17.3z M3.8,22.1c1.1,0,1.6-0.6,1.6-1.4C5.4,20,5,19.5,4,19.5H2.5v2.7H3.8z M4.4,27.5c1,0,1.7-0.6,1.7-1.6
					c0-1-0.7-1.6-1.8-1.6H2.5v3.3H4.4z"/>
			</g>
			<path fill="#FFFFFF" d="M50.5,29.9c-3.7,0-6.3-2.6-6.3-6.5c0-3.8,2.7-6.5,6.3-6.5c2,0,3.6,0.6,4.8,2l-1.7,1.6
				c-0.8-0.9-1.9-1.4-3.1-1.4c-2.3,0-3.9,1.7-3.9,4.2c0,2.5,1.5,4.2,3.9,4.2c1.2,0,2.3-0.4,3.1-1.3l1.7,1.6
				C54.1,29.2,52.5,29.9,50.5,29.9z"/>
		</g>
		<polygon fill="#FFFFFF" points="128.3,23.1 134.2,17.3 133.2,17.3 127.4,23.1 127.4,17.3 126.6,17.3 126.6,29.6 127.4,29.6 
			127.4,23.2 133.7,29.6 134.8,29.6 		"/>
		<path fill="#FFFFFF" d="M37.1,29.6h2.7l-6.1-12.7h-0.3l-5.9,12.7H30l1.1-2.6h4.8L37.1,29.6z M32.1,25.1l0.4-0.9
			c0.4-0.9,1-2.6,1-2.6h0.1c0,0,0.6,1.7,1,2.6l0.4,0.9H32.1z"/>
		<polygon fill="#FFFFFF" points="65.5,23 70.8,17.3 67.8,17.3 63.3,22.2 63.3,17.3 60.8,17.3 60.8,29.6 63.3,29.6 63.3,24 68,29.6 
			71.2,29.6 		"/>
	</g>
	<g>
		<g>
			<g>
				<path fill="#FFFFFF" d="M83,0.2h0.7v5.4h7.8V0.2h0.7v12.3h-0.7V6.3h-7.8v6.2H83V0.2z"/>
				<path fill="#FFFFFF" d="M98.8,6.4c0-3.8,2.8-6.4,6.3-6.4c3.5,0,6.3,2.6,6.3,6.4c0,3.8-2.8,6.4-6.3,6.4
					C101.6,12.7,98.8,10.2,98.8,6.4z M110.7,6.4c0-3.3-2.4-5.7-5.5-5.7c-3.2,0-5.6,2.4-5.6,5.7c0,3.3,2.4,5.7,5.6,5.7
					C108.3,12.1,110.7,9.6,110.7,6.4z"/>
				<path fill="#FFFFFF" d="M117.8,8.3v-8h0.7v8c0,2.3,1.3,3.7,3.6,3.7c2.4,0,3.7-1.3,3.7-3.7v-8h0.7v8c0,2.7-1.7,4.3-4.4,4.3
					C119.5,12.6,117.8,11.1,117.8,8.3z"/>
				<path fill="#FFFFFF" d="M133.3,10.1l0.7-0.3c0.6,1.1,1.4,2.2,3.4,2.2c1.8,0,3-1,3-2.6c0-1.4-0.7-2-2.5-2.8L136.7,6
					c-1.6-0.7-2.6-1.5-2.6-3c0-1.9,1.5-2.9,3.2-2.9c1.8,0,2.7,1,3.3,1.9l-0.6,0.4c-0.5-0.8-1.3-1.6-2.7-1.6c-1.5,0-2.5,0.8-2.5,2.2
					c0,1.3,0.7,1.8,2.2,2.4l1.2,0.5c2,0.9,2.9,1.7,2.9,3.4c0,1.9-1.5,3.2-3.7,3.2C135,12.6,133.9,11.3,133.3,10.1z"/>
				<path fill="#FFFFFF" d="M148.6,0.3h6.6v0.6h-5.9v4.9h5.8v0.6h-5.8v5.3h6.2v0.6h-6.9V0.3z"/>
			</g>
		</g>
		<g>
			<g>
				<path fill="#FFFFFF" d="M27,0.2h2.5v4.4h5.2V0.2h2.5v12.3h-2.5V6.9h-5.2v5.6H27V0.2z"/>
				<path fill="#FFFFFF" d="M44.9,0.2h2.5v12.3h-2.5V0.2z"/>
				<path fill="#FFFFFF" d="M67.8,0.2h7.3v2.2h-4.7V5H75v2.2h-4.6v3.1h5v2.2h-7.5V0.2z"/>
			</g>
		</g>
		<path fill="#FFFFFF" d="M5.3,0.2h2.6l1.8,5c0.3,0.8,0.7,2.2,0.7,2.2s0.4-1.5,0.8-2.3l2.4-5h0.3l2.4,5C16.6,6,17,7.5,17,7.5
			s0.4-1.4,0.7-2.2l1.7-5h2.4l-4.5,12.4h-0.3l-2.8-5.9C14,6,13.6,4.9,13.6,4.9S13.3,6,12.9,6.7l-2.9,5.9H9.8L5.3,0.2z"/>
		<path fill="#FFFFFF" d="M56.4,2.5h-3.3V0.2h9.1v2.2h-3.3v10h-2.5V2.5z"/>
	</g>
</g>
</svg>
