<svg xmlns="http://www.w3.org/2000/svg" xmlns:xlink="http://www.w3.org/1999/xlink" version="1.1" id="Layer_1" x="0" y="0" viewBox="0 0 279.3 38" enable-background="new 0 0 279.3 38" xml:space="preserve">
  <path d="M0 2.4c0-0.5 0.5-1 1-1h4.8c0.5 0 1 0.5 1 1v33.9c0 0.5-0.5 1-1 1H1c-0.5 0-1-0.5-1-1V2.4z"/>
  <path d="M13 1.8c0-0.5 0.5-0.9 1-0.9h1.3l21.3 22.6h0.1V2.4c0-0.5 0.4-1 1-1h4.7c0.5 0 1 0.5 1 1v34.5c0 0.5-0.5 0.9-1 0.9h-1.2L19.7 14.3h-0.1v22c0 0.5-0.4 1-1 1H14c-0.5 0-1-0.5-1-1V1.8z"/>
  <path d="M49.6 32.3l1.8-3.2c0.4-0.7 1.3-0.7 1.7-0.4 0.3 0.2 4.4 3.2 7.7 3.2 2.7 0 4.7-1.7 4.7-3.9 0-2.6-2.2-4.4-6.5-6.1 -4.8-1.9-9.6-5-9.6-11.1 0-4.6 3.4-9.8 11.5-9.8 5.2 0 9.2 2.7 10.2 3.4 0.5 0.3 0.7 1.2 0.3 1.7L69.5 9c-0.4 0.6-1.2 1-1.8 0.6 -0.4-0.3-4.3-2.8-7.1-2.8 -2.9 0-4.5 1.9-4.5 3.6 0 2.4 1.9 4 6 5.7 5 2 10.7 5 10.7 11.6 0 5.3-4.6 10.1-11.8 10.1 -6.5 0-10.2-3-11.3-4C49.3 33.4 49.1 33.1 49.6 32.3z"/>
  <path d="M77.4 2.4c0-0.5 0.5-1 1-1h4.8c0.5 0 1 0.5 1 1v33.9c0 0.5-0.5 1-1 1h-4.8c-0.5 0-1-0.5-1-1V2.4z"/>
  <path d="M90.5 2.4c0-0.5 0.4-1 0.9-1h12.1c9.9 0 18 8 18 17.9 0 9.9-8.1 18-18 18H91.4c-0.5 0-0.9-0.5-0.9-1V2.4zM102.9 31.1c6.7 0 11.5-5 11.5-11.7 0-6.7-4.9-11.7-11.5-11.7h-5.8v23.4H102.9z"/>
  <path d="M127.3 2.4c0-0.5 0.4-1 1-1h20.9c0.6 0 1 0.5 1 1v4.2c0 0.5-0.4 1-1 1h-15.2V16h12.7c0.5 0 1 0.5 1 1v4.3c0 0.6-0.5 1-1 1h-12.7v9h15.2c0.6 0 1 0.5 1 1v4.2c0 0.5-0.4 1-1 1h-20.9c-0.6 0-1-0.5-1-1V2.4z"/>
  <path d="M183.8 11.3c-0.4-1.1-0.8-2.3-1.4-3.6 -0.5-1.2-1.2-2.4-2-3.4 -0.8-1-1.9-1.9-3.1-2.6 -1.2-0.7-2.8-1-4.6-1 -2.5 0-4.5 0.5-5.9 1.4s-2.5 2.2-3.3 3.8c-0.7 1.6-1.2 3.6-1.4 5.9 -0.2 2.3-0.3 4.8-0.3 7.5 0 3.6 0.2 6.5 0.6 8.8 0.4 2.3 1 4.2 1.9 5.5 0.9 1.4 2 2.3 3.4 2.9 1.4 0.5 3 0.8 4.9 0.8 1.5 0 2.9-0.3 4.2-0.9 1.2-0.6 2.3-1.4 3.3-2.4 1-1 1.8-2.2 2.4-3.5 0.6-1.3 1.1-2.6 1.4-4h0.8v10.9h-0.8c-0.2-0.4-0.4-0.7-0.6-0.8 -0.2-0.2-0.6-0.2-1.1-0.2 -0.4 0-0.9 0.1-1.6 0.3 -0.6 0.2-1.4 0.4-2.2 0.6 -0.8 0.2-1.8 0.4-2.7 0.6 -1 0.2-2 0.3-3.1 0.3 -2.5 0-4.9-0.5-7.2-1.5s-4.4-2.3-6.1-4 -3.2-3.7-4.2-6c-1.1-2.3-1.6-4.8-1.6-7.4 0-2.9 0.6-5.5 1.8-7.9 1.2-2.4 2.7-4.4 4.5-6 1.8-1.7 3.9-3 6.2-3.9 2.3-0.9 4.5-1.4 6.7-1.4 1.1 0 2.1 0.1 3 0.3 0.9 0.2 1.8 0.4 2.6 0.6 0.8 0.2 1.5 0.4 2.2 0.6 0.6 0.2 1.2 0.3 1.6 0.3 0.5 0 0.8-0.1 1.1-0.2 0.2-0.1 0.4-0.4 0.5-0.9h0.8v10.5H183.8z"/>
  <path d="M205.4 0.8v0.7h-4.7v16.8h14.8V1.5h-4.7V0.8h16.9v0.7h-4.7v35.1h4.7v0.7h-16.9v-0.7h4.7V19.1h-14.8v17.5h4.7v0.7h-16.9v-0.7h4.7V1.5h-4.7V0.8H205.4z"/>
  <path d="M247.3 0.8v0.7h-4.7v35.1h4.7v0.7h-16.9v-0.7h4.7V1.5h-4.7V0.8H247.3z"/>
  <path d="M278.3 11.3c-0.4-1.1-0.8-2.3-1.4-3.6 -0.5-1.2-1.2-2.4-2-3.4 -0.8-1-1.9-1.9-3.1-2.6 -1.2-0.7-2.8-1-4.6-1 -2.5 0-4.5 0.5-5.9 1.4s-2.5 2.2-3.3 3.8c-0.7 1.6-1.2 3.6-1.4 5.9 -0.2 2.3-0.3 4.8-0.3 7.5 0 3.6 0.2 6.5 0.6 8.8 0.4 2.3 1 4.2 1.9 5.5 0.9 1.4 2 2.3 3.4 2.9 1.4 0.5 3 0.8 4.9 0.8 1.5 0 2.9-0.3 4.2-0.9 1.2-0.6 2.3-1.4 3.3-2.4 1-1 1.8-2.2 2.4-3.5 0.6-1.3 1.1-2.6 1.4-4h0.8v10.9h-0.8c-0.2-0.4-0.4-0.7-0.6-0.8 -0.2-0.2-0.6-0.2-1.1-0.2 -0.4 0-0.9 0.1-1.6 0.3 -0.6 0.2-1.4 0.4-2.2 0.6 -0.8 0.2-1.8 0.4-2.7 0.6 -1 0.2-2 0.3-3.1 0.3 -2.5 0-4.9-0.5-7.2-1.5s-4.4-2.3-6.1-4 -3.2-3.7-4.2-6c-1.1-2.3-1.6-4.8-1.6-7.4 0-2.9 0.6-5.5 1.8-7.9 1.2-2.4 2.7-4.4 4.5-6 1.8-1.7 3.9-3 6.2-3.9 2.3-0.9 4.5-1.4 6.7-1.4 1.1 0 2.1 0.1 3 0.3 0.9 0.2 1.8 0.4 2.6 0.6 0.8 0.2 1.5 0.4 2.2 0.6 0.6 0.2 1.2 0.3 1.6 0.3 0.5 0 0.8-0.1 1.1-0.2 0.2-0.1 0.4-0.4 0.5-0.9h0.8v10.5H278.3z"/>
</svg>
