<svg xmlns="http://www.w3.org/2000/svg" xmlns:xlink="http://www.w3.org/1999/xlink" version="1.1" id="Layer_1" x="0px" y="0px" viewBox="0 0 32 32" enable-background="new 0 0 32 32" xml:space="preserve">
  <path d="M28.1 25.8c-4.9 3.3-8.1 0.1-9.3-1.2 0 0 0-0.1-0.1-0.1 -0.9-0.2-3.2-0.6-5.5 0 0 0 0 0.1-0.1 0.1 -1.2 1.3-4.4 4.5-9.3 1.2 -4.9-3.3-3.8-7.5-3.8-7.5s0.9-2.7 1.4-3.7c0.5-1.1 0.6-1.1 1-2 0.4-0.9 0.8-4.1 0.6-6.2C3 5.2 2.9 5.2 3 5.1 3 4.9 3.6 4.4 3.8 5 4.1 5.6 4 5.9 4.1 6.8c0.1 0.9-0.3 4.6-0.3 4.6s1.1 3.1 3.5 4.2c2.3 1 6.5 3.6 7.4 4.6 0.5 0.1 1.6 0.2 2.6 0 0.9-1 5.2-3.6 7.4-4.6 2.4-1.1 3.5-4.2 3.5-4.2s-0.4-3.8-0.3-4.6c0.1-0.9 0-1.2 0.2-1.8C28.4 4.4 29 4.9 29 5.1c0 0.1 0 0.2-0.2 1.4 -0.2 2.1 0.2 5.3 0.6 6.2 0.4 0.9 0.5 0.9 1 2 0.5 1 1.4 3.7 1.4 3.7S33 22.5 28.1 25.8z"/>
</svg>
