<svg xmlns="http://www.w3.org/2000/svg" xmlns:xlink="http://www.w3.org/1999/xlink" version="1.1" id="Layer_1" x="0px" y="0px" viewBox="0 0 32 32" enable-background="new 0 0 32 32" xml:space="preserve">
  <g>
    <path d="M7 5.4c0.2 0 0.5-0.2 0.5-0.5V1.3C7.4 1 7.2 0.8 7 0.8 6.7 0.8 6.5 1 6.5 1.3v3.6C6.5 5.2 6.7 5.4 7 5.4z"/>
    <path d="M24.8 5.4c0.2 0 0.5-0.2 0.5-0.5V1.3c0-0.3-0.2-0.5-0.5-0.5 -0.3 0-0.5 0.2-0.5 0.5v3.6C24.3 5.2 24.5 5.4 24.8 5.4z"/>
    <path d="M30.8 3.1h-4.9v1.1c0.2 0.3 0.4 0.6 0.4 1 0 0.8-0.6 1.4-1.4 1.4 -0.8 0-1.4-0.6-1.4-1.4 0-0.4 0.2-0.7 0.4-1V3.1H8v1.2c0.2 0.2 0.3 0.6 0.3 0.9C8.4 6 7.7 6.6 7 6.6 6.2 6.6 5.5 6 5.5 5.2c0-0.4 0.2-0.8 0.5-1v-1H1.2C0.6 3.1 0 3.7 0 4.4v1.9c0 0.7 0.6 1.2 1.2 1.2h29.5c0.7 0 1.2-0.6 1.2-1.2V4.4C32 3.7 31.4 3.1 30.8 3.1z"/>
    <path d="M30.8 8.7H1.2C0.6 8.7 0 9.3 0 9.9v20c0 0.7 0.6 1.2 1.2 1.2h29.5c0.7 0 1.2-0.6 1.2-1.2v-20C32 9.3 31.4 8.7 30.8 8.7zM6.5 27.4c0 0.3-0.3 0.6-0.6 0.6H3.8c-0.3 0-0.6-0.3-0.6-0.6v-2c0-0.3 0.3-0.6 0.6-0.6h2.1c0.3 0 0.6 0.3 0.6 0.6V27.4zM6.5 23.1c0 0.3-0.3 0.6-0.6 0.6H3.8c-0.3 0-0.6-0.3-0.6-0.6v-2c0-0.3 0.3-0.6 0.6-0.6h2.1c0.3 0 0.6 0.3 0.6 0.6V23.1zM6.5 18.7c0 0.3-0.3 0.6-0.6 0.6H3.8c-0.3 0-0.6-0.3-0.6-0.6v-2c0-0.3 0.3-0.6 0.6-0.6h2.1c0.3 0 0.6 0.3 0.6 0.6V18.7zM6.5 14.4c0 0.3-0.3 0.6-0.6 0.6H3.8c-0.3 0-0.6-0.3-0.6-0.6v-2c0-0.3 0.3-0.6 0.6-0.6h2.1c0.3 0 0.6 0.3 0.6 0.6V14.4zM10.9 27.4c0 0.3-0.3 0.6-0.6 0.6H8.2c-0.3 0-0.6-0.3-0.6-0.6v-2c0-0.3 0.3-0.6 0.6-0.6h2.1c0.3 0 0.6 0.3 0.6 0.6V27.4zM10.9 23.1c0 0.3-0.3 0.6-0.6 0.6H8.2c-0.3 0-0.6-0.3-0.6-0.6v-2c0-0.3 0.3-0.6 0.6-0.6h2.1c0.3 0 0.6 0.3 0.6 0.6V23.1zM10.9 18.7c0 0.3-0.3 0.6-0.6 0.6H8.2c-0.3 0-0.6-0.3-0.6-0.6v-2c0-0.3 0.3-0.6 0.6-0.6h2.1c0.3 0 0.6 0.3 0.6 0.6V18.7zM10.9 14.4c0 0.3-0.3 0.6-0.6 0.6H8.2c-0.3 0-0.6-0.3-0.6-0.6v-2c0-0.3 0.3-0.6 0.6-0.6h2.1c0.3 0 0.6 0.3 0.6 0.6V14.4zM15.3 27.4c0 0.3-0.3 0.6-0.6 0.6h-2.1c-0.3 0-0.6-0.3-0.6-0.6v-2c0-0.3 0.3-0.6 0.6-0.6h2.1c0.3 0 0.6 0.3 0.6 0.6V27.4zM15.3 23.1c0 0.3-0.3 0.6-0.6 0.6h-2.1c-0.3 0-0.6-0.3-0.6-0.6v-2c0-0.3 0.3-0.6 0.6-0.6h2.1c0.3 0 0.6 0.3 0.6 0.6V23.1zM15.3 18.7c0 0.3-0.3 0.6-0.6 0.6h-2.1c-0.3 0-0.6-0.3-0.6-0.6v-2c0-0.3 0.3-0.6 0.6-0.6h2.1c0.3 0 0.6 0.3 0.6 0.6V18.7zM15.3 14.4c0 0.3-0.3 0.6-0.6 0.6h-2.1c-0.3 0-0.6-0.3-0.6-0.6v-2c0-0.3 0.3-0.6 0.6-0.6h2.1c0.3 0 0.6 0.3 0.6 0.6V14.4zM19.8 27.4c0 0.3-0.3 0.6-0.6 0.6h-2.1c-0.3 0-0.6-0.3-0.6-0.6v-2c0-0.3 0.3-0.6 0.6-0.6h2.1c0.3 0 0.6 0.3 0.6 0.6V27.4zM19.8 23.1c0 0.3-0.3 0.6-0.6 0.6h-2.1c-0.3 0-0.6-0.3-0.6-0.6v-2c0-0.3 0.3-0.6 0.6-0.6h2.1c0.3 0 0.6 0.3 0.6 0.6V23.1zM19.8 18.7c0 0.3-0.3 0.6-0.6 0.6h-2.1c-0.3 0-0.6-0.3-0.6-0.6v-2c0-0.3 0.3-0.6 0.6-0.6h2.1c0.3 0 0.6 0.3 0.6 0.6V18.7zM19.8 14.4c0 0.3-0.3 0.6-0.6 0.6h-2.1c-0.3 0-0.6-0.3-0.6-0.6v-2c0-0.3 0.3-0.6 0.6-0.6h2.1c0.3 0 0.6 0.3 0.6 0.6V14.4zM24.2 27.4c0 0.3-0.3 0.6-0.6 0.6h-2.1c-0.3 0-0.6-0.3-0.6-0.6v-2c0-0.3 0.3-0.6 0.6-0.6h2.1c0.3 0 0.6 0.3 0.6 0.6V27.4zM24.2 23.1c0 0.3-0.3 0.6-0.6 0.6h-2.1c-0.3 0-0.6-0.3-0.6-0.6v-2c0-0.3 0.3-0.6 0.6-0.6h2.1c0.3 0 0.6 0.3 0.6 0.6V23.1zM24.2 18.7c0 0.3-0.3 0.6-0.6 0.6h-2.1c-0.3 0-0.6-0.3-0.6-0.6v-2c0-0.3 0.3-0.6 0.6-0.6h2.1c0.3 0 0.6 0.3 0.6 0.6V18.7zM24.2 14.4c0 0.3-0.3 0.6-0.6 0.6h-2.1c-0.3 0-0.6-0.3-0.6-0.6v-2c0-0.3 0.3-0.6 0.6-0.6h2.1c0.3 0 0.6 0.3 0.6 0.6V14.4zM28.6 27.4c0 0.3-0.3 0.6-0.6 0.6h-2.1c-0.3 0-0.6-0.3-0.6-0.6v-2c0-0.3 0.3-0.6 0.6-0.6H28c0.3 0 0.6 0.3 0.6 0.6V27.4zM28.6 23.1c0 0.3-0.3 0.6-0.6 0.6h-2.1c-0.3 0-0.6-0.3-0.6-0.6v-2c0-0.3 0.3-0.6 0.6-0.6H28c0.3 0 0.6 0.3 0.6 0.6V23.1zM28.6 18.7c0 0.3-0.3 0.6-0.6 0.6h-2.1c-0.3 0-0.6-0.3-0.6-0.6v-2c0-0.3 0.3-0.6 0.6-0.6H28c0.3 0 0.6 0.3 0.6 0.6V18.7zM28.6 14.4c0 0.3-0.3 0.6-0.6 0.6h-2.1c-0.3 0-0.6-0.3-0.6-0.6v-2c0-0.3 0.3-0.6 0.6-0.6H28c0.3 0 0.6 0.3 0.6 0.6V14.4z"/>
  </g>
</svg>
