<svg xmlns="http://www.w3.org/2000/svg" xmlns:xlink="http://www.w3.org/1999/xlink" version="1.1" id="Layer_1" x="0px" y="0px" viewBox="0 0 300 110" enable-background="new 0 0 300 110" xml:space="preserve">
  <g>
    <path d="M138.5 91.2c0.2-0.8 0.3-1.4 0.3-1.7 0-1.1-0.8-1.4-2.5-1.4h-1.7l0.5-1.2 7.6-0.5c0 2-0.6 4-1.5 6.5l-0.8 2.3 0.5 0.2c2.9-5.7 5.7-9.3 8.5-9.3 1.4 0 3.1 0.6 3.1 2.8 0 1.9-1.2 3-2.5 3 -0.9 0-2-0.6-2.3-1.9 -0.2-0.6-0.3-0.8-0.6-0.8 -1.9 0-6.8 7.6-8.5 13.7l-1.9 6.1H133L138.5 91.2z"/>
    <path d="M155.4 101.5c0 4 1.9 6.4 4.2 6.4 2.9 0 5.1-1.2 7.9-4.2l0.6 0.6c-2.9 3.7-5.9 5.7-9.8 5.7 -4 0-7-3-7-8.7 0-6.5 6-15.1 13.3-15.1 2.9 0 5.3 1.7 5.3 4.7 0 4.2-4.5 7.6-14.4 9.3C155.4 100.5 155.4 101 155.4 101.5M165.8 90.7c0-2.3-1.1-3.4-2.3-3.4 -2.8 0-7 5-7.9 11.5C163.8 97.3 165.8 94.9 165.8 90.7"/>
    <path d="M172.9 103.9c0-1.4 0.6-4.4 1.5-7l1.7-5.7c0.3-0.8 0.3-1.4 0.3-1.7 0-1.1-0.8-1.4-2.5-1.4h-1.7l0.5-1.2 8.1-0.5c0 1.7-0.6 3.9-1.4 6.5l-1.1 3.6c-0.8 2.6-1.5 5.7-1.5 7.5 0 2.8 0.8 3.9 2.6 3.9 2.3 0 5.6-3.6 7.1-9.5l3.1-11.7h3.7l-2.6 9.8c-0.8 3-1.4 5.7-1.4 7.3 0 2.5 0.9 4 2.9 4 3.6 0 9.6-7.9 9.6-13.7 0-1.1-0.5-2.3-1.5-3.3 -0.9-0.8-1.4-1.6-1.4-2.6s0.9-2.2 2.3-2.2c2.2 0 3.1 2.2 3.1 4.7 0 8.4-7.3 19.1-13.2 19.1 -3.3 0-5.3-2-5.3-5.7h-0.2c-2 3.4-4.5 5.7-7.6 5.7C174.9 109.8 172.9 108 172.9 103.9"/>
    <path d="M205.9 101.9c0-8.7 6.2-15.5 11.2-15.5 3.1 0 4.6 1.9 5.6 5.3h0.3c1.2-1.4 2.6-3.7 3.3-5.3h1.4l-4.6 16.3c-0.3 1.2-0.8 2.5-0.8 3.4 0 1.1 0.5 1.6 1.1 1.6 1.1 0 2.3-1.2 4.5-4.8l0.8 0.6c-2 3.9-4 6.1-6.7 6.1 -2 0-2.9-1.1-2.9-3.1 0-0.8 0.2-1.9 0.3-2.5H219c-2.2 3.3-4.5 5.7-7.4 5.7C208.3 109.5 205.9 107 205.9 101.9M221.4 93.7c0-3.4-1.4-5.4-3.7-5.4 -4.8 0-7.9 8.2-7.9 14 0 3 0.9 5.3 2.9 5.3C216 107.5 221.4 100.7 221.4 93.7"/>
    <path d="M236 91.2c0.2-0.8 0.3-1.4 0.3-1.7 0-1.1-0.8-1.4-2.5-1.4h-1.7l0.5-1.2 7.6-0.5c0 2-0.6 4-1.5 6.5l-0.8 2.3 0.5 0.2c2.9-5.7 5.7-9.3 8.5-9.3 1.4 0 3.1 0.6 3.1 2.8 0 1.9-1.2 3-2.5 3 -0.9 0-2-0.6-2.3-1.9 -0.2-0.6-0.3-0.8-0.6-0.8 -1.9 0-6.8 7.6-8.5 13.7l-1.9 6.1h-3.7L236 91.2z"/>
    <path d="M250.4 101.8c0-8.7 6.2-15.4 11.3-15.4 3.3 0 4.6 1.9 5.7 5h0.3l1.1-5.1 1.9-6.7c0.3-0.8 0.3-1.4 0.3-1.9 0-1.1-0.8-1.2-2.5-1.2h-1.7l0.5-1.4 8.5-0.8 -8.1 28.3c-0.3 0.8-0.8 2.5-0.8 3.4 0 1.1 0.5 1.6 1.1 1.6 1.1 0 2.3-1.2 4.5-4.8l0.8 0.6c-2 3.9-4 6.1-6.7 6.1 -2 0-2.9-1.1-2.9-3.1 0-0.8 0.2-1.9 0.3-2.5h-0.3c-2.2 3.3-4.6 5.7-7.6 5.7C252.7 109.5 250.4 106.9 250.4 101.8M266.2 93.7c0-3.4-1.4-5.4-3.9-5.4 -4 0-7.9 6.1-7.9 14.3 0 3.4 1.1 5 2.8 5C260.8 107.5 266.2 100.5 266.2 93.7"/>
    <path d="M274.3 104.4c0-1.7 1.2-2.8 2.5-2.8s2.6 0.8 2.6 2.3c0 1.9-1.4 1.9-1.4 2.6 0 0.9 2 1.9 4 1.9 2.9 0 5.1-1.6 5.1-4.2 0-2.6-1.2-3.4-4.6-5.3 -2.5-1.4-4.5-3.1-4.5-6.2 0-3.6 2.9-6.7 7.6-6.7 4 0 6.7 2.2 6.7 4.4 0 1.4-0.9 2.6-2.5 2.6 -1.1 0-2.3-0.8-2.3-2 0-1.4 1.1-1.7 1.1-2.2 0-0.6-1.4-1.4-3.4-1.4 -2.5 0-4.3 1.2-4.3 3.7 0 2.2 1.2 3.1 4 4.8 2.6 1.6 5.3 3.4 5.3 6.8 0 4.2-3.9 7-8.4 7C277.4 109.8 274.3 107 274.3 104.4"/>
    <path d="M297.2 86.9c1.5 0 2.8 1.2 2.8 2.6 0 1.6-1.2 2.6-2.8 2.6 -1.5 0-2.8-1.2-2.8-2.6S295.7 86.9 297.2 86.9L297.2 86.9zM297.2 87.5c-1.2 0-2 0.9-2 2.2 0 1.2 0.9 2.2 2 2.2 1.2 0 2-0.9 2-2.2C299.2 88.4 298.5 87.5 297.2 87.5L297.2 87.5zM296.7 90.9h-0.6v-2.6c0.3 0 0.6-0.2 1.1-0.2 0.5 0 0.8 0.2 0.9 0.2 0.2 0.2 0.3 0.3 0.3 0.6 0 0.3-0.2 0.5-0.6 0.6l0 0c0.3 0.2 0.5 0.3 0.5 0.6 0.2 0.5 0.2 0.6 0.2 0.6h-0.6c-0.2-0.2-0.2-0.3-0.2-0.6 0-0.3-0.2-0.5-0.6-0.5h-0.3L296.7 90.9 296.7 90.9zM296.7 89.5h0.3c0.3 0 0.6-0.2 0.6-0.5 0-0.3-0.2-0.5-0.6-0.5 -0.2 0-0.3 0-0.3 0V89.5z"/>
    <path d="M106.1 10.9c4.6 0 7.7 2.8 7.7 7.1 0 2.3-0.8 4.4-2.3 6.7l-0.2 0.3h0.2c0.2 0 0.3 0 0.5 0s0.3 0 0.3 0c1.5 0 2.6-0.6 3.6-1.2 2.3-1.6 3.6-3.6 3.6-5.7 0-5-5.1-8.5-12.2-8.5 -5.9 0-11.6 2.5-15.8 7.1 -4.3 4.5-6.5 10.3-7.6 19.7 -0.3 3.1-0.6 5.9-0.9 8.7 -0.6 6.7-1.1 13.7-3.4 20 -2.2 5.6-6.4 10.6-12.1 12.7 -6.2 2.3-15.5 1.6-20.5-2.2 -4.5-3.3-7.3-8.7-7-14.3 0.2-4.7 2.3-9.9 6-12.9 3.6-2.8 8.8-4.4 12.7-1.7 0.5 0.3 1.9 1.6 2 2.5 0 0.2 0 0.3 0 0.5 -1.1 1.4-1.5 3.6-0.2 5.1 0.8 0.8 1.9 1.2 2.9 1.2s2-0.5 2.8-1.2c0.9-1.1 1.2-2.5 0.9-4 -0.6-2.8-3.3-5.7-6.2-7.1 -6-2.8-13.8-0.5-18.1 4.5 -4.6 5.4-6 13.7-3.3 20.5 0.8 1.7 1.9 3.6 3.1 5 4.3 5.1 11 7.8 17.7 7.6 5.6-0.2 11-1.7 15.5-4.7 1.2-0.8 2.3-1.7 3.4-2.8 1.4-1.4 2.8-3.1 3.9-4.8 1.1-1.9 2-3.7 2.8-5.7 1.4-3.7 2.2-7.8 2.6-11.7 0.3-2.6 0.5-5.1 0.8-7.8 0-0.9 0.2-1.9 0.2-2.8 0.6-8.1 1.1-14.9 4.3-21C97.2 14.3 101.7 10.9 106.1 10.9"/>
    <path d="M261.7 63.7c-7.6 11-13.9 16.3-18 16.3 -1.7 0-2.8-0.9-3.1-2.5 -0.5-1.1 0-3 0-3l14.3-32h-6.5l-3.3 6.7c-1.7-4.8-5-7.5-9-7.5 -5.4 0-12.6 3.6-18.1 10.6 -4.6 5.7-6.8 12.3-7.1 17.1 -5.7 6.8-10.7 9.9-13.9 9.9 -2 0-3.3-0.8-3.6-2.5 -0.5-2.6 1.5-6.7 4.8-13.2 4-7.9 7.7-12.3 7-17.2 -0.6-3.1-3.9-5.7-7.9-5.7 -7.4 0-14.7 6.5-22.3 19.6l3.1-6.8 0 0c1.4-2.8 2-5.1 1.7-7.5 -0.5-2.8-3.6-5.3-7.3-5.3 -7.3 0-14.4 6.1-21.5 18.2l7.4-16.6h-6.5l-3.6 8.1c-4.6 4.5-8.7 6.1-11.5 5.6 -2.9-0.6-4-3-4.6-4.4l0 0 0 0c-2.8-6.7-4.5-11.2-10.8-11.2 -3.9 0-9.1 1.9-13.6 5.4 -9.6 7.9-13.6 16.8-12.2 24.5 1.2 6.8 4.8 10.4 10.8 10.4 5.1 0 11.5-3 17-8.7 5.4-5.7 8.1-12.1 8.2-19.7 0.6 1.4 2 4 5.3 4.7 0.3 0 0.8 0.2 1.1 0.2 2.6 0 5.9-1.2 9.6-4.4l-12.2 27.3h6.5l5.4-12.1c7.7-15.4 18.6-25.9 24.6-25.9 1.4 0 2.9 1.1 3.1 2.5 0.2 0.6 0 2-0.8 3.9l-14.1 31.7h6.5l7.7-17.6 0.2-0.3c7.6-13.4 16.4-20.2 22.2-20.2 1.5 0 2.9 1.2 3.3 2.5 0.3 1.9-1.4 5.1-4.3 10.7 -4.6 8.4-7.9 14-7.1 18.8 0.8 4 3.9 6.7 7.4 6.7 4.5 0 9.6-3.1 15.2-9.5 0 0.5 0 0.8 0.2 1.2 0.9 5.3 4.3 8.4 8.7 8.4 4.6 0 11.9-3.9 17.4-12.9l0.5 0.3c-1.5 3-2 5.4-1.7 7.5 0.6 3.3 3.6 5.6 7 5.6 5 0 12.1-5.7 20.1-17.7H261.7zM120.4 69.1c-4 7.5-9 10.9-12.2 10.9 -2.9 0-5.6-2.5-6.4-6.5 -0.9-5.4 1.2-14.3 7.4-23.6 3.6-5.3 7.4-7.8 10.5-7.8 2.6 0 5 2.2 5.6 5.9C126.1 52.5 124.9 60.6 120.4 69.1M234.1 70.7c-4 5.4-8.2 7.9-11 7.9 -2.6 0-4.5-1.9-5.1-5.1 -0.8-4.2 0.3-11.2 3.9-17.7 4.8-8.7 11.2-13.1 14.4-13.1 2.6 0 4.8 2 5.4 5.7C242.8 54.4 240.3 62.3 234.1 70.7"/>
    <path d="M0 33.4c0-0.9 0.3-1.9 0.6-3.4L7.7 5.4C7.9 4.7 8.1 4 8.1 3.6c0-1.1-0.8-1.4-2.6-1.4H3.9l0.5-1.4L13 0 4.6 29.5c-0.5 1.6-0.8 3-0.8 3.7C3.9 34.5 4.2 35 5 35c0.9 0 2.5-1.4 5-5l0.8 0.6c-2.3 4-4.5 6.4-7.3 6.4C1.1 36.8 0 35.6 0 33.4"/>
    <path d="M13.2 27.8c0-7.9 6.5-15.5 13.2-15.5 5.1 0 7.7 4.2 7.7 9.6 0 7.9-6.5 15.5-13.2 15.5C15.8 37.4 13.2 33.1 13.2 27.8M29.9 19c0-3.9-1.5-5.4-3.4-5.4 -5.1 0-9.3 9-9.3 17.1 0 3.9 1.5 5.4 3.4 5.4C25.7 36.2 29.9 27.2 29.9 19"/>
    <path d="M38.4 31.2c0-1.4 0.6-4.7 1.4-7.5l1.9-6.1c0.3-0.8 0.3-1.4 0.3-1.9 0-1.1-0.8-1.4-2.6-1.4h-1.7l0.5-1.4 8.5-0.5c0 1.7-0.6 4.2-1.5 7L44 23.3c-0.8 2.6-1.5 6.1-1.5 7.8 0 2.6 0.9 4 3.3 4 3.7 0 10.1-8.2 10.1-14.3 0-1.4-0.6-2.5-1.7-3.6 -0.9-0.9-1.4-1.7-1.4-2.8 0-1.2 0.9-2.3 2.3-2.3 2.3 0 3.3 2.2 3.3 5 0 8.9-7.6 20.2-13.9 20.2C40.6 37.4 38.4 35.4 38.4 31.2"/>
    <path d="M63.7 28.6c0 4.2 1.9 6.7 4.5 6.7 3.1 0 5.4-1.2 8.4-4.4l0.6 0.6c-3.1 3.9-6.2 6.1-10.2 6.1 -4.3 0-7.4-3.1-7.4-9.2 0-6.8 6.4-16 13.9-16 3.3 0 5.4 1.9 5.4 5 0 4.5-4.6 8.1-15.2 9.8C63.7 27.5 63.7 28 63.7 28.6M74.7 17.2c0-2.3-1.1-3.6-2.5-3.6 -2.9 0-7.3 5.3-8.4 12.1C72.5 24.1 74.7 21.8 74.7 17.2"/>
  </g>
</svg>